<svg xmlns="http://www.w3.org/2000/svg" width="46.834" height="46.834" viewBox="0 0 46.834 46.834">
    <path fill="#2867b2" d="M43.489 2.25H3.335A3.36 3.36 0 0 0 0 5.627v40.081a3.36 3.36 0 0 0 3.335 3.377h40.154a3.369 3.369 0 0 0 3.345-3.377V5.627a3.369 3.369 0 0 0-3.345-3.377zM14.155 42.394H7.213V20.043h6.952v22.351zm-3.471-25.4a4.025 4.025 0 1 1 4.025-4.025 4.027 4.027 0 0 1-4.025 4.021zm29.491 25.4h-6.941V31.521c0-2.593-.052-5.927-3.607-5.927-3.617 0-4.171 2.823-4.171 5.739v11.06h-6.942v-22.35h6.659V23.1h.094a7.311 7.311 0 0 1 6.576-3.607c7.025 0 8.332 4.631 8.332 10.653z" transform="translate(0 -2.25)"/>
</svg>
