<svg xmlns="http://www.w3.org/2000/svg" width="47" height="47" viewBox="0 0 47 47">
    <g>
        <rect width="47" height="47" fill="#12100e" rx="5"/>
        <path fill="#f6f6f6" d="M34.718 49.078a1.214 1.214 0 0 0-.4-1.024L31.4 44.527V44h9.089l7.021 15.408L53.687 44h8.665v.527l-2.5 2.4a.731.731 0 0 0-.278.7v17.634a.731.731 0 0 0 .278.7l2.444 2.4v.527H50v-.527l2.532-2.458c.249-.249.249-.322.249-.7V50.951l-7.04 17.881h-.951l-8.2-17.881v11.984a1.653 1.653 0 0 0 .454 1.375l3.294 3.99v.527H31V68.3l3.293-3.995a1.6 1.6 0 0 0 .424-1.375z" transform="translate(-23.581 -33.47)"/>
    </g>
</svg>
