<svg xmlns="http://www.w3.org/2000/svg" width="46.834" height="46.834" viewBox="0 0 46.834 46.834">
    <defs>
        <linearGradient id="e2nq5tngma" x1=".5" x2=".5" y2="1" gradientUnits="objectBoundingBox">
            <stop offset="0" stop-color="#30a8db"/>
            <stop offset="1" stop-color="#2098ca"/>
        </linearGradient>
        <linearGradient id="whvl4ifbwb" x1=".66" x2=".851" y1=".437" y2=".802" gradientUnits="objectBoundingBox">
            <stop offset="0" stop-color="#eff7fc"/>
            <stop offset="1" stop-color="#fff"/>
        </linearGradient>
    </defs>
    <g transform="translate(-1256 -1946)">
        <rect width="46.834" height="46.834" fill="url(#e2nq5tngma)" rx="5" transform="translate(1256 1946)"/>
        <g>
            <path fill="#c8daea" d="M85.339 99.828c-.811 0-.674-.306-.953-1.079L82 90.9 100.367 80" transform="translate(1217.081 1885.82) translate(-26.177 -6.188)"/>
            <path fill="#a9c9dd" d="M98 150.792a1.6 1.6 0 0 0 1.252-.626l3.339-3.247-4.166-2.512" transform="translate(1217.081 1885.82) translate(-38.837 -57.152)"/>
            <path fill="url(#whvl4ifbwb)" d="M59.589 87.256l10.094 7.457c1.152.636 1.983.306 2.27-1.069l4.109-19.361c.421-1.686-.643-2.452-1.745-1.951l-24.126 9.3c-1.647.661-1.637 1.579-.3 1.989l6.191 1.932 14.333-9.043c.677-.41 1.3-.19.788.263" transform="translate(1217.081 1885.82)"/>
        </g>
    </g>
</svg>
