<svg xmlns="http://www.w3.org/2000/svg" id="Group_5" width="265.808" height="33.335" viewBox="0 0 265.808 33.335">
    <defs>
        <style>
            .cls-1{fill:#f0b90b}
        </style>
    </defs>
    <path id="Path_848" d="M617.757 556.383V537.9c.286-.137.46-.294.631-.291a101.741 101.741 0 0 1 10.231.287 4.655 4.655 0 0 1 3.85 6.611 14.725 14.725 0 0 1-1.461 2.082 3.715 3.715 0 0 0 .619.577c2.043 1.178 2.475 3.051 2.163 5.17a4.483 4.483 0 0 1-3.518 3.709 9.839 9.839 0 0 1-2.577.512c-2.933.065-5.868.035-8.8.024a7.43 7.43 0 0 1-1.138-.198zm4.457-7.346v3.553c2 0 3.851.079 5.686-.032a1.558 1.558 0 0 0 1.5-1.817 1.576 1.576 0 0 0-1.521-1.672c-1.834-.106-3.679-.032-5.665-.032zm0-7.773v3.723c1.7 0 3.245.071 4.779-.028a1.533 1.533 0 0 0 1.46-1.563 1.467 1.467 0 0 0-1.328-1.651c-1.567-.236-3.153-.318-4.915-.482z" class="cls-1" transform="translate(-575.857 -530.391)"/>
    <path id="Path_849" d="M819.73 556.026c-2.591.726-3.484.448-4.917-1.435q-3.283-4.314-6.572-8.623c-.2-.265-.423-.516-.634-.773l-.336.04v10.935h-4.29v-18.5c2.092-.95 3.767-.573 5.04 1.1q3.106 4.079 6.21 8.161c.286.376.607.725.912 1.087l.333-.05v-10.557h4.253z" class="cls-1" transform="translate(-688.394 -530.113)"/>
    <path id="Path_850" d="M707.111 547.994v-10.608h4.045v18.548c-2.139.852-3.441.51-4.73-1.189q-3.321-4.377-6.655-8.745c-.228-.3-.5-.561-.759-.841l-.34.052v10.949h-3.823c-.478-1.113-.574-17.079-.136-18.637 2.335-.8 3.5-.465 4.932 1.408q3.066 4.019 6.129 8.041c.292.381.616.737.925 1.105z" class="cls-1" transform="translate(-622.443 -530.093)"/>
    <path id="Path_851" d="M912.983 552.58h9.742v3.735c-4.712.242-9.367.064-14.183.1v-18.689c1.168-.492 12.528-.543 14.128-.021v3.717h-9.7v3.456h8.5v3.876h-8.486z" class="cls-1" transform="translate(-752.529 -530.223)"/>
    <path id="Path_852" d="M1163.1 556.13c-1.6.45-2.748.356-3.757-1.005-2.5-3.375-5.133-6.654-7.715-9.969a4.809 4.809 0 0 0-1.381-1.3V556.2h-3.439v-18.548c1.974-.724 2.9-.514 4.036.934q3.9 4.956 7.766 9.931c.289.37.6.724.9 1.086l.339-.083v-12.05h3.251z" class="cls-1" transform="translate(-897.291 -530.171)"/>
    <path id="Path_853" d="M764.646 556.5H760.1l-1.739-3.908h-7.75l-1.715 3.868h-4.432l8.011-18.831h4.121zm-7.967-8.228l-2.042-4.866-.389.054-1.889 4.812z" class="cls-1" transform="translate(-652.837 -530.402)"/>
    <path id="Path_854" d="M870.782 550.482l2.238 2.191c-1.543 2.816-5.968 4.341-9.749 3.537a9.543 9.543 0 0 1-7.635-8.094c-.477-4.914 1.768-8.9 5.864-10.593 4.213-1.745 9.549-.257 11.4 2.378l-2.641 3.015c-1.848-1.444-3.665-2.457-5.937-1.969a5.264 5.264 0 0 0-3.079 2.11 6.289 6.289 0 0 0 .3 7.5 4.483 4.483 0 0 0 4.472 1.638 36.079 36.079 0 0 0 4.767-1.713z" class="cls-1" transform="translate(-720.347 -529.88)"/>
    <path id="Path_855" d="M1035.856 548.933h-8.539v7.667h-3.447v-18.755h3.344v7.543c2.934.279 5.625.112 8.567.117v-7.633h3.458v18.693h-3.383z" class="cls-1" transform="translate(-822.599 -530.534)"/>
    <path id="Path_856" d="M1085.707 556.441l-1.97-4.286c-2.7 0-5.382-.049-8.06.052-.4.015-.9.667-1.145 1.133-.526.98-.917 2.032-1.369 3.067h-3.631l8.241-18.865h3.348l8.276 18.9zm-3.322-7.7l-2.8-6.387h-.421l-2.684 6.384z" class="cls-1" transform="translate(-850.341 -530.349)"/>
    <path id="Path_857" d="M549.021 529.385l-3.655 3.88-6.537-6.433-6.583 6.415-3.59-3.915 10.123-10.119z" class="cls-1" transform="translate(-521.722 -519.214)"/>
    <path id="Path_858" d="M538.387 582.528l-10.241-10.208 3.9-3.764 6.552 6.486 6.534-6.486 3.428 3.8z" class="cls-1" transform="translate(-521.412 -549.193)"/>
    <path id="Path_859" d="M989.5 552.56c-1.817 3-6.516 4.509-10.086 3.548a9.873 9.873 0 0 1-.655-18.9c3.827-1.252 8.615-.024 10.529 2.79l-2.079 2.191c-5-2.711-7.821-2.671-9.974.047a7.121 7.121 0 0 0 .315 8.92c2.386 2.6 5.257 2.526 10.119-.579z" class="cls-1" transform="translate(-791.119 -529.849)"/>
    <path id="Path_860" d="M670.192 537.8h3.873c.533 1.189.613 17.187.083 18.782h-3.956z" class="cls-1" transform="translate(-607.715 -530.507)"/>
    <path id="Path_861" d="M1129.914 556.637h-3.27v-18.746h3.27z" class="cls-1" transform="translate(-885.041 -530.562)"/>
    <path id="Path_862" d="M510.987 555.375l3.8-3.637 3.975 3.964-3.937 3.484z" class="cls-1" transform="translate(-510.987 -538.975)"/>
    <path id="Path_863" d="M548.941 558.894l-3.534-3.374 3.549-4.1 3.949 3.842z" class="cls-1" transform="translate(-531.9 -538.781)"/>
    <path id="Path_864" d="M582.9 552.887l3.76 3.442-4.041 3.712-3.471-3.555z" class="cls-1" transform="translate(-552.401 -539.673)"/>
</svg>
