<svg xmlns="http://www.w3.org/2000/svg" width="192.955" height="20.238" viewBox="0 0 192.955 20.238">
    <g>
        <g>
            <path d="M76.506 310.185v-16.434h3.088l5.017 7.783 5.017-7.783h3.088v16.435h-2.895v-11.772l-5.242 7.751h-.1l-5.146-7.687v11.739h-2.83zm23.575.257c-2.316 0-4.406-1.351-4.406-3.827v-.032c0-2.669 2.091-3.988 5.114-3.988a10.91 10.91 0 0 1 3.345.515v-.289c0-1.769-1.094-2.7-3.088-2.7a8.4 8.4 0 0 0-3.538.772l-.74-2.219a10.532 10.532 0 0 1 4.663-1 5.524 5.524 0 0 1 4.117 1.383 5.244 5.244 0 0 1 1.351 3.827v7.365h-2.766v-1.544a5.27 5.27 0 0 1-4.052 1.738zm.8-2.058c1.865 0 3.313-1.093 3.313-2.669v-.836a7.854 7.854 0 0 0-2.83-.482c-1.833 0-2.927.772-2.927 2.058v.032c.036 1.222 1.097 1.897 2.448 1.897zm13.411 2.026c-2.091 0-3.57-.9-3.57-3.634v-6.529h-1.572V297.8h1.576v-3.409h2.83v3.409h3.344v2.444h-3.345v6.079a1.354 1.354 0 0 0 1.512 1.544 3.77 3.77 0 0 0 1.769-.418v2.316a4.571 4.571 0 0 1-2.536.646zm5.468-.225v-17.142h2.83v6.657a4.492 4.492 0 0 1 3.859-2.155c2.8 0 4.406 1.865 4.406 4.728v7.912h-2.83v-7.043c0-1.93-.965-3.023-2.669-3.023a2.77 2.77 0 0 0-2.8 3.088v7.011h-2.8zm26.308.129l-5.725-16.563h3.12l3.924 12.189 4.052-12.221h2.444l4.052 12.221 3.924-12.189h3.023l-5.725 16.563h-2.509l-4.052-11.8-4.052 11.8zm23.317.129c-2.316 0-4.406-1.351-4.406-3.827v-.032c0-2.669 2.091-3.988 5.114-3.988a10.91 10.91 0 0 1 3.345.515v-.289c0-1.769-1.094-2.7-3.088-2.7a8.4 8.4 0 0 0-3.538.772l-.74-2.219a10.532 10.532 0 0 1 4.663-1 5.524 5.524 0 0 1 4.117 1.383 5.244 5.244 0 0 1 1.351 3.827v7.365h-2.766v-1.544a5.323 5.323 0 0 1-4.048 1.737zm.772-2.058c1.865 0 3.313-1.093 3.313-2.669v-.836a7.855 7.855 0 0 0-2.83-.482c-1.833 0-2.927.772-2.927 2.058v.032c.036 1.221 1.098 1.896 2.448 1.896zm9.552 1.8v-17.142h2.83v17.142zm6.69 0v-17.142h2.83v17.142zm12.189.289a6.183 6.183 0 0 1-6.368-6.432v-.032a6.16 6.16 0 0 1 6.046-6.465c3.956 0 5.95 3.088 5.95 6.658 0 .257-.032.515-.032.8h-9.1a3.45 3.45 0 0 0 3.57 3.152A4.438 4.438 0 0 0 202 306.68l1.672 1.479a6.28 6.28 0 0 1-5.08 2.316zm-3.57-7.365h6.368c-.193-1.833-1.254-3.248-3.152-3.248-1.734 0-2.954 1.351-3.212 3.249zm16.177 7.3c-2.091 0-3.57-.9-3.57-3.634v-6.529h-1.576V297.8h1.576v-3.409h2.83v3.409h3.345v2.444h-3.34v6.079a1.354 1.354 0 0 0 1.512 1.544 3.77 3.77 0 0 0 1.769-.418v2.316a4.571 4.571 0 0 1-2.541.646zM53.768 299.218a2.365 2.365 0 1 1 3.345 0 2.349 2.349 0 0 1-3.345 0zm-7.912 7.944a1.774 1.774 0 1 1 2.509 0 1.806 1.806 0 0 1-2.509 0zm12.511-4.181a1.774 1.774 0 1 1 2.509 0 1.748 1.748 0 0 1-2.509 0zm-4.181 4.181a1.774 1.774 0 1 1 2.509 0 1.806 1.806 0 0 1-2.509 0zm8.78-.418a1.183 1.183 0 1 1 1.672 0 1.2 1.2 0 0 1-1.672 0zm-4.181 4.181a1.183 1.183 0 1 1 1.672 0 1.2 1.2 0 0 1-1.672 0zm-9.2-7.526a2.365 2.365 0 1 1 3.345 0 2.349 2.349 0 0 1-3.343.001zm0-8.33a2.365 2.365 0 1 1 3.345 0 2.408 2.408 0 0 1-3.343 0zm-4.149 4.149a2.365 2.365 0 1 1 3.345 0 2.349 2.349 0 0 1-3.343 0zm-8.394 0a2.365 2.365 0 1 1 3.345 0 2.349 2.349 0 0 1-3.344 0zm-7.942 7.944a1.774 1.774 0 1 1 2.509 0 1.806 1.806 0 0 1-2.509 0zm12.543-4.181a1.774 1.774 0 1 1 2.509 0 1.748 1.748 0 0 1-2.509 0zm-4.181 4.181a1.774 1.774 0 1 1 2.509 0 1.806 1.806 0 0 1-2.509 0zm-16.274-.418a1.183 1.183 0 1 1 1.672 0 1.2 1.2 0 0 1-1.672 0zm4.181 4.181a1.183 1.183 0 1 1 1.672 0 1.2 1.2 0 0 1-1.672 0zm16.692 0a1.183 1.183 0 1 1 1.672 0 1.2 1.2 0 0 1-1.672 0zm-17.11-7.944a1.774 1.774 0 1 1 2.509 0 1.748 1.748 0 0 1-2.509 0zm7.912.418a2.365 2.365 0 1 1 3.345 0 2.349 2.349 0 0 1-3.346.001zm0-8.33a2.365 2.365 0 1 1 3.345 0 2.408 2.408 0 0 1-3.346 0zm-4.181 4.149a2.365 2.365 0 1 1 3.345 0 2.349 2.349 0 0 1-3.346 0z" transform="translate(0 0) translate(0 0) translate(-20.85 -291.025)"/>
        </g>
    </g>
</svg>
