<svg xmlns="http://www.w3.org/2000/svg" width="182.369" height="34.335" viewBox="0 0 182.369 34.335">
    <defs>
        <style>
            .cls-1{fill:#161616}.cls-11,.cls-3,.cls-4,.cls-5,.cls-6,.cls-7,.cls-8{stroke-linecap:round;stroke-linejoin:round}.cls-3{fill:#e27625;stroke:#e27625}.cls-4{fill:#d5bfb2;stroke:#d5bfb2}.cls-5{fill:#233447;stroke:#233447}.cls-6{fill:#cc6228;stroke:#cc6228}.cls-7{fill:#e27525;stroke:#e27525}.cls-8{fill:#f5841f;stroke:#f5841f}.cls-11{fill:#763e1a;stroke:#763e1a}
        </style>
    </defs>
    <g id="Group_14" transform="translate(0.5 0.5)">
        <g id="Group_7" transform="translate(50.017 8.32)">
            <path id="Path_881" d="M1103.264 68.345c-.944-.625-1.986-1.069-2.972-1.625a12.726 12.726 0 0 1-1.875-1.139 1.9 1.9 0 0 1 .236-2.972c1.417-.944 3.764-.417 4.014 1.514a.078.078 0 0 0 .083.069h2.139a.078.078 0 0 0 .083-.1 4.221 4.221 0 0 0-1.569-3.153 4.967 4.967 0 0 0-3.028-1.042c-5.653 0-6.167 5.986-3.125 7.875.347.222 3.334 1.722 4.389 2.375a2.171 2.171 0 0 1 .931 2.792 2.736 2.736 0 0 1-2.583 1.389 2.556 2.556 0 0 1-2.417-1.708 3.033 3.033 0 0 1-.083-.681.09.09 0 0 0-.083-.083h-2.32a.089.089 0 0 0-.083.083 3.721 3.721 0 0 0 1.556 3.459A5.575 5.575 0 0 0 1100 76.54c3.167 0 4.806-1.792 5.139-3.653a4.306 4.306 0 0 0-1.875-4.542z" class="cls-1" transform="translate(-992.634 -59.9)"/>
            <path id="Path_882" d="M367.917 62.1h-2.153a.094.094 0 0 0-.083.056l-1.9 6.278a.087.087 0 0 1-.167 0l-1.9-6.278a.076.076 0 0 0-.083-.056h-3.542a.09.09 0 0 0-.083.083v16.029a.09.09 0 0 0 .083.083h2.32a.09.09 0 0 0 .083-.083V66.031a.086.086 0 0 1 .167-.028l1.917 6.32.139.444a.076.076 0 0 0 .083.056h1.778a.094.094 0 0 0 .083-.056l.139-.444L366.709 66a.085.085 0 0 1 .167.028v12.184a.09.09 0 0 0 .083.083h2.32a.09.09 0 0 0 .083-.083V62.183a.09.09 0 0 0-.083-.083z" class="cls-1" transform="translate(-358 -61.794)"/>
            <path id="Path_883" d="M850.75 62.1a.094.094 0 0 0-.083.056l-1.9 6.278a.087.087 0 0 1-.167 0l-1.9-6.278a.076.076 0 0 0-.083-.056h-3.528a.09.09 0 0 0-.083.083v16.029a.09.09 0 0 0 .083.083h2.311a.09.09 0 0 0 .083-.083V66.031a.086.086 0 0 1 .167-.028l1.917 6.32.139.444a.076.076 0 0 0 .083.056h1.778a.094.094 0 0 0 .083-.056l.139-.444 1.92-6.323a.085.085 0 0 1 .167.028v12.184a.09.09 0 0 0 .083.083h2.32a.09.09 0 0 0 .083-.083V62.183a.09.09 0 0 0-.083-.083z" class="cls-1" transform="translate(-775.635 -61.794)"/>
            <path id="Path_884" d="M614.942 62.1h-10.959a.09.09 0 0 0-.083.083v2a.09.09 0 0 0 .083.083h4.236v13.946a.09.09 0 0 0 .083.083h2.32a.09.09 0 0 0 .083-.083V64.267h4.236a.09.09 0 0 0 .083-.083v-2a.08.08 0 0 0-.082-.084z" class="cls-1" transform="translate(-569.745 -61.794)"/>
            <path id="Path_885" d="M721.606 77.951h2.111a.089.089 0 0 0 .083-.111l-4.361-16.084a.076.076 0 0 0-.083-.056h-3.028a.094.094 0 0 0-.083.056l-4.362 16.084a.089.089 0 0 0 .083.111h2.111a.094.094 0 0 0 .083-.056l1.264-4.681a.076.076 0 0 1 .083-.056h4.667a.094.094 0 0 1 .083.056l1.264 4.681a.114.114 0 0 0 .085.056zm-5.542-7.084l1.695-6.264a.087.087 0 0 1 .167 0l1.695 6.264a.089.089 0 0 1-.083.111h-3.389a.089.089 0 0 1-.085-.111z" class="cls-1" transform="translate(-662.728 -61.45)"/>
            <path id="Path_886" d="M980.806 77.951h2.111a.089.089 0 0 0 .083-.111l-4.361-16.084a.076.076 0 0 0-.083-.056h-3.028a.094.094 0 0 0-.083.056l-4.362 16.084a.089.089 0 0 0 .083.111h2.111a.094.094 0 0 0 .083-.056l1.264-4.681a.076.076 0 0 1 .083-.056h4.667a.094.094 0 0 1 .083.056l1.264 4.681a.094.094 0 0 0 .085.056zm-5.542-7.084l1.695-6.264a.087.087 0 0 1 .167 0l1.694 6.264a.089.089 0 0 1-.083.111h-3.389a.089.089 0 0 1-.084-.111z" class="cls-1" transform="translate(-885.926 -61.45)"/>
            <path id="Path_887" d="M492.186 76.006v-4.972a.09.09 0 0 1 .083-.083h6.181a.09.09 0 0 0 .083-.083v-2a.09.09 0 0 0-.083-.083h-6.18a.09.09 0 0 1-.083-.083V64.45a.09.09 0 0 1 .083-.083h7.03a.09.09 0 0 0 .083-.083v-2a.09.09 0 0 0-.083-.083h-9.514a.09.09 0 0 0-.083.083V78.3a.09.09 0 0 0 .083.083h9.806a.09.09 0 0 0 .083-.083v-2.113a.09.09 0 0 0-.083-.083h-7.334a.093.093 0 0 1-.072-.098z" class="cls-1" transform="translate(-471.407 -61.881)"/>
            <path id="Path_888" d="M1228.825 78.242l-8.025-8.292a.085.085 0 0 1 0-.111l7.223-7.5a.08.08 0 0 0-.056-.139h-2.958a.073.073 0 0 0-.056.028l-6.125 6.361a.08.08 0 0 1-.139-.056v-6.25a.09.09 0 0 0-.083-.083h-2.32a.09.09 0 0 0-.083.083v16.029a.09.09 0 0 0 .083.083h2.32a.09.09 0 0 0 .083-.083v-7.056c0-.069.1-.111.139-.056l6.945 7.167a.105.105 0 0 0 .056.028h2.958c.052-.014.094-.111.038-.153z" class="cls-1" transform="translate(-1097 -61.881)"/>
        </g>
        <g id="Group_13" transform="translate(0)">
            <path id="Path_889" fill="#e17726" stroke="#e17726" stroke-linecap="round" stroke-linejoin="round" d="M156.842 0L142.8 10.417l2.611-6.139z" transform="translate(-122.674)"/>
            <g id="Group_8" transform="translate(0.292)">
                <path id="Path_890" d="M10.7 0l13.917 10.514-2.486-6.236z" class="cls-3" transform="translate(-9.214)"/>
                <path id="Path_891" d="M184.336 173.9l-3.736 5.723 8 2.208 2.292-7.806z" class="cls-3" transform="translate(-155.515 -149.746)"/>
                <path id="Path_892" d="M0 174.025l2.278 7.806 7.987-2.208-3.723-5.723z" class="cls-3" transform="translate(0 -149.746)"/>
                <path id="Path_893" d="M57.022 74.42L54.8 77.781l7.917.361-.264-8.542z" class="cls-3" transform="translate(-47.188 -59.933)"/>
                <path id="Path_894" d="M148.495 73.817l-5.514-4.917-.181 8.639 7.917-.361z" class="cls-3" transform="translate(-122.966 -59.33)"/>
                <path id="Path_895" d="M73.9 180.742l4.792-2.32-4.125-3.222z" class="cls-3" transform="translate(-63.636 -150.865)"/>
                <path id="Path_896" d="M146.2 178.422l4.778 2.32-.653-5.542z" class="cls-3" transform="translate(-125.893 -150.865)"/>
            </g>
            <g id="Group_9" transform="translate(10.556 27.557)">
                <path id="Path_897" d="M150.978 200.72l-4.778-2.32.389 3.111-.042 1.32z" class="cls-4" transform="translate(-136.158 -198.4)"/>
                <path id="Path_898" d="M73.9 200.72l4.445 2.111-.028-1.32.375-3.111z" class="cls-4" transform="translate(-73.9 -198.4)"/>
            </g>
            <path id="Path_899" d="M81.872 145.158l-3.972-1.166 2.806-1.292z" class="cls-5" transform="translate(-66.788 -122.88)"/>
            <path id="Path_900" d="M148.1 145.158l1.167-2.458 2.82 1.292z" class="cls-5" transform="translate(-127.238 -122.88)"/>
            <g id="Group_10" transform="translate(6.834 17.848)">
                <path id="Path_901" d="M50.822 179.622l.694-5.723-4.417.125z" class="cls-6" transform="translate(-47.1 -167.594)"/>
                <path id="Path_902" d="M175.7 173.9l.681 5.723 3.736-5.6z" class="cls-6" transform="translate(-157.838 -167.594)"/>
                <path id="Path_903" d="M150.717 128.5l-7.917.361.736 4.07 1.167-2.458 2.82 1.292z" class="cls-6" transform="translate(-129.508 -128.5)"/>
                <path id="Path_904" d="M58.008 131.764l2.806-1.292 1.167 2.458.736-4.07-7.917-.36z" class="cls-6" transform="translate(-53.73 -128.5)"/>
            </g>
            <g id="Group_11" transform="translate(7.903 17.848)">
                <path id="Path_905" d="M54.8 128.5l3.32 6.486-.111-3.222z" class="cls-7" transform="translate(-54.8 -128.5)"/>
                <path id="Path_906" d="M176.025 131.764l-.125 3.222 3.32-6.486z" class="cls-7" transform="translate(-159.08 -128.5)"/>
                <path id="Path_907" d="M107.236 131.1l-.736 4.07.931 4.806.208-6.334z" class="cls-7" transform="translate(-99.319 -130.739)"/>
                <path id="Path_908" d="M140.389 131.1l-.389 2.528.194 6.348.931-4.806z" class="cls-7" transform="translate(-128.166 -130.739)"/>
            </g>
            <path id="Path_909" d="M142.331 153.167l-.931 4.806.667.472 4.125-3.222.125-3.222z" class="cls-8" transform="translate(-121.468 -130.888)"/>
            <path id="Path_910" d="M77.9 152l.111 3.222 4.125 3.222.667-.472-.931-4.806z" class="cls-8" transform="translate(-66.788 -130.888)"/>
            <path id="Path_911" fill="#c0ac9d" stroke="#c0ac9d" stroke-linecap="round" stroke-linejoin="round" d="M84.289 217.211l.042-1.319-.361-.306h-5.306l-.347.306.028 1.319L73.9 215.1l1.556 1.278 3.153 2.181h5.4l3.167-2.181 1.544-1.278z" transform="translate(-63.344 -185.223)"/>
            <path id="Path_912" fill="#161616" stroke="#161616" stroke-linecap="round" stroke-linejoin="round" d="M111.325 195.472l-.667-.472h-3.917l-.667.472-.375 3.111.347-.306h5.306l.361.306z" transform="translate(-90.727 -167.915)"/>
            <g id="Group_12">
                <path id="Path_913" d="M160.367 11.1l1.181-5.75L159.77 0 146.2 10.07l5.222 4.417 7.378 2.153 1.625-1.9-.708-.514 1.123-1.026-.861-.667 1.125-.861z" class="cls-11" transform="translate(-125.602)"/>
                <path id="Path_914" d="M-2.1 5.348L-.905 11.1l-.764.569 1.139.861-.861.667 1.125 1.028-.708.514L.65 16.64l7.375-2.153 5.222-4.417L-.322 0z" class="cls-11" transform="translate(2.1)"/>
            </g>
            <path id="Path_915" d="M184.373 106.453L177 104.3l2.222 3.361-3.32 6.486 4.389-.056h6.556z" class="cls-8" transform="translate(-151.176 -89.813)"/>
            <path id="Path_916" d="M9.834 104.3l-7.375 2.153L0 114.092h6.542l4.389.056-3.32-6.486z" class="cls-8" transform="translate(0.292 -89.813)"/>
            <path id="Path_917" d="M99.917 44.731l.472-8.139 2.139-5.792H93l2.139 5.792.472 8.139.181 2.556.014 6.32h3.917l.014-6.32z" class="cls-8" transform="translate(-79.791 -26.522)"/>
        </g>
    </g>
</svg>
