<svg xmlns="http://www.w3.org/2000/svg" id="Group_6" width="216.562" height="33.335" viewBox="0 0 216.562 33.335">
    <defs>
        <style>
            .cls-3{fill:#1b1628}.cls-5{fill:#1b1528}.cls-11{fill:#643101}
        </style>
    </defs>
    <path id="Path_865" fill="#663405" d="M537.181 630.621a1.8 1.8 0 0 0 .292-.462 8.454 8.454 0 0 1 2.527-3.986 13.679 13.679 0 0 1 3.376-2.338c.3-.149.589-.307.927-.484-.135-.758-.26-1.5-.4-2.23-.256-1.342-.55-2.677-.776-4.023a4.407 4.407 0 0 1 3.276-5.2 4.455 4.455 0 0 1 5.3 3.008 5.772 5.772 0 0 1 .179 1.406c.022 1.486.008 2.972.008 4.459v.762h3.637c.015-.234.041-.45.041-.666 0-1.57.046-3.142-.008-4.711a4.409 4.409 0 1 1 8.806.346c-.1 1.05-.361 2.086-.553 3.127-.223 1.206-.451 2.411-.686 3.667.224.129.428.266.649.371a13.415 13.415 0 0 1 4.555 3.392 7.643 7.643 0 0 1 1.986 5.2c-.011.561-.021 1.122 0 1.683a8.212 8.212 0 0 1-2.916 6.595 16.663 16.663 0 0 1-7.072 3.707 18.7 18.7 0 0 1-3.877.7c-.06 0-.114.1-.17.149h-5.24c-.056-.053-.105-.144-.168-.155-.771-.126-1.55-.205-2.314-.364a18.27 18.27 0 0 1-7.473-3.2A9.216 9.216 0 0 1 537.34 636c-.014-.064-.1-.111-.159-.165zm1.378 2.379c-.008.476-.023.952-.024 1.428a6.241 6.241 0 0 0 1.016 3.386 10.356 10.356 0 0 0 3.746 3.405 20.822 20.822 0 0 0 9.267 2.51 22.763 22.763 0 0 0 5.925-.459 16.472 16.472 0 0 0 7.754-3.5 6.665 6.665 0 0 0 2.572-4.27c.095-.826.082-1.663.118-2.5a6.739 6.739 0 0 0-2.151-5.622 12.367 12.367 0 0 0-4.08-2.67c-.4-.166-.785-.386-1.14-.563.22-1.165.435-2.269.635-3.376.239-1.326.448-2.657.7-3.98a3 3 0 0 0-1.639-3.367 3.041 3.041 0 0 0-4.33 2.689c.089 2.043.02 4.092.02 6.139v.8c-1.13-.06-2.182-.16-3.233-.16s-2.092.1-3.182.158v-.508c0-1.99.008-3.981-.007-5.971a8.575 8.575 0 0 0-.147-1.143 2.993 2.993 0 0 0-4-2.109 2.948 2.948 0 0 0-1.917 2.847 15.14 15.14 0 0 0 .326 2.117c.262 1.4.554 2.8.812 4.206.1.562.148 1.135.219 1.7-.209.111-.349.2-.5.263a14.546 14.546 0 0 0-3.789 2.214 7.1 7.1 0 0 0-2.971 6.336z" transform="translate(-537.181 -611.762)"/>
    <path id="Path_866" fill="#1b1527" d="M781.227 671.823v1.63c0 .9.014 1.794-.007 2.69-.02.83-.352 1.171-1.187 1.194-.956.026-1.914.024-2.87 0-.834-.021-1.146-.357-1.186-1.194-.005-.112 0-.224 0-.336v-14.461c0-.168-.011-.338 0-.5a1.138 1.138 0 0 1 1.047-1.126 4.233 4.233 0 0 1 .674-.028c1.942 0 3.884-.005 5.826 0a11.635 11.635 0 0 1 3.653.5 4.942 4.942 0 0 1 3.525 4.272 8.443 8.443 0 0 1-.085 3.165 4.91 4.91 0 0 1-4.172 3.959 17.494 17.494 0 0 1-2.6.228c-.831.036-1.671.007-2.618.007zm.045-8.287v4.54c.83 0 1.616.037 2.4-.009a1.849 1.849 0 0 0 1.8-1.77 5.665 5.665 0 0 0 0-1.006 1.8 1.8 0 0 0-1.726-1.743c-.807-.057-1.621-.012-2.474-.012z" transform="translate(-735.575 -651.577)"/>
    <path id="Path_867" d="M1731.3 690.083a10.352 10.352 0 0 1 4.152-1.7 13.313 13.313 0 0 1 5.848.14 5.782 5.782 0 0 1 3.72 2.67 5.972 5.972 0 0 1 .732 2.3 8.03 8.03 0 0 1-.615 4.671 5.412 5.412 0 0 1-4.646 3.14 6.28 6.28 0 0 1-3.914-.629 5.886 5.886 0 0 0-.081.636c-.006 1.093 0 2.186 0 3.28a4.193 4.193 0 0 1-.009.588 1.017 1.017 0 0 1-1.115 1.015c-.984.028-1.97.031-2.955 0-.744-.024-1.04-.353-1.1-1.1-.012-.139-.009-.28-.009-.42v-14.211c-.008-.112-.008-.223-.008-.38zm5.174 1.854v2.3c0 .7.005 1.4.018 2.1a1.4 1.4 0 0 0 .627 1.214 2.143 2.143 0 0 0 2.985-.691 4.921 4.921 0 0 0 .142-3.893 1.651 1.651 0 0 0-.9-.946 3.737 3.737 0 0 0-2.868-.084z" class="cls-3" transform="translate(-1529.29 -675.211)"/>
    <path id="Path_868" d="M1422.921 670.711c.332.157.609.281.88.418a9.113 9.113 0 0 0 4.965.985 3.279 3.279 0 0 0 .893-.214 1.383 1.383 0 0 0 .4-2.237 3.361 3.361 0 0 0-.827-.563c-1.071-.481-2.18-.881-3.229-1.4a19.162 19.162 0 0 1-2.665-1.585 3.563 3.563 0 0 1-1.416-2.582c-.333-3.014 1.039-4.884 3.888-5.709a12.324 12.324 0 0 1 5.015-.228 10.549 10.549 0 0 1 2.918.741 8.883 8.883 0 0 1 1.234.713.6.6 0 0 1 .277.8 21.708 21.708 0 0 1-1.643 2.593c-.359-.176-.653-.316-.943-.466a6.29 6.29 0 0 0-4.233-.661c-.614.125-1.14.376-1.269 1.053a1.516 1.516 0 0 0 .691 1.673 6.305 6.305 0 0 0 .958.509c1.081.456 2.179.873 3.254 1.345a12.49 12.49 0 0 1 1.546.844 4.65 4.65 0 0 1 2.025 5.042c-.45 2.265-2.035 3.388-4.164 3.843a15.9 15.9 0 0 1-5.285.063 11.428 11.428 0 0 1-3.7-1.04 9.456 9.456 0 0 1-1.008-.6.549.549 0 0 1-.249-.731 16.042 16.042 0 0 1 1.687-2.606z" class="cls-3" transform="translate(-1271.626 -649.717)"/>
    <path id="Path_869" fill="#1d182a" d="M1246.221 669.6c.488-.608.855-1.056 1.21-1.512.706-.906 1.417-1.806 2.1-2.729a1.129 1.129 0 0 1 1-.494c1.267.01 2.535 0 3.8 0 .257 0 .529-.017.666.254a.71.71 0 0 1-.167.844q-1.31 1.481-2.609 2.971c-.588.674-1.169 1.353-1.75 2.026 1.471 1.724 2.91 3.409 4.346 5.1a2.4 2.4 0 0 1 .3.406c.248.464.043.849-.488.855-1.408.017-2.817-.006-4.225.007-.481 0-.689-.339-.919-.645-.691-.917-1.359-1.851-2.04-2.776-.362-.492-.733-.977-1.224-1.632v1.593c0 .7.016 1.4 0 2.1-.028.987-.358 1.329-1.317 1.349-.929.02-1.859.02-2.788 0-.836-.021-1.149-.347-1.207-1.182-.01-.14 0-.28 0-.421 0-4.768.018-9.536-.01-14.3-.009-1.528.6-1.775 1.733-1.75.7.015 1.408-.011 2.113.006 1.071.026 1.447.41 1.48 1.5.014.448 0 .9 0 1.346v7.084z" transform="translate(-1121.843 -651.558)"/>
    <path id="Path_870" d="M1514.178 690.568a4.591 4.591 0 0 1 .674-.123c1.071-.01 2.141-.014 3.211 0 .639.008.727.11.883.77.417 1.764.841 3.526 1.266 5.306.35-.063.323-.381.4-.583.475-1.221.918-2.455 1.38-3.682.24-.637.3-.674.98-.685.422-.007.845 0 1.267 0 .759.008.861.073 1.116.758.456 1.228.9 2.46 1.357 3.689.076.207.157.412.29.762l1.079-4.407c.113-.46.217-.923.34-1.381a.646.646 0 0 1 .652-.548c1.211 0 2.422 0 3.633.014.121 0 .241.11.431.2-.239.842-.46 1.668-.707 2.486q-1.321 4.363-2.656 8.722c-.057.187-.108.376-.179.557a.673.673 0 0 1-.643.463c-.958.01-1.915.005-2.873.006-.414 0-.585-.284-.707-.612-.391-1.045-.776-2.091-1.164-3.137l-.576-1.539c-.522 1.415-1.012 2.69-1.463 3.979-.543 1.55-.466 1.292-1.894 1.313-.563.008-1.127.01-1.69 0-.711-.015-.78-.058-1-.768-.738-2.427-1.463-4.857-2.192-7.286q-.529-1.762-1.053-3.525c-.058-.208-.091-.423-.162-.749z" class="cls-5" transform="translate(-1348.896 -677.127)"/>
    <path id="Path_871" d="M1647.411 689.686v10.022c0 .168.009.337-.006.5-.04.448-.181.646-.6.658q-1.56.045-3.122 0a.861.861 0 0 1-.524-.345 3.506 3.506 0 0 1-.342-.681.928.928 0 0 0-.234.107 4.743 4.743 0 0 1-2.464 1.186 7.864 7.864 0 0 1-3.1 0 4.727 4.727 0 0 1-3.723-3.591 8.227 8.227 0 0 1 0-4.395 6.358 6.358 0 0 1 4.363-4.519 11.778 11.778 0 0 1 9.752 1.058zm-4.882 2.187a2.853 2.853 0 0 0-3.944 1.511 4.828 4.828 0 0 0-.231 2.8 1.7 1.7 0 0 0 1.4 1.495 5.174 5.174 0 0 0 .925.038 1.806 1.806 0 0 0 1.858-1.934c-.037-1.283-.008-2.574-.008-3.91z" class="cls-5" transform="translate(-1447.615 -675.122)"/>
    <path id="Path_872" d="M1157.011 689.838v10.011q0 .294-.005.588a.491.491 0 0 1-.512.545c-1.068.016-2.138.026-3.205-.005a.864.864 0 0 1-.51-.352 3.748 3.748 0 0 1-.352-.667 10.156 10.156 0 0 1-1.208.787 7.015 7.015 0 0 1-5.163.331 4.66 4.66 0 0 1-3.184-3.6 8.087 8.087 0 0 1-.01-3.988 6.623 6.623 0 0 1 4.911-4.913 11.938 11.938 0 0 1 9.238 1.263zm-4.889 2.11a2.5 2.5 0 0 0-1.456-.221 2.566 2.566 0 0 0-2.376 1.589 4.6 4.6 0 0 0-.233 3.27 1.491 1.491 0 0 0 1.124 1.146 4.736 4.736 0 0 0 1.744-.011 1.465 1.465 0 0 0 1.189-1.527c.028-1.394.007-2.794.007-4.246z" class="cls-5" transform="translate(-1040.192 -675.233)"/>
    <path id="Path_873" d="M882.32 689.921V699.888c0 .2.008.394-.011.589-.04.409-.159.565-.573.575-1.041.026-2.084.027-3.126 0a.871.871 0 0 1-.524-.342 3.636 3.636 0 0 1-.358-.681 9.8 9.8 0 0 1-1.132.745 6.881 6.881 0 0 1-5.479.279 4.5 4.5 0 0 1-2.862-3.281 7.661 7.661 0 0 1 .645-6.005 6.847 6.847 0 0 1 4.453-3.188 11.994 11.994 0 0 1 8.967 1.342zm-4.89 2.1a2.863 2.863 0 0 0-3.8 1.288 4.433 4.433 0 0 0-.238 3.42 1.534 1.534 0 0 0 1.092 1.081 3.081 3.081 0 0 0 1.823-.054 1.518 1.518 0 0 0 1.12-1.5c.012-1.395.003-2.792.003-4.23z" class="cls-5" transform="translate(-811.974 -675.301)"/>
    <path id="Path_874" fill="#1c1629" d="M970.568 689.585c.5-.278.947-.564 1.424-.785a7 7 0 0 1 4.764-.427 3.879 3.879 0 0 1 3.031 3.685c.064 2.6.04 5.212.03 7.819a.978.978 0 0 1-1.093 1.1c-.984.027-1.97.031-2.955 0-.869-.026-1.2-.383-1.206-1.27-.012-1.99 0-3.98 0-5.97v-.589c-.025-.818-.319-1.256-.94-1.4a1.74 1.74 0 0 0-1.97.76 2.443 2.443 0 0 0-.16.976c-.014 1.934-.006 3.868-.007 5.8 0 1.442-.266 1.7-1.72 1.707-.7 0-1.408.006-2.111 0-1.161-.013-1.478-.336-1.484-1.524-.007-1.4 0-2.8 0-4.2v-5.465a4.48 4.48 0 0 1 .028-.668.591.591 0 0 1 .6-.582c1.013-.008 2.026-.014 3.039 0a.614.614 0 0 1 .648.542c.025.146.05.306.082.491z" transform="translate(-893.59 -675.22)"/>
    <path id="Path_875" fill="#1d1729" d="M1334.635 695.789a1.93 1.93 0 0 0 1.563 2.036 6.883 6.883 0 0 0 4.611-.334c.277-.127.557-.249.894-.4a13.7 13.7 0 0 1 1.416 2.427 2.555 2.555 0 0 1-1.409.993 12.273 12.273 0 0 1-7.986.213 5.933 5.933 0 0 1-4.1-5.485 8.915 8.915 0 0 1 .244-2.578 5.581 5.581 0 0 1 4.441-4.329 10.147 10.147 0 0 1 5.894.249 5.446 5.446 0 0 1 3.573 4.309 6.992 6.992 0 0 1 .149 1.581c-.025.931-.434 1.308-1.376 1.313-2.337.011-4.675 0-7.012 0zm4.582-2.658a1.8 1.8 0 0 0-.92-1.694 2.812 2.812 0 0 0-2.884.081 1.45 1.45 0 0 0-.738 1.613z" transform="translate(-1195.553 -675.116)"/>
    <path id="Path_876" fill="#1c1628" d="M1068.186 696.562a2.987 2.987 0 0 1 .371.4c.39.645.774 1.294 1.144 1.951.268.477.222.676-.242.975a7.021 7.021 0 0 1-2.474 1.018 11.95 11.95 0 0 1-6.868-.375 5.459 5.459 0 0 1-3.568-4.682 7.764 7.764 0 0 1 .114-2.919 5.81 5.81 0 0 1 3.557-4.184 10.7 10.7 0 0 1 8.039-.018 2.552 2.552 0 0 1 1.451 1.193l-1.6 2.756c-.346-.169-.619-.285-.877-.43a5.017 5.017 0 0 0-2.812-.7 2.665 2.665 0 0 0-2.619 2.183 4.215 4.215 0 0 0 .127 2.238 2.437 2.437 0 0 0 2.12 1.67 4.947 4.947 0 0 0 3.241-.632c.278-.167.585-.293.896-.444z" transform="translate(-968.616 -675.067)"/>
    <path id="Path_877" fill="#d0874f" d="M545.206 639.627a7.1 7.1 0 0 1 2.966-6.334 14.546 14.546 0 0 1 3.789-2.214c.152-.061.292-.152.5-.263-.071-.565-.116-1.138-.219-1.7-.258-1.4-.55-2.8-.812-4.205a15.128 15.128 0 0 1-.326-2.117 2.948 2.948 0 0 1 1.917-2.847 2.992 2.992 0 0 1 4 2.109 8.586 8.586 0 0 1 .147 1.143c.015 1.99.007 3.981.007 5.971v.508c1.091-.058 2.136-.158 3.182-.158s2.1.1 3.233.16v-.8c0-2.047.068-4.1-.02-6.139a3.041 3.041 0 0 1 4.33-2.689 3 3 0 0 1 1.639 3.367c-.254 1.323-.462 2.654-.7 3.98-.2 1.107-.415 2.211-.635 3.376.355.177.737.4 1.14.563a12.368 12.368 0 0 1 4.08 2.67 6.739 6.739 0 0 1 2.151 5.622c-.078.276-.143.556-.235.827a8.587 8.587 0 0 1-3.512 4.385 15.284 15.284 0 0 1-3.293 1.727 19.161 19.161 0 0 1-4.38 1.119 14.907 14.907 0 0 0-1.733.19 13.465 13.465 0 0 1-3.682.109 21.023 21.023 0 0 1-3.181-.475 18.1 18.1 0 0 1-4.16-1.283 15.539 15.539 0 0 1-3.246-1.993 8.872 8.872 0 0 1-2.27-2.722 12.365 12.365 0 0 1-.677-1.887zm7.586-1.53a2.68 2.68 0 0 0 .644 1.945 1.238 1.238 0 0 0 2.159-.032 3.267 3.267 0 0 0-.016-3.809 1.308 1.308 0 0 0-2.342.181 2.717 2.717 0 0 0-.446 1.718zm15.038.046a2.791 2.791 0 0 0-.67-2.04 1.247 1.247 0 0 0-2.163.1 3.284 3.284 0 0 0 .07 3.811 1.3 1.3 0 0 0 2.295-.185 2.732 2.732 0 0 0 .468-1.686z" transform="translate(-543.828 -618.39)"/>
    <path id="Path_878" fill="#fbd98d" d="M545.21 737.3a12.337 12.337 0 0 0 .682 1.886 8.871 8.871 0 0 0 2.27 2.722 15.542 15.542 0 0 0 3.246 1.993 18.119 18.119 0 0 0 4.16 1.283 21.015 21.015 0 0 0 3.181.475 13.458 13.458 0 0 0 3.682-.109 14.846 14.846 0 0 1 1.733-.19 19.167 19.167 0 0 0 4.38-1.119 15.3 15.3 0 0 0 3.293-1.727 8.588 8.588 0 0 0 3.512-4.385c.092-.271.157-.551.235-.827-.036.832-.024 1.67-.118 2.5a6.665 6.665 0 0 1-2.572 4.27 16.474 16.474 0 0 1-7.754 3.5 22.763 22.763 0 0 1-5.925.459 20.822 20.822 0 0 1-9.267-2.51 10.354 10.354 0 0 1-3.746-3.4 6.242 6.242 0 0 1-1.016-3.386c.001-.485.014-.961.024-1.435z" transform="translate(-543.832 -716.06)"/>
    <path id="Path_879" d="M590.1 715.778a2.716 2.716 0 0 1 .444-1.715 1.308 1.308 0 0 1 2.342-.181 3.267 3.267 0 0 1 .016 3.808 1.238 1.238 0 0 1-2.159.032 2.681 2.681 0 0 1-.643-1.944z" class="cls-11" transform="translate(-581.136 -696.071)"/>
    <path id="Path_880" d="M662.326 715.666a2.732 2.732 0 0 1-.468 1.69 1.3 1.3 0 0 1-2.295.184 3.284 3.284 0 0 1-.07-3.81 1.247 1.247 0 0 1 2.163-.1 2.792 2.792 0 0 1 .67 2.036z" class="cls-11" transform="translate(-638.324 -695.913)"/>
</svg>
