<svg xmlns="http://www.w3.org/2000/svg" id="Group_21" width="184.226" height="46.801" viewBox="0 0 184.226 46.801">
    <defs>
        <style>
            .cls-1{fill:#3375bb}.cls-2{fill:#fff}
        </style>
    </defs>
    <g id="Group_15" transform="translate(56.604 14.702)">
        <path id="Path_918" d="M177.682 111.2h-5.028v-2.96h13.692v2.96h-5.028v12.749h-3.636zm12.108 2.267a3.9 3.9 0 0 1 1.683-1.325 6.379 6.379 0 0 1 2.469-.449v3.233q-.583-.045-.786-.045a3.185 3.185 0 0 0-2.357.853 3.362 3.362 0 0 0-.853 2.514v5.7h-3.5v-12.071h3.345zm17.141-1.594v12.076h-3.322v-1.437a4.769 4.769 0 0 1-1.661 1.212 5.352 5.352 0 0 1-2.087.4 5.143 5.143 0 0 1-3.771-1.369 5.458 5.458 0 0 1-1.39-4.055v-6.824h3.5v6.308q0 2.918 2.447 2.918a2.649 2.649 0 0 0 2.02-.808 3.5 3.5 0 0 0 .763-2.447v-5.971zm5.96 12.256a12.083 12.083 0 0 1-2.941-.359 7.883 7.883 0 0 1-2.29-.943l1.167-2.514a7.589 7.589 0 0 0 1.953.853 8.452 8.452 0 0 0 2.245.314q2.222 0 2.222-1.1a.779.779 0 0 0-.606-.74 9 9 0 0 0-1.863-.382 18.025 18.025 0 0 1-2.447-.516 3.878 3.878 0 0 1-1.683-1.033 2.966 2.966 0 0 1-.7-2.11 3.3 3.3 0 0 1 .651-2.02 4.3 4.3 0 0 1 1.93-1.392 8.341 8.341 0 0 1 3.008-.494 11.178 11.178 0 0 1 2.536.292 6.932 6.932 0 0 1 2.11.763l-1.167 2.492a6.969 6.969 0 0 0-3.479-.9 3.544 3.544 0 0 0-1.683.314.924.924 0 0 0-.561.808.8.8 0 0 0 .606.786 10.771 10.771 0 0 0 1.93.427 18.967 18.967 0 0 1 2.424.539 3.553 3.553 0 0 1 1.639 1.01 2.9 2.9 0 0 1 .7 2.065 3.188 3.188 0 0 1-.673 2 4.37 4.37 0 0 1-1.975 1.369 8.839 8.839 0 0 1-3.052.475zm14.3-.763a3.746 3.746 0 0 1-1.28.584 6.667 6.667 0 0 1-1.571.18 4.743 4.743 0 0 1-3.344-1.1 4.231 4.231 0 0 1-1.167-3.232v-4.958h-1.859v-2.694h1.863v-2.94h3.5v2.94h3.008v2.694h-3.008v4.915a1.723 1.723 0 0 0 .382 1.19 1.517 1.517 0 0 0 1.122.4 2.25 2.25 0 0 0 1.414-.449zm29.624-15.129l-5.14 15.713h-3.906l-3.457-10.64-3.569 10.64h-3.883l-5.16-15.71h3.771l3.547 11.044 3.7-11.044h3.367l3.592 11.134 3.659-11.134zm4.408 3.457a6.248 6.248 0 0 1 4.31 1.347 5.074 5.074 0 0 1 1.5 4.018v6.891h-3.277v-1.5q-.987 1.684-3.681 1.684a5.789 5.789 0 0 1-2.424-.472 3.606 3.606 0 0 1-1.549-1.3 3.389 3.389 0 0 1-.539-1.886 3.157 3.157 0 0 1 1.257-2.648 6.515 6.515 0 0 1 3.928-.965h2.783a2.2 2.2 0 0 0-.7-1.751 3.026 3.026 0 0 0-2.087-.629 5.994 5.994 0 0 0-1.908.314 4.867 4.867 0 0 0-1.571.808l-1.257-2.447a7.6 7.6 0 0 1 2.357-1.077 10.719 10.719 0 0 1 2.863-.381zm-.269 10.078a3.116 3.116 0 0 0 1.594-.4 2.325 2.325 0 0 0 .987-1.234V118.9h-2.4q-2.154 0-2.155 1.414a1.3 1.3 0 0 0 .516 1.077 2.482 2.482 0 0 0 1.462.384zm7.905-14.477h3.5v16.655h-3.5zm5.4 0h3.5v16.655h-3.5zM291.5 117.96q0 .068-.067.943H282.3a2.846 2.846 0 0 0 1.167 1.773 3.868 3.868 0 0 0 2.29.651 4.717 4.717 0 0 0 1.661-.269 4.168 4.168 0 0 0 1.369-.9l1.863 2.02a6.261 6.261 0 0 1-4.983 1.953 7.979 7.979 0 0 1-3.614-.786 5.918 5.918 0 0 1-2.424-2.222 6.092 6.092 0 0 1-.853-3.21 6.176 6.176 0 0 1 .831-3.187 5.893 5.893 0 0 1 2.312-2.222 7.134 7.134 0 0 1 6.509-.045 5.48 5.48 0 0 1 2.245 2.2 6.4 6.4 0 0 1 .827 3.301zm-6.262-3.614a3.013 3.013 0 0 0-2 .674 2.865 2.865 0 0 0-.988 1.84h5.95a2.848 2.848 0 0 0-.988-1.818 2.922 2.922 0 0 0-1.972-.696zm15.035 9.023a3.748 3.748 0 0 1-1.279.584 6.67 6.67 0 0 1-1.571.18 4.744 4.744 0 0 1-3.345-1.1 4.231 4.231 0 0 1-1.167-3.232v-4.961h-1.861v-2.694h1.863v-2.94h3.5v2.94h3.008v2.694h-3.008v4.915a1.723 1.723 0 0 0 .381 1.19 1.517 1.517 0 0 0 1.122.4 2.251 2.251 0 0 0 1.414-.449z" class="cls-1" transform="translate(-172.654 -107.298)"/>
    </g>
    <g id="Group_18" transform="translate(0 0)">
        <g id="Group_16" transform="translate(0.243 0.243)">
            <path id="Rectangle_12" d="M23.158 0a23.158 23.158 0 0 1 23.158 23.158 23.158 23.158 0 0 1-23.158 23.158A23.158 23.158 0 0 1 0 23.158 23.158 23.158 0 0 1 23.158 0z" class="cls-2"/>
        </g>
        <g id="Group_17">
            <path id="Path_919" fill="#dfe5ec" d="M87.007 123.8H71.793A15.811 15.811 0 0 1 56 108.007V92.793A15.811 15.811 0 0 1 71.793 77h15.214A15.812 15.812 0 0 1 102.8 92.793v15.214A15.811 15.811 0 0 1 87.007 123.8zM71.793 77.485a15.325 15.325 0 0 0-15.308 15.308v15.214a15.325 15.325 0 0 0 15.308 15.308h15.214a15.326 15.326 0 0 0 15.309-15.308V92.793a15.326 15.326 0 0 0-15.309-15.308z" transform="translate(-56 -77)"/>
        </g>
    </g>
    <g id="Group_19" transform="translate(2.012 2.214)">
        <path id="Path_920" d="M60.146 103.083A21.521 21.521 0 1 1 81.667 124.6a21.521 21.521 0 0 1-21.521-21.517z" class="cls-2" transform="translate(-60.146 -81.562)"/>
    </g>
    <g id="Group_20" transform="translate(11.343 9.402)">
        <path id="Path_921" d="M91.578 125.042a1.468 1.468 0 0 1-.857-.276 36.484 36.484 0 0 0-4.166-2.54c-5.371-2.914-6.93-4.487-7.179-20.953a1.471 1.471 0 0 1 1.471-1.494h.244a14.224 14.224 0 0 0 9.545-3.062 1.47 1.47 0 0 1 1.886 0 14.233 14.233 0 0 0 9.558 3.062h.246a1.471 1.471 0 0 1 1.471 1.494c-.248 16.463-1.81 18.036-7.189 20.952a36.39 36.39 0 0 0-4.171 2.542 1.469 1.469 0 0 1-.859.275zm-9.233-22.335c.293 14.045 1.6 14.754 5.614 16.933 1.011.549 2.229 1.21 3.62 2.141 1.393-.932 2.612-1.593 3.626-2.143 4.023-2.181 5.33-2.89 5.622-16.93a16.973 16.973 0 0 1-9.249-3 16.943 16.943 0 0 1-9.233 2.999z" class="cls-1" transform="translate(-79.377 -96.376)"/>
    </g>
</svg>
