<svg xmlns="http://www.w3.org/2000/svg" width="192.955" height="31.441" viewBox="0 0 192.955 31.441">
    <g>
        <g>
            <path fill="#3999fa" d="M-87.151 34.432l-2.649 9.534h-2.76l-3.69-13.96h3.03l2.2 10.108h.076l2.608-10.108h2.467l2.608 10.108h.076l2.208-10.108h3.03l-3.7 13.96h-2.76l-2.651-9.534zm13.225 7.651a2.069 2.069 0 0 0 2.24-1.926V39.4l-2.186.13c-1.05.076-1.656.552-1.656 1.288 0 .789.639 1.265 1.602 1.265zm-.931 2.045a3.209 3.209 0 0 1-3.474-3.138c0-1.883 1.45-2.976 4.037-3.138l2.608-.152v-.682c0-.963-.682-1.526-1.742-1.526a1.69 1.69 0 0 0-1.861 1.288h-2.586c.108-2.013 1.818-3.4 4.567-3.4 2.662 0 4.394 1.374 4.394 3.463v7.132h-2.727v-1.589h-.059a3.577 3.577 0 0 1-3.157 1.743zm7.835-14.123h2.822v13.96h-2.825zm4.794 0h2.828v13.96h-2.825zm9.383 5.454a2.253 2.253 0 0 0-2.229 2.229h4.4a2.148 2.148 0 0 0-2.171-2.228zm2.219 5.335h2.6c-.314 2.035-2.164 3.4-4.729 3.4-3.193 0-5.108-2.045-5.108-5.357s1.937-5.454 5-5.454c3.019 0 4.924 2.045 4.924 5.195v.866h-7.143v.173a2.311 2.311 0 0 0 2.381 2.5 2.116 2.116 0 0 0 2.075-1.317zm4.881-9.588h2.825V33.6h1.916v2.132h-1.916v4.957c0 .79.39 1.169 1.223 1.169a5.859 5.859 0 0 0 .682-.043v2.078a6.7 6.7 0 0 1-1.342.119c-2.435 0-3.387-.812-3.387-2.835v-5.446h-1.461V33.6h1.461zm12.694 13c-4.058 0-6.6-2.716-6.6-7.229s2.565-7.218 6.6-7.218c3.355 0 5.909 2.132 6.136 5.249h-2.846a3.24 3.24 0 0 0-3.29-2.835c-2.208 0-3.625 1.851-3.625 4.783 0 2.976 1.407 4.816 3.636 4.816a3.157 3.157 0 0 0 3.29-2.672h2.85c-.34 3.135-2.721 5.1-6.151 5.1zm12.456-.022c-3.138 0-5.14-2.013-5.14-5.411 0-3.355 2.035-5.4 5.14-5.4s5.14 2.035 5.14 5.4c.001 3.408-2.002 5.41-5.14 5.41zm0-2.154c1.385 0 2.262-1.169 2.262-3.247 0-2.056-.887-3.247-2.262-3.247s-2.273 1.19-2.273 3.247c0 2.077.888 3.246 2.273 3.246zM-14 43.966V33.6h2.727v1.851h.054A3.282 3.282 0 0 1-7.976 33.4c2.305 0 3.593 1.45 3.593 3.874v6.688h-2.825v-6.088c0-1.353-.639-2.132-1.9-2.132a2.054 2.054 0 0 0-2.067 2.273v5.952zm11.406 0V33.6H.129v1.851h.054A3.277 3.277 0 0 1 3.419 33.4c2.305 0 3.593 1.45 3.593 3.874v6.688H4.188v-6.088c0-1.353-.639-2.132-1.9-2.132a2.054 2.054 0 0 0-2.072 2.272v5.952zm16.067-8.506a2.253 2.253 0 0 0-2.229 2.229h4.4a2.148 2.148 0 0 0-2.171-2.229zm2.208 5.34h2.6c-.314 2.035-2.164 3.4-4.729 3.4-3.193 0-5.108-2.045-5.108-5.357s1.937-5.454 5-5.454c3.019 0 4.924 2.045 4.924 5.195v.866h-7.146v.173a2.311 2.311 0 0 0 2.381 2.5 2.1 2.1 0 0 0 2.078-1.323zm13.549-3.349h-2.619a2 2 0 0 0-2.045-1.861c-1.4 0-2.262 1.18-2.262 3.182 0 2.045.866 3.2 2.273 3.2a1.961 1.961 0 0 0 2.045-1.807h2.63c-.141 2.446-1.97 4.026-4.7 4.026-3.128 0-5.108-2.035-5.108-5.411 0-3.322 1.98-5.4 5.086-5.4 2.795-.008 4.581 1.72 4.7 4.071zm2.132-6.244h2.825V33.6H36.1v2.132h-1.914v4.957c0 .79.39 1.169 1.223 1.169a5.858 5.858 0 0 0 .682-.043v2.078a6.616 6.616 0 0 1-1.342.119c-2.435 0-3.387-.812-3.387-2.835v-5.446H29.9V33.6h1.461z" transform="translate(0 0) translate(60.601 12.546) translate(96.252 -29.757)"/>
        </g>
        <g>
            <path fill="#3a99fb" d="M-6.269 2.6a21.752 21.752 0 0 1 30.3 0l1.006.985a1.026 1.026 0 0 1 0 1.483L21.6 8.449a.542.542 0 0 1-.758 0L19.455 7.1a15.172 15.172 0 0 0-21.135 0l-1.483 1.45a.542.542 0 0 1-.758 0l-3.452-3.38a1.026 1.026 0 0 1 0-1.483zm37.423 6.974l3.063 3a1.026 1.026 0 0 1 0 1.483L20.4 27.593a1.085 1.085 0 0 1-1.515 0l-9.816-9.61a.282.282 0 0 0-.379 0l-9.8 9.61a1.085 1.085 0 0 1-1.515 0l-13.838-13.527a1.026 1.026 0 0 1 0-1.483l3.063-3a1.085 1.085 0 0 1 1.515 0L-2.07 19.2a.282.282 0 0 0 .379 0l9.8-9.61a1.085 1.085 0 0 1 1.515 0l9.816 9.61a.282.282 0 0 0 .379 0l9.816-9.61a1.074 1.074 0 0 1 1.519-.016z" transform="translate(0 0) translate(0 0) translate(16.78 3.539)"/>
        </g>
    </g>
</svg>
