<?xml version="1.0" standalone="no"?>
<!DOCTYPE svg PUBLIC "-//W3C//DTD SVG 20010904//EN"
 "http://www.w3.org/TR/2001/REC-SVG-20010904/DTD/svg10.dtd">
<svg version="1.0" xmlns="http://www.w3.org/2000/svg"
 width="680.000000pt" height="711.000000pt" viewBox="0 0 680.000000 711.000000"
 preserveAspectRatio="xMidYMid meet">

<g transform="translate(0.000000,711.000000) scale(0.100000,-0.100000)"
fill="#000000" stroke="none">
<path d="M3753 6698 l-3 -293 35 -135 c19 -75 48 -169 65 -210 27 -63 31 -85
28 -141 -6 -119 -77 -197 -228 -254 -130 -48 -210 -96 -285 -169 -38 -37 -81
-73 -95 -78 -14 -6 -104 -13 -201 -17 -96 -4 -180 -10 -185 -14 -6 -3 -27 9
-47 27 -21 19 -47 36 -59 39 -13 3 -41 10 -62 16 -30 7 -50 6 -82 -5 -66 -22
-156 -23 -178 -1 -15 15 -31 17 -129 12 -157 -8 -198 -13 -221 -29 -36 -23
-79 -28 -101 -12 -15 11 -47 15 -121 16 -74 0 -116 5 -159 20 -32 11 -72 20
-90 20 -50 0 -131 -28 -166 -58 -29 -24 -44 -28 -123 -33 -101 -7 -147 -24
-255 -94 -74 -48 -149 -83 -231 -110 -55 -18 -151 -62 -160 -74 -22 -28 -210
-151 -210 -137 0 2 19 17 43 33 100 67 243 172 261 191 11 13 16 28 12 38 -6
15 -18 16 -89 11 l-82 -5 30 24 c22 17 43 24 75 24 25 0 56 6 71 13 14 8 47
21 73 30 64 22 177 103 174 125 -2 12 21 25 100 53 56 20 105 39 108 41 3 3
-14 15 -36 26 -23 11 -37 23 -32 26 16 10 140 10 272 1 114 -7 127 -6 144 10
14 15 15 20 4 30 -15 14 -150 75 -167 75 -25 0 -8 18 28 28 56 17 111 16 111
-3 0 -8 -7 -15 -15 -15 -8 0 -15 -4 -15 -10 0 -5 2 -10 4 -10 2 0 26 -4 54
-10 29 -5 79 -6 115 -2 36 5 73 5 83 1 20 -7 112 16 128 32 18 17 26 9 26 -26
0 -34 1 -35 40 -35 59 0 110 31 110 65 0 2 -18 10 -40 16 -41 12 -52 32 -24
43 11 4 14 15 10 40 -5 32 -4 34 27 39 17 2 45 0 61 -6 36 -12 92 12 106 47 5
13 14 27 20 31 10 6 50 78 50 90 0 4 -8 5 -17 4 -29 -5 -76 11 -115 38 -58 39
-47 72 12 38 34 -19 140 -19 190 1 45 18 60 50 42 89 -8 17 -27 28 -72 41 -34
9 -64 23 -67 30 -2 7 -18 16 -34 19 -45 10 -45 25 1 25 23 0 54 7 70 16 24 15
60 61 60 79 0 3 -26 18 -57 32 -112 50 -136 94 -50 92 86 -2 131 32 151 114 7
28 20 35 31 16 11 -17 45 21 45 51 0 29 -23 56 -39 46 -5 -4 -12 -2 -16 4 -8
13 -65 13 -65 -1 0 -5 -4 -8 -9 -4 -5 3 -13 0 -17 -6 -4 -8 -9 -7 -15 2 -7 11
-14 8 -34 -13 -24 -26 -35 -30 -90 -32 -11 -1 -33 -10 -48 -20 -37 -25 -116
-32 -141 -11 -25 19 -18 25 40 36 50 9 94 33 94 49 0 16 -21 11 -105 -29 l-80
-37 30 -30 c17 -16 31 -36 32 -44 1 -8 11 -51 22 -95 21 -82 26 -127 15 -138
-3 -3 -25 0 -49 8 -32 9 -46 10 -55 1 -8 -8 -19 -2 -42 23 -47 50 -99 69 -213
76 l-100 6 -105 -76 c-58 -42 -106 -80 -108 -85 -2 -6 14 -10 36 -10 28 0 64
-13 116 -40 41 -22 87 -40 101 -40 17 0 45 -18 85 -55 41 -38 74 -59 105 -67
68 -18 54 -29 -27 -22 -48 4 -80 13 -93 24 -11 10 -30 21 -42 25 -13 3 -23 11
-23 16 0 5 -7 9 -15 9 -9 0 -18 7 -21 15 -12 31 -24 14 -18 -25 7 -45 6 -45
-40 -26 -25 10 -36 22 -41 46 -10 44 -52 60 -160 60 l-85 0 -77 -68 c-81 -72
-109 -100 -102 -106 2 -2 22 -13 44 -25 l40 -22 -66 6 -65 5 -66 -67 c-84 -86
-119 -128 -238 -288 -190 -255 -314 -475 -428 -760 -122 -306 -170 -491 -229
-880 -5 -38 -5 -39 13 -25 11 8 21 18 24 21 3 3 30 25 59 48 50 39 59 42 100
38 26 -2 57 -8 71 -12 22 -8 23 -7 12 8 -11 13 -11 21 3 47 24 46 91 107 144
131 25 11 63 34 84 51 32 25 55 33 134 45 104 15 130 28 186 94 26 29 48 43
88 54 90 26 124 28 154 13 l27 -15 -46 -13 c-53 -14 -71 -32 -63 -60 6 -23 -8
-27 -17 -5 -7 20 -42 19 -50 -1 -14 -36 -5 -60 39 -99 24 -22 47 -53 51 -69
l7 -29 -22 22 c-30 30 -96 29 -136 -3 -29 -24 -30 -25 -14 -53 22 -37 31 -101
21 -138 l-8 -30 -15 45 c-9 28 -22 49 -37 55 -12 5 -31 28 -41 50 -22 48 -45
69 -65 62 -19 -8 -25 -61 -9 -98 7 -17 13 -41 13 -52 0 -19 -3 -18 -31 11 -18
18 -42 32 -55 32 -17 0 -24 6 -24 20 0 22 -34 44 -56 36 -20 -8 -17 -66 6
-119 28 -63 18 -86 -22 -45 -26 27 -35 30 -70 25 -66 -9 -79 -38 -42 -100 16
-28 87 -34 111 -10 13 13 30 18 49 16 49 -6 67 -5 114 5 61 14 106 -5 125 -52
15 -34 12 -66 -6 -66 -5 0 -9 4 -9 9 0 24 -53 71 -80 71 -29 0 -59 -25 -45
-38 4 -4 10 -1 12 6 3 6 11 12 18 12 11 0 11 -5 -1 -27 -19 -39 -17 -90 7
-143 l20 -45 -41 48 c-45 51 -72 59 -92 27 -16 -25 -25 -25 -33 1 -5 14 -14
19 -28 17 -33 -5 -32 -33 2 -87 17 -26 31 -56 31 -65 0 -10 -14 -37 -31 -61
-39 -54 -34 -96 13 -120 65 -32 91 -13 86 67 -3 46 -6 53 -25 56 -15 2 -23 10
-23 23 0 10 4 19 9 19 19 0 71 -59 71 -82 0 -42 14 -51 38 -23 12 14 28 25 35
25 20 0 66 -45 77 -76 14 -35 7 -41 -18 -16 -26 26 -75 36 -101 22 -29 -15
-35 -49 -21 -115 9 -41 9 -60 1 -68 -8 -8 -11 -5 -11 9 0 30 -29 52 -75 56
-38 3 -40 2 -37 -22 4 -25 3 -25 -30 8 -37 35 -62 40 -92 17 -11 -8 -32 -15
-48 -15 -15 0 -37 -9 -48 -20 -11 -11 -22 -20 -24 -20 -2 0 -13 19 -25 43 -12
23 -26 49 -33 58 -9 13 -8 20 5 33 11 12 13 23 7 45 -4 15 -6 49 -3 74 4 36 1
49 -16 66 -27 27 -46 27 -65 -1 -24 -33 -20 -46 25 -95 47 -52 46 -69 -4 -65
-27 2 -38 -2 -46 -17 -19 -35 -12 -61 34 -130 43 -65 54 -91 37 -91 -5 0 -19
11 -32 25 -13 14 -31 25 -40 25 -27 0 -60 -43 -60 -77 0 -46 36 -70 118 -78
69 -7 125 -33 136 -62 9 -23 3 -25 -46 -12 -45 12 -78 8 -78 -10 0 -6 15 -7
36 -4 35 6 36 5 24 -17 -7 -14 -10 -38 -6 -61 4 -22 2 -39 -3 -39 -17 0 -41
31 -41 51 0 11 -5 17 -10 14 -16 -10 -11 -51 8 -68 12 -11 36 -17 69 -17 46 0
51 2 57 25 7 26 7 26 37 8 24 -14 33 -15 47 -5 31 22 44 25 63 14 11 -7 36 -9
64 -5 50 6 75 -8 101 -59 19 -36 10 -35 -33 2 -26 24 -43 30 -78 30 -54 0
-105 -38 -105 -78 l-1 -27 -20 24 c-26 32 -37 19 -13 -15 46 -64 54 -81 54
-108 l0 -30 -25 34 c-14 19 -38 42 -55 53 -24 15 -28 23 -24 46 8 39 -17 61
-69 61 -24 0 -56 -9 -75 -20 -18 -11 -43 -20 -55 -20 -33 0 -47 -19 -47 -61 0
-45 14 -57 75 -65 49 -7 105 -44 105 -70 0 -19 -6 -18 -39 7 -27 20 -76 22
-121 5 -10 -4 -21 7 -33 34 -18 38 -46 58 -32 23 3 -10 20 -69 36 -132 17 -63
32 -119 36 -123 3 -5 16 1 29 13 13 12 24 17 24 11 0 -7 -4 -12 -9 -12 -18 0
-18 -42 0 -80 21 -43 37 -50 109 -47 32 1 53 -4 72 -18 49 -36 48 -71 -1 -42
-43 25 -104 32 -123 13 -9 -8 -19 -12 -23 -8 -4 4 -4 -9 0 -28 16 -80 132
-313 264 -535 40 -65 74 -122 77 -124 11 -12 24 27 24 72 0 45 4 53 51 100 41
42 50 47 46 29 -14 -59 24 -69 76 -19 27 25 37 44 42 80 10 67 37 97 85 97 20
0 43 -6 49 -14 9 -11 6 -12 -14 -8 -52 10 -108 -61 -98 -124 9 -59 14 -74 23
-74 6 0 8 15 4 38 l-6 37 75 -5 c66 -4 107 -19 107 -39 0 -4 -21 -7 -47 -7
l-48 1 -3 -42 c-3 -40 -4 -42 -28 -33 -62 24 -133 -2 -159 -56 -15 -32 -15
-37 -1 -60 22 -32 84 -34 112 -3 10 12 32 30 48 42 28 20 29 20 43 1 11 -15
26 -19 72 -19 48 0 64 5 94 28 48 37 73 115 62 196 -4 31 -8 66 -7 79 0 27 29
62 50 62 13 0 13 -3 -1 -18 -21 -23 -22 -46 -2 -62 24 -20 42 -5 60 52 10 29
29 65 43 80 30 32 86 61 110 55 12 -2 7 -8 -18 -19 -55 -24 -90 -71 -90 -122
0 -23 -5 -47 -11 -53 -8 -8 -1 -10 28 -6 44 6 73 -13 73 -49 0 -20 -1 -20 -18
-5 -38 35 -113 13 -126 -37 -7 -29 10 -80 24 -71 7 4 7 13 -1 26 -5 11 -7 29
-4 40 6 19 7 19 32 -1 31 -24 101 -27 143 -5 41 21 61 66 71 155 7 61 13 78
31 92 13 10 30 24 38 31 8 8 23 16 32 20 9 3 32 30 51 59 30 47 67 89 67 75 0
-2 -7 -18 -15 -33 -19 -37 -19 -69 0 -88 8 -8 15 -19 15 -25 0 -14 -17 -14
-25 -1 -3 5 -14 10 -23 10 -13 -1 -8 -8 16 -30 30 -28 38 -30 111 -30 88 0
111 -12 111 -57 l0 -25 -40 36 c-35 31 -47 36 -91 36 -28 0 -76 7 -106 16 -51
15 -56 15 -72 -1 -15 -15 -14 -18 7 -35 12 -10 28 -20 34 -22 22 -8 -4 -28
-36 -28 -18 0 -41 -7 -52 -15 -22 -17 -7 -19 30 -5 35 13 33 -2 -4 -38 -20
-20 -30 -40 -30 -60 0 -42 45 -53 94 -23 38 24 53 27 37 8 -17 -22 9 -46 54
-49 28 -2 40 -8 40 -18 0 -10 -9 -14 -25 -13 -14 1 -42 0 -62 -3 -34 -5 -39
-10 -49 -45 -23 -76 -49 -70 -62 15 -7 43 -41 86 -69 86 -27 0 -50 -43 -46
-87 3 -38 3 -38 46 -38 37 0 46 -4 58 -26 7 -15 21 -29 29 -33 11 -4 14 -13
10 -26 -9 -27 9 -25 22 2 7 14 34 32 70 46 32 13 82 34 111 48 63 29 91 30
140 5 47 -24 75 -55 70 -78 -3 -14 -7 -12 -21 13 -15 29 -49 43 -105 44 -17 0
-102 -79 -102 -95 0 -7 18 -36 40 -64 22 -28 40 -58 40 -68 0 -14 -6 -10 -25
13 -43 55 -145 82 -179 48 -22 -22 -20 -27 10 -21 19 3 24 1 20 -10 -3 -8 -6
-21 -6 -29 0 -8 -7 -14 -15 -14 -19 0 -19 -4 1 -41 8 -17 14 -38 12 -47 -2
-11 -13 1 -28 33 -30 61 -59 78 -123 71 -44 -5 -47 -4 -37 14 6 11 22 23 37
26 21 6 23 8 10 16 -22 12 -66 -11 -73 -39 -4 -13 -3 -49 1 -81 l7 -57 -22 28
c-25 31 -69 57 -100 57 -17 0 -20 6 -20 45 0 27 8 57 20 77 22 37 26 88 8 106
-17 17 -69 15 -96 -4 -31 -22 -27 -52 13 -103 24 -30 35 -54 35 -77 0 -19 -2
-34 -5 -34 -3 0 -21 16 -41 35 -60 61 -112 59 -177 -6 l-40 -39 7 49 c4 32 3
52 -5 56 -21 14 -40 -22 -48 -93 -8 -77 -31 -124 -31 -64 0 22 -9 41 -25 57
-27 28 -45 31 -63 13 -10 -10 -15 -10 -22 2 -13 20 -12 37 0 45 13 8 13 25 0
25 -22 0 -29 -47 -15 -101 23 -85 1 -123 -28 -49 -14 36 -19 40 -51 40 -64 0
-59 -13 49 -135 84 -95 103 -115 113 -115 5 0 14 18 21 40 6 21 23 52 36 69
30 34 55 91 55 122 0 22 0 22 21 3 20 -18 22 -18 51 -1 42 24 48 22 49 -20 1
-59 12 -77 59 -93 41 -14 90 -63 77 -76 -3 -4 -18 1 -31 10 -14 9 -38 16 -53
16 -21 0 -33 8 -46 30 -17 28 -61 50 -74 36 -3 -3 1 -25 10 -48 22 -56 8 -72
-31 -35 -15 15 -37 27 -48 27 -17 0 -19 -6 -14 -67 7 -90 37 -135 158 -238 51
-44 98 -82 103 -83 5 -2 21 -1 35 2 33 9 54 59 54 128 0 66 7 77 52 84 62 11
103 -33 62 -67 -21 -17 -44 -63 -44 -88 0 -11 13 -30 30 -42 28 -21 50 -64 50
-97 0 -9 -8 -5 -21 12 -26 33 -56 34 -71 0 -15 -31 -4 -51 41 -78 31 -18 32
-18 52 0 17 16 22 16 30 4 7 -12 15 -8 41 22 40 44 59 54 124 63 57 7 111 -10
151 -47 30 -28 30 -43 0 -23 -34 22 -107 29 -137 13 -40 -22 -53 -58 -39 -115
6 -26 17 -54 24 -62 8 -8 43 -16 87 -18 82 -6 112 -20 173 -82 36 -38 41 -58
6 -27 -27 24 -113 66 -135 66 -21 -1 -21 -1 -1 -12 11 -7 58 -31 105 -53 47
-22 96 -48 110 -57 27 -17 276 -116 300 -119 8 -1 20 -1 25 0 6 1 10 97 9 269
l-1 267 -32 120 c-19 66 -46 153 -62 193 -16 40 -29 84 -29 99 0 44 21 100 52
137 34 41 75 61 215 105 103 32 180 75 242 137 44 44 77 49 215 34 62 -7 137
-10 167 -8 51 5 56 4 85 -26 20 -20 56 -41 97 -55 56 -19 77 -21 159 -15 88 6
96 5 143 -19 47 -25 59 -27 219 -29 129 -2 170 0 173 10 7 18 68 14 105 -7 23
-13 67 -22 143 -29 85 -8 124 -17 170 -38 46 -21 75 -28 125 -28 72 0 168 27
177 51 5 13 22 15 107 9 131 -8 181 2 335 68 112 48 171 66 356 107 65 15 148
50 222 93 72 42 205 96 236 95 l22 0 -21 -9 c-12 -5 -25 -13 -29 -19 -3 -6
-14 -11 -23 -11 -17 0 -303 -138 -312 -150 -3 -4 -24 -17 -47 -29 -84 -42 -61
-62 79 -66 57 -2 108 -4 113 -5 6 0 -14 -12 -44 -26 -46 -22 -63 -25 -107 -20
-32 4 -64 1 -81 -6 -15 -6 -41 -13 -58 -15 -47 -7 -208 -63 -226 -79 -8 -8
-21 -14 -28 -14 -9 0 -11 -8 -7 -24 5 -21 2 -24 -32 -30 -137 -23 -222 -41
-222 -46 0 -9 56 -40 72 -40 8 0 23 -7 34 -16 17 -14 9 -15 -101 -10 -83 3
-142 12 -190 27 -90 28 -238 33 -243 8 -2 -12 21 -29 85 -62 48 -24 101 -47
117 -51 54 -13 11 -29 -81 -30 -76 -1 -88 1 -91 16 -2 11 3 18 12 18 9 0 16 4
16 8 0 20 -62 35 -163 40 -59 2 -110 9 -113 13 -8 14 -65 11 -120 -6 -65 -20
-67 -19 -60 11 4 15 2 32 -5 40 -14 17 -85 18 -119 1 -39 -20 -36 -41 10 -62
44 -20 48 -26 25 -45 -10 -8 -13 -23 -10 -41 l5 -29 -54 0 c-30 0 -58 5 -62
11 -7 12 -72 3 -91 -13 -7 -6 -13 -19 -13 -29 0 -10 -9 -21 -20 -24 -19 -6
-50 -52 -50 -75 0 -5 10 -10 23 -10 41 0 172 -88 155 -105 -3 -3 -29 6 -58 19
-67 31 -143 41 -197 27 -47 -13 -54 -24 -44 -72 6 -30 16 -38 91 -76 114 -58
123 -68 59 -68 -45 0 -54 -4 -80 -33 -36 -41 -32 -48 56 -97 36 -21 67 -46 74
-61 l12 -26 -48 7 c-26 5 -59 7 -71 7 -42 -3 -82 -34 -94 -74 -12 -40 -25 -48
-34 -23 -5 11 -11 12 -25 4 -14 -7 -19 -21 -19 -49 0 -37 3 -40 47 -60 36 -16
53 -18 74 -11 18 6 30 6 38 -2 7 -7 16 -6 30 7 13 12 34 17 72 15 34 -1 65 5
84 15 41 22 93 20 134 -5 20 -12 37 -17 43 -11 5 5 -1 14 -14 21 -18 9 -28 33
-47 104 -33 128 -36 156 -18 163 8 3 30 -2 47 -11 18 -9 44 -15 58 -12 19 4
32 -3 55 -30 45 -51 111 -85 205 -105 l86 -18 115 51 c64 28 124 53 134 56 28
9 20 17 -33 36 -27 10 -62 28 -77 41 -33 28 -97 61 -136 70 -15 3 -48 29 -75
58 -32 34 -72 63 -127 90 -44 21 -71 37 -60 34 11 -2 53 -10 92 -17 60 -10 83
-20 130 -55 32 -24 63 -44 70 -44 6 0 15 -9 18 -20 12 -37 27 -22 20 20 l-7
39 30 -8 c49 -14 72 -31 72 -51 0 -10 3 -26 6 -35 10 -26 92 -56 169 -62 81
-6 85 -5 222 84 l87 56 -43 25 c-23 13 -40 26 -37 29 2 2 29 -3 60 -12 31 -9
61 -13 68 -9 99 61 362 293 483 425 187 205 341 405 430 558 9 16 3 13 -65
-34 -43 -30 -90 -43 -90 -25 0 4 11 11 24 14 28 7 42 36 24 48 -10 6 -10 8 2
8 9 1 5 6 -10 15 -23 13 -23 14 -4 15 11 0 30 11 42 25 12 14 27 25 33 25 5 0
8 4 4 9 -5 9 105 75 112 67 2 -2 -6 -21 -19 -42 -12 -21 -16 -34 -9 -30 12 8
34 52 35 71 1 5 13 21 28 35 36 34 163 331 234 548 26 78 32 122 13 90 -5 -10
-14 -18 -20 -18 -5 0 -33 -15 -62 -33 -28 -19 -65 -43 -82 -53 -88 -56 -206
-87 -335 -89 -59 -1 -76 3 -82 15 -6 13 -7 13 -7 -1 -1 -17 -51 -46 -51 -29 0
5 -19 13 -42 17 -42 7 -42 7 -13 14 19 4 -6 7 -64 8 -52 0 -91 4 -88 8 4 3 37
6 75 6 l67 0 -55 7 c-51 7 -49 7 20 4 41 -1 69 1 62 5 -7 4 4 7 23 8 20 1 42
6 50 13 11 9 14 7 18 -12 l4 -23 2 24 c1 18 5 22 18 17 10 -4 14 -4 10 0 -4 4
-2 13 4 21 8 9 8 13 1 13 -6 0 -14 -4 -17 -10 -3 -6 -11 -10 -16 -10 -18 0 15
25 59 44 24 11 58 20 77 20 18 1 33 6 32 11 -1 6 6 9 15 9 10 -1 15 2 12 7 -3
5 11 16 31 25 22 9 33 19 29 26 -5 8 -2 9 10 5 9 -4 15 -3 12 2 -3 4 3 16 14
26 11 10 20 22 20 27 0 24 34 40 93 43 76 4 125 21 200 69 39 25 57 43 57 57
0 12 -4 18 -11 13 -6 -4 -41 -26 -77 -50 -86 -59 -129 -71 -195 -57 -29 6 -61
15 -72 19 -18 7 -18 6 -6 -9 16 -20 5 -41 -50 -96 -49 -48 -96 -77 -159 -97
-30 -9 -80 -32 -111 -51 -51 -31 -68 -35 -185 -47 -147 -14 -182 -27 -244 -91
-38 -38 -50 -45 -85 -45 -22 -1 -58 -7 -80 -15 -52 -19 -89 -19 -126 0 -32 17
-31 35 2 35 11 0 36 7 55 15 32 13 36 18 32 45 -5 34 11 40 29 11 24 -38 82 4
68 49 -3 11 -25 32 -48 47 -48 33 -80 83 -74 115 l4 23 8 -22 c8 -25 61 -53
100 -53 34 0 88 25 112 52 18 21 18 21 -9 16 -21 -4 -25 -2 -21 11 5 13 3 14
-8 4 -18 -17 -34 -17 -20 0 6 8 7 18 3 22 -4 5 0 6 9 3 13 -5 15 3 12 56 -2
34 1 75 7 91 l12 30 12 -47 c15 -55 28 -74 60 -82 15 -4 30 -23 46 -56 15 -33
26 -46 31 -38 5 7 1 21 -9 32 -16 18 -16 18 5 7 12 -6 25 -16 28 -21 3 -6 11
-10 17 -10 6 0 4 8 -5 18 -10 10 -17 25 -17 33 0 12 -2 11 -10 -1 -7 -11 -10
-11 -10 -2 0 7 -4 10 -10 7 -9 -6 -72 56 -64 64 2 2 17 -10 34 -27 16 -18 30
-26 30 -19 0 8 4 7 10 -3 8 -13 10 -13 10 -1 0 11 4 9 14 -4 8 -11 12 -23 10
-26 -2 -4 5 -9 17 -12 17 -4 19 -2 13 16 -3 12 -13 32 -20 45 -10 15 -13 34
-8 57 5 30 4 34 -10 29 -11 -4 -16 -19 -16 -47 0 -22 -3 -37 -7 -33 -4 4 -6
23 -5 43 2 21 0 35 -3 32 -3 -4 -6 -23 -7 -43 l-1 -36 -22 20 c-12 11 -27 20
-33 20 -7 0 -12 7 -12 15 0 8 5 15 10 15 6 0 10 5 10 11 0 8 -5 8 -15 -1 -12
-10 -15 -10 -15 1 0 11 -2 11 -10 -1 -8 -11 -9 -8 -4 12 8 37 -4 68 -26 68
-27 0 -63 -101 -57 -160 5 -40 4 -43 -9 -25 -8 10 -14 27 -14 36 0 30 -19 31
-26 2 -10 -42 -23 -53 -63 -53 -20 0 -47 -7 -60 -16 -19 -14 -22 -23 -18 -53
3 -20 8 -46 12 -58 6 -18 3 -23 -18 -28 -13 -4 -44 -26 -68 -51 -38 -39 -41
-44 -21 -44 28 0 28 -5 -3 -42 -14 -17 -24 -32 -22 -35 3 -2 27 10 55 26 53
33 82 39 82 18 0 -16 -29 -31 -89 -47 -36 -10 -41 -14 -39 -38 1 -15 -1 -33
-5 -39 -8 -12 16 -68 37 -88 49 -47 169 -81 321 -91 185 -12 515 22 719 75
166 44 119 12 -59 -39 -212 -61 -251 -70 -327 -76 -69 -5 -234 5 -373 23 -69
9 -212 9 -257 0 -39 -8 -93 -49 -81 -61 4 -4 81 -4 171 0 136 6 164 5 160 -6
-7 -22 -51 -29 -218 -36 -85 -4 -164 -11 -175 -17 -10 -5 -64 -13 -118 -17
-81 -5 -102 -10 -113 -25 -32 -43 -6 -91 66 -122 68 -29 226 -64 301 -66 42
-1 72 -5 67 -8 -5 -3 17 -9 49 -13 32 -3 72 -10 88 -15 l30 -8 -30 -14 c-45
-20 -345 -17 -455 4 -84 16 -172 19 -465 20 -152 0 -205 -9 -205 -37 0 -17 38
-43 76 -52 47 -11 97 -45 85 -57 -6 -6 -11 -24 -11 -39 0 -27 -2 -28 -49 -28
-65 0 -129 24 -160 59 -23 27 -35 30 -115 38 -49 5 -112 6 -140 2 -93 -14
-213 -10 -229 6 -12 11 -34 14 -103 10 -54 -3 -92 -1 -100 6 -7 6 -26 8 -41 5
-18 -3 -41 2 -63 14 -40 21 -45 18 95 55 55 15 147 39 205 54 125 33 221 81
310 156 136 115 127 112 322 118 151 4 187 9 284 35 186 51 365 155 452 264
17 22 32 42 32 44 0 10 -13 0 -62 -43 -179 -159 -440 -243 -756 -243 l-93 0
-57 -53 c-31 -30 -72 -64 -90 -76 l-33 -23 -38 25 c-56 37 -93 41 -209 17
-164 -32 -245 -24 -415 39 -44 16 -97 24 -210 31 -253 15 -398 49 -556 130
l-80 41 -43 -21 c-42 -21 -42 -21 -18 -1 14 11 29 21 33 21 21 0 -11 24 -76
56 -104 53 -162 98 -212 168 -24 33 -89 103 -144 153 -71 67 -120 123 -170
198 -39 58 -71 113 -71 123 0 9 -7 49 -15 87 -8 39 -15 98 -15 132 0 61 0 61
32 69 62 13 83 82 49 160 -28 62 -26 83 8 130 31 41 27 64 -10 64 -17 0 -17 3
-5 38 7 20 16 54 20 75 4 21 11 35 16 32 5 -3 6 -15 0 -29 -5 -13 -4 -29 1
-37 7 -11 9 -9 9 8 0 44 21 33 45 -24 14 -32 32 -70 40 -85 20 -35 19 -56 -4
-101 -10 -20 -17 -37 -15 -37 1 0 25 5 51 10 41 9 53 17 73 50 14 22 27 40 31
40 3 0 14 -9 25 -21 14 -16 19 -36 19 -83 l0 -61 49 2 c78 3 91 22 91 140 0
108 10 124 45 68 23 -38 40 -42 102 -24 47 12 59 46 32 87 -26 41 -53 61 -121
92 -33 15 -66 37 -72 48 -16 30 -14 87 4 102 21 17 42 6 67 -36 21 -35 21 -35
72 -29 29 4 57 14 64 23 17 22 9 78 -18 114 -11 15 -20 30 -20 33 0 15 32 2
60 -25 39 -36 49 -34 19 4 -26 33 -69 56 -105 56 -14 0 -39 11 -56 25 -34 29
-59 31 -93 9 -46 -30 -18 -94 41 -94 39 0 98 -89 79 -119 -11 -19 -22 -12 -35
20 -17 40 -66 64 -113 55 -49 -9 -77 -47 -77 -103 0 -37 5 -50 30 -73 17 -16
44 -31 60 -35 66 -15 150 -102 130 -135 -7 -12 -17 -6 -45 28 -30 34 -43 42
-70 42 -22 0 -41 -8 -55 -22 -24 -26 -22 -19 -24 -135 -1 -59 -6 -96 -13 -104
-11 -10 -13 0 -13 52 0 78 -16 104 -70 119 -24 6 -40 17 -40 25 0 8 3 15 8 15
4 0 19 21 32 47 14 27 32 53 40 59 12 10 12 17 -3 50 -21 46 -13 85 27 137 35
46 38 120 7 171 -23 36 -77 76 -104 76 -8 0 -29 13 -46 29 -17 16 -33 25 -36
21 -9 -14 52 -67 85 -73 33 -7 73 -44 97 -90 19 -37 9 -46 -20 -20 -58 54
-132 68 -167 33 -17 -17 -20 -32 -18 -83 2 -62 -4 -87 -22 -87 -5 0 -12 17
-15 38 -12 72 -16 82 -38 96 -31 20 -69 28 -86 17 -17 -11 -22 -134 -5 -127 7
3 24 -9 40 -25 15 -16 34 -29 41 -29 12 0 73 -108 73 -130 0 -5 -16 8 -36 30
-20 22 -42 40 -48 40 -7 0 -21 8 -32 18 -10 9 -31 23 -46 29 -24 11 -29 10
-43 -10 -21 -30 -19 -42 13 -79 34 -39 43 -60 33 -77 -6 -8 -12 -2 -21 19 -17
42 -56 70 -96 70 -42 0 -61 -20 -69 -74 -6 -41 -4 -49 29 -92 25 -32 36 -57
36 -81 0 -26 8 -41 34 -63 42 -38 58 -75 54 -130 -3 -46 -28 -70 -28 -27 0 33
-41 91 -66 95 -30 4 -48 -23 -54 -81 -5 -46 -8 -52 -43 -70 -32 -16 -41 -18
-47 -6 -12 18 -5 25 29 32 34 7 46 42 35 104 -9 53 -28 86 -65 117 -30 26 -31
27 -10 33 23 6 29 23 8 23 -7 0 -23 -7 -35 -16 -17 -12 -22 -25 -22 -61 l0
-46 -23 34 -23 34 23 40 c12 22 23 48 23 58 0 9 5 17 10 17 35 0 33 182 -2
220 -27 29 -82 24 -86 -7 -2 -12 5 -29 16 -38 71 -61 82 -75 82 -104 0 -38
-12 -40 -34 -6 -9 14 -25 25 -36 25 -12 0 -20 7 -20 17 0 9 -12 34 -27 56 -22
32 -25 42 -15 58 27 43 -2 105 -44 95 -37 -10 -28 11 10 24 46 15 92 2 158
-45 45 -33 56 -37 96 -32 49 5 82 -16 82 -53 0 -11 5 -20 11 -20 10 0 8 23 -6
62 -5 14 42 71 68 81 27 10 49 53 45 89 l-4 33 -8 -30 c-5 -16 -16 -39 -24
-50 -13 -18 -14 -17 -8 18 8 44 -12 86 -54 111 -38 22 -66 20 -91 -5 -23 -23
-43 -14 -37 17 2 14 20 23 63 34 58 15 60 16 63 50 2 28 -3 41 -22 60 -31 28
-46 20 -17 -9 20 -20 29 -61 14 -61 -5 0 -21 9 -38 20 -56 37 -110 17 -136
-49 -12 -31 7 -81 30 -81 21 0 66 -46 75 -76 7 -24 -1 -54 -15 -54 -6 0 -19
16 -30 35 -59 99 -283 53 -328 -68 -20 -53 -15 -61 22 -39 l34 19 11 -42 c7
-28 19 -45 36 -53 15 -6 26 -18 26 -25 0 -8 9 -22 20 -32 20 -18 26 -46 13
-58 -3 -4 -17 3 -31 15 -36 35 -106 32 -138 -5 -13 -15 -24 -37 -24 -47 0 -27
50 -70 81 -70 38 0 59 -29 59 -83 0 -25 -4 -49 -10 -52 -5 -3 -10 3 -10 13 0
35 -32 64 -72 65 -55 1 -75 -22 -83 -96 -9 -87 -14 -109 -30 -131 -22 -29 -26
-15 -10 37 9 30 11 56 6 70 -5 12 -12 46 -16 75 -6 47 -5 55 15 72 25 22 44
82 35 111 -4 11 -2 25 3 32 5 7 12 44 16 84 9 107 25 168 52 205 13 18 73 107
133 197 95 142 116 167 159 192 36 20 56 40 71 72 12 24 21 48 21 53 0 6 7 33
15 61 12 40 23 56 50 72 19 11 35 27 35 35 0 24 60 86 84 86 11 0 28 5 36 10
12 8 11 10 -8 10 -46 0 -88 -27 -116 -74 -15 -25 -40 -53 -56 -61 -29 -15 -40
-41 -66 -148 -8 -34 -68 -101 -86 -95 -7 2 -31 30 -52 61 -51 73 -42 87 44 80
50 -5 60 -3 60 10 0 21 -44 54 -89 68 -20 6 -71 9 -114 7 -77 -3 -78 -3 -72
20 5 21 2 22 -46 22 -43 0 -59 -6 -99 -35 -27 -20 -51 -32 -54 -27 -6 10 42
48 77 61 32 12 34 80 5 133 -24 41 -67 61 -168 75 l-55 7 71 7 c105 10 132 18
159 47 14 15 25 30 25 33 0 15 -44 16 -115 2 -42 -8 -93 -13 -113 -11 -36 3
-37 3 -13 16 23 14 83 25 212 41 36 5 75 14 88 20 12 7 50 17 84 22 83 14 107
30 107 74 0 29 -6 39 -32 55 -42 26 -191 60 -260 60 -30 0 -89 3 -131 6 -59 5
-75 10 -67 19 23 27 254 48 420 37 87 -6 395 16 455 33 77 21 95 37 71 64 -10
11 -34 22 -54 26 -51 8 -90 38 -74 57 6 8 9 24 6 35 -6 20 -2 22 42 25 59 4
111 -12 133 -40 14 -19 27 -22 121 -23 76 -1 116 3 143 15 48 20 164 24 196 7
18 -10 33 -10 65 -3 63 16 125 21 132 11 3 -5 20 -7 39 -3 21 4 43 0 61 -9
l28 -15 -30 -14 c-16 -8 -111 -45 -211 -83 -196 -73 -256 -107 -354 -199 -67
-63 -67 -76 0 -76 24 0 43 8 62 26 l28 27 81 -14 c78 -12 83 -12 178 16 132
38 225 43 327 14 68 -18 119 -23 340 -29 339 -11 345 -12 695 -178 135 -64
135 -64 261 -190 70 -70 163 -162 207 -204 44 -42 104 -113 133 -158 33 -51
58 -79 66 -76 11 4 11 1 3 -14 -8 -15 -6 -35 6 -77 11 -37 17 -97 18 -162 l1
-104 -35 -5 c-46 -5 -58 -16 -71 -64 -12 -46 -5 -90 23 -135 16 -28 18 -38 9
-66 -15 -44 -78 -103 -118 -112 -38 -8 -44 -25 -9 -25 l23 0 -26 -80 c-28 -85
-45 -106 -35 -41 4 24 2 41 -5 45 -7 5 -11 -4 -11 -26 l-1 -33 -24 28 c-14 15
-25 35 -25 43 0 17 -16 19 -24 2 -3 -7 -3 -3 0 10 3 13 -1 33 -10 47 -22 33
-20 93 4 138 29 54 7 45 -30 -12 -47 -74 -50 -75 -94 -35 -37 34 -38 37 -33
86 9 70 -2 87 -50 79 -52 -9 -64 -35 -62 -147 1 -51 -2 -97 -5 -103 -4 -6 -18
-11 -30 -11 -21 0 -36 15 -82 78 -1 2 -20 -2 -43 -8 -103 -28 -63 -124 79
-188 36 -16 72 -38 81 -48 41 -48 28 -124 -21 -124 -30 0 -80 34 -80 55 0 7
-7 18 -15 25 -21 17 -91 -3 -105 -30 -14 -27 -3 -84 23 -117 l21 -26 -34 7
c-19 3 -49 21 -67 38 -29 28 -35 30 -58 20 -39 -18 -31 -44 29 -90 17 -13 43
-22 63 -22 23 0 46 -9 65 -25 32 -27 85 -34 106 -13 30 30 4 80 -51 93 -51 13
-105 102 -77 128 9 9 15 8 24 -8 6 -10 23 -32 38 -47 37 -39 103 -39 147 -2
27 22 31 32 31 74 0 63 -25 93 -101 121 -69 25 -142 90 -137 122 5 32 25 31
44 -2 20 -34 68 -62 93 -54 69 21 76 35 76 160 0 75 3 96 18 110 17 17 18 16
16 -42 -1 -33 1 -70 5 -81 7 -22 52 -49 98 -59 l28 -5 -29 -40 c-15 -21 -34
-53 -41 -70 -7 -16 -19 -30 -26 -30 -18 0 -18 -24 2 -61 20 -40 12 -73 -31
-128 -57 -72 -58 -126 -6 -199 23 -30 44 -46 82 -59 28 -10 64 -31 80 -47 20
-20 29 -25 29 -15 0 22 -40 57 -80 70 -47 16 -81 43 -107 87 -33 54 -29 68 10
38 50 -38 119 -66 148 -59 49 12 59 31 59 108 0 64 10 95 31 95 4 0 10 -25 14
-54 8 -66 33 -102 82 -115 55 -16 77 0 70 52 -3 22 -1 49 5 60 13 24 3 34 -18
16 -13 -11 -17 -11 -25 3 -5 9 -25 26 -44 38 -35 22 -95 124 -95 163 0 15 9
10 40 -26 23 -25 50 -49 61 -52 12 -4 37 -18 56 -31 42 -28 47 -29 67 -8 25
25 19 57 -19 93 -21 19 -35 42 -35 56 0 36 16 38 30 5 19 -46 65 -80 109 -80
52 0 72 18 78 71 5 40 1 49 -36 99 -41 54 -51 96 -30 117 8 8 2 16 -20 29 -66
39 -98 130 -71 199 l12 30 18 -53 c9 -29 25 -61 35 -72 21 -24 58 -26 79 -5
17 17 32 117 21 136 -5 7 -4 10 2 6 6 -4 25 0 42 9 36 18 76 15 76 -6 0 -8
-14 -17 -34 -21 -43 -9 -51 -22 -51 -84 0 -66 30 -128 74 -157 20 -13 36 -26
36 -29 0 -3 -15 -11 -32 -17 -31 -9 -32 -10 -7 -11 46 -2 69 27 76 92 3 32 9
60 13 62 4 2 5 -6 3 -19 -3 -15 4 -33 20 -52 l25 -29 -29 -32 c-15 -18 -31
-48 -35 -68 -3 -19 -10 -32 -15 -30 -4 3 -13 -4 -20 -16 -13 -25 -13 -152 0
-157 5 -2 7 -11 4 -20 -5 -21 31 -62 54 -62 14 0 14 2 -3 16 -10 8 -13 13 -6
9 15 -8 16 7 1 22 -7 7 -6 12 5 16 9 4 15 3 15 -1 -1 -4 -1 -16 1 -27 l1 -20
10 20 c8 17 8 15 4 -7 -4 -20 -1 -28 9 -28 8 0 16 6 19 14 11 27 -5 53 -44 75
-55 31 -73 62 -64 108 6 36 8 37 21 18 32 -45 45 -55 69 -55 20 0 25 -5 25
-24 0 -14 11 -38 25 -54 26 -31 33 -66 15 -77 -14 -9 -12 -61 3 -72 25 -20 56
-21 76 -1 12 10 21 23 21 28 0 22 -24 59 -45 70 -34 18 -88 105 -80 130 8 25
20 25 38 0 49 -70 197 -37 197 45 0 38 -44 75 -90 75 -45 0 -70 31 -70 88 0
75 33 100 42 32 2 -17 14 -31 40 -43 32 -16 40 -16 70 -4 47 20 55 33 68 122
13 89 30 129 60 145 25 13 25 7 -2 -57 -19 -46 -20 -57 -9 -90 7 -21 13 -68
14 -104 2 -50 5 -66 16 -65 8 1 20 -10 27 -23 7 -13 17 -27 23 -30 5 -4 17
-20 25 -36 13 -25 16 -26 16 -9 0 11 -11 31 -25 44 -14 13 -24 29 -21 34 2 6
-5 20 -16 32 -20 23 -34 84 -24 109 4 12 15 6 49 -30 42 -43 46 -45 100 -45
64 0 77 13 77 75 0 55 25 105 60 118 31 12 40 27 16 27 -11 0 -5 18 20 68 42
84 59 185 50 310 -5 90 -10 114 -43 232 -21 78 -89 201 -180 330 -43 61 -97
141 -119 178 -54 86 -81 113 -183 175 l-85 52 35 6 c49 8 78 26 85 54 12 49
29 48 57 -4 15 -27 78 -99 143 -162 64 -63 124 -131 135 -152 11 -20 26 -74
35 -120 9 -45 26 -109 40 -143 13 -33 24 -66 24 -72 0 -7 4 -12 9 -12 5 0 11
-8 14 -17 3 -10 17 -50 30 -88 24 -68 25 -80 23 -295 -1 -188 -4 -230 -18
-257 -9 -18 -20 -47 -23 -65 -4 -17 -16 -45 -26 -62 -23 -37 -24 -87 -4 -125
8 -16 11 -32 7 -36 -4 -3 -2 -6 3 -5 6 1 32 2 59 1 l49 -1 -6 -37 c-5 -28 -4
-34 4 -23 8 12 9 9 5 -10 -3 -14 -6 -28 -6 -31 0 -4 -13 -12 -30 -19 -25 -10
-35 -9 -67 6 -27 14 -37 25 -36 39 1 11 0 14 -3 7 -4 -9 -10 -10 -18 -2 -24
19 -50 -24 -43 -72 10 -73 109 -139 165 -109 23 12 43 15 26 3 -7 -5 -6 -15 3
-32 7 -14 13 -21 13 -16 0 4 8 -2 18 -14 12 -14 24 -20 31 -16 9 6 7 14 -9 31
-14 15 -24 42 -27 69 -3 25 -9 46 -14 46 -4 0 -20 -12 -34 -26 -20 -20 -32
-24 -53 -19 -41 10 -89 64 -95 108 l-6 39 29 -30 c49 -52 134 -55 166 -6 15
22 16 33 4 95 -12 63 -12 72 3 87 16 15 17 15 17 -5 0 -39 31 -63 89 -70 l54
-6 -7 26 c-9 38 7 40 40 6 44 -47 68 -53 121 -29 25 11 59 20 75 20 39 0 65
15 82 48 17 33 6 67 -23 75 -27 7 -36 -9 -17 -29 9 -8 16 -24 16 -34 0 -19 -8
-23 -70 -35 -19 -4 -52 -16 -72 -26 -43 -22 -84 -16 -52 8 10 7 31 13 46 13
37 0 78 43 78 82 0 36 -43 78 -122 119 -41 21 -58 35 -58 49 0 24 7 25 53 5
20 -8 50 -15 68 -15 35 0 89 34 89 56 0 19 13 18 26 -4 6 -9 30 -31 53 -47 39
-26 51 -29 132 -30 73 -2 96 -6 117 -22 36 -27 38 -48 8 -78 -31 -31 -45 -31
-82 0 -33 28 -79 33 -88 9 -15 -38 -6 -72 25 -99 40 -33 49 -25 15 15 -49 59
-22 104 35 56 61 -52 144 -16 137 61 -5 58 -35 73 -161 82 -99 7 -110 10 -145
38 -20 17 -39 38 -41 48 -3 16 2 17 45 10 76 -11 117 -11 121 1 2 6 -10 8 -32
6 -20 -2 -50 3 -69 12 -19 9 -40 16 -48 16 -10 0 -15 11 -15 30 0 17 -2 31 -4
33 -61 40 -119 53 -119 27 0 -4 -13 -13 -29 -20 -25 -10 -34 -9 -60 6 -25 15
-34 16 -56 6 -58 -26 -123 -3 -150 54 -26 55 -15 73 21 33 43 -49 140 -64 203
-31 45 22 76 65 66 89 -6 15 -9 14 -23 -14 -9 -18 -19 -33 -24 -33 -4 0 -8 29
-8 65 l0 64 60 -59 c70 -69 79 -64 16 10 -45 53 -57 82 -49 125 5 23 7 22 55
-30 28 -31 64 -59 85 -65 67 -23 153 8 153 55 0 19 4 23 23 19 12 -2 42 -7 67
-11 25 -3 57 -12 72 -19 32 -17 38 -17 38 -4 0 17 -55 38 -119 46 -93 10 -145
52 -127 101 6 14 9 14 29 -4 38 -35 63 -43 114 -36 54 7 123 38 123 55 0 11
-51 178 -57 187 -1 2 -16 -8 -33 -22 -52 -44 -174 -64 -199 -33 -17 20 -1 27
51 25 59 -3 79 6 106 47 25 41 28 72 8 100 -13 17 -25 19 -108 16 -84 -3 -97
-1 -128 20 -35 24 -53 68 -28 68 7 0 31 -7 53 -15 22 -8 63 -14 92 -15 42 0
55 4 67 21 8 12 19 18 25 14 17 -10 13 11 -4 25 -8 7 -12 16 -9 21 5 8 -59
141 -154 319 -24 47 -83 141 -130 210 -48 69 -97 142 -111 163 -13 20 -28 37
-31 37 -14 0 -30 -53 -30 -98 0 -45 -3 -51 -63 -110 -73 -72 -91 -78 -81 -27
9 50 -13 54 -73 12 -43 -30 -50 -41 -73 -110 -30 -91 -46 -112 -99 -128 -42
-13 -75 -8 -105 16 -25 19 -15 31 12 14 38 -24 113 17 138 77 19 45 18 128 -1
144 -12 10 -13 5 -9 -37 l6 -48 -88 1 c-49 0 -97 1 -106 2 -23 3 -58 37 -58
58 0 15 2 15 26 -1 28 -18 75 -15 101 6 7 7 13 31 13 55 0 36 6 49 36 79 20
20 34 38 31 41 -2 3 -21 -3 -42 -13 -34 -16 -37 -16 -46 -1 -13 23 -67 32
-116 19 -67 -18 -122 -65 -150 -129 -24 -53 -25 -64 -18 -162 6 -103 6 -106
-19 -133 -15 -16 -36 -27 -51 -27 l-27 0 26 31 c21 25 24 34 15 50 -6 11 -18
19 -27 17 -16 -3 -27 -21 -72 -118 -31 -68 -147 -144 -187 -122 -10 6 -4 13
27 27 22 10 56 35 75 56 32 36 54 97 41 118 -3 5 1 16 9 24 24 24 18 29 -16
11 -43 -22 -76 -11 -96 31 -21 44 -11 54 28 31 39 -23 78 -16 119 20 34 31 41
82 13 105 -15 13 -15 12 -5 -8 16 -29 15 -58 -2 -72 -10 -8 -23 -6 -52 10
-117 65 -254 -59 -254 -229 0 -34 -6 -49 -28 -71 -15 -15 -34 -30 -42 -33 -8
-3 -12 -8 -8 -12 3 -4 20 0 38 9 l31 16 47 -43 c26 -23 52 -47 58 -53 210
-190 334 -311 365 -355 30 -42 59 -116 59 -151 0 -14 12 -48 27 -75 24 -45 27
-59 27 -160 1 -78 5 -116 15 -127 16 -20 17 -77 2 -104 -5 -11 -11 -39 -12
-61 -2 -28 -8 -44 -19 -47 -37 -12 -68 -60 -84 -132 -9 -39 -13 -80 -10 -90 5
-15 4 -16 -6 -3 -10 13 -11 12 -7 -5 2 -11 -2 -26 -10 -33 -8 -8 -13 -9 -13
-2 0 6 -11 3 -25 -6 -24 -16 -25 -15 -35 10 -10 29 -6 40 40 106 14 19 31 35
39 35 8 0 16 7 18 15 4 13 3 13 -6 0 -8 -11 -11 -11 -11 -2 0 7 7 15 15 18 8
4 15 10 15 15 0 5 11 32 24 59 13 28 20 48 15 44 -5 -3 -9 19 -9 48 0 29 -7
75 -15 102 -10 31 -14 81 -12 140 2 90 2 92 -42 171 -23 44 -54 111 -68 150
-24 64 -61 133 -87 161 -6 7 -22 27 -36 45 -61 80 -198 207 -257 240 -35 18
-63 37 -63 41 0 15 -45 8 -66 -10 -11 -9 -36 -41 -54 -71 -29 -47 -99 -111
-120 -111 -4 0 9 17 30 38 51 51 62 103 29 138 -17 18 -20 27 -11 36 8 8 17 7
36 -6 32 -21 34 -7 3 22 -27 25 -68 29 -166 17 -56 -7 -66 -6 -77 10 -15 20
-19 75 -6 75 5 0 21 -13 37 -30 35 -37 76 -45 135 -26 25 8 42 15 38 15 -4 1
0 17 8 37 13 30 13 44 3 84 -12 49 -7 86 11 75 5 -3 10 -15 10 -25 0 -10 10
-26 21 -34 18 -12 20 -19 11 -44 -5 -16 -6 -35 -2 -43 7 -10 10 -9 15 6 3 11
15 37 25 57 11 20 17 44 14 53 -6 14 -8 14 -25 -1 -10 -9 -22 -13 -27 -10 -16
10 -24 58 -12 66 8 5 6 12 -6 24 -12 13 -30 16 -63 14 -40 -3 -46 -1 -46 17 0
17 9 21 67 27 37 3 71 9 77 12 5 4 17 28 26 55 15 47 36 68 56 55 5 -3 9 -13
9 -23 0 -11 12 -24 29 -31 24 -10 33 -9 55 5 34 23 33 27 -8 24 -29 -3 -41 3
-71 34 -22 22 -34 44 -31 52 3 8 1 15 -4 15 -6 0 -10 -9 -10 -21 0 -25 -34
-71 -45 -61 -4 4 -4 -4 0 -17 5 -15 3 -21 -3 -17 -6 4 -8 -2 -5 -14 6 -22 -12
-50 -32 -50 -7 0 -15 9 -18 20 -11 43 -91 44 -140 2 -26 -23 -126 -28 -163 -9
-44 23 -78 63 -70 83 6 15 12 12 37 -20 25 -29 34 -34 45 -25 11 9 14 9 14 -1
0 -9 11 -11 37 -7 41 7 133 89 133 119 0 9 -20 40 -45 68 -30 34 -45 60 -45
78 l1 27 20 -28 c12 -15 39 -37 61 -48 66 -33 168 -25 168 13 0 6 -9 8 -20 4
-67 -20 -67 -20 -37 3 16 14 27 32 27 48 0 18 4 24 15 19 19 -7 19 -5 0 30
-17 33 -20 74 -5 74 5 0 18 -20 29 -44 10 -24 28 -49 39 -55 26 -14 107 -14
132 -1 10 6 21 6 24 2 9 -16 -24 -51 -57 -61 l-32 -9 37 -1 c67 -2 90 55 68
169 -4 25 -7 47 -5 49 2 2 18 -13 35 -32 33 -38 87 -62 124 -55 20 4 22 1 21
-52 0 -51 4 -61 37 -103 42 -51 42 -69 -4 -88 -23 -9 -38 -10 -59 -2 -23 9
-29 8 -29 -2 0 -16 22 -25 65 -25 37 0 95 41 95 68 0 9 -18 35 -41 58 -43 43
-60 103 -40 134 9 12 16 9 44 -18 65 -63 159 -63 211 -1 27 32 31 44 18 53 -4
2 -20 -10 -35 -29 -46 -58 -126 -57 -181 2 -31 33 -33 43 -7 43 25 0 38 17 46
62 8 40 28 64 45 53 5 -3 10 -36 10 -71 0 -48 3 -65 13 -62 7 3 13 27 15 62 4
69 -17 111 -50 102 -29 -7 -92 27 -106 59 -18 40 -6 47 43 23 60 -29 97 -18
106 32 3 19 11 45 17 57 19 34 15 46 -23 72 -20 13 -38 34 -41 47 -7 27 3 94
14 94 4 0 22 -23 40 -50 32 -50 33 -50 82 -49 28 1 56 -3 65 -11 13 -10 15 -9
15 9 0 11 -4 21 -10 21 -5 0 -10 8 -10 18 -1 17 -124 114 -204 160 -88 51
-166 -22 -166 -156 0 -69 -20 -97 -75 -108 -73 -13 -115 22 -80 69 8 12 27 37
40 56 37 51 33 83 -12 107 -42 22 -68 77 -57 121 l7 25 13 -30 c13 -31 40 -47
66 -37 16 7 38 47 38 70 0 26 -18 16 -29 -15 -11 -32 -38 -40 -48 -14 -3 8 0
27 6 41 13 28 3 47 -20 38 -26 -10 -59 -70 -59 -108 0 -52 18 -84 57 -102 19
-9 37 -23 39 -30 7 -18 -24 -83 -45 -94 -36 -19 -139 27 -141 62 0 10 5 9 44
-10 34 -16 37 -16 56 2 21 19 27 59 11 69 -5 3 -14 -8 -20 -24 -12 -35 -20
-37 -52 -11 -30 24 -35 97 -9 121 25 23 50 75 41 88 -5 8 -19 -3 -41 -34 -37
-52 -81 -75 -176 -95 -54 -11 -67 -10 -108 5 -39 15 -93 62 -83 72 1 2 23 -4
47 -12 85 -30 190 8 203 73 7 30 -22 163 -35 163 -4 0 -8 -4 -8 -9 0 -5 -43
-12 -95 -16 -90 -6 -97 -6 -138 18 -23 14 -55 39 -71 56 -26 27 -27 31 -10 31
10 0 41 -11 68 -25 37 -19 64 -25 110 -24 69 0 65 3 -64 43 -228 70 -298 81
-368 60 -9 -3 -6 1 8 9 l25 15 -25 6 c-111 22 -155 27 -158 17 -5 -15 -23 -14
-19 1 1 6 -5 13 -13 15 -13 3 -15 -35 -17 -289z m582 -207 c9 -15 60 -38 78
-35 13 2 16 -3 11 -21 -3 -13 0 -33 6 -45 12 -22 11 -22 -42 -15 -102 14 -362
4 -415 -16 -39 -14 -38 -11 1 16 96 65 229 114 338 124 9 0 19 -3 23 -8z m305
-8 c0 -32 -17 -49 -37 -37 -26 16 -27 33 -1 43 33 14 38 13 38 -6z m-84 -39
c-3 -8 9 -15 32 -21 33 -8 38 -14 50 -55 l13 -46 -48 -64 c-26 -36 -59 -73
-72 -83 -35 -27 -104 -31 -151 -10 -48 22 -63 13 -32 -18 19 -19 33 -22 95
-21 39 0 83 2 97 4 42 5 241 -20 320 -42 41 -11 89 -22 105 -25 17 -3 36 -14
43 -25 7 -10 26 -25 41 -33 23 -11 27 -19 23 -41 -2 -14 -7 -22 -11 -16 -28
42 -360 129 -621 162 -36 5 -112 16 -170 26 -58 9 -130 17 -160 16 l-55 0 50
8 c28 5 82 9 122 9 82 1 103 7 103 28 0 11 5 13 18 7 9 -4 40 -9 68 -12 66 -5
103 23 111 84 5 38 2 46 -34 85 -22 24 -42 56 -45 72 l-5 28 59 -2 c43 -2 58
-5 54 -15z m547 -121 c4 -2 7 -16 7 -30 0 -22 -3 -24 -22 -19 -13 4 -44 9 -70
13 -42 5 -48 9 -48 30 0 24 1 24 63 17 34 -4 65 -9 70 -11z m-3156 -199 c-3
-3 -12 -4 -19 -1 -8 3 -5 6 6 6 11 1 17 -2 13 -5z m-267 -172 c0 -13 59 -44
114 -58 28 -8 90 -17 139 -21 48 -3 87 -8 87 -11 0 -3 -10 -16 -22 -29 -24
-26 -61 -29 -98 -8 l-25 14 25 9 c23 9 20 10 -25 17 -27 4 -90 15 -140 25
l-90 18 -20 -24 c-20 -24 -95 -47 -122 -37 -7 3 -18 14 -23 23 -6 10 -20 20
-32 22 -25 4 50 30 152 53 69 16 80 17 80 7z m2690 -7 c69 -2 166 -12 215 -21
50 -9 110 -20 135 -23 39 -5 45 -9 48 -32 3 -26 2 -26 -40 -18 -24 4 -58 13
-76 18 -18 5 -36 11 -40 12 -4 1 -17 6 -28 11 -14 7 -28 7 -38 1 -12 -6 -47
-2 -108 13 -51 13 -125 26 -165 30 -40 3 -76 11 -79 16 -4 6 4 8 22 4 16 -3
85 -8 154 -11z m-360 -364 c-27 -15 -85 -21 -100 -10 -13 10 -13 10 0 6 9 -2
33 -1 55 3 55 11 62 11 45 1z m140 -5 c-15 -15 -12 -26 4 -20 15 6 61 -14 53
-23 -3 -2 -14 1 -25 8 -17 10 -23 10 -36 0 -9 -8 -16 -19 -16 -27 0 -23 -18
-25 -70 -4 -28 11 -55 18 -60 15 -5 -3 -11 -1 -14 4 -4 5 2 12 11 14 10 3 -4
3 -32 1 -48 -4 -46 -3 25 16 41 11 80 18 87 15 7 -2 13 0 13 4 0 5 16 9 35 8
23 -1 32 -4 25 -11z m58 -7 c18 -6 29 -16 25 -22 -3 -6 -1 -7 5 -3 12 7 74
-21 80 -37 2 -4 8 -5 13 -1 5 3 9 3 9 0 0 -10 -65 -33 -89 -31 -25 2 -65 45
-42 45 22 0 11 30 -16 44 -33 18 -27 20 15 5z m-318 -9 c13 -9 13 -10 0 -9 -8
0 -24 4 -35 9 l-20 9 20 0 c11 0 27 -4 35 -9z m1444 -34 c12 -15 121 -56 149
-56 26 0 20 -29 -8 -42 -21 -9 -34 -7 -78 12 -28 13 -61 32 -73 42 -11 10 -26
18 -32 18 -15 0 -15 7 1 25 16 18 27 19 41 1z m867 -271 c65 -112 100 -198
124 -307 9 -42 14 -81 11 -87 -3 -5 -18 -6 -34 -2 -25 7 -27 11 -28 62 -1 76
-36 172 -100 274 -67 107 -131 183 -184 220 l-40 27 22 27 22 26 86 -90 c48
-49 102 -117 121 -150z m-2291 96 c0 -5 8 -12 18 -14 9 -2 4 -3 -13 0 -37 4
-58 23 -27 23 12 0 22 -4 22 -9z m37 3 c-3 -3 -12 -4 -19 -1 -8 3 -5 6 6 6 11
1 17 -2 13 -5z m1664 -53 c-12 -21 -31 -29 -31 -13 0 5 -11 15 -25 22 -34 18
-31 28 8 32 43 5 63 -12 48 -41z m-1538 22 c9 -2 17 -9 17 -14 0 -5 8 -9 18
-9 14 0 15 2 2 10 -13 8 -12 10 3 10 35 0 136 -33 130 -43 -3 -6 -1 -7 6 -3 6
4 21 4 33 0 21 -6 21 -7 4 -20 -17 -12 -17 -13 8 -20 14 -3 26 -10 26 -14 0
-4 -29 2 -64 13 -42 14 -61 25 -53 30 7 5 1 6 -15 3 -14 -3 -37 -2 -50 3 -22
8 -22 9 12 19 30 9 27 9 -30 6 -42 -2 -60 -1 -51 5 12 8 8 11 -15 16 -16 4
-35 8 -41 11 -7 2 -13 -1 -13 -6 0 -5 -8 -6 -17 -3 -15 6 -14 7 3 14 18 7 42
4 87 -8z m1746 -104 c93 -107 92 -105 139 -197 83 -159 110 -271 114 -476 2
-104 0 -140 -9 -143 -8 -3 -13 4 -13 19 0 84 -65 287 -143 448 -53 110 -97
176 -179 272 l-49 57 23 60 c27 69 21 71 117 -40z m-1429 0 c0 -4 20 -6 45 -4
25 2 47 -1 50 -6 4 -5 1 -9 -5 -9 -7 0 -5 -7 4 -16 12 -12 13 -20 6 -35 -13
-24 -22 -24 -44 0 -10 11 -28 22 -42 25 -13 4 -24 11 -24 17 0 6 -4 7 -10 4
-5 -3 -23 7 -39 24 -17 18 -25 32 -18 34 14 5 77 -23 77 -34z m746 -25 c-3 -8
-10 -12 -16 -9 -5 3 -10 1 -10 -6 0 -7 -3 -10 -6 -6 -9 9 6 48 17 42 5 -4 9 0
10 7 0 10 2 10 6 0 3 -7 2 -20 -1 -28z m-2243 -111 c-7 -2 -19 -2 -25 0 -7 3
-2 5 12 5 14 0 19 -2 13 -5z m787 -68 c15 -9 19 -15 10 -15 -12 0 -11 -4 4
-15 11 -8 15 -15 9 -15 -15 0 -34 25 -25 35 4 4 -4 4 -18 1 -17 -5 -21 -4 -11
2 11 8 10 11 -5 15 -12 3 -13 5 -4 5 8 1 26 -5 40 -13z m201 -22 c13 -15 12
-15 -11 -3 -34 17 -36 20 -18 20 9 0 22 -7 29 -17z m-136 -17 c17 -26 67 -51
97 -49 11 1 28 -7 39 -18 10 -10 15 -19 10 -19 -5 0 -17 7 -26 16 -9 9 -18 14
-22 11 -7 -8 -84 23 -101 40 -7 7 -10 13 -6 13 4 0 -1 7 -12 15 -10 8 -13 15
-7 15 7 0 20 -11 28 -24z m225 -16 c0 -5 -7 -10 -16 -10 -8 0 -12 5 -9 10 3 6
10 10 16 10 5 0 9 -4 9 -10z m-59 -23 c-6 -8 -8 -17 -4 -21 4 -4 0 -4 -10 0
-22 8 -22 21 1 27 9 3 19 5 21 6 2 0 -2 -5 -8 -12z m64 -7 c3 -5 1 -10 -4 -10
-6 0 -11 5 -11 10 0 6 2 10 4 10 3 0 8 -4 11 -10z m75 -3 c20 -6 37 -16 37
-22 2 -12 37 -23 80 -24 17 -1 38 -8 47 -16 8 -9 19 -14 23 -13 9 2 73 -30 73
-38 0 -2 -10 -9 -22 -15 -20 -8 -20 -9 6 -4 23 5 27 3 23 -9 -4 -10 -1 -13 9
-9 11 4 12 9 5 16 -6 6 -11 16 -11 21 1 6 9 1 20 -12 10 -12 34 -28 52 -34 44
-15 68 -37 68 -63 0 -11 7 -30 15 -41 15 -19 15 -19 9 1 -4 16 -4 17 5 5 5 -9
11 -22 13 -29 2 -7 16 -26 31 -42 16 -16 26 -33 22 -38 -3 -5 0 -13 6 -17 8
-4 9 -3 5 4 -4 7 -2 12 3 12 6 0 11 -4 11 -8 0 -5 24 -25 53 -45 42 -29 57
-46 66 -78 8 -25 31 -59 61 -89 27 -27 52 -62 56 -77 19 -85 28 -112 51 -152
20 -34 22 -43 9 -38 -9 4 -16 2 -16 -3 0 -6 7 -10 15 -10 8 0 15 -7 15 -16 0
-8 -4 -13 -9 -10 -10 6 -24 -30 -22 -54 2 -13 1 -13 -8 0 -6 8 -11 24 -12 35
-1 17 -2 16 -9 -5 -4 -14 -8 -34 -8 -45 0 -16 2 -14 7 5 7 22 9 19 16 -22 4
-26 3 -59 -3 -75 -9 -28 -9 -28 -20 17 -5 25 -10 38 -11 30 -1 -19 -69 -19
-81 -1 -5 10 -9 9 -13 -3 -4 -9 -1 -16 6 -16 6 0 1 -7 -11 -16 -12 -8 -27 -12
-32 -9 -6 4 -10 -6 -11 -22 0 -25 -1 -26 -9 -8 -8 19 -9 19 -9 -2 -1 -12 -5
-24 -10 -27 -10 -6 -25 24 -16 32 3 3 5 -1 5 -9 0 -7 9 2 19 21 18 33 18 35 2
43 -19 9 -18 50 2 75 6 8 6 12 -1 12 -14 0 -22 27 -27 90 -3 42 -2 48 5 25 7
-28 8 -27 7 12 -2 31 -5 39 -14 31 -15 -12 -34 29 -27 58 3 12 -10 35 -35 62
-35 39 -38 47 -30 74 12 45 17 44 14 -1 -1 -22 2 -38 6 -35 5 3 6 -3 2 -13 -5
-14 -3 -15 6 -7 10 9 10 17 1 34 -6 12 -9 28 -6 37 9 23 -4 36 -22 21 -12 -10
-16 -10 -19 0 -3 6 -12 12 -20 12 -14 0 -14 -2 -1 -17 18 -21 31 -43 25 -43
-2 0 -19 21 -37 48 -19 26 -27 41 -18 34 14 -11 16 -8 15 21 -1 35 -19 45 -44
24 -9 -6 -13 -6 -13 2 0 7 -3 10 -7 8 -5 -2 -24 15 -43 37 -24 28 -27 35 -10
21 14 -11 28 -24 32 -30 5 -6 8 -6 8 1 0 6 -7 17 -15 24 -8 7 -13 16 -10 20 2
4 -11 6 -30 4 -19 -1 -38 2 -41 8 -4 7 -2 8 4 4 21 -13 13 10 -12 33 -14 13
-30 20 -36 16 -16 -10 -51 25 -45 45 3 10 -1 23 -10 30 -8 7 -12 16 -9 21 3 5
-2 9 -10 9 -21 0 -20 -9 1 -34 14 -17 12 -16 -9 2 -20 18 -25 31 -22 54 3 27
2 29 -9 14 -11 -15 -15 -15 -24 -4 -5 7 -10 21 -10 30 0 13 4 15 18 7 22 -11
26 -4 27 40 0 22 -6 40 -16 48 -20 15 -52 17 -52 3 0 -5 -9 -14 -21 -21 -16
-8 -24 -8 -33 2 -8 9 -8 10 1 5 6 -3 19 -3 30 1 16 6 15 8 -7 14 l-25 7 27 1
c41 2 24 28 -23 36 -21 4 -39 11 -39 16 0 12 8 11 50 -4z m-26 -26 c3 -5 -3
-11 -14 -14 -20 -5 -26 3 -13 16 9 10 21 9 27 -2z m-29 -51 c3 -5 -4 -6 -15
-3 -11 3 -22 9 -25 13 -3 5 4 6 15 3 11 -3 22 -9 25 -13z m49 -25 c11 -8 16
-15 10 -15 -5 0 -18 7 -28 15 -11 8 -16 15 -10 15 5 0 18 -7 28 -15z m40 -31
c3 -8 2 -12 -4 -9 -6 3 -10 10 -10 16 0 14 7 11 14 -7z m-3154 -34 c-14 -4
-42 -8 -64 -9 -77 -2 -285 -42 -378 -73 -33 -10 -62 -17 -65 -15 -8 8 209 90
257 97 65 10 281 10 250 0z m5415 -59 c1 -58 0 -59 -30 -64 -31 -5 -50 2 -27
10 16 6 16 85 0 101 -9 9 -4 12 23 12 l34 0 0 -59z m10 -146 c6 -2 9 -20 7
-43 -3 -33 -8 -41 -25 -44 -16 -2 -23 -12 -28 -38 -4 -19 -17 -60 -30 -90 -13
-30 -24 -56 -24 -57 -1 -1 -11 0 -23 4 -20 5 -21 7 -8 22 32 36 53 135 56 258
0 8 8 9 33 1 17 -6 37 -12 42 -13z m-4895 -88 c23 -10 22 -11 -21 -17 -93 -12
-102 -52 -34 -150 44 -64 70 -140 47 -140 -6 0 -12 14 -14 32 -4 45 -42 69
-122 77 -51 5 -67 4 -71 -7 -11 -29 -4 -69 21 -115 15 -28 23 -56 19 -65 -5
-14 -9 -11 -22 13 -29 56 -64 85 -103 85 -48 0 -76 -22 -84 -66 -5 -25 -11
-34 -22 -30 -15 6 -18 -3 -6 -20 13 -20 50 -34 89 -34 47 0 75 -19 97 -64 23
-49 21 -64 -6 -39 -47 42 -101 56 -126 31 -7 -7 -12 -35 -12 -64 0 -33 -5 -56
-15 -64 -12 -10 -16 -10 -19 1 -22 76 -34 95 -70 114 -60 32 -87 95 -40 95 30
0 54 47 54 110 0 22 5 40 10 40 6 0 10 -9 10 -21 0 -11 5 -17 10 -14 6 3 10
15 10 25 0 27 27 50 59 50 37 0 51 17 51 62 0 34 3 38 25 38 28 0 61 29 87 77
37 70 116 94 198 60z m3007 -23 c2 -5 -5 -10 -16 -10 -11 0 -17 5 -14 14 6 14
25 12 30 -4z m1168 -476 c-17 -161 -65 -245 -179 -321 -38 -25 -56 -27 -56 -6
0 6 5 7 10 4 14 -9 68 26 110 71 19 21 29 34 21 29 -8 -5 -3 7 12 27 15 19 27
40 27 47 0 7 7 26 16 43 9 17 18 47 20 67 3 20 6 45 9 56 2 11 4 26 4 33 1 6
4 12 7 12 3 0 3 -28 -1 -62z m460 -10 c-11 -79 -16 -87 -44 -77 -17 7 -21 13
-15 27 5 9 8 36 9 60 0 39 2 42 28 42 l29 0 -7 -52z m-1445 -67 c0 -6 -4 -13
-10 -16 -5 -3 -10 1 -10 9 0 9 5 16 10 16 6 0 10 -4 10 -9z m1398 -108 c2 -1
-17 -23 -42 -50 -25 -26 -49 -57 -53 -68 -10 -34 -54 -85 -73 -85 -9 0 -25 9
-36 21 -18 20 -18 21 6 40 14 10 30 19 36 19 19 0 73 68 80 98 3 15 10 38 15
51 l10 24 27 -24 c15 -13 29 -25 30 -26z m-1246 19 c-7 -2 -10 -8 -6 -13 3 -5
0 -9 -5 -9 -6 0 -11 -7 -11 -16 0 -14 -3 -14 -15 -4 -23 19 -19 48 8 52 25 4
48 -3 29 -10z m-3651 -48 c12 -33 7 -39 -20 -25 -18 10 -19 14 -8 31 15 25 16
25 28 -6z m994 -6 c4 -18 14 -46 22 -61 8 -16 13 -31 11 -33 -2 -2 -21 2 -42
8 -29 9 -45 9 -69 0 -36 -14 -52 -4 -62 39 -6 24 -3 27 32 33 21 3 49 15 63
26 34 26 37 25 45 -12z m-1147 -13 c13 -28 57 -44 75 -26 6 6 17 11 24 11 22
0 93 -71 93 -93 0 -16 -3 -18 -12 -9 -15 15 -50 15 -82 1 -47 -22 -73 -145
-29 -137 21 4 72 -70 80 -115 7 -47 -8 -48 -36 -1 -21 34 -22 35 -78 32 l-58
-3 -6 -55 c-7 -68 -14 -85 -46 -105 -26 -18 -44 -12 -25 7 15 15 16 92 2 118
-8 16 -5 19 21 25 64 14 86 106 54 225 -15 57 -20 132 -8 143 11 12 20 8 31
-18z m3637 6 c-3 -6 -11 -11 -16 -11 -5 0 -4 6 3 14 14 16 24 13 13 -3z m125
-14 c0 -5 -4 -5 -10 -2 -5 3 -10 14 -10 23 0 15 2 15 10 2 5 -8 10 -19 10 -23z
m354 -123 c3 -8 2 -12 -4 -9 -6 3 -10 10 -10 16 0 14 7 11 14 -7z m-535 -74
c0 -9 -4 -8 -9 5 -5 11 -9 27 -9 35 0 9 4 8 9 -5 5 -11 9 -27 9 -35z m-38 7
c-10 -9 -11 -8 -5 6 3 10 9 15 12 12 3 -3 0 -11 -7 -18z m-31 -47 c0 -5 -5
-10 -11 -10 -5 0 -7 5 -4 10 3 6 8 10 11 10 2 0 4 -4 4 -10z m-263 -36 c-3 -3
-12 -4 -19 -1 -8 3 -5 6 6 6 11 1 17 -2 13 -5z m303 -59 c0 -5 -5 -3 -10 5 -5
8 -10 20 -10 25 0 6 5 3 10 -5 5 -8 10 -19 10 -25z m-3806 -21 c25 -10 19 -33
-14 -52 -34 -20 -70 -79 -70 -116 0 -31 -11 -33 -34 -8 -15 18 -15 20 5 38 12
10 29 35 38 54 16 35 51 90 56 90 2 0 10 -3 19 -6z m3566 -114 c27 -52 26 -55
-17 -58 -20 -1 -56 -13 -79 -27 -23 -14 -45 -25 -47 -25 -3 0 -8 17 -12 37 -4
20 -15 54 -26 75 -11 21 -15 38 -10 38 5 0 12 -4 16 -9 8 -13 88 -25 114 -16
12 3 21 13 21 21 0 23 18 7 40 -36z m570 26 c0 -2 -7 -7 -16 -10 -8 -3 -12 -2
-9 4 6 10 25 14 25 6z m-384 -15 c-4 -5 -1 -11 5 -13 7 -2 6 -8 -3 -16 -12
-10 -14 -8 -12 11 3 27 3 27 10 27 3 0 3 -4 0 -9z m-3854 -123 c-6 -6 -19 -4
-36 7 -35 23 -93 13 -108 -20 l-10 -23 -23 26 c-24 28 -22 70 6 82 7 4 23 11
33 17 16 8 32 1 84 -35 41 -29 60 -48 54 -54z m4382 56 c8 -21 8 -24 -5 -24
-5 0 -7 5 -3 12 5 7 2 9 -9 5 -11 -4 -14 -2 -10 9 7 19 19 18 27 -2z m22 -56
c4 -5 -4 -8 -17 -6 -12 1 -24 8 -26 15 -5 14 34 6 43 -9z m444 -514 c0 -8 -27
-34 -36 -34 -3 0 -1 6 5 13 6 8 8 17 4 20 -3 4 1 7 10 7 10 0 17 -3 17 -6z
m-87 -31 c-7 -2 -19 -2 -25 0 -7 3 -2 5 12 5 14 0 19 -2 13 -5z m52 -33 c-3
-5 -21 -9 -38 -9 l-32 1 30 8 c43 11 47 11 40 0z m-5025 -40 c12 -7 8 -10 -15
-10 -16 0 -37 5 -45 10 -12 7 -8 10 15 10 17 0 37 -5 45 -10z m4925 -60 c3 -6
-4 -10 -17 -10 -18 0 -20 2 -8 10 19 12 18 12 25 0z m63 -65 c-3 -3 -9 2 -12
12 -6 14 -5 15 5 6 7 -7 10 -15 7 -18z m-95 8 c-7 -2 -19 -2 -25 0 -7 3 -2 5
12 5 14 0 19 -2 13 -5z m67 3 c0 -2 -7 -7 -16 -10 -8 -3 -12 -2 -9 4 6 10 25
14 25 6z m335 -56 c-3 -5 -11 -10 -16 -10 -6 0 -7 5 -4 10 3 6 11 10 16 10 6
0 7 -4 4 -10z m-75 -24 c0 -2 -8 -10 -17 -17 -16 -13 -17 -12 -4 4 13 16 21
21 21 13z m109 -12 c2 -2 -7 -4 -22 -4 -14 0 -29 5 -32 10 -6 10 42 4 54 -6z
m151 -32 c0 -9 -9 -23 -19 -29 -16 -10 -19 -9 -16 5 2 9 4 23 4 30 1 19 31 14
31 -6z m-50 -7 c0 -8 -4 -15 -10 -15 -5 0 -10 7 -10 15 0 8 5 15 10 15 6 0 10
-7 10 -15z m-433 -71 c-3 -3 -12 -4 -19 -1 -8 3 -5 6 6 6 11 1 17 -2 13 -5z
m-90 -90 c-3 -3 -12 -4 -19 -1 -8 3 -5 6 6 6 11 1 17 -2 13 -5z m250 -10 c-3
-3 -12 -4 -19 -1 -8 3 -5 6 6 6 11 1 17 -2 13 -5z m617 -54 c-13 -13 -85 -20
-77 -7 3 5 13 7 23 4 10 -2 24 -1 31 4 20 12 35 11 23 -1z m-114 -30 c-8 -5
-22 -9 -30 -9 -10 0 -8 3 5 9 27 12 43 12 25 0z m-717 -7 c-7 -2 -19 -2 -25 0
-7 3 -2 5 12 5 14 0 19 -2 13 -5z m104 1 c-3 -3 -12 -4 -19 -1 -8 3 -5 6 6 6
11 1 17 -2 13 -5z m550 -10 c-3 -3 -12 -4 -19 -1 -8 3 -5 6 6 6 11 1 17 -2 13
-5z m-4170 -81 c1 -21 4 -53 8 -70 5 -22 3 -33 -4 -33 -6 0 -11 8 -11 19 0 10
-7 24 -15 31 -20 17 -16 90 5 90 12 0 16 -11 17 -37z m2197 -62 c9 -14 -4 -41
-19 -41 -17 0 -38 27 -30 40 8 12 42 13 49 1z m2021 -191 c-3 -5 -12 -10 -18
-10 -7 0 -6 4 3 10 19 12 23 12 15 0z m34 -93 c-2 -1 -13 -9 -24 -17 -19 -14
-19 -14 -6 3 7 9 18 17 24 17 6 0 8 -1 6 -3z m-4755 -548 c25 -30 35 -82 17
-93 -5 -3 -14 8 -21 24 -7 17 -24 39 -38 50 -20 16 -22 22 -12 35 18 21 25 19
54 -16z m632 -11 c24 -11 44 -24 44 -30 0 -5 -10 -2 -22 6 -13 9 -43 16 -70
16 -81 0 -100 -57 -48 -145 37 -63 38 -82 5 -82 -21 0 -24 3 -19 19 8 26 -10
45 -52 52 -26 5 -38 14 -45 34 -6 15 -7 32 -2 38 4 6 20 30 35 52 32 48 73 74
107 66 13 -3 43 -14 67 -26z m2409 12 c28 -18 28 -20 8 -20 -37 0 -26 -17 14
-25 21 -4 89 -22 152 -42 l115 -34 16 21 c13 17 30 23 81 27 62 5 65 4 87 -26
13 -18 32 -31 45 -31 18 -1 19 -2 6 -10 -8 -5 -74 -14 -145 -21 l-129 -12 -34
30 c-36 34 -104 59 -254 95 -53 12 -97 25 -97 28 0 11 56 38 80 39 14 0 39 -8
55 -19z m-2969 -25 c16 -8 39 -15 52 -15 16 0 22 -6 22 -21 0 -14 -5 -19 -14
-16 -8 3 -31 9 -50 13 -20 3 -36 10 -36 14 0 5 -3 15 -6 24 -8 20 -4 20 32 1z
m299 -94 c16 -9 32 -25 33 -35 4 -17 2 -16 -19 3 -32 30 -59 27 -72 -9 -13
-34 -16 -35 -41 -17 -18 13 -18 15 -1 51 16 33 21 37 44 31 14 -4 39 -14 56
-24z m85 -111 c13 -9 13 -11 0 -20 -22 -15 -30 -12 -30 10 0 22 8 25 30 10z"/>
<path d="M4520 6421 c0 -17 25 -31 58 -31 22 0 13 19 -13 26 -14 3 -25 10 -25
15 0 5 -4 9 -10 9 -5 0 -10 -8 -10 -19z"/>
<path d="M4091 5544 c0 -11 3 -14 6 -6 3 7 2 16 -1 19 -3 4 -6 -2 -5 -13z"/>
<path d="M4110 5525 c0 -8 2 -15 4 -15 2 0 6 7 10 15 3 8 1 15 -4 15 -6 0 -10
-7 -10 -15z"/>
<path d="M4258 5523 c7 -3 16 -2 19 1 4 3 -2 6 -13 5 -11 0 -14 -3 -6 -6z"/>
<path d="M4227 5513 c-15 -15 -5 -23 26 -22 30 2 30 2 4 6 -15 2 -25 9 -22 14
7 10 1 12 -8 2z"/>
<path d="M4198 5283 c7 -3 16 -2 19 1 4 3 -2 6 -13 5 -11 0 -14 -3 -6 -6z"/>
<path d="M4260 4820 c0 -5 -10 -10 -22 -10 -12 0 -19 -3 -15 -6 9 -9 57 5 57
16 0 6 -4 10 -10 10 -5 0 -10 -4 -10 -10z"/>
<path d="M4120 4761 c0 -6 5 -13 10 -16 6 -3 10 1 10 9 0 9 -4 16 -10 16 -5 0
-10 -4 -10 -9z"/>
<path d="M4338 4758 c9 -9 15 -9 24 0 9 9 7 12 -12 12 -19 0 -21 -3 -12 -12z"/>
<path d="M4390 4740 c0 -5 7 -10 16 -10 8 0 12 5 9 10 -3 6 -10 10 -16 10 -5
0 -9 -4 -9 -10z"/>
<path d="M4319 4738 c-5 -17 -4 -68 3 -86 7 -21 9 -22 24 -8 19 20 29 20 48 0
15 -14 16 -14 16 1 0 8 -11 21 -25 27 -14 6 -25 18 -25 26 0 7 -10 17 -22 20
-23 6 -23 6 2 13 24 7 24 7 3 8 -13 1 -23 0 -24 -1z"/>
<path d="M4213 4696 c5 -16 24 -18 30 -4 3 9 -3 14 -14 14 -11 0 -18 -5 -16
-10z"/>
<path d="M4296 4695 c-3 -9 -6 -22 -5 -28 0 -7 5 -1 10 12 5 13 8 26 5 28 -2
2 -6 -3 -10 -12z"/>
<path d="M4227 4646 c-7 -19 15 -37 32 -27 10 6 9 12 -4 25 -20 20 -21 20 -28
2z"/>
<path d="M4280 4622 c0 -4 9 -13 20 -20 16 -10 20 -10 20 2 0 8 -7 17 -16 20
-20 8 -24 8 -24 -2z"/>
<path d="M4516 4585 c4 -8 8 -15 10 -15 2 0 4 7 4 15 0 8 -4 15 -10 15 -5 0
-7 -7 -4 -15z"/>
<path d="M4560 4486 c0 -2 7 -6 15 -10 8 -3 15 -1 15 4 0 6 -7 10 -15 10 -8 0
-15 -2 -15 -4z"/>
<path d="M4651 4434 c0 -11 3 -14 6 -6 3 7 2 16 -1 19 -3 4 -6 -2 -5 -13z"/>
<path d="M4615 4209 c19 -36 24 -37 21 -2 -2 15 -10 27 -19 29 -15 2 -15 -1
-2 -27z"/>
<path d="M4811 4194 c0 -11 3 -14 6 -6 3 7 2 16 -1 19 -3 4 -6 -2 -5 -13z"/>
<path d="M4601 4195 c1 -19 18 -51 18 -35 0 8 -4 22 -9 30 -5 8 -9 11 -9 5z"/>
<path d="M4830 4126 c0 -8 5 -18 10 -21 6 -3 10 1 10 9 0 8 -4 18 -10 21 -5 3
-10 -1 -10 -9z"/>
<path d="M4810 4101 c0 -5 5 -13 10 -16 6 -4 8 -11 5 -16 -4 -5 1 -9 10 -9 12
0 14 4 5 19 -12 23 -30 36 -30 22z"/>
<path d="M4831 3894 c0 -11 3 -14 6 -6 3 7 2 16 -1 19 -3 4 -6 -2 -5 -13z"/>
<path d="M4680 3889 c0 -5 5 -7 10 -4 6 3 10 8 10 11 0 2 -4 4 -10 4 -5 0 -10
-5 -10 -11z"/>
<path d="M4760 3789 c0 -5 5 -7 10 -4 6 3 10 8 10 11 0 2 -4 4 -10 4 -5 0 -10
-5 -10 -11z"/>
<path d="M2798 6963 c-16 -2 -28 -9 -28 -15 0 -5 7 -7 15 -4 9 3 18 -1 21 -9
3 -8 12 -11 22 -8 13 6 13 8 -4 14 -18 6 -17 8 6 17 26 11 16 12 -32 5z"/>
<path d="M2855 6949 c-11 -17 1 -21 15 -4 8 9 8 15 2 15 -6 0 -14 -5 -17 -11z"/>
<path d="M2665 6941 c-3 -5 -18 -12 -35 -16 -47 -10 -54 -49 -46 -264 6 -157
4 -194 -10 -241 -26 -88 -47 -101 -76 -50 -23 41 -58 41 -58 1 0 -36 16 -81
29 -81 5 0 2 18 -6 40 -27 67 2 63 43 -5 8 -14 14 -16 29 -8 15 9 32 6 72 -8
40 -16 57 -18 72 -9 30 15 44 48 37 84 -5 25 0 40 19 66 34 46 32 67 -14 109
-38 35 -70 109 -56 131 3 5 29 -6 57 -25 35 -25 61 -35 87 -35 45 0 78 21 65
41 -5 8 -9 18 -9 24 0 5 -14 17 -30 25 -22 11 -29 21 -27 37 5 37 -15 60 -62
72 -26 6 -50 19 -56 30 -13 25 -13 71 0 71 6 0 10 5 10 10 0 13 -27 13 -35 1z
m-20 -31 c-3 -5 -14 -10 -23 -9 -14 0 -13 2 3 9 27 11 27 11 20 0z m-12 -26
c-7 -3 -11 -11 -9 -17 1 -7 1 -9 -1 -4 -3 4 -9 5 -14 1 -10 -6 -12 9 -2 19 3
4 13 7 22 6 10 0 11 -3 4 -5z"/>
<path d="M2712 6926 c4 -25 69 -60 97 -51 10 3 21 15 24 25 3 11 1 18 -3 15
-5 -3 -26 2 -47 11 -56 25 -75 25 -71 0z m68 -22 c0 -2 -9 0 -20 6 -11 6 -20
13 -20 16 0 2 9 0 20 -6 11 -6 20 -13 20 -16z"/>
<path d="M3049 6927 c-8 -7 -19 -21 -24 -32 -7 -18 -9 -18 -12 -2 -3 9 -12 17
-21 18 -10 1 -7 4 8 9 24 8 24 8 2 9 -32 1 -92 -26 -124 -56 -15 -14 -31 -22
-38 -18 -9 6 -10 -4 -5 -36 10 -68 14 -76 41 -94 35 -23 45 -8 11 17 -19 14
-27 28 -27 49 0 29 1 30 22 15 53 -38 147 -5 174 60 19 46 16 78 -7 61z m-79
-27 c0 -5 -7 -7 -15 -4 -8 4 -15 8 -15 10 0 2 7 4 15 4 8 0 15 -4 15 -10z
m-31 -13 c-2 -1 -13 -9 -24 -17 -19 -14 -19 -14 -6 3 7 9 18 17 24 17 6 0 8
-1 6 -3z m-49 -41 c0 -3 -4 -8 -10 -11 -5 -3 -10 -1 -10 4 0 6 5 11 10 11 6 0
10 -2 10 -4z m75 -6 c-28 -12 -37 -12 -30 0 3 6 16 10 28 9 21 0 21 -1 2 -9z"/>
<path d="M3078 6750 c-15 -16 -37 -31 -47 -35 -28 -8 -36 -75 -10 -75 6 0 7 5
4 11 -10 15 4 61 15 54 6 -4 8 -10 5 -15 -3 -5 6 -12 20 -16 45 -11 98 43 83
87 -8 23 -41 18 -70 -11z m55 -7 c-3 -7 -9 -10 -14 -7 -14 8 -11 21 5 21 8 0
12 -6 9 -14z"/>
<path d="M4595 6738 c14 -47 78 -65 106 -31 13 15 11 16 -23 9 -33 -6 -39 -4
-54 19 -20 31 -38 33 -29 3z"/>
<path d="M3087 6614 c-4 -5 -17 -9 -29 -9 -22 0 -72 -55 -83 -93 -8 -26 12
-37 50 -28 17 4 33 22 50 57 24 46 31 92 12 73z"/>
<path d="M2931 6499 c-1 -45 27 -84 74 -100 l34 -13 -20 -24 c-10 -14 -19 -31
-19 -38 0 -8 -7 -14 -16 -14 -13 0 -15 -7 -9 -37 8 -44 25 -68 25 -35 0 26 12
28 30 6 8 -8 25 -14 39 -12 21 2 27 9 29 33 2 16 13 36 24 43 27 19 37 52 25
80 -7 15 -16 21 -29 17 -10 -3 -27 -8 -38 -11 -11 -3 -20 -1 -20 5 0 6 -10 11
-22 11 -34 0 -76 39 -92 85 l-15 40 0 -36z"/>
<path d="M2792 6498 c-14 -19 -24 -74 -17 -97 3 -10 15 -21 25 -24 11 -3 20
-12 20 -20 0 -36 59 -26 80 13 8 15 5 28 -14 57 -20 33 -69 83 -80 83 -2 0 -8
-6 -14 -12z"/>
<path d="M3229 6253 c-14 -16 -35 -45 -47 -65 l-21 -38 26 -6 c39 -10 83 41
83 96 0 47 -8 49 -41 13z"/>
<path d="M4805 6270 c3 -5 21 -10 38 -9 31 1 31 1 7 9 -36 11 -52 11 -45 0z"/>
<path d="M5364 6244 c3 -9 6 -23 6 -32 0 -12 3 -13 11 -5 13 13 3 53 -13 53
-5 0 -7 -7 -4 -16z"/>
<path d="M2497 6243 c-4 -4 -4 -21 -1 -39 4 -22 0 -42 -12 -63 -10 -17 -15
-33 -12 -37 9 -8 75 14 93 33 19 19 20 83 1 83 -8 0 -16 7 -20 15 -5 15 -37
21 -49 8z"/>
<path d="M3115 6190 c-10 -11 -32 -24 -49 -28 -17 -5 -32 -16 -34 -25 -3 -13
4 -17 31 -17 41 0 74 25 83 63 7 32 -6 35 -31 7z"/>
<path d="M5242 6168 c-22 -27 -25 -85 -6 -117 21 -35 45 -42 37 -11 -3 11 -9
23 -14 26 -5 3 -9 21 -9 40 0 48 23 54 59 15 28 -29 71 -42 71 -21 0 6 -8 10
-19 10 -10 0 -31 16 -45 35 -28 36 -56 45 -74 23z"/>
<path d="M5587 6042 c-22 -23 -27 -37 -27 -79 0 -31 7 -64 17 -82 15 -25 16
-35 6 -60 -6 -17 -7 -31 -2 -31 17 0 22 54 10 115 -15 76 -7 111 30 131 17 8
27 19 24 24 -11 17 -30 11 -58 -18z"/>
<path d="M5435 6019 c-41 -20 -65 -71 -71 -155 -5 -59 -12 -85 -27 -101 -18
-20 -18 -23 -4 -23 26 0 44 40 50 112 8 84 28 124 72 142 37 16 47 36 18 35
-10 0 -27 -5 -38 -10z"/>
<path d="M5635 5981 c-9 -15 32 -51 58 -51 12 1 33 7 47 15 21 11 22 15 8 20
-9 4 -25 2 -36 -4 -16 -8 -25 -6 -45 9 -15 12 -28 16 -32 11z"/>
<path d="M5436 5963 c-19 -48 43 -119 92 -106 33 8 27 30 -7 25 -32 -4 -61 26
-61 65 0 27 -16 38 -24 16z"/>
<path d="M2285 5905 c-49 -30 -69 -40 -118 -59 -49 -20 -44 -40 12 -44 48 -4
130 30 174 72 25 23 27 28 13 41 -20 20 -34 19 -81 -10z"/>
<path d="M5780 5894 c0 -8 5 -12 10 -9 6 3 10 10 10 16 0 5 -4 9 -10 9 -5 0
-10 -7 -10 -16z"/>
<path d="M4728 5633 c-54 -6 -48 -26 6 -21 42 3 44 2 28 -15 -8 -10 -22 -15
-29 -12 -8 2 -11 0 -8 -5 10 -16 -12 -12 -29 5 -19 19 -33 1 -16 -20 21 -25
66 -18 105 16 36 32 47 56 20 45 -8 -3 -15 -1 -15 4 0 6 -6 9 -12 8 -7 -1 -30
-3 -50 -5z"/>
<path d="M4884 5566 c8 -59 72 -117 99 -90 4 4 -8 14 -26 23 -20 10 -41 33
-55 61 l-23 45 5 -39z"/>
<path d="M4580 5530 c-9 -6 -10 -10 -3 -10 6 0 15 5 18 10 8 12 4 12 -15 0z"/>
<path d="M4690 5412 c0 -5 10 -17 22 -28 l21 -19 -18 28 c-18 28 -25 33 -25
19z"/>
<path d="M4681 5311 c-6 -11 -11 -27 -11 -37 0 -9 -18 -34 -40 -54 -22 -20
-40 -42 -40 -48 0 -17 56 -15 90 3 43 22 37 28 -10 9 -55 -22 -61 -11 -17 30
20 19 37 35 37 37 0 2 4 19 9 36 11 37 -2 54 -18 24z"/>
<path d="M2002 5230 c-28 -7 -65 -29 -82 -51 -3 -4 -34 -20 -70 -36 -69 -32
-116 -72 -132 -112 -7 -20 -4 -29 17 -50 23 -23 33 -26 98 -26 62 1 81 6 135
35 77 41 104 80 76 112 -18 19 -17 20 24 59 48 46 54 69 18 69 -13 0 -30 2
-38 4 -7 2 -28 0 -46 -4z"/>
<path d="M4573 5063 c9 -2 25 -2 35 0 9 3 1 5 -18 5 -19 0 -27 -2 -17 -5z"/>
<path d="M2069 4951 c-25 -14 -71 -23 -155 -30 -230 -20 -438 -114 -577 -260
-72 -75 -73 -91 -9 -91 45 0 51 3 107 61 75 76 166 136 275 182 110 46 181 64
313 77 119 12 154 22 163 45 9 21 2 26 -43 31 -25 3 -50 -2 -74 -15z"/>
<path d="M2094 4856 c-17 -7 -39 -25 -50 -38 -11 -14 -36 -31 -57 -37 -21 -7
-44 -23 -52 -34 -16 -26 -23 -100 -9 -107 5 -3 10 13 12 35 4 46 35 85 68 85
13 0 32 14 48 35 32 41 81 58 131 44 46 -13 54 -29 15 -29 -74 0 -122 -63 -86
-113 39 -54 44 -63 51 -85 6 -21 5 -23 -13 -13 -12 6 -32 11 -46 11 -24 0 -26
4 -26 39 0 50 -8 71 -28 71 -12 0 -13 -3 -4 -12 25 -25 14 -47 -25 -50 -34 -3
-37 -6 -38 -33 0 -28 -3 -30 -44 -36 -45 -6 -71 -28 -71 -61 0 -27 19 -22 31
9 l10 28 25 -48 c13 -27 24 -50 24 -52 0 -2 -15 -1 -34 2 -28 4 -36 1 -46 -17
-26 -48 23 -105 69 -80 19 10 28 7 67 -25 30 -25 44 -44 44 -61 0 -32 -15 -30
-57 6 -36 32 -58 36 -97 18 -29 -13 -66 -81 -66 -121 0 -22 5 -27 38 -32 71
-12 82 -15 102 -37 12 -14 20 -35 20 -57 -1 -34 -2 -35 -15 -17 -14 19 -15 19
-15 -7 0 -32 23 -45 46 -26 23 19 13 93 -16 124 l-23 24 53 48 c52 46 52 47
46 92 -4 25 -9 84 -13 130 l-5 83 25 -17 c18 -11 27 -13 32 -5 5 7 20 9 41 5
78 -14 133 45 149 160 9 63 26 96 65 128 43 37 66 41 116 22 45 -17 51 -28 34
-55 -8 -13 -11 -12 -23 3 -20 28 -68 19 -84 -15 -19 -37 -7 -58 32 -58 37 0
85 33 85 58 0 31 43 73 85 82 68 16 149 -6 180 -47 13 -17 85 -30 85 -15 0 6
-16 23 -35 38 -45 34 -181 55 -247 37 -29 -8 -61 -8 -105 -1 -56 9 -68 7 -108
-12 l-44 -21 -20 20 c-37 37 -176 60 -227 37z m214 -98 c-6 -13 -17 -50 -24
-83 -9 -47 -13 -56 -19 -40 -5 11 -19 33 -32 48 -13 16 -23 37 -23 47 0 26 38
50 78 50 31 0 32 -1 20 -22z m-77 -218 c-31 -26 -61 -26 -61 0 0 17 7 20 43
20 l42 -1 -24 -19z"/>
<path d="M2640 4773 c-42 -16 -66 -54 -84 -135 -5 -20 -13 -28 -27 -28 -19 0
-17 -5 19 -44 41 -44 65 -107 43 -114 -23 -8 -10 -22 22 -22 50 0 117 -77 117
-132 -1 -23 -1 -23 -17 3 -36 58 -131 80 -168 39 -15 -17 -17 -31 -12 -90 l6
-70 -33 25 c-36 27 -93 34 -114 13 -21 -21 -14 -77 13 -104 20 -20 32 -24 53
-19 20 4 36 0 53 -14 39 -31 73 -35 124 -16 38 15 47 24 56 56 9 29 9 45 -1
68 -18 45 -28 38 -23 -16 l4 -48 -20 36 c-14 25 -33 42 -61 53 -37 15 -40 19
-40 55 0 43 20 71 51 71 15 0 19 -7 19 -33 0 -18 7 -42 15 -53 17 -23 18 -19
6 22 -19 67 28 64 70 -4 25 -39 39 -33 39 18 0 34 2 37 21 33 12 -4 32 3 49
16 16 11 30 21 32 21 2 0 3 -21 3 -46 0 -44 1 -46 38 -59 20 -7 44 -18 52 -25
18 -15 50 -109 40 -118 -4 -4 -10 0 -13 8 -3 8 -20 30 -38 48 -24 24 -41 32
-69 32 -77 0 -134 -65 -104 -119 19 -35 63 -40 79 -10 12 21 12 21 31 -10 17
-29 23 -31 75 -31 49 0 55 -2 49 -17 -3 -10 -9 -31 -12 -47 l-6 -28 64 7 c54
6 68 11 89 36 25 29 63 39 75 19 8 -13 55 -13 75 0 23 14 1 60 -40 81 -24 13
-55 19 -102 19 -66 0 -68 1 -68 25 0 32 -25 94 -49 120 -18 19 -18 21 6 58 29
45 50 56 66 32 9 -11 24 -16 47 -13 28 2 36 8 38 26 5 32 -23 71 -63 88 -47
19 -168 18 -208 -2 -18 -9 -47 -30 -65 -48 -32 -30 -34 -30 -44 -11 -20 35
-57 65 -86 71 -24 5 -28 10 -24 34 3 19 -3 39 -17 59 -41 57 -19 155 43 196
20 13 32 14 63 6 21 -6 52 -11 68 -10 20 0 4 8 -50 24 -78 24 -125 29 -155 18z
m390 -699 c-15 -17 -61 -15 -68 4 -2 8 9 12 38 12 37 0 41 -2 30 -16z"/>
<path d="M2435 4525 c-41 -21 -57 -48 -46 -78 11 -28 40 -42 55 -27 21 21 38
11 31 -20 -8 -36 -1 -50 23 -44 16 5 58 59 60 78 0 5 6 12 12 16 26 16 -50 91
-92 90 -7 0 -27 -7 -43 -15z"/>
<path d="M2256 4421 c-16 -16 -35 -27 -42 -24 -33 12 -95 -60 -77 -90 4 -6 10
-1 15 13 8 22 11 20 66 -39 32 -33 63 -61 70 -61 15 0 15 -19 2 -40 -9 -13
-12 -13 -23 1 -38 49 -116 49 -142 -1 -19 -37 -19 -71 0 -96 13 -17 14 -15 15
32 0 58 12 74 55 74 32 0 75 -34 75 -58 0 -28 28 -9 34 23 4 19 14 42 23 51
11 10 13 18 5 22 -7 5 -6 23 4 62 35 134 -9 205 -80 131z"/>
<path d="M6433 4215 c-28 -22 -59 -36 -89 -41 -51 -7 -94 7 -94 31 0 18 -16
20 -23 2 -11 -28 42 -67 90 -67 78 2 223 92 167 106 -5 1 -28 -13 -51 -31z"/>
<path d="M6303 4103 c-45 -4 -60 -23 -19 -23 13 0 27 -6 29 -12 3 -8 6 -6 6 5
1 12 9 17 31 17 37 0 74 -34 67 -61 -3 -13 -1 -19 6 -16 20 6 19 52 -1 70 -21
19 -60 26 -119 20z"/>
<path d="M6506 4083 c4 -20 -2 -39 -18 -63 -40 -59 -42 -66 -14 -40 38 34 59
77 52 106 -9 33 -27 30 -20 -3z"/>
<path d="M390 4091 c0 -5 7 -11 15 -15 30 -11 14 -22 -32 -21 -61 1 -66 -2
-48 -28 8 -12 15 -31 14 -42 0 -11 -3 -14 -6 -7 -7 19 -67 14 -96 -8 -24 -19
-48 -75 -62 -145 -5 -26 -1 -34 25 -54 37 -27 64 -24 68 7 2 13 10 22 21 22 9
0 22 5 29 12 14 14 37 -3 58 -45 15 -28 15 -29 -5 -22 -15 4 -21 2 -21 -9 0
-17 34 -31 51 -21 6 4 9 16 6 26 -6 23 6 24 38 3 29 -19 34 -52 8 -50 -27 2
-42 -124 -19 -159 21 -32 51 -32 81 1 l25 27 0 -31 c0 -22 9 -38 31 -56 17
-14 35 -24 40 -20 12 7 11 41 -2 79 -14 38 -4 105 15 105 8 0 19 7 26 15 10
12 9 20 -4 39 -30 46 -78 42 -119 -11 -10 -12 -23 -23 -28 -23 -18 0 -9 39 16
66 24 26 44 89 31 101 -3 3 -20 6 -37 7 -30 1 -32 3 -50 75 -10 41 -26 82 -34
91 -18 20 -19 31 -3 28 19 -4 21 38 3 56 -18 18 -35 21 -35 7z m0 -208 c0 -31
-14 -29 -28 2 -14 30 -15 58 -5 69 10 9 32 -41 33 -71z m80 -247 c0 -8 -4 -18
-10 -21 -5 -3 -10 3 -10 14 0 12 5 21 10 21 6 0 10 -6 10 -14z"/>
<path d="M1867 4089 c-26 -15 -50 -68 -43 -95 9 -35 26 -29 26 9 0 35 30 77
55 77 8 0 15 5 15 10 0 13 -30 12 -53 -1z"/>
<path d="M1912 4048 c-26 -13 -40 -54 -23 -71 8 -8 11 -6 11 10 0 12 11 30 25
41 39 31 32 41 -13 20z"/>
<path d="M6653 4046 c12 -31 -10 -61 -62 -85 -57 -25 -66 -49 -29 -75 25 -18
88 -22 88 -6 0 6 -15 10 -32 10 -68 0 -79 42 -14 54 21 4 44 18 56 33 23 29
23 74 1 81 -10 3 -12 0 -8 -12z"/>
<path d="M6320 4045 c0 -5 5 -17 10 -25 5 -8 10 -10 10 -5 0 6 -5 17 -10 25
-5 8 -10 11 -10 5z"/>
<path d="M2648 3963 c-8 -10 -8 -28 2 -69 12 -48 11 -59 -3 -90 -9 -19 -17
-37 -17 -40 0 -3 19 -3 43 1 50 8 75 33 83 86 4 22 10 39 15 39 19 0 59 -68
59 -101 0 -19 5 -41 11 -49 8 -11 9 -6 5 20 -3 19 -8 58 -12 85 -7 55 -29 101
-53 111 -37 16 -122 20 -133 7z"/>
<path d="M3040 3936 c0 -2 7 -17 15 -32 22 -42 19 -101 -5 -121 -30 -26 -24
-34 23 -27 61 9 91 44 84 101 -6 58 -30 83 -79 83 -21 0 -38 -2 -38 -4z"/>
<path d="M5711 3914 c0 -11 3 -14 6 -6 3 7 2 16 -1 19 -3 4 -6 -2 -5 -13z"/>
<path d="M2914 3872 c-21 -14 -34 -51 -34 -98 0 -31 -6 -54 -17 -67 -18 -20
-17 -20 32 -13 27 3 54 11 59 16 5 5 12 37 14 70 5 62 17 75 42 45 7 -8 17
-15 23 -15 15 0 -24 40 -55 56 -30 16 -48 17 -64 6z"/>
<path d="M6235 3760 c-3 -5 2 -10 12 -10 10 0 31 -7 47 -15 54 -29 79 -13 27
18 -32 19 -76 23 -86 7z"/>
<path d="M159 3691 c-18 -60 1 -90 34 -56 17 17 25 5 22 -32 -4 -54 49 -7 60
53 8 41 -8 63 -35 46 -18 -11 -20 -10 -20 8 0 15 -7 20 -25 20 -20 0 -26 -7
-36 -39z"/>
<path d="M5186 3713 c-11 -11 -7 -25 6 -17 8 5 9 2 5 -10 -4 -10 -3 -15 3 -11
6 3 10 12 10 20 0 16 -14 27 -24 18z"/>
<path d="M1641 3674 c-11 -15 -18 -31 -14 -37 4 -7 10 -3 16 10 5 11 23 27 40
36 l32 16 -27 0 c-17 1 -34 -8 -47 -25z"/>
<path d="M5151 3634 c0 -11 3 -14 6 -6 3 7 2 16 -1 19 -3 4 -6 -2 -5 -13z"/>
<path d="M4309 3591 c-54 -54 -25 -120 47 -107 l36 7 -22 24 c-22 24 -23 44
-5 88 12 28 -23 21 -56 -12z"/>
<path d="M1630 3582 c0 -11 22 -32 32 -32 5 0 4 9 -2 20 -11 20 -30 28 -30 12z"/>
<path d="M6493 3533 c-7 -2 -13 -15 -13 -28 0 -27 -15 -34 -50 -25 -29 8 -75
-11 -84 -35 -11 -29 45 -125 74 -125 15 0 22 -40 10 -55 -7 -8 -22 -15 -34
-15 -17 0 -18 -2 -6 -10 32 -20 65 0 76 46 6 21 -2 33 -46 74 -70 64 -66 85
13 85 65 0 77 10 77 63 0 17 -1 32 -2 31 -2 0 -9 -3 -15 -6z"/>
<path d="M5565 3510 c3 -5 8 -10 11 -10 2 0 4 5 4 10 0 6 -5 10 -11 10 -5 0
-7 -4 -4 -10z"/>
<path d="M5551 3474 c0 -11 3 -14 6 -6 3 7 2 16 -1 19 -3 4 -6 -2 -5 -13z"/>
<path d="M6033 3463 c0 -16 2 -22 4 -16 6 17 39 0 53 -28 12 -22 4 -63 -11
-54 -5 3 -6 -1 -3 -9 12 -31 41 -18 47 20 7 44 -4 77 -35 98 -35 25 -56 21
-55 -11z"/>
<path d="M2000 3445 c22 -23 22 -31 5 -80 -6 -17 -4 -17 14 4 35 39 19 101
-26 101 -13 0 -12 -5 7 -25z"/>
<path d="M5442 3422 c-15 -50 -39 -72 -48 -47 -4 10 -3 25 3 34 7 12 6 20 -3
29 -18 17 -34 15 -34 -3 0 -9 -7 -18 -16 -22 -10 -3 -12 -8 -5 -12 7 -5 7 -18
-1 -44 -9 -29 -14 -34 -25 -26 -7 6 -13 20 -13 30 0 24 -35 25 -45 2 -12 -32
-46 -236 -41 -249 3 -7 -2 -15 -10 -18 -8 -3 -14 -13 -14 -21 0 -13 7 -15 33
-10 32 6 32 6 7 -9 -14 -8 -28 -12 -32 -10 -5 3 -8 0 -8 -5 0 -6 -4 -11 -10
-11 -5 0 -7 8 -3 18 3 9 -5 4 -18 -13 -13 -16 -41 -48 -61 -70 -21 -22 -38
-43 -38 -47 0 -12 14 -9 29 5 11 9 12 9 7 0 -4 -7 -16 -18 -28 -24 -15 -8 -19
-8 -14 0 4 6 3 11 -1 11 -5 0 -21 -19 -36 -42 -15 -24 -45 -63 -67 -87 -23
-25 -48 -57 -57 -72 -9 -15 -48 -45 -86 -66 -79 -43 -98 -67 -128 -163 -24
-80 -26 -83 -66 -104 -18 -9 -39 -29 -47 -44 -30 -57 -63 -77 -129 -79 l-62
-1 -5 -46 c-7 -52 -29 -75 -73 -76 -19 0 -37 -10 -53 -29 -34 -40 -81 -55
-132 -41 -22 5 -46 18 -53 27 -12 14 -11 15 8 9 12 -4 40 -2 62 4 67 18 80 68
32 128 -17 20 -33 50 -37 65 l-7 29 32 -17 c19 -9 41 -13 53 -9 20 6 21 4 15
-39 -5 -36 -3 -50 13 -69 14 -17 19 -19 20 -7 0 8 -5 20 -11 26 -19 19 0 33
43 33 38 0 40 2 35 25 -5 31 15 45 60 38 36 -6 73 23 73 57 0 28 -15 25 -29
-6 -13 -28 -37 -27 -34 2 1 10 -10 32 -24 48 -16 20 -21 32 -13 34 6 2 17 -1
23 -7 28 -28 77 5 77 53 0 32 -38 50 -87 41 -29 -5 -38 -1 -78 38 -67 67 -56
120 13 62 46 -39 78 -47 117 -31 41 17 65 52 72 105 l5 39 -42 7 c-61 10 -106
31 -124 57 -18 25 -22 88 -6 88 6 0 10 -4 10 -10 0 -5 5 -10 10 -10 6 0 10 9
10 19 0 48 -56 36 -66 -13 -6 -35 26 -116 46 -116 20 0 9 -16 -28 -40 -84 -57
-85 -58 -73 -144 6 -43 11 -103 11 -133 0 -54 -1 -55 -18 -40 -29 27 -49 21
-24 -6 27 -29 28 -41 3 -27 -28 15 -36 13 -70 -16 -19 -16 -31 -35 -31 -50 0
-29 22 -75 44 -93 9 -8 16 -22 16 -32 0 -14 -7 -19 -31 -19 -31 0 -99 -45 -99
-67 0 -16 59 -50 101 -58 42 -8 112 18 143 54 11 11 30 21 43 21 27 0 98 60
119 102 9 17 23 28 35 28 31 0 60 17 114 71 28 26 69 66 91 86 33 31 46 53 63
109 22 74 44 102 98 123 17 7 39 21 49 32 22 25 31 24 38 -4 3 -13 28 -54 56
-92 28 -38 49 -73 47 -79 -6 -17 -63 -19 -95 -2 -27 14 -31 14 -46 -3 -45 -49
21 -111 127 -119 85 -7 138 17 188 83 23 30 54 59 72 66 31 12 31 12 8 16 -35
7 -68 -15 -99 -64 -34 -55 -89 -83 -161 -83 -55 0 -110 20 -133 48 -12 13 -10
14 9 4 31 -17 105 -15 131 4 33 23 28 61 -18 121 -53 71 -70 106 -70 148 0 25
4 35 16 35 12 0 15 -6 10 -25 -8 -33 7 -61 47 -85 37 -23 113 -28 101 -7 -6 8
-3 8 9 -1 23 -19 40 -6 26 19 -6 12 -8 23 -6 26 3 2 11 -12 18 -31 14 -39 23
-45 33 -20 11 29 6 59 -19 106 -24 45 -33 98 -17 98 4 0 19 -20 34 -44 15 -25
39 -53 54 -63 35 -22 93 -23 127 0 31 20 48 83 26 99 -10 6 -6 7 11 2 14 -4
28 -12 32 -18 5 -7 8 -5 8 6 0 23 -50 48 -98 48 -21 0 -53 5 -70 11 -30 10
-74 65 -84 107 -8 28 12 29 36 3 25 -28 68 -43 112 -39 l39 3 5 62 c3 41 11
68 22 80 22 21 31 12 46 -44 13 -43 61 -93 90 -93 9 0 31 -20 47 -44 26 -37
111 -120 93 -91 -4 6 11 10 36 11 55 2 113 21 120 41 5 11 2 14 -11 8 -10 -4
-51 -9 -90 -12 l-73 -6 -40 40 c-29 30 -40 49 -40 71 0 41 19 52 39 23 31 -44
60 -70 86 -77 31 -8 75 12 75 34 0 13 -3 13 -18 -1 -26 -24 -49 -21 -68 8 -9
14 -19 23 -22 21 -2 -3 -14 9 -26 26 -11 17 -33 35 -49 39 -16 4 -25 3 -21 -2
3 -5 1 -9 -4 -9 -18 0 -20 13 -6 46 8 19 12 34 9 34 -12 0 -32 -66 -23 -77 11
-14 1 -36 -12 -28 -5 3 -12 0 -16 -6 -11 -18 -33 17 -27 44 4 18 3 19 -6 7 -9
-12 -10 -9 -5 15 4 23 3 26 -5 15 -6 -9 -11 -10 -11 -3 0 6 -3 19 -7 29 -4 12
-3 15 5 10 15 -9 16 6 1 21 -15 15 -55 4 -83 -24 -15 -15 -27 -20 -31 -13 -7
12 -25 4 -25 -11 0 -6 4 -8 9 -5 5 3 8 -5 7 -18 -1 -26 -16 -25 -16 0 0 8 -5
12 -10 9 -6 -4 -8 -15 -5 -26 5 -14 2 -19 -14 -19 -11 0 -22 4 -25 9 -4 5 4 7
16 5 13 -2 17 -2 11 2 -9 4 -6 14 10 37 12 18 25 34 30 35 4 2 7 9 7 14 0 6
-3 8 -7 5 -4 -4 -17 14 -29 40 -13 26 -22 48 -21 50 2 1 22 -7 45 -19 42 -20
42 -21 25 -41 -13 -14 -14 -19 -4 -15 8 2 19 12 25 22 9 15 6 21 -14 34 -56
38 -100 85 -100 108 0 28 7 30 31 8 44 -39 141 18 155 90 9 53 -10 67 -24 18z
m-53 -83 c-22 -13 -31 -11 -17 5 7 8 17 12 22 9 4 -3 2 -9 -5 -14z m-129 -139
c5 0 7 -21 5 -47 -3 -27 -2 -40 2 -31 8 17 9 16 21 -2 7 -11 9 -20 5 -19 -20
3 -34 -2 -28 -11 4 -6 12 -7 18 -4 7 4 8 3 4 -1 -10 -11 -87 -14 -87 -3 0 4
12 8 27 8 24 0 25 1 10 13 -13 9 -16 20 -11 44 4 18 10 31 14 28 4 -3 6 14 5
38 -1 23 0 30 2 15 2 -16 8 -28 13 -28z m40 -65 c0 -5 -5 -3 -10 5 -5 8 -10
20 -10 25 0 6 5 3 10 -5 5 -8 10 -19 10 -25z m-15 -125 c13 -6 15 -9 5 -9 -8
0 -22 4 -30 9 -18 12 -2 12 25 0z m62 -2 c-2 -7 3 -18 12 -25 9 -7 11 -13 5
-13 -5 0 -19 7 -30 15 -16 13 -17 16 -4 25 20 13 23 12 17 -2z m-40 -34 c-3
-3 -12 -4 -19 -1 -8 3 -5 6 6 6 11 1 17 -2 13 -5z m-123 -59 c3 -8 1 -15 -4
-15 -6 0 -10 7 -10 15 0 8 2 15 4 15 2 0 6 -7 10 -15z m-74 -25 c0 -5 -4 -10
-10 -10 -5 0 -10 5 -10 10 0 6 5 10 10 10 6 0 10 -4 10 -10z m104 -6 c3 -8 2
-12 -4 -9 -6 3 -10 10 -10 16 0 14 7 11 14 -7z m-81 -24 c3 -11 1 -18 -4 -14
-5 3 -9 12 -9 20 0 20 7 17 13 -6z m90 -7 c-7 -2 -19 -2 -25 0 -7 3 -2 5 12 5
14 0 19 -2 13 -5z m2 -31 c-3 -3 -11 0 -18 7 -9 10 -8 11 6 5 10 -3 15 -9 12
-12z m43 0 c6 -18 -15 -14 -22 4 -4 10 -1 14 6 12 6 -2 14 -10 16 -16z m97 -2
c-3 -5 -11 -10 -16 -10 -6 0 -7 5 -4 10 3 6 11 10 16 10 6 0 7 -4 4 -10z m-20
-20 c13 -6 15 -9 5 -9 -13 -1 -13 -2 0 -11 12 -7 8 -10 -14 -10 -23 0 -26 3
-17 14 9 11 9 15 -1 19 -7 3 -8 5 -3 6 6 0 19 -4 30 -9z m-95 -10 c0 -5 12
-16 28 -24 15 -8 22 -15 16 -16 -6 0 -23 9 -36 20 -14 10 -29 16 -33 12 -5 -4
-5 -1 -1 6 8 14 26 16 26 2z m40 6 c0 -3 -4 -8 -10 -11 -5 -3 -10 -1 -10 4 0
6 5 11 10 11 6 0 10 -2 10 -4z m-39 -43 c13 -16 12 -17 -3 -4 -10 7 -18 15
-18 17 0 8 8 3 21 -13z m109 -3 c-19 -13 -30 -13 -30 0 0 6 10 10 23 10 18 0
19 -2 7 -10z m-47 -17 c-7 -2 -21 -2 -30 0 -10 3 -4 5 12 5 17 0 24 -2 18 -5z
m-175 -44 c-3 -8 -7 -3 -11 10 -4 17 -3 21 5 13 5 -5 8 -16 6 -23z m-21 -31
c-3 -8 -6 -5 -6 6 -1 11 2 17 5 13 3 -3 4 -12 1 -19z"/>
<path d="M5241 3124 c0 -11 3 -14 6 -6 3 7 2 16 -1 19 -3 4 -6 -2 -5 -13z"/>
<path d="M5261 3428 c-1 -28 13 -45 24 -28 3 5 2 10 -4 10 -5 0 -12 10 -14 23
-4 19 -4 19 -6 -5z"/>
<path d="M5980 3398 c0 -21 -5 -38 -11 -38 -5 0 -7 -4 -4 -10 3 -5 2 -10 -4
-10 -5 0 -12 6 -15 13 -3 6 -3 2 0 -10 3 -13 1 -23 -5 -23 -5 0 -15 -17 -22
-37 -6 -21 -15 -43 -20 -49 -13 -17 2 -55 38 -91 18 -19 34 -39 34 -44 1 -5 2
-13 3 -18 2 -19 17 -25 26 -11 14 22 14 23 -30 81 -23 31 -40 65 -40 80 0 17
14 41 40 68 43 44 51 82 25 117 -13 18 -14 17 -15 -18z"/>
<path d="M6206 3414 c-4 -9 -4 -19 -1 -22 3 -3 5 1 5 8 0 9 6 8 20 -5 14 -13
20 -31 20 -59 0 -52 -11 -70 -38 -62 -18 6 -21 1 -27 -44 -5 -34 -3 -55 5 -65
21 -25 29 -17 18 19 -6 19 -8 43 -4 53 7 17 8 17 17 1 12 -22 35 -23 42 -4 3
8 9 46 13 85 6 61 4 74 -11 91 -22 24 -51 26 -59 4z"/>
<path d="M5401 3394 c0 -11 3 -14 6 -6 3 7 2 16 -1 19 -3 4 -6 -2 -5 -13z"/>
<path d="M5846 3379 c-5 -23 -4 -45 3 -58 18 -32 27 -25 26 19 0 22 -3 40 -7
40 -3 0 -8 8 -11 18 -2 10 -7 3 -11 -19z"/>
<path d="M4720 3369 c7 -11 14 -18 17 -15 8 8 -5 36 -17 36 -7 0 -7 -6 0 -21z"/>
<path d="M5552 3375 c0 -11 3 -29 8 -40 11 -25 11 1 0 35 -6 20 -8 21 -8 5z"/>
<path d="M5316 3353 c-6 -14 -5 -15 5 -6 7 7 10 15 7 18 -3 3 -9 -2 -12 -12z"/>
<path d="M6549 3303 c-20 -65 -28 -76 -45 -62 -20 16 -28 5 -14 -20 14 -27 22
-26 57 3 23 20 30 34 32 70 2 56 -13 60 -30 9z"/>
<path d="M5575 3270 c3 -25 7 -64 9 -87 3 -24 1 -43 -5 -43 -5 0 -9 5 -9 12 0
6 -8 4 -19 -6 -16 -15 -19 -15 -31 -1 -14 17 -30 20 -30 5 0 -5 7 -10 16 -10
13 0 15 -7 10 -35 -7 -35 8 -80 23 -70 5 2 11 17 14 32 3 16 14 38 25 51 16
18 19 33 15 83 -3 33 -9 73 -14 87 -6 21 -7 16 -4 -18z"/>
<path d="M4727 3276 c-10 -14 -26 -26 -37 -26 -11 0 -20 -4 -20 -10 0 -17 28
-11 56 13 15 13 25 29 22 37 -2 8 -10 4 -21 -14z"/>
<path d="M6115 3270 c-10 -12 -24 -19 -31 -16 -8 3 -11 0 -8 -8 8 -21 -13 -29
-52 -21 -30 5 -34 9 -29 28 5 17 4 19 -4 7 -27 -38 -1 -70 58 -70 22 0 44 13
80 44 27 24 47 47 44 50 -13 12 -41 5 -58 -14z"/>
<path d="M6630 3281 c0 -5 -7 -25 -15 -46 -13 -29 -19 -34 -30 -25 -20 17 -31
-8 -12 -27 28 -29 70 9 83 75 5 25 3 32 -10 32 -9 0 -16 -4 -16 -9z"/>
<path d="M3413 3267 c-46 -17 -52 -26 -56 -85 -3 -29 -7 -55 -10 -59 -3 -3
-18 4 -33 14 -23 17 -33 18 -61 10 -40 -12 -38 -24 7 -54 65 -45 110 -18 110
67 0 26 6 55 14 65 15 21 16 20 30 -85 19 -141 56 -179 167 -168 38 3 40 12
24 105 -9 52 11 89 56 105 17 6 28 12 25 15 -2 3 -21 0 -41 -7 -38 -12 -65
-54 -65 -100 0 -11 -6 -20 -14 -20 -18 0 -76 59 -77 79 -7 94 -12 104 -51 97
-33 -6 -33 -6 -5 5 15 6 27 15 27 20 0 11 -6 11 -47 -4z"/>
<path d="M4610 3253 c0 -10 6 -29 13 -43 11 -23 9 -28 -24 -61 -20 -20 -48
-39 -61 -42 -27 -7 -35 -20 -48 -75 -11 -46 5 -49 19 -3 15 52 37 70 43 36 4
-17 1 -25 -8 -25 -34 0 8 -79 58 -110 42 -25 69 -25 102 1 28 22 56 20 56 -5
0 -26 -27 -43 -79 -50 -28 -4 -58 -9 -66 -12 -34 -13 -6 -114 31 -114 11 0 10
5 -6 22 -19 21 -28 68 -12 68 4 0 25 -11 47 -25 66 -40 117 -28 150 36 14 26
14 32 0 58 -8 16 -24 32 -34 36 -11 3 -34 22 -51 41 -23 27 -30 44 -28 67 5
48 37 48 63 0 17 -32 28 -39 75 -51 102 -26 250 18 296 88 24 37 41 90 29 90
-4 0 -37 -21 -74 -47 -60 -43 -71 -48 -121 -48 -45 0 -65 6 -110 34 -110 68
-119 71 -159 65 -31 -5 -43 -2 -60 15 -12 12 -21 32 -21 46 0 14 -4 25 -10 25
-5 0 -10 -8 -10 -17z m113 -113 c-10 -11 -22 -20 -27 -20 -5 0 -1 9 9 20 10
11 22 20 26 20 5 0 1 -9 -8 -20z m-69 -26 c3 -8 2 -12 -4 -9 -6 3 -10 10 -10
16 0 14 7 11 14 -7z m23 -56 c-3 -8 -6 -5 -6 6 -1 11 2 17 5 13 3 -3 4 -12 1
-19z m353 2 c0 -5 -4 -10 -9 -10 -6 0 -13 5 -16 10 -3 6 1 10 9 10 9 0 16 -4
16 -10z"/>
<path d="M6038 3233 c7 -3 16 -2 19 1 4 3 -2 6 -13 5 -11 0 -14 -3 -6 -6z"/>
<path d="M5665 3209 c-4 -5 0 -18 9 -28 9 -10 14 -25 10 -34 -4 -11 0 -19 10
-23 9 -3 16 -12 16 -20 0 -8 4 -14 10 -14 18 0 22 -64 6 -101 -17 -40 -12 -56
10 -34 39 39 36 126 -7 187 -35 49 -14 42 30 -10 22 -27 55 -55 72 -62 27 -12
33 -11 52 8 24 25 15 42 -10 20 -19 -17 -47 -13 -37 4 4 7 2 8 -5 4 -13 -9
-45 25 -66 69 -8 17 -14 24 -15 18 0 -8 -8 -5 -20 7 -22 22 -55 26 -65 9z"/>
<path d="M5420 3200 c-11 -7 -6 -8 16 -4 21 4 34 1 43 -10 8 -9 19 -16 25 -16
18 1 -34 40 -53 40 -9 0 -23 -5 -31 -10z"/>
<path d="M3181 3174 c-30 -38 -28 -95 5 -131 l25 -28 -15 32 c-24 49 -20 96
10 127 20 19 23 26 11 26 -9 0 -25 -12 -36 -26z"/>
<path d="M6305 3190 c-14 -22 8 -81 41 -110 19 -16 39 -30 44 -30 17 0 11 19
-11 30 -22 12 -59 67 -59 88 0 9 5 10 19 2 33 -17 46 -12 26 10 -19 21 -50 26
-60 10z"/>
<path d="M5435 3170 c3 -4 14 -10 25 -13 11 -3 18 -2 15 3 -3 4 -14 10 -25 13
-11 3 -18 2 -15 -3z"/>
<path d="M5790 3174 c0 -5 7 -18 15 -28 8 -11 15 -16 15 -10 0 5 -7 18 -15 28
-8 11 -15 16 -15 10z"/>
<path d="M176 3141 c-7 -10 17 -21 45 -21 30 0 22 -17 -18 -37 -33 -15 -38
-23 -41 -56 -4 -42 11 -53 54 -43 32 8 53 57 47 108 -4 30 -11 39 -36 47 -37
13 -44 14 -51 2z"/>
<path d="M5400 3135 c0 -8 2 -15 4 -15 2 0 6 7 10 15 3 8 1 15 -4 15 -6 0 -10
-7 -10 -15z"/>
<path d="M6122 3110 c0 -14 2 -19 5 -12 2 6 2 18 0 25 -3 6 -5 1 -5 -13z"/>
<path d="M6562 3032 c-23 -71 -61 -120 -83 -107 -7 5 -10 4 -6 -2 8 -13 -14
-23 -48 -23 -14 0 -29 9 -35 20 -6 11 -15 18 -20 15 -15 -10 -39 -65 -30 -70
5 -3 7 -12 3 -20 -3 -10 -20 -15 -54 -15 -42 0 -49 -3 -49 -19 0 -21 49 -66
59 -55 3 3 -4 13 -16 21 -13 9 -23 18 -23 22 0 3 34 6 75 5 41 -1 75 0 75 2 0
2 -9 13 -20 24 -21 21 -27 65 -10 75 6 3 10 -1 10 -9 0 -9 13 -18 35 -22 58
-10 113 28 153 105 33 66 42 121 19 121 -7 0 -23 -30 -35 -68z"/>
<path d="M6487 3073 c-11 -10 -8 -93 3 -93 17 0 30 38 24 69 -6 31 -14 37 -27
24z"/>
<path d="M291 3044 c-24 -31 -29 -104 -8 -104 9 0 12 9 9 30 -3 19 4 42 18 65
25 41 11 47 -19 9z"/>
<path d="M5716 3047 c3 -10 9 -15 12 -12 3 3 0 11 -7 18 -10 9 -11 8 -5 -6z"/>
<path d="M5671 3028 c-7 -11 -8 -25 -3 -34 8 -15 10 -15 15 0 4 10 3 15 -3 11
-11 -7 -14 8 -4 18 13 13 34 -6 29 -27 -5 -19 -5 -19 5 -3 10 15 8 22 -7 37
-19 17 -20 17 -32 -2z"/>
<path d="M3198 2984 c-24 -24 -28 -25 -61 -13 -25 9 -45 10 -69 3 -42 -12 -48
-42 -15 -79 33 -39 107 -46 181 -15 30 12 65 20 78 18 21 -4 20 -6 -13 -21
-44 -19 -49 -31 -40 -83 8 -44 23 -75 45 -93 13 -11 12 -17 -6 -47 -24 -40
-49 -44 -68 -10 l-13 25 -38 -20 c-32 -16 -39 -25 -39 -48 0 -57 62 -101 143
-101 43 0 207 87 207 111 0 15 -46 10 -60 -6 -24 -29 -37 -17 -34 30 3 37 0
47 -14 51 -59 19 -75 30 -93 65 -10 21 -19 50 -19 65 l0 27 23 -34 c12 -19 40
-42 61 -53 32 -16 44 -17 77 -7 43 13 69 43 69 81 0 52 -48 82 -80 50 -24 -24
-30 -25 -30 -5 0 24 -46 47 -95 47 -39 0 -46 2 -42 16 8 31 9 37 8 55 -2 25
-33 21 -63 -9z m167 -104 c3 -5 1 -10 -4 -10 -6 0 -11 5 -11 10 0 6 2 10 4 10
3 0 8 -4 11 -10z m-164 -283 c-8 -8 -15 -6 -25 9 -13 17 -13 20 2 25 21 8 39
-18 23 -34z"/>
<path d="M4485 2909 c0 -31 -6 -45 -25 -60 -14 -10 -34 -19 -44 -19 -16 0 -17
-3 -8 -12 9 -9 20 -8 46 5 45 21 70 66 56 101 -14 38 -25 32 -25 -15z"/>
<path d="M4430 2926 c0 -8 -15 -26 -32 -40 -30 -24 -31 -26 -10 -26 12 0 31 9
42 20 21 21 27 60 10 60 -5 0 -10 -6 -10 -14z"/>
<path d="M3617 2873 c-48 -8 -75 -95 -43 -139 20 -27 28 -13 15 25 -9 24 -9
35 0 44 8 8 11 6 11 -7 0 -23 56 -76 80 -76 24 0 32 -13 33 -55 1 -38 -26 -75
-55 -75 -14 0 -18 8 -18 38 0 21 -7 47 -15 58 -13 17 -14 15 -8 -28 4 -35 2
-48 -7 -48 -14 0 -80 66 -80 81 0 5 -4 9 -10 9 -5 0 -10 -20 -10 -43 0 -87 79
-184 143 -174 17 2 27 -1 27 -9 0 -6 18 -28 40 -48 46 -42 79 -46 128 -16 45
28 50 47 18 78 -22 23 -29 25 -46 14 -29 -17 -30 -16 -30 28 0 33 -3 40 -20
40 -12 0 -31 -16 -48 -40 -18 -26 -32 -37 -42 -33 -8 3 -30 8 -48 11 -35 5
-76 46 -99 99 -21 51 -15 61 14 24 49 -62 127 -78 170 -35 24 24 25 29 19 92
-4 37 -3 62 1 56 32 -43 117 -59 148 -28 37 37 -19 120 -78 116 -22 -2 -40 5
-56 19 -24 22 -80 31 -134 22z"/>
<path d="M5990 2869 c0 -5 5 -7 10 -4 6 3 10 8 10 11 0 2 -4 4 -10 4 -5 0 -10
-5 -10 -11z"/>
<path d="M6070 2874 c9 -3 22 -19 29 -36 8 -18 16 -27 18 -21 6 18 -27 63 -46
62 -13 -1 -13 -2 -1 -5z"/>
<path d="M5970 2860 c0 -5 -11 -10 -24 -10 -13 0 -30 -7 -37 -16 -12 -14 -14
-14 -21 3 -4 10 -5 -2 -2 -27 3 -25 12 -59 19 -75 11 -27 10 -31 -4 -32 -9 0
-27 -4 -41 -7 -38 -9 -54 0 -89 49 -24 34 -28 45 -17 45 9 0 16 -7 16 -16 0
-8 7 -22 15 -30 13 -14 15 -14 15 0 0 22 20 20 20 -1 1 -12 6 -7 15 12 12 27
13 28 14 8 1 -13 5 -23 10 -23 11 0 2 38 -10 46 -5 3 -12 -2 -15 -11 -6 -14
-9 -14 -16 -3 -7 10 -11 10 -15 1 -7 -19 -24 -15 -21 5 2 12 -4 17 -22 17 -19
0 -24 -4 -22 -20 12 -67 54 -101 137 -109 33 -3 54 -1 46 3 -8 5 -9 11 -4 14
6 4 15 -5 22 -20 10 -22 9 -29 -5 -42 -17 -15 -17 -15 -3 4 13 18 13 19 -3 7
-20 -16 -40 -8 -31 13 3 8 0 15 -6 15 -27 0 -9 -38 28 -58 20 -12 25 -12 32 0
21 31 20 57 -5 106 -44 88 -30 139 23 80 27 -30 34 -33 90 -33 44 0 65 5 78
18 9 9 13 18 8 18 -41 6 -55 5 -55 -1 0 -15 -38 -17 -68 -5 -34 15 -55 46 -46
69 3 9 3 16 0 16 -3 0 -6 -4 -6 -10z"/>
<path d="M4160 2804 c0 -56 -15 -74 -59 -74 -31 0 -44 6 -64 30 -14 16 -27 35
-29 41 -7 21 -25 1 -32 -35 -4 -19 -13 -40 -21 -46 -11 -9 -12 -16 -5 -25 5
-6 8 -14 5 -17 -2 -2 -11 -35 -19 -74 -13 -61 -13 -73 1 -101 19 -42 53 -44
83 -6 17 21 28 27 56 25 25 -2 41 4 59 22 25 25 34 66 15 66 -5 0 -10 -6 -10
-14 0 -7 -7 -19 -15 -26 -12 -10 -15 -9 -15 5 0 10 -29 46 -65 81 -57 56 -64
67 -55 84 11 20 11 20 35 -4 71 -71 181 -20 160 73 -9 42 -25 39 -25 -5z"/>
<path d="M5590 2831 c0 -6 5 -13 12 -17 7 -4 8 -3 4 4 -9 15 -1 15 25 2 11 -6
19 -7 19 -1 0 10 -24 21 -46 21 -8 0 -14 -4 -14 -9z"/>
<path d="M5798 2813 c7 -3 16 -2 19 1 4 3 -2 6 -13 5 -11 0 -14 -3 -6 -6z"/>
<path d="M5800 2716 c0 -2 7 -7 16 -10 8 -3 12 -2 9 4 -6 10 -25 14 -25 6z"/>
<path d="M5703 2571 c1 -21 28 -22 35 -1 3 7 0 10 -7 6 -6 -4 -11 -2 -11 3 0
6 -4 11 -9 11 -6 0 -9 -8 -8 -19z"/>
<path d="M3651 2445 c-1 -16 8 -43 19 -60 22 -33 25 -77 9 -123 -14 -42 -33
-46 -110 -26 -62 16 -67 16 -92 -1 -15 -9 -27 -21 -27 -27 0 -5 21 -18 46 -28
110 -48 182 -9 209 114 5 22 10 27 25 23 30 -8 24 10 -14 44 -19 16 -41 49
-50 72 -14 40 -14 40 -15 12z"/>
<path d="M4048 2405 c-39 -21 -65 -71 -78 -148 -10 -56 -19 -75 -46 -102 -42
-42 -92 -53 -148 -34 -41 14 -53 33 -37 58 7 11 13 9 30 -8 25 -25 39 -26 69
-5 39 27 23 84 -23 84 -30 0 -85 -37 -85 -58 0 -10 -13 -30 -28 -45 -24 -23
-36 -27 -89 -27 -70 0 -107 11 -142 43 l-24 22 12 -23 c29 -54 178 -82 241
-46 26 16 29 16 57 -5 61 -45 148 -22 235 63 40 39 42 44 57 130 13 69 22 82
62 91 16 4 27 11 23 16 -8 14 -55 10 -86 -6z"/>
<path d="M6056 2405 c-3 -8 -1 -15 4 -15 6 0 10 7 10 15 0 8 -2 15 -4 15 -2 0
-6 -7 -10 -15z"/>
<path d="M6237 2354 c6 -15 23 -19 23 -5 0 5 -7 11 -14 14 -10 4 -13 1 -9 -9z"/>
<path d="M4380 1904 c-30 -8 -74 -26 -97 -40 -35 -20 -43 -30 -43 -54 0 -17 5
-30 10 -30 23 0 8 -36 -20 -49 -30 -13 -68 -57 -58 -67 3 -3 37 -8 74 -11 67
-5 70 -5 115 29 28 22 62 38 90 42 54 8 115 42 142 78 29 38 17 70 -34 92 -57
25 -113 29 -179 10z"/>
<path d="M6255 1800 c-3 -5 -1 -10 4 -10 6 0 11 5 11 10 0 6 -2 10 -4 10 -3 0
-8 -4 -11 -10z"/>
<path d="M6247 1757 c-3 -7 -2 -19 3 -26 5 -10 8 -9 13 2 3 7 2 19 -3 26 -5
10 -8 9 -13 -2z"/>
<path d="M1475 1700 c-3 -5 5 -15 19 -21 16 -8 32 -28 42 -55 16 -42 34 -59
34 -31 -1 25 -39 96 -58 106 -25 14 -29 14 -37 1z"/>
<path d="M1632 1590 c-24 -23 -29 -49 -9 -51 87 -7 98 -5 103 18 4 13 4 30 0
38 -8 22 -68 19 -94 -5z"/>
<path d="M850 1415 c0 -8 4 -15 9 -15 5 0 11 7 15 15 3 9 0 15 -9 15 -8 0 -15
-7 -15 -15z"/>
<path d="M3968 1085 c-45 -17 -88 -44 -88 -57 0 -19 31 -40 53 -35 41 10 202
69 211 78 14 13 -39 29 -92 28 -26 0 -63 -6 -84 -14z"/>
<path d="M1583 1013 c-25 -10 -12 -23 22 -23 19 0 35 5 35 10 0 6 -4 10 -9 10
-5 0 -15 2 -23 4 -7 3 -19 2 -25 -1z"/>
<path d="M3119 891 c-48 -48 -31 -76 25 -42 18 12 43 21 55 21 26 0 27 18 4
36 -28 21 -52 16 -84 -15z"/>
<path d="M3000 878 c-26 -42 -27 -101 -3 -96 22 4 83 84 83 109 0 14 -7 19
-30 19 -23 0 -35 -7 -50 -32z"/>
<path d="M3713 843 c-25 -5 -53 -38 -53 -64 0 -9 13 -31 29 -49 37 -43 61 -36
61 18 0 23 6 45 15 52 8 7 15 21 15 31 0 19 -16 22 -67 12z"/>
<path d="M3141 796 c-6 -7 -9 -20 -5 -29 3 -10 -2 -20 -15 -26 -35 -19 -43
-46 -21 -73 14 -19 26 -24 48 -20 16 2 33 -1 36 -7 4 -6 16 -11 26 -11 31 0
79 -48 86 -86 9 -47 28 -44 21 4 -6 36 -53 92 -88 104 -11 4 -11 9 4 25 9 11
17 25 17 31 0 7 5 12 10 12 13 0 13 77 1 85 -5 3 -11 -4 -13 -16 l-3 -21 -27
21 c-30 24 -61 27 -77 7z"/>
<path d="M3546 677 c-13 -10 -19 -28 -20 -59 -1 -29 -10 -54 -24 -73 -28 -36
-28 -61 2 -80 42 -28 98 -155 68 -155 -5 0 -19 12 -33 26 -27 30 -93 63 -125
64 -11 0 -28 -6 -37 -12 -14 -11 -15 -19 -7 -47 9 -32 9 -33 -9 -17 -12 11
-21 13 -25 7 -4 -5 3 -16 13 -23 21 -15 41 -58 41 -86 -1 -15 -2 -15 -11 1
-13 22 -68 47 -103 47 -55 0 -87 -29 -100 -90 -5 -23 -1 -27 39 -39 38 -11 51
-11 93 3 27 9 58 26 67 36 10 11 22 17 26 14 11 -7 11 30 0 79 -5 20 -6 37 -2
37 17 -1 29 -18 35 -53 6 -34 13 -40 60 -61 47 -21 54 -28 60 -61 4 -20 5 -39
2 -42 -3 -3 -20 11 -39 31 -45 48 -90 50 -137 6 -50 -47 -33 -54 122 -53 114
2 134 4 145 19 10 13 13 74 13 232 0 175 3 220 16 248 20 43 45 65 52 45 2 -7
17 -27 32 -44 37 -41 65 -32 57 19 -6 36 -22 64 -38 64 -4 0 -2 -18 6 -40 18
-50 2 -53 -27 -4 -18 30 -24 34 -49 29 -20 -5 -36 0 -56 14 -38 28 -83 36
-107 18z"/>
<path d="M3345 656 c-15 -23 -15 -27 4 -65 19 -35 86 -100 95 -90 33 38 34
129 2 129 -6 0 -16 10 -21 23 -15 33 -59 35 -80 3z"/>
<path d="M1732 605 c2 -9 22 -27 46 -41 38 -23 42 -23 42 -7 0 33 -29 63 -61
63 -22 0 -30 -4 -27 -15z"/>
<path d="M3188 543 c-15 -16 -31 -41 -37 -56 -10 -25 -8 -29 14 -39 21 -10 30
-8 53 9 41 31 67 80 52 98 -19 23 -54 18 -82 -12z"/>
<path d="M3220 389 c0 -24 4 -38 10 -34 6 3 10 22 10 41 0 19 -4 34 -10 34 -5
0 -10 -18 -10 -41z"/>
<path d="M3115 376 c-28 -28 -31 -46 -13 -64 19 -19 53 -14 77 12 52 56 -10
106 -64 52z"/>
<path d="M4118 163 c7 -3 16 -2 19 1 4 3 -2 6 -13 5 -11 0 -14 -3 -6 -6z"/>
</g>
</svg>
