<svg xmlns="http://www.w3.org/2000/svg" width="1188.572" height="1186.639" viewBox="0 0 1188.572 1186.639">
    <path fill="#c2d9e6" d="M1480.988 872.66q-.17-6.5-.62-13c-.182-2.679-.629-5.339-.907-8.013-1.042-10.039-2.118-20.074-3.07-30.122-.536-5.65-.412-11.4-1.364-16.966-1.763-10.312-4.115-20.522-6.187-30.782-1.977-9.783-3.909-19.576-5.861-29.364-.578-2.291-1.089-4.6-1.747-6.87-1.311-4.512-2.7-9-4.063-13.5l-1.076-3.759q-3.919-11.752-7.839-23.5l-.369-3.528a15.971 15.971 0 0 0-.572-2.771q-4.694-11.875-9.495-23.708c-.6-1.48-1.438-2.864-2.166-4.293l-2.737-1.538 2.737 1.538-1.142-3.377-2.362-6.523-1.585-2.918a7.852 7.852 0 0 0-1.738.384 7.852 7.852 0 0 1 1.738-.384 8.171 8.171 0 0 0-.373-1.087c-8.436-16.712-16.609-33.564-25.429-50.07-4.791-8.966-10.507-17.46-16.125-25.955-7.39-11.175-15.095-22.143-22.664-33.2l-2.26-2.234c-1.049-1.709-1.964-3.521-3.172-5.108-5.423-7.119-10.8-14.279-16.451-21.217-3.754-4.612-7.936-8.876-11.927-13.3l-5.594 4.682 5.594-4.683-2.188-2.9-5.148-5.193-2.417-3.3c-2.206-2.534-4.23-5.257-6.647-7.569-11.066-10.59-22.242-21.065-33.378-31.582-8.19-7.934-16.721-15.447-26.478-21.446l-.91 3.562.911-3.562a16.688 16.688 0 0 0-2.269-2.438c-11.151-8.051-21.368-17.388-33.381-24.252l-4.48-2.731c-.544.172-1.085.37-1.626.563.541-.193 1.081-.39 1.626-.563-.825-.493-1.664-.963-2.47-1.482q-14.622-9.418-29.247-18.833a11.33 11.33 0 0 0-2.089-.824l-2.338-1.372-4-2.246a12.94 12.94 0 0 0-1.97-1.541c-5.321-2.745-10.671-5.435-16.011-8.143l-4.135-1.9-13.447-6.777-4.505-2.2-5.974-1.943c.208 2.083.237 4.211.524 6.274-.287-2.063-.317-4.191-.525-6.273l-3.987-2.24-11.518-5.256-5.97-2.412a42.441 42.441 0 0 1-6.916-.4 42.4 42.4 0 0 0 6.916.4c-5.654-2.134-11.294-4.305-16.967-6.388-3.819-1.4-7.683-2.681-11.527-4.015l.017.014-1.775-.592-3.93-1.352-21.643-6.646-6.9-1.772-7.9-2.3-5.509-1.177c-1.194-.329-2.379-.7-3.584-.982q-9.475-2.248-18.959-4.462l-7.659 4.2 7.658-4.2c-3.164-.882-6.322-1.784-9.5-2.614-.338-.088-.788.254-1.184.4a4.3 4.3 0 0 1 1.211.371 4.3 4.3 0 0 0-1.211-.371l-2.161-.057c-7.488-1.523-14.939-3.277-22.475-4.5-7.622-1.239-15.323-2.012-23-2.876-4.768-.537-9.558-.891-14.343-1.276-3.259-.263-6.526-.43-9.789-.654-7.856-.539-15.709-1.145-23.57-1.6-3.04-.177-6.1-.063-9.15-.02q-18.665.259-37.329.588a9.423 9.423 0 0 0-2.455.741 7.493 7.493 0 0 1-3.621 1.883 7.491 7.491 0 0 0 3.621-1.883l-1.616-.024-2.1.2-6.748.082a14.535 14.535 0 0 1-2.486.661c-9.887.853-19.777 1.662-29.666 2.483l-4.08 1.085-13.846 2.377a9.725 9.725 0 0 0-2.02-.071c-5.473.936-10.98 1.733-16.4 2.929-12.079 2.665-24.118 5.513-36.162 8.335-6.07 1.423-12.114 2.954-18.169 4.437a16.123 16.123 0 0 1-11.014 9.34 16.122 16.122 0 0 0 11.014-9.34c-3.739 1.081-7.52 2.039-11.21 3.267-8.207 2.73-16.369 5.595-24.55 8.4-3.842 1.519-7.724 2.946-11.52 4.574-12.4 5.321-24.826 10.611-37.144 16.127-6.051 2.71-11.891 5.892-17.826 8.86q2.1.284 4.2.561-2.1-.278-4.2-.561l-4.627 1.2c-2.684 1.4-5.4 2.737-8.044 4.211-6.46 3.6-12.928 7.2-19.307 10.943-3.941 2.313-7.724 4.895-11.578 7.356 7.286.8 14.488 1.808 21.163 4.542-6.675-2.734-13.878-3.742-21.164-4.541l-3.955 2.352c-2.509 1.562-5.072 3.045-7.516 4.7-4.728 3.206-9.389 6.51-14.078 9.773l-4.155 2.349C537 410.307 528.271 416.556 519.69 423a83.113 83.113 0 0 0-7.03 6.622 25.66 25.66 0 0 0-2.257 1.447c-1.984 1.571-3.924 3.2-5.881 4.8l-3.367 2.435 12.69 2.6-12.69-2.6c-2.931 2.354-6.047 4.515-8.761 7.1-10.222 9.727-20.7 19.228-30.358 29.494q-19.373 20.592-37.585 42.267c-7.89 9.38-15.029 19.43-22.045 29.5q-13.284 19.069-25.758 38.7c-5.164 8.131-9.614 16.718-14.319 25.136-1.537 2.75-2.867 5.615-4.292 8.428l.084.008-.569.663q-7.013 14.862-14.009 29.732a23.721 23.721 0 0 0-.956 2.98q-1.314 3.032-2.626 6.066c.121-.071.246-.138.372-.2-.126.066-.251.133-.372.2l.13-.017-.467.7c-4.482 11.552-9.273 23-13.359 34.687-4.245 12.146-7.948 24.49-11.612 36.829-1.915 6.45-3.241 13.075-4.833 19.621-1.89 8.457-3.9 16.89-5.627 25.381-1.158 5.694-1.916 11.469-2.853 17.208l-.762 5.1a58.377 58.377 0 0 0-1.611 6.649c-.748 5.91-1.228 11.854-1.914 17.772-.874 7.531-2.212 15.027-2.69 22.58-.718 11.353-1.154 22.742-1.179 34.117-.03 13.6-.835 27.223 1.047 40.792.594 4.28.414 8.661.8 12.977.634 7.18 1.417 14.347 2.173 21.515.675 6.4 1.188 12.822 2.167 19.174.8 5.209 2.348 10.3 3.26 15.5.679 3.866.574 7.878 1.349 11.717 1.311 6.489 3.077 12.885 4.586 19.335 1.089 4.654 2.071 9.332 3.1 14l6.349 22.555.743 3.354 7.922 24.488 1.366 3.123c1.737 4.579 3.459 9.164 5.215 13.736 1.928 5.021 3.887 10.03 5.833 15.044l2.8 3.951 1.853 5.906.854 3.415a5.731 5.731 0 0 0 .3 1.408c4.248 8.571 8.465 17.158 12.807 25.681q3.53 6.929 7.421 13.672c4.453 7.7 8.9 15.419 13.612 22.961 5.895 9.426 11.973 18.741 18.142 27.99 4.352 6.525 8.989 12.859 13.5 19.279l1.771 2.145c7 9.052 13.873 18.2 21.049 27.113 3.426 4.253 7.425 8.043 11.164 12.043l2.061 2.32 5.273 5.711c.406-.165.81-.339 1.214-.519s.806-.364 1.208-.55c-.4.186-.8.371-1.208.55s-.808.354-1.214.519l1.137 2.163c.593 1.247.925 2.74 1.825 3.7q5.527 5.887 11.35 11.494 12.908 12.457 25.972 24.751c.393.371 1.342.152 2.032.208.313-.665.7-1.315 1.042-1.973-.343.659-.729 1.309-1.042 1.973 2.584 1.927 5.447 3.578 7.7 5.838a97.814 97.814 0 0 0 18.968 14.61l.772-2.406-.772 2.406c.506.823.824 1.9 1.546 2.429q15.67 11.408 31.445 22.672c1.382.99 2.884 1.812 4.331 2.712l4.025 2.338L589.9 1399.7l1.649 1.807c1.435 4.059 3.774 5.287 8.7 4.57.733 1.9 2.236 2.374 4.086 2.21l16.28 8.27 1.3 1.016-2.457 1.739 18.622 9.136.423-.8-.991-2.359 2.343.474 7.578 3.532c-.866-3.033-1.749-6.061-2.608-9.1.859 3.035 1.743 6.063 2.609 9.1l4.064 1.841 16.528 6.3a64.167 64.167 0 0 0 6.169 2.914c10.614 3.746 21.269 7.379 31.909 11.052a21.558 21.558 0 0 0 2.493 1.111c3.291 1.009 6.6 1.951 9.905 2.919l12.633 3.421c.135-.225.253-.559.386-.787-.134.229-.252.563-.386.787 1.042.225 2.123.647 3.173.914-1.051-.267-2.131-.69-3.173-.914l-12.633-3.421-6.681.909c3.068.839 5.8 1.589 8.539 2.334q14.8 4.033 29.592 8.059c4.754 1.288 9.506 2.587 14.286 3.776 3.986.992 8.011 1.831 11.685 2.662-.209-1.527-.4-2.949-.6-4.37l4.322 1.025c1.047.146 2.1.269 3.141.441 7.56 1.25 15.1 2.61 22.682 3.732 5.5.815 11.044 1.334 16.572 1.957 6.479.729 12.954 1.5 19.445 2.115 5.318.5 10.657.782 15.985 1.193 4.593.354 9.183 1.092 13.773 1.074 19.08-.075 38.2 1.016 57.208-1.606.308 1.718-.485 4.269 2.755 3.822 1.76-.243 3.485-.8 5.247-.941 4.406-.355 8.853-.326 13.233-.866 7.417-.916 14.838-1.929 22.172-3.342 4.091-.788 9.411.233 11.035-5.627.015-.053.172-.067.263-.1 5.79-.852 11.658-1.351 17.353-2.626q21.357-4.785 42.574-10.192c5.715-1.445 11.266-3.535 16.892-5.332l14.959-4.452 10.537-3.547a20.861 20.861 0 0 0-4.426-3.647 20.855 20.855 0 0 1 4.426 3.647l4.186-2.226c6.914-2.344 14-4.279 20.7-7.12 12.412-5.262 24.612-11.029 36.86-16.671a12.735 12.735 0 0 0 2.753-2.446l6.553-2.116c-.449-.162-.89-.372-1.339-.535a4.956 4.956 0 0 0-.543-.165 4.956 4.956 0 0 1 .543.165c.449.162.89.373 1.339.534 4.683-2.507 9.4-4.951 14.044-7.539 7.9-4.4 15.739-8.9 23.6-13.359l3.985-1.959a17.2 17.2 0 0 1 2.048-1.876q9.969-6.594 19.985-13.116l2.891-1.9a51.23 51.23 0 0 0 5.091-2.973c10.549-7.843 21.044-15.757 31.556-23.649l5.2-5.192 2.9-1.7 1.848-1.777-7.13-1.358 7.13 1.358c1.8-1.5 3.622-2.981 5.394-4.518 5.529-4.793 11.243-9.4 16.5-14.469 6.8-6.556 13.246-13.484 19.827-20.267 5.953-6.136 12.076-12.121 17.772-18.487 6.276-7.013 12.422-14.176 18.144-21.642 11.962-15.608 23.92-31.236 35.266-47.289 6.948-9.829 12.792-20.44 19.063-30.743 3.069-5.041 5.979-10.178 8.96-15.272a20.42 20.42 0 0 1 1.006-2.957c4.008-7.766 8.114-15.482 12.079-23.269 1.421-2.791 2.535-5.737 3.788-8.613l-26.024 16.969-.692.52.69-.519 26.025-16.969v.049l.557-.621 2.545-5.665c2.682-6.4 5.6-12.7 8-19.206 5.089-13.8 10.159-27.624 14.757-41.6 3.756-11.413 6.816-23.055 10.185-34.6 1.227-5.423 2.594-10.819 3.648-16.275 1.637-8.476 3.06-16.993 4.574-25.492-3.772 2.853-7.535 5.717-11.317 8.556 3.782-2.839 7.545-5.7 11.317-8.556l.551-6.117a4.1 4.1 0 0 1 .019-.868 226.51 226.51 0 0 0 5.807-42.2c.15-3.366.362-6.732.662-10.087.89-9.947 2.238-19.872 2.646-29.837.394-9.04-.195-18.133-.432-27.206zm-432.257 574a8.666 8.666 0 0 1 3.258-5.305 8.666 8.666 0 0 0-3.258 5.305zm-23.073 4.807h-.02l.561-.59.6-.152-.6.152-.561.59zm-266.686 3.461c-.163-.168-.338-.418-.505-.621.168.2.342.453.505.621zm-31.54-1122.862a4.024 4.024 0 0 1 .292 1.075 4.024 4.024 0 0 0-.292-1.075zm23.385-4.2l-.654.148zm469.271 97.782l1.9 9.766-1.9-9.766zm39.03 10.827a5.611 5.611 0 0 0 .244-1.651 5.611 5.611 0 0 1-.244 1.655zm4.473 12.637c.075.043.159.089.247.137-.089-.043-.172-.09-.247-.133zm29.795 50.262l2.052-1.456c-.319-1.3-.681-2.6-1.025-3.893-.172-.649-.34-1.3-.5-1.948.157.65.325 1.3.5 1.948.344 1.3.706 2.592 1.025 3.893a23.972 23.972 0 0 1 1.077 2.533 23.972 23.972 0 0 0-1.077-2.533l-2.052 1.456a30.648 30.648 0 0 1-1.817 2.773 30.567 30.567 0 0 0 1.816-2.769zm67.378 62.072l3.586 3.559-3.586-3.559zm37.746 589.571l-2.357 1.155 2.357-1.156zm-2.352 1.059c-8.581 4.141-17.441 7.784-25.729 12.473 8.288-4.689 17.148-8.332 25.73-12.474zm-156.693 107.563a4.17 4.17 0 0 1-1.391-3.036 4.164 4.164 0 0 0 1.39 3.039zm3.3 1.5c-.2-.051-.4-.106-.592-.164.199.06.396.115.594.166zm-2.958-1.226c-.035-.025-.066-.053-.1-.079.037.028.068.057.102.082zm-206.686 185.641a1.406 1.406 0 0 1 .046.253 1.406 1.406 0 0 0-.044-.25zm-150.453-9.281l.683-1.19zm.01-.016l-.007.012zm-530.9-747.534l1.77-.611-1.769.61-1.182.869zm1.734-.586l1.2-.6-1.2.6zm25.022-59.848l-.006.007.006-.007zm-.026.028l1.779-1.158-1.779 1.158zm1.772-1.063c8.957-4.317 18.214-8.1 26.808-13.088-8.594 4.992-17.852 8.772-26.809 13.089zM533.424 518.13c.315.085.63.173.94.27-.31-.1-.625-.184-.94-.27zm3.453 1.5a4.164 4.164 0 0 1 1.493 3.1 4.158 4.158 0 0 0-1.493-3.1zm595.513-146.912a4.836 4.836 0 0 1 .406 1.806 4.836 4.836 0 0 0-.406-1.806zm34.186 20.527c-.123-.524-.228-1.057-.315-1.6.086.543.191 1.076.314 1.6zm153.038 193.274c-.488 1.755-.908 3.536-1.373 5.3.464-1.764.885-3.545 1.373-5.3zm114.258 108.033c-.118.058-.235.117-.353.179-.235.123-.468.252-.7.385.233-.133.467-.262.7-.385.117-.062.234-.121.352-.179zm-749.255 695.964l.254-.2-.254.2zm-7.915-6.442q.714.422 1.41.882-.697-.456-1.412-.882zm-155.88-124.829a.87.87 0 0 0-.168-.443.87.87 0 0 1 .167.443zm-10.732 21.728q-.037 1.039-.137 2.045.1-1.005.136-2.045zm652.9-887.011a22.838 22.838 0 0 1-.442-2.314 22.838 22.838 0 0 0 .437 2.314zm-.662-5.444q0 .789.058 1.571-.06-.782-.063-1.571zm242.5 272.925l-.481-5.787c.187-.18.46-.365.684-.548-.223.182-.5.368-.684.548q.238 2.894.478 5.787zm-662.771 671.918zm-111.382 20.365c1.593-1.749 3.257-3.443 4.816-5.22-1.559 1.778-3.223 3.472-4.816 5.221zm-169.19-184.516c.021-.477.118-.986.169-1.476-.051.49-.148 1-.169 1.476l3.084 3.976zm-102.966-66.9l-.272-.48a9.685 9.685 0 0 1-.957-2.029 9.685 9.685 0 0 0 .957 2.029zm425.969-546.642l-2.722-2.425c-1.672-.327-3.362-.581-5.011-1 1.648.418 3.339.672 5.01 1-.064-1.773.805-2.23 2.051-1.871-1.246-.359-2.116.1-2.051 1.872zm-102.783 359.21c.9-1.273 1.794-2.555 2.7-3.824-.909 1.269-1.8 2.551-2.7 3.824l-.578.827zm-112.433 367a1 1 0 0 1-.266.208 1 1 0 0 0 .266-.208.833.833 0 0 0 .2-.579.833.833 0 0 1-.2.578zm-208.229-225.732a5.046 5.046 0 0 1-.551.216 5.046 5.046 0 0 0 .551-.216zm2.447-9.573c-.038-.075-.079-.147-.118-.221.039.074.08.146.118.221l1.736-2.795c-.085-.256-.2-.515-.315-.774.112.259.231.517.316.774zm-42.459-180.634l.05.007-.05-.007zm.136-.149l.439-.48zm394.751-388.7a1.482 1.482 0 0 1-.074-.471 1.482 1.482 0 0 0 .074.471 3.8 3.8 0 0 0 .658 1.146 3.8 3.8 0 0 1-.658-1.143zM532.255 699.3c.044-.138.068-.293.1-.438-.032.144-.055.299-.1.438zm256.53 24.55a4.923 4.923 0 0 1-.138 1.1 4.923 4.923 0 0 0 .138-1.1zm-15.958 15.4a6.138 6.138 0 0 0 4.216-.4 6.14 6.14 0 0 1-4.217.4c-1.8.224-2.628-.6-2.834-1.915.208 1.32 1.038 2.141 2.835 1.916zm6.462-1.973a9.268 9.268 0 0 1-1.223.99 9.268 9.268 0 0 0 1.223-.988zm-9.2-3.691c.166-2.764.385-5.525.57-8.288-.183 2.764-.401 5.525-.567 8.289zm.9-8.776l-.4.518zm-2.066 1.394c.287-.153.583-.3.876-.444-.288.148-.584.293-.871.446zm19.811-3.156l.4-.085zm-31.315 5.991q.31.2.635.383-.325-.187-.635-.383a10.566 10.566 0 0 1-2.3-1.913 10.566 10.566 0 0 0 2.305 1.914zm-2.448-2.084a6.65 6.65 0 0 1-.5-.683 6.65 6.65 0 0 0 .505.684zm48.5 48.006c-.054.435-.266.912-.355 1.356l3.21 1.654q-1.6-.829-3.21-1.655c.09-.442.301-.916.356-1.354zM776.857 672.2c-1.162-1.126-2.155-2.642-3.449-3.465 1.294.823 2.287 2.338 3.449 3.464l.758 1.915-.758-1.914zM627.328 899.57c3.189 4.255 5.232 8.842 2.735 14.736a11.863 11.863 0 0 0 2.564 2.2 11.911 11.911 0 0 1-2.565-2.2c2.497-5.894.455-10.481-2.734-14.736zm-66.406 388.18c-.043.284-.082.569-.12.856.038-.287.078-.572.12-.856zm-.176 1.285c-.037.287-.075.573-.114.859.039-.287.077-.573.114-.86zM369.228 998.886c1.088.087 1.956.105 1.72-1.483a22.393 22.393 0 0 0 1.664-2.159 22.967 22.967 0 0 1-1.663 2.162c.235 1.585-.633 1.567-1.721 1.48zm243.339-486.258l-1-1.659a19.223 19.223 0 0 0-2.453-2.536 19.284 19.284 0 0 1 2.455 2.537l1 1.657a4.347 4.347 0 0 1-.129 3.014 4.346 4.346 0 0 0 .127-3.013zm-.828 3.991c-.008.007-.014.016-.022.024l.021-.024zm84.561-30.576a2.138 2.138 0 0 0 .126-.424 2.2 2.2 0 0 0 .037-.447 2.2 2.2 0 0 1-.037.447 2.138 2.138 0 0 1-.126.424 2.447 2.447 0 0 1-.217.407 2.447 2.447 0 0 0 .217-.407zm7.975 65.4c-1.439.017-2.879.03-4.319.048l-12.4 1.939 12.4-1.94c.616-.556 1.172-1.362 1.81-1.827a2.327 2.327 0 0 1 .327-.2 2.327 2.327 0 0 0-.327.2c-.638.466-1.194 1.271-1.81 1.828 1.444-.016 2.881-.029 4.321-.045zm48.032-79.452c.118-.039.237-.076.357-.105-.118.032-.237.069-.355.108zm-1.489.583c.211-.078.42-.165.629-.252-.209.087-.418.174-.629.252zM688.185 605.27c-.023-.045-.042-.095-.067-.136.025.041.045.091.067.136zm-104.566-47.557c.117-.02.235-.044.354-.071-.118.027-.236.051-.354.071zm45.763-55.631l.018.016a24.312 24.312 0 0 1-4.54 1.205 24.3 24.3 0 0 0 4.54-1.203zm-6.732 1.4h-.067zm12.75 62.787c4.185-.285 8.358-.747 12.538-1.135.877.552 1.747 1.12 2.637 1.654-.89-.534-1.759-1.1-2.638-1.653-4.174.387-8.347.849-12.537 1.134zm36.723-11.9a18.772 18.772 0 0 1-.3-2 18.608 18.608 0 0 0 .305 1.999zm-22.368-1.005l.6 1.689-.6-1.689zm.013 0a.448.448 0 0 0 .148-.333.449.449 0 0 1-.148.333zm29.48.116l1.611.242zm-21.2-50.941q1.664-.273 3.305-.628-1.635.352-3.298.627zm27.008 60l.11.065zm2.607-52.665c.741-.106 1.483-.221 2.224-.332-.735.108-1.477.224-2.218.33zm4.446-.639c-.493.059-.987.127-1.48.2.494-.071.988-.138 1.48-.2q.37-.045.738-.083-.362.036-.732.08zm.71-20.364q.208-.11.4-.218.391-.215.733-.42-.342.206-.733.42-.186.105-.394.216zm-63.461 13.2c.945.058 1.891.159 2.836.165-.939-.012-1.884-.113-2.829-.171zm-64.159 81.8l2.191.447zm24.74 5.614q-.982.031-1.963.049.987-.023 1.969-.055zm-72.372 85.4l-.058-.013zm11.884 4.456a17.941 17.941 0 0 0-5.4-4.654 17.941 17.941 0 0 1 5.406 4.652zm-5.521-4.72c-.261-.138-.527-.271-.8-.395.278.122.544.255.805.393zm-23.89-28.241l-6.8 2.411 6.8-2.411c9.043.074 17.841-1.63 26.594-3.663.613-.393 1.192-.9 1.821-1.241-.629.339-1.208.848-1.821 1.241-8.748 2.031-17.546 3.735-26.589 3.661zm43.668-26.932a18.315 18.315 0 0 1-6.215 8.78 24.646 24.646 0 0 1-2.432 1.7 24.646 24.646 0 0 0 2.432-1.7 18.314 18.314 0 0 0 6.22-8.782zM481 627.259zm214.355 114.335a2.951 2.951 0 0 1-1.4 2.925 2.95 2.95 0 0 0 1.4-2.925zm-9.47 122.506a22.262 22.262 0 0 1 1.275 3.8 22.262 22.262 0 0 0-1.275-3.8l-7.685-13.9 7.684 13.9 3.47-2.2c-.071 1.876.017 2.68.863 2.841-.847-.161-.934-.966-.863-2.841zm5.051 354.381l6.027.941a7.465 7.465 0 0 1 5.8 2.9 7.466 7.466 0 0 0-5.8-2.9zM332.408 910.772a16.6 16.6 0 0 0 .831 2.92 16.715 16.715 0 0 1-.833-2.92c-.6-.7-1.638-1.42-1.98-2.1.342.68 1.382 1.403 1.982 2.1zM362 849.566c.082.247.154.495.215.744-.064-.249-.137-.497-.215-.744zm-.13-.37c-.064-.174-.133-.347-.2-.521l.197.525zm14.33 43.436a7.869 7.869 0 0 0 7.434-2.988 7.871 7.871 0 0 1-7.434 2.988c-.779.135-1.648.478-2.433.626.782-.147 1.652-.491 2.433-.626zm-2.513.641a3.751 3.751 0 0 1-.434.052 3.751 3.751 0 0 0 .432-.052zm129.75-100.515a18.294 18.294 0 0 1-6.019-3.075L493.383 786l4.036 3.685a18.28 18.28 0 0 0 6.018 3.073zm-2.308-8.857c.02.152.045.3.077.455-.033-.151-.058-.302-.078-.456zM376.1 968.563l1.711-2.367zm-13.818 24.645l.024.134c-.006-.042-.013-.09-.021-.134zM445.2 758.435zm-.057.1a19.9 19.9 0 0 0-.182-2.484 20.007 20.007 0 0 1 .182 2.482zm35.611 5.167l-3.552-8.692q1.775 4.349 3.552 8.695zm149.132 88.061c.223.443.427.893.606 1.352-.179-.456-.383-.906-.606-1.349zm-.961-1.7q.233.38.453.765-.22-.385-.453-.765zm-.694-1.092c.1.16.208.32.311.48-.103-.16-.206-.321-.311-.48zm-9.988 36.317a14.2 14.2 0 0 1 .809-5.086c.737-3.032 1.051-6.273 2.271-9.067-1.22 2.794-1.535 6.035-2.271 9.068a14.192 14.192 0 0 0-.809 5.084zm6.038 262.684l-1.686-1.127zM412.3 961.534a3.4 3.4 0 0 0 .208-1.208 3.4 3.4 0 0 1-.208 1.208zm-26.023-75.481q-.211.3-.419.6l.418-.6zm1.419-1.894c-.217.262-.428.531-.635.806.206-.275.417-.545.639-.806zm102.845-109.416a4.221 4.221 0 0 1-.319-.429 4.42 4.42 0 0 1-.648-1.767 4.42 4.42 0 0 0 .648 1.767 4.175 4.175 0 0 0 .319.429zm-.984-2.322c-.031-.23-.05-.462-.061-.694.011.232.03.463.061.694zm64.418 80.11q-.424-.764-.755-1.529.33.764.755 1.529zm.3.738c1.516 3.269 4.562 4.395 7.605 5.537-3.039-1.143-6.085-2.269-7.601-5.538zm-6.112 45.224c-.251.007-.5.012-.75.012.253-.005.503-.005.755-.013zm38.971 34.7l-.161.663.16-.663-.317-2.378.318 2.376zm-5.793-19.314q.5-.459.989-.93-.481.472-.985.931zm1.969-1.916a22.751 22.751 0 0 0 6.543-12.326 22.747 22.747 0 0 1-6.538 12.326zm27.628 218.929c.044.142.081.292.114.446-.028-.154-.065-.303-.109-.446zm.31 1.65l-.071-.489c-.024-.163-.05-.324-.078-.482.029.158.054.319.078.482l.071.489a9.165 9.165 0 0 0 .179.941 9.165 9.165 0 0 1-.174-.94zm-20.375-264.493q.8.608 1.537 1.283-.738-.676-1.537-1.283zm-11.043-16.017c.086-.341.123-.7.2-1.047-.078.345-.115.706-.2 1.047zm-40.449 42.412l-.213.022.212-.023zm7.284 4.05c-2.562-.08-4.895-.674-6.594-2.961 1.699 2.287 4.029 2.881 6.593 2.961zm-112.114 21.6a7.475 7.475 0 0 0-1.37-1.958 7.988 7.988 0 0 0-6.465-2.309 7.989 7.989 0 0 1 6.465 2.309 7.475 7.475 0 0 1 1.37 1.958 7.726 7.726 0 0 1 .315.752 7.726 7.726 0 0 0-.316-.751zm-16.858 8.651a1.819 1.819 0 0 0-.068-.231 1.819 1.819 0 0 1 .068.231.7.7 0 0 1 .017.194.7.7 0 0 0-.017-.193zm-4.993-37.364c.025.142.045.286.074.427-.024-.141-.044-.285-.074-.427zm-9.264 54.581a6.667 6.667 0 0 1 .628-.241 6.667 6.667 0 0 0-.628.241zm-1.812 2.413c1.13.665 2.281 1.3 3.416 1.957.568.328 1.132.662 1.687 1.008-.555-.346-1.119-.68-1.687-1.008-1.135-.657-2.286-1.292-3.416-1.956zm48.86-139.275a6.728 6.728 0 0 0-5.911 1.645 6.728 6.728 0 0 1 5.911-1.645zm16.816 77.014q-.125-.187-.255-.372.125.185.255.372zm-1.282-1.7l-.138-.162zm56.371-10.914l-.011-4.781.011 4.78zm-44.043 60.27l.008.006-.008-.006zm30.24-64.484c.944-.061 1.888-.129 2.832-.19-.944.057-1.888.125-2.832.186zm4.194-29.152l-6.592 10.128a13.546 13.546 0 0 1 4.627.974 13.546 13.546 0 0 0-4.627-.974l-.517.361.516-.361zm-28.237 12.633a13.535 13.535 0 0 0 2.163 1.836 13.535 13.535 0 0 1-2.163-1.839zm2.5 2.057a12.151 12.151 0 0 0 1.12.637 12.151 12.151 0 0 1-1.122-.64zm1.157.654a11.618 11.618 0 0 0 1.964.755 11.618 11.618 0 0 1-1.964-.758zm1.969.757c.255.072.512.132.771.186-.261-.057-.518-.121-.773-.189zm-9.584-9.66c-.48-.941-.952-1.886-1.438-2.824.484.934.953 1.879 1.436 2.82zm-3.364.007a17.1 17.1 0 0 0-.988 2.532 17.238 17.238 0 0 1 .987-2.532c-.324-1.265-1.067-2.62-1.061-3.814-.008 1.189.735 2.544 1.06 3.81zm1.137 87.2l.165.138zm21-13.9a27.829 27.829 0 0 0-10.69 5.475 27.835 27.835 0 0 1 10.69-5.476zm1.71-1.244c-.138-.185-.267-.384-.393-.587.127.2.255.4.393.587zm9.829 37.63a2.157 2.157 0 0 0-.032.391 2.157 2.157 0 0 1 .035-.394zm3.237-88.144q.189 0 .376.013-.184-.013-.373-.016zm1.844.247a6.308 6.308 0 0 1 .708.241 6.308 6.308 0 0 0-.708-.241 6.793 6.793 0 0 0-.726-.156 6.793 6.793 0 0 1 .729.154zm-3.478 94.503l1.38-3.628-1.024-1.443 1.024 1.444q-.688 1.813-1.38 3.627zm1.364-54.007a20.609 20.609 0 0 0 12.924-16.035 20.61 20.61 0 0 1-12.921 16.035zm-88.386-73.511c2.536-2.881 5.547-3.647 8.982-2.1-3.432-1.547-6.443-.78-8.979 2.101zm-2.154 3.159l-1.853 1.157 1.854-1.157zm45.75 50.985a20.349 20.349 0 0 1 1.257 8.786l-1.1.678 1.1-.679a20.352 20.352 0 0 0-1.257-8.785zm-.593-1.347c.036.073.069.148.1.221-.031-.074-.064-.147-.1-.22zm.279.593l.012.028zm-.172 57.2l-.183.6.183-.6 2.85-1.1zm181.788 219.043l-9.281.047 9.281-.047zm-5.321 97.586l-1.039 2.87 1.039-2.871zm-18.116-63.843a18.3 18.3 0 0 1-6.114-1.721c-.315.094-.629.211-.943.307.315-.1.629-.213.943-.307a18.3 18.3 0 0 0 6.114 1.727zm.768.031a10.6 10.6 0 0 0 2.3-.226 10.6 10.6 0 0 1-2.3.232zm16.2 9.887l.874-.146A16.188 16.188 0 0 1 647.1 1207a16.158 16.158 0 0 0-2.319 1.513l5.636.648-5.636-.648-.875.146c-.1.285-.182.693-.279 1.006.1-.316.173-.724.282-1.009zm1.92-16.371l-.795-2.814c-2.992 1.991-5.916 4.1-8.94 6.037 3.024-1.936 5.948-4.046 8.94-6.037l.795 2.814zm-7.644-27.075c.047-.215.271-.275.562-.277-.29.007-.514.068-.561.282zm-7.309 73.421a4.562 4.562 0 0 1-.715.734 4.562 4.562 0 0 0 .716-.729zm1.419-5.654c.427-.053.872-.068 1.314-.09.295-.015.588-.033.872-.068-.285.035-.578.053-.872.068-.442.022-.887.037-1.314.09a9.847 9.847 0 0 1-1.117 5.219 9.847 9.847 0 0 0 1.118-5.213zm7.646-67.963a.75.75 0 0 0 .432-.1c-2.8-1.085-5.716-1.956-8.461-3.137 2.745 1.182 5.663 2.052 8.461 3.137a.753.753 0 0 1-.431.105zm-34.813 59.943a3.954 3.954 0 0 1-.424-.133 3.954 3.954 0 0 0 .425.138zm16.29 19.134c2.3-1.431 3.428-3.329 3.3-5.35.132 2.021-1 3.919-3.3 5.351.191 1.576.022 2.227-.692 2.125.715.107.884-.544.693-2.121zM644.9 1261.8c-.207-2.135 1.167-4.758 3.3-6.481-2.13 1.727-3.5 4.349-3.3 6.481zm14.365-40.1c.859-.2 1.723-.385 2.546-.66-.82.279-1.684.465-2.544.66zm2.586-.674c.26-.088.517-.185.767-.295-.248.114-.505.211-.765.299zm.791-.306q.24-.106.472-.228-.23.127-.47.232zm-5.351 1.515q.274-.093.554-.175-.277.086-.552.179zm-5.319-39.063q-.117-.417-.232-.835l-.014-.1.016.105zm-54.215-297.928a19.236 19.236 0 0 0 .271-2.015 19.236 19.236 0 0 1-.271 2.015zm-1.009-10.221a20 20 0 0 0-2.269-3.494q-.639-.79-1.346-1.5.706.713 1.346 1.5a20 20 0 0 1 2.269 3.494 17.95 17.95 0 0 1 1.329 6.177 17.95 17.95 0 0 0-1.329-6.178zm-1.848-18.864a15.359 15.359 0 0 1 1.789 3.259 15.359 15.359 0 0 0-1.789-3.259zm-40.4-17.021l4.32-1.35c-1.436.455-2.878.9-4.32 1.351zm-13.053 7.979c1.257-.3 2.647-.386 3.84-.8-1.193.41-2.582.5-3.841.8zm-2.531 47.348h.21-.21c-.466.039-1.142.182-1.614.224.474-.041 1.15-.189 1.616-.224zm-1.973.228a1.364 1.364 0 0 0 .224.005 1.364 1.364 0 0 1-.222-.005zM489.4 768.8c.011.073.02.147.029.221-.008-.074-.018-.148-.029-.221l-4.527-.005c-.619-1.607-.6-3.731-2.071-4.644a2.582 2.582 0 0 0-.4-.2 3.07 3.07 0 0 0-.47-.146 3.07 3.07 0 0 1 .47.146 2.582 2.582 0 0 1 .4.2c1.474.913 1.452 3.038 2.071 4.644zm-16.228 26.17c1.628 1.134 3.3 1.335 4.766.336-1.463 1-3.138.8-4.766-.336zm-19.581-1.257h.047zm-3.477-19.73zm-90.253 201.952l.711-1.878zm44.069-3.776c-.122.532-.219 1.069-.3 1.61.081-.54.178-1.077.3-1.61zm-.479 3.243c-.045.547-.075 1.1-.1 1.648.026-.55.056-1.101.101-1.65zm2.394-7.864l.487-2.876-.487 2.876c.107.06.232.123.366.188l.273.131-.273-.131c-.133-.065-.259-.128-.366-.188a13.485 13.485 0 0 0-1.469 3.041 13.485 13.485 0 0 1 1.47-3.041zm31.331-97.621l.514.784zm20.364 75.492a15.4 15.4 0 0 0 2.888-3.134 15.394 15.394 0 0 1-2.888 3.134c-1.4-.3-1.447-.827-1.14-1.366-.306.54-.258 1.07 1.141 1.366zm-1.111-1.416l.052-.082-.051.082zm.136-.2l.033-.044zm.112-.147l.106-.131zm143.1 300.2c-.021.1-.039.2-.053.3.017-.105.035-.204.056-.304zm-.071.442c-.118 1.1.313 1.973 2.376 1.532 1.639 1.605 3.434 1.469 5.261.971-1.828.5-3.622.634-5.262-.971-2.059.437-2.49-.432-2.372-1.536zm8.237 22.933l.274.267c.137.133.274.263.413.381-.138-.118-.276-.248-.413-.381l-.274-.267a7.269 7.269 0 0 0-.551-.5 7.269 7.269 0 0 1 .554.496zm.13 7.581c.22 0 .443-.02.662-.024h.219-.219c-.217 0-.435.015-.659.022zm34 13.4a4.038 4.038 0 0 1-.573-.163 4.936 4.936 0 0 1-.855-.413 4.936 4.936 0 0 0 .855.413 4.038 4.038 0 0 0 .578.161zm11.127-34.742l1.065-.617a16.516 16.516 0 0 0-2.221-.208 16.527 16.527 0 0 1 2.221.208zm17.144-37.9c.831-.474 1.664-.943 2.508-1.394-.844.456-1.677.924-2.508 1.398zm-19.244-50.413l-1.315 2.185 1.315-2.185c3.789-5.59 9.226-8.583 15.689-9.956-6.465 1.374-11.901 4.366-15.689 9.956zm-24-317.87l.683 1.014q-.34-.508-.683-1.014zm-18.34-43.769c-.132.948-1.313 2.139-1.907 3.194.594-1.055 1.775-2.246 1.907-3.194zm1.688 29.193q-2.781-3.763-5.566-7.526zM503.7 792.821q.455.115.917.2-.466-.085-.917-.2zm1.854.333c.141.015.283.031.425.041-.147-.01-.289-.026-.43-.041zm-37.42-24.469a26.967 26.967 0 0 1-7.725-10.747 26.957 26.957 0 0 0 7.726 10.747c2.6.193 4.16 1.849 5.425 3.734-1.27-1.885-2.83-3.541-5.431-3.734zm-53.773-2.965q.009.392.052.793-.048-.401-.057-.793zm.244-2.26zm2.04 69.161a2.809 2.809 0 0 0-.369-.249c-1.567-.88-3.474.131-5.229.547a7.49 7.49 0 0 0 .585 7.9 7.493 7.493 0 0 1-.586-7.9c1.755-.415 3.662-1.425 5.229-.546a2.809 2.809 0 0 1 .365.248zm-4.009 9.566a16.241 16.241 0 0 1-1-1.36 16.241 16.241 0 0 0 .995 1.36zm-27.07 44.9q-.253.365-.508.726l.503-.728zm-1 1.4c-.239.32-.484.632-.737.933.248-.302.493-.614.732-.934zm-31.47-24.391a6.074 6.074 0 0 0-1.316-1.209 6.083 6.083 0 0 1 1.311 1.208zm.359 19.589l-.1.142zm-.547.77c.319.6.661 1.2 1 1.8-.338-.6-.68-1.192-1-1.8zm-2.476 69.892q-1.345-.087-2.707-.09 1.358.001 2.702.089zm14.687 3.812a15.5 15.5 0 0 0 4.437-4.751 15.5 15.5 0 0 1-4.437 4.752 39.849 39.849 0 0 0-14.509-3.8 39.852 39.852 0 0 1 14.504 3.798zm8.78 18.979a5.169 5.169 0 0 0 2.451-2.511 5.17 5.17 0 0 1-2.451 2.512 17.9 17.9 0 0 1-3.243.268 17.861 17.861 0 0 0 3.238-.271zm30.735 5.544l-.587 2.576zm33.733-56.288c2.744-1.742 3.723-3.253 3.837-5.186-.119 1.931-1.098 3.441-3.842 5.184zm3.475-8.483q.087.42.158.813-.075-.397-.163-.816zm18.024-1.035c2.654-.885 5.445-1.528 8.1-2.416q.8-.266 1.573-.566-.776.3-1.573.566c-2.652.888-5.443 1.531-8.1 2.416-3-2.11-6.018-3.061-9.1-2.668 3.077-.395 6.096.556 9.095 2.665zm92.852 247.824a6.013 6.013 0 0 1 2.151 1.051 6.015 6.015 0 0 0-2.151-1.051zm27.051 87.8c3.779-4.855 6.286-12.777 5.087-17.766 1.2 4.989-1.308 12.911-5.087 17.766-.3.388-.613.757-.93 1.1.318-.35.628-.719.93-1.107zm26.281 13.039c1.428-4.943 4.336-8 8.023-8.728-3.687.726-6.595 3.785-8.023 8.729l-.188.725zm1.31 1.2l-1.209.472.07.517-.07-.517zm.5 8.063l-.593.622zm44.267 12.16l-4.766-1.321a7.019 7.019 0 0 1-3.834 2.578 3.773 3.773 0 0 1-1.158.032 3.773 3.773 0 0 0 1.158-.032 7.019 7.019 0 0 0 3.834-2.578l4.766 1.321c4.806 1.316 9.589 2.733 14.4 4.044-4.813-1.316-9.597-2.732-14.403-4.048zM661 1166.045l.134-.029zm-18.418-45.367q.412-.455.835-.9-.427.446-.839.9zm-2.659 3.182q.734-.954 1.5-1.865-.771.91-1.504 1.865zm46.463-332.283a12.127 12.127 0 0 1-.1 1.371 12.127 12.127 0 0 0 .096-1.371zm-.486-24.147a28.973 28.973 0 0 0 2.491-2.048 28.973 28.973 0 0 1-2.491 2.048 41.773 41.773 0 0 1-10.484 5.381c5.777 2.651 9.76 9.76 10.736 15.763-.976-6-4.959-13.111-10.736-15.763a41.77 41.77 0 0 0 10.484-5.381zm-17.746 5.177a3.206 3.206 0 0 1 .653-.293 3.206 3.206 0 0 0-.653.293zm-1.04 13.1c-.291-.189-.577-.418-.863-.648-.114-.092-.229-.184-.344-.274.115.09.229.182.344.274.286.23.573.46.863.648zm-.5 60.987q-.353-.252-.7-.515.345.259.698.511zm42.8 4.082a23.717 23.717 0 0 1-1.823-6.852 23.717 23.717 0 0 0 1.816 6.849zm1.413 3.077l.6 1.185-.6-1.185c-.374-.753-.733-1.51-1.07-2.274.33.761.69 1.521 1.064 2.271zm2.141 4.135l-.618-1.18q.303.587.611 1.177zm-38.8-137.707l-1.171-4.334zm5.41 13.331c.111.022.226.049.351.086-.129-.039-.247-.067-.358-.089zm-2.749 1.281l-.127-.067zM666.8 775.059a3.119 3.119 0 0 1 1.063-2.25 3.119 3.119 0 0 0-1.063 2.25c-1.048.029-2.1.1-3.151.157 1.051-.058 2.102-.128 3.151-.157zm-10.677 76.57c-.392-.073-.788-.137-1.193-.185.403.048.8.113 1.192.185zm-.492 21.2c-2.05-1.823-4.047-3.712-6.164-5.454 2.116 1.742 4.113 3.631 6.163 5.454zm9.98-14.467a12.808 12.808 0 0 0-7-6.071 12.814 12.814 0 0 1 7 6.072zm9.675-8.249c2.043 3.707 4.2 7.363 6.2 11.091-2-3.728-4.153-7.384-6.2-11.091zm43.137 8.241c.024-.065.051-.13.078-.2-.027.065-.054.13-.078.2zm.079-.2c.111-.264.245-.531.378-.8-.134.273-.267.539-.38.803zm.378-.8zm.15-.3c.049-.1.1-.2.142-.3-.045.104-.093.204-.142.303zm.5-1.465a2.577 2.577 0 0 1-.123.575 2.577 2.577 0 0 0 .125-.572zm12.164-94.9zm-2.635-.614a2.98 2.98 0 0 1-.482-.4 2.98 2.98 0 0 0 .484.401zm-2.021-2.846l-.605-.577zm-.606-.577l-.588-.576-.58-.584.009.009-.013-.013.581.585zm9.846 6.259l2.088 1.007zm5.271-1.556l2.272-.476-2.272.476zm-27.714-16.6c-.752-1.046-.594-2.955-.9-4.429.308 1.474.15 3.389.902 4.434zm10.3 9.562l.563.6-.562-.6zm-57.976-47.447a4.68 4.68 0 0 0 .48.589 4.68 4.68 0 0 1-.48-.589zm-29.488 104.909l.4.4q-.196-.202-.4-.4zm-3.807-20.879l-.68 1.061zM502.83 776.12a12.069 12.069 0 0 0-1.9 4.246 9.381 9.381 0 0 1 .128 1.948v.451c0 .226.009.454.025.682-.016-.228-.022-.455-.025-.682v-.451a9.381 9.381 0 0 0-.128-1.948 12.069 12.069 0 0 1 1.9-4.246q.3-.422.631-.821-.333.401-.631.821zm-60.656-2.3q-.256-.277-.514-.542.259.264.515.541zm-9.211-5.276a13.272 13.272 0 0 1 7.022 3.182 13.272 13.272 0 0 0-7.021-3.183zm7.191 3.324q.5.424.988.894-.488-.472-.987-.895zm-13.921-2.579c.045-.473.049-.953.141-1.417-.091.464-.1.944-.14 1.417zm-43.076 97.068l-3.763.649-1.393.829 1.393-.829zm-7.071-11.544l.593 9.523zm-.442-1.2l.048-.014zm-9.369 72.542c1.753-5.348 4.716-8.415 9.422-9.381-4.706.966-7.668 4.034-9.422 9.382-2.119-3.43-4.488-6.734-6.3-10.319 1.813 3.584 4.182 6.887 6.301 10.317zm-15.083-63.607a6.863 6.863 0 0 0-2.962-.729c-.343-.061-.694-.159-1.045-.255.351.1.7.194 1.045.254a6.868 6.868 0 0 1 2.963.728zm24.988 126.504c-.645-1.275-1.346-2.529-1.978-3.809.632 1.28 1.333 2.534 1.978 3.809zm62.174 19.671l.035.386-.035-.386 1.657-4.1zm.13 1.429l-.079-.863.079.863zm3.674-90.3a8.962 8.962 0 0 1 .053 1.032 8.962 8.962 0 0 0-.053-1.037zm5.659-4.862q-.494.2-.991.445.497-.251.991-.449zm2.455-.707q-.488.084-.978.214.49-.134.978-.218zm46.4 263.439l-.094.184.094-.184zm-12.829-10.958a23.124 23.124 0 0 1 3.326.7 23.124 23.124 0 0 0-3.325-.704zm11.415 13.32a1.737 1.737 0 0 1-.419-.027 1.737 1.737 0 0 0 .419.023zm182.642 47.704l2.08.967zm-.738-111.609a7.806 7.806 0 0 0 .4-.985 9.791 9.791 0 0 0-6.385-6.185q-.582-.2-1.192-.366.609.162 1.192.366a9.791 9.791 0 0 1 6.385 6.185 7.826 7.826 0 0 1-.398.985zm-.155.29c.023-.04.045-.084.067-.125-.02.041-.042.085-.065.125zM668.5 859.377l.195.073zm1.071.418c3.451 1.421 5.378 3.063 10.782 8.955-5.406-5.891-7.334-7.534-10.785-8.955zm-.794-.314c.149.057.294.113.438.17l-.44-.17zm.536.209l.09.037zm11.418 14.475c-.279-.437-.569-.867-.88-1.286.309.421.599.849.877 1.286zm3.279 8.555a24.236 24.236 0 0 0 1.073 5.28 24.22 24.22 0 0 1-1.076-5.279 24.371 24.371 0 0 0-2.792-7.751 24.369 24.369 0 0 1 2.792 7.75zm39.584-150.4a5.124 5.124 0 0 0-.338.467c-.083.126-.165.254-.248.377.083-.123.166-.252.248-.377a5.124 5.124 0 0 1 .338-.467c.3-.19.627-.36.947-.534-.322.173-.641.343-.949.533zm-28.891 3c-.538-7.991-1.237-15.973-1.869-23.959.63 7.981 1.329 15.962 1.866 23.954zm-28.89-29.065a4.294 4.294 0 0 1 .169-3.558 4.294 4.294 0 0 0-.171 3.553zm-8.292 68.724a33.635 33.635 0 0 1-3.814-2.015 2.843 2.843 0 0 1-3.263-3.09 2.843 2.843 0 0 0 3.264 3.09 33.484 33.484 0 0 0 3.811 2.011zm-9.166 44.693c-.965 3.462-2.107 6.831-4.664 9.482 2.555-2.654 3.697-6.024 4.662-9.486zm.3-1.093l-.234.856q.116-.435.232-.86zm-55.8-19.642a5.46 5.46 0 0 0-.327 1.495 5.461 5.461 0 0 1 .328-1.5 23.576 23.576 0 0 1 6.661-12.532 23.579 23.579 0 0 0-6.666 12.533zm-23.632-25.521a3.585 3.585 0 0 1-.66.062 3.585 3.585 0 0 0 .655-.066zm-31.056-18.979c.86-.106 1.721-.29 2.581-.366-.864.071-1.725.255-2.586.362zm-34.367 20.47q.351-.386.735-.747-.382.361-.735.747zm27.587-125.557c.085.051.17.107.255.161-.085-.055-.17-.111-.255-.161zm48.466-15.432c4.133-1.618 6.566-4.808 6.526-10.115a4.994 4.994 0 0 0 .806-2.681 5 5 0 0 1-.806 2.683c.04 5.305-2.392 8.5-6.526 10.113q-.477.186-.984.346.507-.164.984-.347zm6-40.62q1.583-.16 3.167-.437t3.166-.69q-1.582.412-3.166.69t-3.168.439zm103.424 10.628l-1.076 1.122 1.076-1.123c3.515-2.4 7.191-4.6 10.535-7.205-3.344 2.601-7.021 4.808-10.536 7.205zm55.323-45.145c-1.542.251-2.944.664-2.484 3.1-1.277.415-2.587.752-3.825 1.263 1.238-.51 2.548-.847 3.824-1.264-.454-2.435.948-2.847 2.485-3.099zm25.756-8.379c-1.053-.154-2.1-.266-3.153-.343 1.055.077 2.105.189 3.158.341zm-12.559-.257c2.085-.152 4.172-.242 6.264-.217-2.087-.028-4.174.065-6.261.217zM659.046 479.6c3.073 1.527 6.083 3.219 9.188 4.664-3.105-1.445-6.115-3.137-9.189-4.664a195.178 195.178 0 0 1-29.661-5.495 195.183 195.183 0 0 0 29.661 5.495zm-96.04 107.585h-.008zm-80.339 8.764c-.463-.067-.927-.14-1.387-.182l-12.091 4.528 12.091-4.528c.461.041.92.115 1.388.181zm-7.059 74.314c-6-.183-12.006-.352-18.009-.549 6.001.195 12.007.364 18.01.548zm-100.45 180.906l-.285-1.289zM353.221 800.2c1.363 3.33.929 6.488.755 9.612a34.579 34.579 0 0 1 4.863 16.491 34.57 34.57 0 0 0-4.863-16.49c.174-3.127.608-6.285-.755-9.613zm-29.661 82.04a2.361 2.361 0 0 1-.347-.02 2.361 2.361 0 0 0 .347.02zm35.189 122.953q-.453.067-.9.142.451-.076.9-.142zm10.434 73.848a2.057 2.057 0 0 0 .118-.5 2.064 2.064 0 0 1-.118.5zm2.384-53.392l5.78 2.288zm21.479-8.164l.375-1.184-.375 1.184c3.763 3.76 6.625 7.9 7.968 12.675-1.342-4.779-4.205-8.915-7.968-12.675zm89.677 149.151a24.5 24.5 0 0 0-3.324-.061 24.5 24.5 0 0 1 3.325.061zm-1.678 18.974a.73.73 0 0 0-.089.038.73.73 0 0 1 .089-.037zm-1.113.667c-.171.111-.337.216-.476.3.144-.083.305-.188.476-.299zm.774-.493l-.161.1zm-.314.2l-.425.275c.144-.096.289-.191.426-.278zm33.465 27.255a7.314 7.314 0 0 0 .288-1.221 9.573 9.573 0 0 0 .091-1.775 9.573 9.573 0 0 1-.091 1.775 7.314 7.314 0 0 1-.288 1.221l5.268 2.912c.287-.025.613-.109.92-.164-.306.055-.633.139-.92.164zm15.186 55.849h.012-.012zm31.527 21.235c-.042.284-.088.567-.14.847l.922.545-.922-.545c.053-.283.098-.57.141-.85zm83.224-380.668q-.794 1.447-1.481 2.989.687-1.544 1.482-2.992zm3-4.639l-.059.076zm16.181-12.824a40.232 40.232 0 0 1 4.86-.6 40.144 40.144 0 0 0-4.861.6 45.606 45.606 0 0 0-12.726 8.842 45.615 45.615 0 0 1 12.728-8.845zm7.01-21.643c.42-1.977.832-3.957 1.277-5.927-.445 1.967-.856 3.947-1.276 5.924zm21.847 25.411l.25.805c.07.322.158.644.246.966-.088-.322-.175-.643-.246-.966zm.612 2.2l.059.233-.059-.232zm76.481-85.6a13.388 13.388 0 0 1 .653 2.677 13.331 13.331 0 0 0-.654-2.678zm19.37 6.056a22.679 22.679 0 0 0-11.776-4.107 22.677 22.677 0 0 1 11.775 4.106zm2.229 1.659q-.656-.535-1.328-1.027.671.491 1.327 1.026zm9.653 17.2a16.889 16.889 0 0 1-1.518 1.759 16.889 16.889 0 0 0 1.517-1.762zm1.6-2.54a17.743 17.743 0 0 1-1.106 1.854 17.743 17.743 0 0 0 1.101-1.857zm15.34-30.817q.374.016.744.05-.375-.038-.749-.053zm17.223-62.623q1.264-1.093 2.547-2.165-1.287 1.07-2.552 2.162zm-137.051-26.91c.184.129.369.256.554.383-.184-.127-.37-.254-.554-.383zm-38.254 19.368a8.268 8.268 0 0 1-1.98-7.871 8.27 8.27 0 0 0 1.981 7.871zM571.7 772.775c-.777.141-1.622.472-2.4.622.78-.151 1.625-.482 2.4-.623l4.765 1.311zm6.311-51.052q-.724-.139-1.45-.221.728.082 1.452.221zM513.168 752c-.173-1.405-.127-2.9-.385-4.271-.043-.229-.094-.454-.156-.674.062.221.113.446.156.674.257 1.371.211 2.866.385 4.271zm-1.695-37.114a6.3 6.3 0 0 1-.688-1.2 6.294 6.294 0 0 0 .688 1.2c1.662 1.965 3.437 2.866 5.59 2.04-2.153.828-3.927-.073-5.589-2.037zm.9 4.946q-.632-.342-1.256-.726.626.387 1.258.728zm-1.726-6.529c.016.051.038.1.056.156-.016-.049-.038-.102-.054-.153zm21.253-63.644c-.042-.021-.085-.044-.127-.07.042.025.085.049.127.07l5.827 1.906zm231.952-56.276c-2.2.813-4.4 1.65-6.589 2.493 2.189-.844 4.383-1.676 6.586-2.494zm85.728-199.436c-.584.682-1.164 1.367-1.752 2.045.589-.677 1.172-1.362 1.752-2.045zm-10.975-15.572c-.484-.335-.983-.654-1.489-.963.506.31 1 .628 1.489.963a29.288 29.288 0 0 1 2.575 2 29.288 29.288 0 0 0-2.574-2zm-3.49-2.1q.7.367 1.381.762-.677-.391-1.38-.758zm-1.309-.655l.783-1.441zm16.735 19.612l.041.065zm.2.375l.026.07-.026-.066zM806.063 562.15l.044.008-.045-.008zm.149.028c-3.6.464-7.188 1.141-10.8 1.339 3.614-.198 7.202-.875 10.801-1.339zm-99.525-61.691a4.792 4.792 0 0 0-.213-.962 4.792 4.792 0 0 1 .214.962zM614.94 469.7c-.2-.113-.4-.232-.607-.348.203.12.404.238.607.348zm-.91-.52c-.1-.056-.2-.112-.306-.165l-4.612 5.813c2.547 1.028 5.166 1.923 7.672 3.03-2.506-1.107-5.125-2-7.672-3.03l4.612-5.813.306.168zM349.649 809.753c.993-4.018 1.033-7.732-1.39-10.693 2.423 2.962 2.384 6.675 1.39 10.693zm-3.149-12.376q.416.317.78.65-.366-.333-.78-.65zm-24.3 66.832c.486-.563.954-1.144 1.427-1.721-.47.576-.939 1.157-1.427 1.72zm-1 1.756c-1.168 1.685-2.195 3.5-3.492 5.07 1.292-1.566 2.323-3.384 3.492-5.071zm-1.788 5.993q-.058.282-.113.564.054-.283.112-.565zm-.166.846c-.445 2.443-.521 4.867 1.548 6.967a3.336 3.336 0 0 0 2.068 2.376 3.34 3.34 0 0 1-2.07-2.377c-2.068-2.1-1.992-4.525-1.546-6.97zm33.65 163.766l1.3-4.008a4.969 4.969 0 0 1 .431-3.067 4.965 4.965 0 0 0-.43 3.067c.361-.022.831.024 1.238.032h.291c-.091 0-.189.005-.291 0-.407-.007-.877-.053-1.238-.031l-1.3 4.008c-2.365-.465-4.72-1.054-7.084-1.541 2.362.484 4.717 1.07 7.087 1.539zm2.083-7.685c-.052.077-.1.155-.149.234.047-.08.096-.158.148-.235zm7.951 16.663a20.785 20.785 0 0 0-3.882-4.881 20.785 20.785 0 0 1 3.882 4.88zm-3.943 11.076h-.319c.106.003.213.003.318-.001zm1.219-.176a5.435 5.435 0 0 1-.6.121 5.435 5.435 0 0 0 .599-.122zm-1.966 25.585l-.053 4.533.053-4.533zm-1.851 12.946c-.012-.2-.021-.4-.027-.606.005.201.014.403.026.606zm.1 1.142c0-.041-.009-.081-.014-.121.001.04.006.08.011.12zm.411 2.34q-.107-.44-.195-.9.084.46.195.9zm44.329-67.483c.156.65.287 1.311.386 1.985-.103-.674-.233-1.335-.389-1.985zm1.691-27.634l-.541 6.618a6.9 6.9 0 0 0 .48.569 6.9 6.9 0 0 1-.48-.569q.266-3.31.537-6.619zm74.038 163.478a23.387 23.387 0 0 0-5.811 1.645 23.366 23.366 0 0 1 5.807-1.646zm-6.723 2.066c-.064.031-.131.06-.195.092.06-.033.127-.061.191-.093zm54.133 57.277a8.459 8.459 0 0 1-5.112 1.866 8.46 8.46 0 0 0 5.108-1.867zm39.232 76.86q.437.225.862.467-.429-.242-.862-.468zm115.776 33.491c.516.158 1.034.308 1.548.471.1.408.208.813.316 1.22.071.271.141.542.2.814-.063-.272-.133-.543-.2-.814-.107-.407-.219-.813-.316-1.22-.517-.164-1.035-.314-1.551-.472zm-37.7-8.271l-.046-.009zm18.786 35.216l.1-.107-.1.107zm-.182-1.016l.569.6zm20.938-20.332c.122-.467.348-.944.427-1.406-.079.462-.305.94-.427 1.406-.428 1.468-1.136 1.494-1.886 1.184.743.309 1.45.283 1.879-1.185zm-.088-5.729l5.77-.06a13.355 13.355 0 0 0 .931 1.012 13.355 13.355 0 0 1-.931-1.012zm84.911-207.95c-5.42-2.435-10.849-4.89-16.422-6.937-15.25-5.6-28.081-14.2-37.8-27.569a92.805 92.805 0 0 0-21.949-21.739 117.993 117.993 0 0 1-12.417-9.443 190.51 190.51 0 0 1-36.095-45.244 7.5 7.5 0 0 0-1.734-1.545q-.289-1-.586-2a32.659 32.659 0 0 1-2.4-3.437 32.5 32.5 0 0 0 2.4 3.436c-.24-2.138-.113-4.4-.783-6.392a101.425 101.425 0 0 1-5.307-32.257c-.019-7.728.157-15.47.652-23.179.275-4.285 1.382-8.516 2.114-12.771l.964-.094c1.238 3.593 2.6 7.149 3.661 10.795.528 1.821.313 3.848.756 5.706.539 2.26 2.342 3.12 4.106 1.723 1.794-1.421 3.77-3.25 4.471-5.307 4.047-11.884 2.239-22.729-6.592-31.886a8.235 8.235 0 0 0 1.3-2.555c.466-5.047 3.523-8.7 6.576-12.286 5.318-6.251 10.935-12.131 20.147-11.787l4.223 1.234c1.175 1.119 2.313 2.281 3.533 3.35 6.03 5.288 6.168 6.477 1.811 13.05a56.567 56.567 0 0 0-2.776 5.275l.9.709 2.276-1.541-.011.033-.011.033.023-.032c.165 4.745.175 4.745 4.039 4.088 1.216-.251 2.922-.086 3.553-.832 1.771-2.093 3.027-4.611 4.615-6.871a147.6 147.6 0 0 1 8.965-12.176c1.168-1.344 3.723-1.46 5.614-2.212a11.636 11.636 0 0 0 1.813-1.125l2.3.592c1.439 1.364 2.668 3.111 4.351 4.026 7.962 4.33 9.432 9.482 7.553 16.582a25.611 25.611 0 0 0-.064 10.193 5.661 5.661 0 0 0 3.624 3.78c1.242.253 2.948-1.548 4.373-2.548a3.72 3.72 0 0 0 .887-1.461c3.257-6.748 3.7-13.858 2.778-21.165a109.812 109.812 0 0 1-1.319-13.083c-.009-1.68 1.517-3.555 2.753-4.988.777-.9 2.418-.992 3.491-1.715 5.46-3.679 11.781-3.065 16.106 1.974 2.114 2.464 3.714 5.365 5.595 8.034 1.9 2.7 4 2.868 6.609.994 4.9-3.518 4.44-9.813 1.554-13.978-5.313-7.664-12.243-13.32-21.456-15.749-5.076-1.339-9.817-3.261-13.9-6.729-3.9-3.316-6.1-12.749-3.8-17.31 3.947-7.817 15.143-11.167 22.747-6.826 3.532 2.017 6.355 4.545 7.625 8.645.795 2.566 5.015 5.731 6.8 5.387 3.419-.659 5.021-3.2 5.485-6.32a25.466 25.466 0 0 0 .018-7.162c-.906-6.505-5.021-11.126-9.587-15.415l2.464-2.6a35.3 35.3 0 0 0 5.1-.421 21.239 21.239 0 0 1 23.594 10.527 8.631 8.631 0 0 0 1.912 1.817 6.57 6.57 0 0 1 .223-.682 6.57 6.57 0 0 0-.223.682l.714 8.138c.134.7.208 1.992.413 2.013.885.092 2.13.134 2.657-.393a20.754 20.754 0 0 0 3.686-4.732 28.515 28.515 0 0 0 3.071-15.372c-.228-4.093 1.5-5.716 5.518-5.475A21.9 21.9 0 0 1 826 820.951c5.367 4.364 9.943 9.24 8.988 17.019a17.962 17.962 0 0 0 .1 3.762c.384 4.248 2.775 7.442 5.777 7.8l.048 1.055-3.066 1.459c2 2.66 5.115 2.418 6.833-.5a18.381 18.381 0 0 0 2.72-11.326c-.446-4.405-.132-8.758 1.972-12.657.789-1.461 2.832-3.3 4.2-3.214 6.392.378 12.075 2.732 16.3 7.854a51.254 51.254 0 0 1-1.179 5.828c-.508 1.6-.6 2.781 1.177 3.477a3.739 3.739 0 0 0 5.035.46c2-1.418 4.2-2.972 5.417-5 4.273-7.114 2.284-18.643-3.937-24.2a14.892 14.892 0 0 0-3.524-1.768l-1.393-1.619-8.421 1.245a2.89 2.89 0 0 1-1.548-.476 2.889 2.889 0 0 0 1.548.476l8.421-1.245c1.932-1.705 4.361-3.089 5.707-5.173 5.037-7.8 15.383-9.29 22.884-5.477 1.709.869 3.381 1.811 5.029 2.7 2.106-4.518.776-8.33-2.169-11.415a21.555 21.555 0 0 0-7.4-5.33c-8.042-3.1-16.031-2.945-23.538 1.975a37.369 37.369 0 0 1-6.063 3.367c-5.738 2.379-11.584 2.78-17.458.35-2.106-.871-3.56-2.534-3.206-4.672.789-4.759 2.045-9.441 3.2-14.55a27.943 27.943 0 0 1 11.065 12.429c1.269 2.716 3.428 2.834 4.968.17a8.794 8.794 0 0 0 1.306-4.585c-.625-10.808-3.9-20.243-14.219-25.736l1.44-.4c.849-.053 2.092.226 2.472-.224a14.56 14.56 0 0 0 2.263-3.968 18.245 18.245 0 0 1 18.494-11.876c1.347 1.81 2.834 3.537 3.993 5.46.775 1.286 1.54 1.838 2.957 1.275l-.073 1.8c.524-.108 1.365-.052 1.519-.351.92-1.788 2.593-3.8 2.338-5.475-1.035-6.817-4.339-12.536-11.14-14.954-12.391-4.405-24.028-2.938-34.546 5.454-5.307 4.234-9.737 9.637-16.521 11.954-2.658.907-1.167 2.194.441 3l-5.252-.711c-1.356-3.035-2.31-6.343-4.146-9.054-4.852-7.161-10.06-14.1-20.273-13.105q-.1-.351-.194-.7c1.5-5.935.385-11.887-3.528-16.008-4.819-5.075-4.4-10-3.305-16.031 2.618-14.365 13.864-22.173 28.075-18.759 3.268.785 6.436 1.981 9.66 2.952 1.315.4 2.66.7 4.6 1.2l-1.021-2.982.615-1.293c.231-.223.68-.468.66-.665-.392-3.885-2.849-6.555-5.822-8.533-7.4-4.926-15.7-6.535-24.5-5.818-7.144.582-14.038 1.714-18.281 8.435-8.379-7.943-17.613-10.877-28.285-6.222a34.933 34.933 0 0 0-14.236 11.155 23.98 23.98 0 0 0-4.863 13.373 53.89 53.89 0 0 1-2.061 12.536c-2.239 7.268-6.17 13.369-14.189 15.474-2.417.634-4.915.959-7.332 1.594-.5.131-.805 1.01-1.2 1.544l-6.78 1.4c-1.759-1.494-3.6-2.9-5.256-4.5-2.767-2.675-2.691-5.261.072-8.99 2.088-2.818 4.592-3.347 7.854-1.657 1.2.622 2.387 1.27 3.6 1.871 2.034 1.011 4.055 1.843 6.218.2 2.649-2.01 2.366-4.785 1.563-7.318-1.888-5.961-4.383-11.631-9.43-15.77-4.924-4.039-3.05-12.013 3.372-13.949a34.988 34.988 0 0 1 13.672-1.632c1.886.184 2.65-.515 2.448-2.331l1.819-.43a7.293 7.293 0 0 0-.983-2.456 27.256 27.256 0 0 0-16.8-8.08 26.372 26.372 0 0 0-25.434 12.664 3.432 3.432 0 0 1-2.472 1.2c-7.389.425-13.226 3.385-16.625 10.179-2.455 4.908-1.94 10.127-1.091 15.323l-4.7.165c-1.958.266-3.943.425-5.9.685 1.959-.26 3.945-.419 5.9-.685l1.268-1.169c-.459-.236-.906-.652-1.377-.682-10.949-.7-20.126 2.778-25.5 14-1.918 4-4.518 6.707-8.767 8.09a12.909 12.909 0 0 0-8.536 8.407c-1.513 4.466-3.01 8.961-4.109 13.54-2.53 10.539-8.356 18.178-18.33 22.782-5.952 2.748-12.1 5.489-15.445 12.391a44.068 44.068 0 0 0-10.394-20.021 91.4 91.4 0 0 1-7.879-10.349c-3.246-5.02-2.259-7.655 3.351-9.975 6.849-2.832 13.565-3.433 19.972 1.31.738.547 1.941.466 2.928.675l.181-.88-2.849-2.346q-.707-.5-1.417-.93a20.675 20.675 0 0 0-2.856-1.442q-.717-.293-1.437-.523.72.23 1.437.523a20.675 20.675 0 0 1 2.856 1.442q.71.43 1.417.93l.014-1.075 2.148.738.569-.819a38.5 38.5 0 0 0-3.013-3.148c-7.917-6.649-17.1-9.734-27.314-8.255s-19.609 4.688-24.667 15.12a21.774 21.774 0 0 1-13.231 11.8 35.069 35.069 0 0 0-4.315 2.019l-2.2-.007c.244.6.52 1.187.788 1.779-.268-.592-.544-1.182-.788-1.779l-6.068-7.669c-1.4-.963-2.778-1.972-4.176-2.942 1.4.97 2.772 1.979 4.175 2.941 4.973-1.7 10.026-3.2 14.884-5.181a29.58 29.58 0 0 0 6.49-4.313 8.638 8.638 0 0 0 1.576-2.545l-.034.008a25.569 25.569 0 0 1-13.841-.114q-.987-.3-1.957-.689.97.39 1.957.689a25.569 25.569 0 0 0 13.841.114l.485-.492 2.291-2.028H520.46c2.763-1.894 5.121-3.289 7.221-5 3.148-2.569 6.427-5.108 7.584-9.327-.945.592-1.9 1.167-2.843 1.766.94-.6 1.9-1.174 2.842-1.766l5.326-5.9c1.959-2.588 3.656-5.436 5.922-7.719-2.266 2.283-3.963 5.131-5.922 7.719.628-.113 1.441-.015 1.853-.374 2.377-2.075 4.757-4.163 6.957-6.422a140.225 140.225 0 0 1 45.911-31.179c24.75-10.587 50.279-17.745 77.474-17.9a141.008 141.008 0 0 0 17.872-1.649c4.962-.667 9.216-2.867 11.671-7.536.291-.554 1.9-1.816-.266-2.314l5.7-5.175c.591-.048 1.357.127 1.746-.179 4.8-3.772 9.543-7.623 14.319-11.43.813-.647 1.718-1.179 2.58-1.763l20.877-13.465 19.266.684c.231.19.455.451.683.671-.228-.219-.452-.48-.683-.671l-19.266-.684-20.876 13.465c2.311 4.073 5.951 5.972 10.484 6.408v-.006l1.2.545c8.032 2.518 16.09 1.342 24.01-.29 9.76-2.01 19.3-5.36 29.129-6.688a103.318 103.318 0 0 1 26.493-.188c8.4 1.06 16.475 4.518 24.8 6.447 6.821 1.58 13.775 3.229 20.72 3.491 14.085.53 28.2.166 42.31.125a194.942 194.942 0 0 1 44.623 5.268c10.441 2.416 21.054 4.191 30.839 8.97 6.637 3.242 13.469 6.085 20.213 9.106l6.133 2.891c2.224 1.13 4.407 2.352 6.68 3.374 9.465 4.255 19.1 8.156 28.395 12.758 7.745 3.836 13.83 9.74 19.353 16.539a236 236 0 0 0 21.069 22.291c4.8 4.544 10.937 7.659 15.831 12.12a189.539 189.539 0 0 1 36.356 45.476 9.186 9.186 0 0 0 1.465 1.551l.893 2.021a32.649 32.649 0 0 1 2.4 3.44 32.411 32.411 0 0 0-2.4-3.439c.24 2.138.113 4.4.783 6.392a101.434 101.434 0 0 1 5.307 32.257c.019 7.727-.157 15.469-.652 23.179-.275 4.284-1.382 8.516-2.114 12.771l-.964.093c-1.238-3.593-2.6-7.149-3.661-10.8-.528-1.821-.313-3.848-.756-5.706-.539-2.259-2.343-3.119-4.105-1.723-1.794 1.421-3.771 3.25-4.471 5.307-4.047 11.883-2.239 22.729 6.591 31.886a8.233 8.233 0 0 0-1.3 2.555c-.466 5.047-3.523 8.7-6.576 12.286-5.318 6.251-10.935 12.131-20.147 11.787l-4.224-1.235a6.864 6.864 0 0 0-.6.5 6.864 6.864 0 0 1 .6-.5c-1.175-1.119-2.313-2.281-3.532-3.35-6.026-5.284-6.165-6.48-1.811-13.05a56.505 56.505 0 0 0 2.775-5.274l-.906-.708-2.274 1.539.022-.067-.023.033-.63.9c-.9 1.273-1.793 2.555-2.7 3.824.909-1.268 1.8-2.551 2.7-3.823l.631-.9c-.165-4.747-.174-4.746-4.039-4.089-1.216.251-2.923.086-3.553.832-1.771 2.093-3.027 4.611-4.615 6.872a147.535 147.535 0 0 1-8.966 12.176c-1.168 1.344-3.723 1.46-5.615 2.211a11.639 11.639 0 0 0-1.812 1.127l4.584 1.306-4.584-1.306-2.3-.593a50.437 50.437 0 0 0-3.85-3.751c-1.642-1.307-3.646-2.187-5.182-3.592-3.942-3.6-4.309-8.05-2.881-13 1.129-3.915 1.575-7.958-.332-11.838-1.553-3.161-4.363-3.581-6.724-.993a11.174 11.174 0 0 0-1.756 2.629c-3.267 6.74-3.708 13.852-2.77 21.16a107.626 107.626 0 0 1 1.309 13.084c.008 1.673-1.534 3.538-2.773 4.965-.783.9-2.416 1-3.49 1.725-5.453 3.674-11.776 3.051-16.1-2-2.174-2.54-3.815-5.53-5.782-8.255-1.732-2.4-3.833-2.57-6.195-.92-5.3 3.7-4.582 10.082-1.754 14.157 5.317 7.662 12.247 13.313 21.461 15.738a34.177 34.177 0 0 1 13.892 6.736c3.894 3.313 6.086 12.759 3.778 17.314-3.96 7.816-15.154 11.16-22.751 6.8-3.424-1.966-6.263-4.363-7.5-8.383-.83-2.7-5.068-6-6.926-5.637-3.417.664-5.014 3.209-5.477 6.33a25.528 25.528 0 0 0-.009 7.162c.9 6.509 5.031 11.12 9.592 15.412l-2.474 2.592a35.315 35.315 0 0 0-5.1.421 21.239 21.239 0 0 1-23.592-10.527 8.639 8.639 0 0 0-1.912-1.817l-.715-8.138c-.135-.705-.21-1.994-.415-2.015-.887-.09-2.133-.131-2.66.4a20.856 20.856 0 0 0-3.686 4.741 28.574 28.574 0 0 0-3.066 15.392c.225 4.084-1.506 5.6-5.563 5.466-10.541-.35-23.507-11.7-21.618-21.778a15.227 15.227 0 0 0-.091-4.052c-.375-4.252-2.77-7.453-5.776-7.81l-.048-1.055 3.069-1.459c-1.981-2.662-5.091-2.438-6.812.47a18.608 18.608 0 0 0-2.734 11.578A23.768 23.768 0 0 1 927.071 952c-1.052 2.281-2.734 3.5-5.258 3.1a25.728 25.728 0 0 1-15.345-7.766 44.877 44.877 0 0 0 1.14-6.036c.069-1.13-.666-2.31-1.039-3.468a3.74 3.74 0 0 0-5.035-.46c-2 1.418-4.2 2.972-5.417 5-4.273 7.114-2.284 18.642 3.937 24.2a14.906 14.906 0 0 0 3.528 1.764l1.393 1.619c-2.165 2.008-4.623 3.786-6.439 6.072-4.29 5.4-10.845 8.069-17.415 6.212a101.245 101.245 0 0 1-9.929-3.917c-2.02 4.131-.5 8.061 2.552 11.251a21.35 21.35 0 0 0 7.5 5.158c7.964 3.031 15.84 2.786 23.233-2.071a36.935 36.935 0 0 1 6.062-3.355c5.732-2.372 11.572-2.773 17.441-.351 2.1.868 3.568 2.523 3.216 4.658-.784 4.761-2.039 9.445-3.193 14.563a27.878 27.878 0 0 1-11.054-12.376c-1.3-2.74-3.38-2.894-4.966-.273a8.113 8.113 0 0 0-1.328 4.285c.576 10.762 3.58 20.3 13.916 25.848l11.444 1.5.978-1.476-.978 1.475a10.142 10.142 0 0 1 1.764 6.783 10.14 10.14 0 0 0-1.764-6.783l-11.444-1.5-1.133.656c-1.14-1.644-2.114-.489-2.7.38-.958 1.419-1.472 3.137-2.428 4.558-1.631 2.425-3.125 5.1-5.283 6.976a15.846 15.846 0 0 1-11.637 4.241 5.583 5.583 0 0 0-1.85.565c-1.407-1.664-2.8-3.341-4.228-4.986-.655-.753-1.383-1.443-2.078-2.161l.6-2.426c-1.026.4-2.019.473-2.214.908-.827 1.849-2.192 3.9-1.958 5.7.878 6.736 4.333 12.152 10.863 14.508 12.392 4.471 24.058 3 34.6-5.391 5.322-4.234 9.745-9.66 16.545-11.976 2.662-.907 1.182-2.195-.434-3.005l5.251.711c1.356 3.036 2.31 6.345 4.147 9.055 4.852 7.161 10.06 14.1 20.273 13.105q.1.351.194.7c-1.5 5.935-.386 11.886 3.528 16.008 4.819 5.075 4.4 10 3.305 16.031-2.618 14.365-13.863 22.173-28.074 18.759-3.268-.785-6.436-1.981-9.66-2.953-1.316-.4-2.659-.7-4.6-1.2l1.02 2.982-.615 1.293a17.677 17.677 0 0 0 5.625 7.042q.531.394 1.089.747a20.148 20.148 0 0 0 2.317 1.263 20.148 20.148 0 0 1-2.317-1.263q-.557-.354-1.089-.747a17.68 17.68 0 0 1-5.625-7.042c-.23.223-.679.468-.659.666.391 3.885 2.849 6.554 5.822 8.533 7.4 4.928 15.7 6.533 24.5 5.818 7.145-.581 14.037-1.718 18.281-8.434 8.38 7.943 17.614 10.876 28.285 6.22a34.936 34.936 0 0 0 14.236-11.155 23.1 23.1 0 0 0 4.84-13.376 54.675 54.675 0 0 1 1.406-10.024c2.371-10.43 8.009-17.635 19.394-18.887a10.958 10.958 0 0 0 3.085-.7c.443-.189.62-1 .918-1.531l6.78-1.4c1.823 1.559 3.745 3.018 5.447 4.7 2.58 2.552 2.438 5.126-.247 8.764-2 2.709-4.57 3.359-7.591 1.865-1.381-.683-2.645-1.77-4.094-2.105-1.838-.425-4.373-1.036-5.568-.155-1.227.9-1.73 3.536-1.632 5.362.39 7.206 3.707 13.087 9.132 17.754 4.657 4.006 3.116 11.785-3.2 13.845a32.97 32.97 0 0 1-13.921 1.716c-1.887-.2-2.64.52-2.441 2.328l-1.818.43a7.424 7.424 0 0 0 .982 2.456c4.558 4.821 10.38 7.186 16.809 8.054 9.969 1.346 20.386-3.978 25.425-12.642a3.436 3.436 0 0 1 2.475-1.2c7.387-.426 13.224-3.386 16.622-10.181 2.454-4.908 1.94-10.126 1.09-15.322l4.7-.165-1.268 1.169c.458.236.905.652 1.377.682 10.95.7 20.126-2.779 25.5-14 1.917-4 4.519-6.707 8.767-8.09a12.909 12.909 0 0 0 8.536-8.407c1.513-4.466 3.01-8.961 4.11-13.54 2.529-10.539 8.356-18.177 18.33-22.782 5.952-2.748 12.1-5.489 15.467-12.437a43.522 43.522 0 0 0 10.372 20.066 92.69 92.69 0 0 1 7.878 10.351c3.247 5.02 2.26 7.655-3.351 9.975-6.849 2.832-13.565 3.432-19.972-1.31-.738-.546-1.941-.466-2.928-.676l-.181.881 2.848 2.346-.014 1.075-2.148-.737-.569.818a38.584 38.584 0 0 0 3.014 3.149c7.917 6.649 17.091 9.7 27.316 8.264 10.265-1.444 19.59-4.732 24.662-15.13a21.831 21.831 0 0 1 13.234-11.8 35.035 35.035 0 0 0 4.314-2.019l2.2.006 7.206 8.754c-8.379-.428-15.357 3.094-21.832 7.883-.975.721-1.514 2.033-2.256 3.072l.034-.008a25.774 25.774 0 0 1 13.181-.076 25.774 25.774 0 0 0-13.181.076l-.485.493-2.288 2.026h13.046c-2.766 1.9-5.125 3.291-7.224 5-3.148 2.569-6.428 5.107-7.584 9.327.946-.592 1.9-1.166 2.844-1.766-.941.6-1.9 1.174-2.843 1.767l-5.327 5.9c-1.715 2.207-3.258 4.594-5.043 6.729 1.785-2.135 3.328-4.521 5.043-6.729-.7.175-1.6.135-2.075.562-2.784 2.49-5.54 5.021-8.178 7.666a139.584 139.584 0 0 1-44.469 29.746c-24.747 10.594-50.279 17.747-77.474 17.9a141.046 141.046 0 0 0-17.872 1.649c-4.963.667-9.217 2.867-11.67 7.536-.291.554-1.9 1.817.266 2.313l-5.7 5.175c-.523-.022-1.2-.266-1.541-.028-1.4.983-2.695 2.118-4.035 3.188q-6.919 5.526-13.844 11.047l-20.1 12.629q10.051-6.314 20.1-12.632c-2.188-3.7-5.634-5.585-9.624-6.691-2.514-.788-5-2.128-7.546-2.266a71.245 71.245 0 0 0-26.164 3.649 114.358 114.358 0 0 1-28.209 5.54 92.807 92.807 0 0 1-38.29-5.436 95.836 95.836 0 0 0-37.118-5.606c-5.89.222-11.8.747-17.669.516-12.817-.5-25.717-.666-38.4-2.347a288.6 288.6 0 0 1-39.06-8.006c-8.744-2.424-16.864-7.065-25.322-10.574-2.685-1.114-5.558-1.775-8.345-2.643.237.291.436.665.672.958-.236-.294-.435-.668-.672-.958l-3.971-1.913c-1.159-.927-2.183-2.178-3.504-2.771zm268.351-682.455zm77.388-42.96a6.466 6.466 0 0 1 2.858-1.519 6.469 6.469 0 0 0-2.858 1.519 3.542 3.542 0 0 0-.553.72 3.542 3.542 0 0 1 .547-.721zm-.75 1.122a3.481 3.481 0 0 0-.228.892 3.481 3.481 0 0 1 .222-.893zm177.07 155.608c0 .142 0 .283.007.423a5.724 5.724 0 0 0 .095.823 5.724 5.724 0 0 1-.095-.823c-.007-.139-.007-.28-.007-.423zm0-.017c.025-1.7.591-3.561.761-5.305-.17 1.745-.736 3.603-.761 5.305zm132.955 191.26a4.968 4.968 0 0 0 1.195-4.214c-.45.028-1.068-.051-1.525-.027.457-.024 1.075.054 1.525.027a4.969 4.969 0 0 1-1.194 4.215zm-163.847-187.206l5.376 2.319-5.376-2.319c-2.051-1.31-4.107-2.612-6.146-3.94 2.038 1.328 4.095 2.63 6.146 3.94zm140.761 185.008l-1.014-1.37 1.015 1.37a2.07 2.07 0 0 1 .216-.076 2.07 2.07 0 0 0-.217.076zm16.307-24.885a5.173 5.173 0 0 1 3.24-1.187 5.173 5.173 0 0 0-3.24 1.187zm-7.2-23.3c.02.062.045.124.064.186-.018-.062-.04-.123-.062-.186zm.182-.31a2.138 2.138 0 0 0-.074.244 2.138 2.138 0 0 1 .075-.243zm-.017-5.758c-.159-3.1-.348-6.191-.483-9.287.135 3.1.324 6.192.483 9.287zm3.974 41.019c.076.231.18.463.281.7-.1-.232-.205-.465-.281-.7l.95-1.528zm-12.606 13a1.093 1.093 0 0 1-.2.085 1.093 1.093 0 0 0 .201-.081zm14.33 4.054a26.272 26.272 0 0 1-8.066 1.073 26.272 26.272 0 0 0 8.067-1.069zm.493-.173a13.674 13.674 0 0 0 2.352-1.127 13.674 13.674 0 0 1-2.351 1.131zm41.909 160.443zm-163.216 239.196zm-128.25 114.632l1 1.659c.763.731 1.436 1.662 2.231 2.325-.8-.663-1.468-1.594-2.233-2.326l-1-1.657a4 4 0 0 1 .407-3.408 4 4 0 0 0-.404 3.407zm-57.244 27.639c3.677 1.561 7.173 3.6 10.765 5.388a199.307 199.307 0 0 1 32.323 6.2 199.272 199.272 0 0 0-32.323-6.2c-3.596-1.784-7.087-3.827-10.765-5.388zm-36.877-15.5a42.836 42.836 0 0 1 10.148-4.612 42.836 42.836 0 0 0-10.147 4.614zm-36.355 53.31a2.973 2.973 0 0 1-.325.044 2.973 2.973 0 0 0 .326-.043zm156.664-176.627c-.042-5.71 2.773-9 7.5-10.462-4.732 1.457-7.547 4.752-7.5 10.464-.037 1.125-.379 2.447-.351 3.532-.026-1.084.316-2.406.352-3.532zm54.125-75.5c-.065.207-.087.452-.167.645.079-.187.102-.432.167-.639zm-238.361-26.027l-.059.031zm-2.414-13.407a6.684 6.684 0 0 0-6.462 1.721 10.821 10.821 0 0 0-.859.936 10.821 10.821 0 0 1 .859-.936 6.685 6.685 0 0 1 6.462-1.722c1.8-.935 2.584-.333 2.885.713a3.728 3.728 0 0 1 .1.45 3.728 3.728 0 0 0-.1-.45c-.298-1.04-1.08-1.642-2.884-.706zm2.354 13.438zm0 0c.156-2.318.359-4.635.508-6.953-.149 2.318-.352 4.635-.508 6.953zm-32.811-49.406a7.442 7.442 0 0 1 .369-1.618l-3.21-1.654q1.6.829 3.21 1.655a7.436 7.436 0 0 0-.367 1.623zm26.627 102.5a17.15 17.15 0 0 0 2.091 2.787 17.182 17.182 0 0 1-2.091-2.786l-.758-1.915.76 1.917zm85.373-222.217c4.063 2.717 5.548 6.866 6.328 11.406.4.444 1.01.867 1.375 1.314-.365-.447-.974-.87-1.375-1.314-.779-4.54-2.264-8.688-6.328-11.405a18.283 18.283 0 0 1-1.186-4.683 18.281 18.281 0 0 0 1.188 4.685zm-1.224-5.074c-.008-.087-.018-.175-.025-.262.009.09.02.178.028.265zm60.876-16.748c.05.027.105.054.165.08-.057-.024-.113-.05-.162-.073zm.79.315l-.22-.08-.211-.078.211.078.22.08c.845.316 1.661.75-.008 1.97-2.579 5.542-.976 9.928 1.847 13.974.47.674.975 1.339 1.5 2-.525-.66-1.029-1.324-1.5-2-2.824-4.046-4.427-8.431-1.848-13.974 1.673-1.218.857-1.652.011-1.968zm61.77-365.947a.831.831 0 0 0-.2.578.831.831 0 0 1 .203-.576zm6.067-11.126c0 .071 0 .138.008.2-.002-.06-.005-.127-.005-.198zm81.076 114.791c-.292.128-.586.25-.886.358.303-.107.598-.229.889-.356zm-4.743 1.112q.326-.008.652-.035-.32.029-.649.037zM1407 780.439c-.982-.067-1.724.012-1.5 1.5a23.974 23.974 0 0 0-1.673 2.176 24.6 24.6 0 0 1 1.672-2.179c-.226-1.486.516-1.565 1.501-1.497zm9.27 153.083c-.22-.455-.444-.909-.664-1.365.217.455.441.909.661 1.364zm-19.43-21.174l-3.551.626 3.55-.625 1.253-.625.437-.445-.437.445zm-198.563 273.476q-.726-.044-1.451-.068.722.023 1.448.067zm46.36-47.758c-1.744 1.349-3.591 2.6-5.331 3.95 1.74-1.353 3.587-2.6 5.331-3.95zm-11.9 21.828a18.109 18.109 0 0 1 5.431-8.124 18.1 18.1 0 0 0-5.439 8.124zm6.215-8.78q.768-.61 1.594-1.161-.834.547-1.602 1.161zm6.678-12.949c.131.016.263.031.393.043-.139-.008-.27-.028-.401-.043zm2.671-.482c.512-.323 1-.731 1.51-1.058-.231-.083-.46-.185-.69-.284.229.1.459.2.69.283a133.267 133.267 0 0 1 20.316-3.437q1.714-.127 3.439-.179-1.724.051-3.439.179a133.21 133.21 0 0 0-20.315 3.438c-.519.327-1.007.735-1.519 1.058zm-186.024-97.047c.094-4.751-1.339-7.852-4.841-10.132q-.4-.263-.845-.512.441.249.845.512c3.493 2.28 4.926 5.381 4.833 10.132zm-27.378-22.652l-2.273.475 2.273-.475zm-.014.036l1.194-.662-1.194.662zm86.471-121.469l.017.01zm-44.393-336.893l.3.128zm.279.13a8.216 8.216 0 0 0 5.481 1.85 8.218 8.218 0 0 1-5.481-1.85zm241.648 273.566l-3.981.086 3.981-.086zm95.31-49.954c.176 1.087.138 2.344.317 3.43a5.751 5.751 0 0 0 .138.635 5.751 5.751 0 0 1-.138-.635c-.178-1.085-.141-2.342-.317-3.43zM1393.5 911c0-.05 0-.1-.008-.143.003.043.008.087.008.137zm-256.714 34.772a1.094 1.094 0 0 1 .173.253.6.6 0 0 1 .063.269.6.6 0 0 0-.063-.269 1.094 1.094 0 0 0-.173-.253 7.1 7.1 0 0 0-.849-.719c.488-.7.989-1.4 1.482-2.095-.493.7-.994 1.393-1.482 2.095a7.092 7.092 0 0 1 .847.713zm65.374-422.742c-.437.179-.9.327-1.342.493.447-.166.905-.314 1.342-.493zM1370.6 811.8a14.556 14.556 0 0 0 2.081-5.423c.1-.537.175-1.078.235-1.622s.1-1.092.135-1.641c-.032.55-.075 1.1-.135 1.641s-.137 1.085-.235 1.622a14.56 14.56 0 0 1-2.081 5.423l-.449 2.652q.221-1.325.449-2.652zm8.262 47.529c-.817.482-1.632.969-2.448 1.453.816-.484 1.631-.971 2.448-1.453zm-2.782 7.357a7.031 7.031 0 0 1-.772-.239 7.031 7.031 0 0 0 .769.24zm-1.53-.569a12.478 12.478 0 0 1-3.327-2.583c-1.246-1.162-2.474-2.346-3.715-3.513 1.242 1.167 2.469 2.351 3.715 3.513a12.478 12.478 0 0 0 3.324 2.584zm-9.829 32.87c-.1-3.3-.2-6.608-.309-10.134l.309 10.135zm5.407-15.571a6.254 6.254 0 0 1-.121-.789 6.254 6.254 0 0 0 .117.79zm4.69-52.454c-1.13-.665-2.28-1.3-3.416-1.956 1.132.658 2.283 1.294 3.412 1.957zm-15.4 21.2c.566-.322 1.215-.579 1.816-.875-.609.298-1.258.555-1.824.878zm-.321-.725l.076.159zm-13.479 34.877a11.3 11.3 0 0 0-2.277 9.856 11.7 11.7 0 0 0-.407 4.632 11.7 11.7 0 0 1 .407-4.633 11.3 11.3 0 0 1 2.269-9.852zm-19.723 83.944a6.891 6.891 0 0 0 6.484-2.184 6.89 6.89 0 0 1-6.484 2.184zm-26.157 13.222a4.4 4.4 0 0 1 3.538.888 4.4 4.4 0 0 0-3.538-.888 3.686 3.686 0 0 0-1.243.561 3.686 3.686 0 0 1 1.234-.558zm3.436 23.837c1.219 1.713 2.734 3.155 5.149 3.334a25.846 25.846 0 0 1 7.242 9.674 25.843 25.843 0 0 0-7.243-9.674c-2.422-.176-3.938-1.618-5.157-3.331zm40.635-30.362l.129-.015zm-1.736.339c.244-.067.486-.123.728-.174-.251.053-.494.11-.737.18zm11.225-36.965c-3.151 5.927-7.026 7.873-11.812 5.539 4.786 2.334 8.661.388 11.812-5.54l1.687-1.087zm25.222-73.493a8.289 8.289 0 0 0 .862-.143 8.289 8.289 0 0 1-.871.145zm2.357-7.417a14.061 14.061 0 0 0 5.9-1.044 9.621 9.621 0 0 0 .86-.437 9.621 9.621 0 0 1-.86.437 14.061 14.061 0 0 1-5.91 1.046zm8.323-2.6q-.364.321-.753.6.379-.276.743-.596zm4.543-9.394zm-52.621 8.113a7.715 7.715 0 0 0 8.614 7.971 7.715 7.715 0 0 1-8.614-7.971zM1234.765 932.7l2.187-2.61-2.187 2.61c-.645 1.688-1.213 3.414-1.863 5.1.651-1.684 1.218-3.41 1.863-5.1zm-76.915-107.521c-.252 1.912-.467 3.832-.691 5.75.225-1.918.441-3.838.691-5.75zm-34.608-299.3c.348-.065.7-.11 1.058-.158-.354.048-.71.093-1.058.158a3.618 3.618 0 0 1-.975-.912 3.618 3.618 0 0 0 .975.913zm33.54 371.447a9.748 9.748 0 0 0-.114-5.146 9.748 9.748 0 0 1 .114 5.146c-.357 2.21-.567 4.473-.913 6.687.346-2.213.556-4.476.913-6.686zm32.522-51.181q.157 1.188.317 2.378l-.318-2.376zM1195.6 865q-.51.452-1.005.917.498-.461 1.005-.917zm-26.311-17.884a1.749 1.749 0 0 0 1.265-.579 1.749 1.749 0 0 1-1.261.583zm23.862 20.228q.467-.486.953-.958-.486.472-.953.958c-3.579 3.728-6.254 8.119-6.746 13.81.495-5.687 3.171-10.079 6.75-13.806zm35.991 13.5q-.378 0-.762.007l.766-.002zm-1.145.017c-.256.007-.514.017-.771.026.261-.004.518-.014.774-.021zm1.533-.013c2.5.046 4.828.511 6.562 2.59-1.731-2.074-4.055-2.538-6.559-2.585zm-43.177 1.054l-.5 4.214zm51.168 2.967a1.983 1.983 0 0 0-.462.022 2.037 2.037 0 0 1 .463-.022c.513-.043 1.279-.213 1.748-.234-.47.026-1.233.196-1.745.239zm27.328 26.579a6.032 6.032 0 0 1-6.044-1.418q-.335-.273-.684-.591.35.318.684.591a6.032 6.032 0 0 0 6.047 1.423zm-2.609-1.041c.574-.028 1.147-.062 1.72-.1-.569.043-1.143.077-1.717.105zm3.008.926l-.145.042c.052-.01.097-.022.148-.038zm-8.417 10.962c.447.244.932.448 1.352.721-.416-.269-.902-.473-1.349-.716zm11.659-12.306c.543-.187 1.087-.375 1.632-.56-.542.189-1.086.378-1.629.564zm1.773 19.085l.77-.531-.769.531-6.6 10.137zm-7.6-58.535l-.107-.274.107.274zm-2.562-10.476v.07l-.001-.065zm1.969 8.922q.146.4.3.8c-.104-.265-.204-.53-.301-.796zm21.967 54.394q-.222-.04-.445-.071.222.035.444.076zm13.875-77.966l-.02-.017zm1.313 87.344a27.8 27.8 0 0 0 1-3.044 27.981 27.981 0 0 1-1 3.045 11.842 11.842 0 0 1 1.08 2.811 11.833 11.833 0 0 0-1.081-2.807zm-22.142-73.3c4.514-1.05 8.187-3.457 11.637-6.219-3.451 2.762-7.123 5.169-11.637 6.219zm8.433 64.306q-.162-.055-.325-.1.161.049.323.103zm-21.574-107.3l-1.378 3.642 1.028 1.44-1.028-1.441zm-112.991-181.225l3.02-2.774-1.791-1.273 1.792 1.273zm-23.826-69.9a4.287 4.287 0 0 0-.2-1.25 3.931 3.931 0 0 0-.233-.571 3.931 3.931 0 0 1 .233.571 4.287 4.287 0 0 1 .2 1.25 6.884 6.884 0 0 1-1.613 4.206 6.886 6.886 0 0 0 1.613-4.206zm15.229 17.16c-3.779 2.028-7.32 4.5-10.966 6.776 3.645-2.274 7.186-4.748 10.965-6.774zm4.122-1.295a14.332 14.332 0 0 1 8.713 2.31 14.329 14.329 0 0 0-8.714-2.313zm-1.258.208c.252-.058.5-.1.757-.143-.253.039-.505.086-.758.143zm5.068-21.91c.005.2.02.4.04.595-.026-.196-.036-.396-.041-.596zm.044.64q.02.187.045.374-.026-.187-.046-.373zm.053.427c.018.133.037.266.058.4-.022-.133-.041-.268-.059-.399zm2.445-16.355c.227.172.443.343.628.512-.185-.169-.4-.34-.628-.512-.152-.114-.308-.229-.466-.344.157.116.314.231.465.345zm-2.544 15.062a3.114 3.114 0 0 1 2.147-3.113 3.113 3.113 0 0 0-2.148 3.114zm-4.927-11.155a.409.409 0 0 1 0 .1.409.409 0 0 0-.001-.099zm-12.819 22.564l-.751.259-.023.215.022-.217q.375-.125.751-.256zm-1.923 16.37l.253.727-.253-.727zm40.729-31.648a4.238 4.238 0 0 0-.611-.4 4.238 4.238 0 0 1 .61.401zm-.894-.529c-.026-.011-.053-.024-.08-.034.03.011.053.024.079.035zm-.135-.051c-.065-.022-.129-.044-.194-.06.064.017.128.034.193.061zm-15.459-20.09c-.241-.77-.175-1.46.4-1.581-.576.122-.643.812-.401 1.582zm.22.555a13.467 13.467 0 0 0-2.172 1.01 13.5 13.5 0 0 1 2.171-1.01zm-3.806 7.722a3.3 3.3 0 0 1-.324-.336 3.3 3.3 0 0 0 .323.337zm-6.823 3.619c-.627-3.188.378-5.817 2.494-7.07-2.117 1.253-3.123 3.881-2.496 7.07zm.191.808a49.562 49.562 0 0 0-5.781.2 49.785 49.785 0 0 1 5.779-.2zm-4.532 69.006q-1.051-.364-2.115-.632 1.062.27 2.109.632zm-7.679-102.55l-1.037 2.864zm-.878 3.7c.182 2.22-1.323 4.948-3.606 6.645 2.281-1.694 3.786-4.422 3.604-6.641zm-.033-.287c0 .03.006.06.01.09-.006-.026-.008-.057-.012-.086zm-8.385 8.633l-.952.552zm2.962 86.354c-.388.874-.816 1.734-1.2 2.609a55.957 55.957 0 0 1 9.882.286c.721.1 1.439.222 2.152.373-.714-.151-1.432-.274-2.152-.373a55.957 55.957 0 0 0-9.882-.286c.381-.871.807-1.731 1.198-2.605zm29.568 277.572a11.576 11.576 0 0 1 .576 1.135 11.576 11.576 0 0 0-.578-1.132zm61.085 31.543c6.025 3.4 8.293 9.872 5.283 16.457 3.008-6.582.74-13.056-5.285-16.453zm4.829-307.821a6.015 6.015 0 0 0 2.151 1.05 6.011 6.011 0 0 1-2.153-1.046zm-25.247-86.307c-3.553 4.76-5.888 12.517-4.74 17.326-1.148-4.809 1.188-12.567 4.74-17.326q.427-.571.875-1.082-.45.513-.877 1.086zm-23.086 7.442l-2.539-1.7a8.318 8.318 0 0 1-2.517 2.413 10.282 10.282 0 0 1-1.375.726 10.247 10.247 0 0 0 1.375-.726 8.318 8.318 0 0 0 2.517-2.413l2.54 1.7zm-13.278-12.049a9.6 9.6 0 0 0 .983.017 9.6 9.6 0 0 1-.985-.013zm-37.829 1.843a.8.8 0 0 0 .017.154.8.8 0 0 1-.019-.15zm-20.7 23.98l-.763.9q.379-.445.761-.899zm3.309-3.743c-.576.607-1.137 1.23-1.69 1.86.551-.626 1.112-1.249 1.688-1.856zm45.044 387.788a17.6 17.6 0 0 0-9.913 6.785 17.611 17.611 0 0 1 9.911-6.781zm19.809 40.092c-.622 1.488-1.2 3-1.879 4.459.682-1.458 1.255-2.967 1.876-4.455zm-3.6-26q2.781 3.763 5.566 7.526zm188.62 38.664c.288-.882.655-1.745.964-2.621.652-.794 1.3-1.591 1.956-2.38-.658.789-1.3 1.587-1.956 2.38-.309.876-.676 1.739-.964 2.621zm10.7-45.984c.07.112.137.224.2.337-.065-.113-.131-.225-.2-.337q-.148-.234-.31-.467.164.232.312.466zm33.912-126.194c-.27.4-.522.811-.771 1.23-.373.629-.739 1.268-1.143 1.861.4-.594.77-1.232 1.143-1.861.249-.42.5-.835.771-1.23l1.109-2.345c-.158-.708-.323-1.417-.443-2.115q-.052-.3-.091-.6.039.3.091.6c.12.7.285 1.407.443 2.115zm5.682-11.214a3.217 3.217 0 0 1 .374.022 3.217 3.217 0 0 0-.372-.022zm-2.362.288a5.2 5.2 0 0 0-2.451 2.514 5.2 5.2 0 0 1 2.452-2.514l.056-3.116a10.527 10.527 0 0 1 .392-1.047c.048-.118.094-.236.136-.351-.042.116-.089.233-.136.351a10.527 10.527 0 0 0-.392 1.047l-.056 3.116c.774-.061 1.6-.288 2.354-.287-.756-.001-1.578.225-2.353.291zm-23.2 16.591l.059-.212zm-15.418.226a3.209 3.209 0 0 1 .085-.789 3.209 3.209 0 0 0-.081.79zm2.071 5.059l-3.427 6.246c-1.228 2.057-2.443 4.122-3.667 6.182s-2.458 4.113-3.725 6.145c1.268-2.032 2.5-4.085 3.725-6.145s2.438-4.125 3.667-6.182zm-28.212 82.66c.038.129.083.257.131.385-.044-.127-.089-.255-.127-.384zm-18.893-72.8a17.956 17.956 0 0 0-2.136 2.14 18 18 0 0 1 2.136-2.14c1.34.284 1.44.783 1.177 1.3.268-.52.167-1.018-1.174-1.302zm1.174 1.3c-.027.052-.057.1-.09.155.038-.05.068-.102.095-.154zm-.112.189c-.025.038-.052.076-.079.114.032-.035.059-.074.084-.113zm-149.383-322.34l-.188.726c-1.482 5.127-4.547 8.22-8.426 8.8 3.88-.575 6.944-3.669 8.426-8.8l.188-.725-.025-.083zm-1.532-.464l1.243-.485zm-.507-8.07c-.361-.011-.736.026-1.1.017.361.01.736-.028 1.1-.017a4.392 4.392 0 0 1-.214-.448 4.392 4.392 0 0 0 .214.448l.7-.628zm-39.452-10.847l-4.766-1.321zm-32.6 56.905l1.844 1.556-1.842-1.553zm10.885 12.182a8.513 8.513 0 0 0-.721.5 8.513 8.513 0 0 1 .724-.497zm7.786 50.562a1.925 1.925 0 0 1-.3.029 1.925 1.925 0 0 0 .303-.026zm12.449 51.044q-.9.676-1.833 1.3.938-.621 1.836-1.293zm5.839-5.275q.806-.866 1.575-1.777-.769.91-1.575 1.777t-1.644 1.682q.843-.814 1.647-1.679zm-43.375 328.907q0 .388.018.786-.016-.394-.015-.782zm26.358-15.348c.36.387.83.747 1.235 1.123.1.094.2.189.29.285-.091-.1-.188-.191-.29-.285-.402-.372-.872-.732-1.232-1.119zm5.019-33.776c-.344.287-.676.588-1 .9.326-.308.654-.609 1.002-.901zm-16.778 126.334q-.489-.568-.948-1.156.462.592.95 1.16zm-1.224-1.517q-.261-.347-.51-.7.251.357.512.704zm1.682-21.774c.28-.109.558-.2.835-.287-.275.088-.554.182-.833.291zm15.174-143.553l-.01.017zm.006-.012l-.668 1.889a9.878 9.878 0 0 0 .386 4.9 8.333 8.333 0 0 0 .548 1.2 8.333 8.333 0 0 1-.548-1.2 9.878 9.878 0 0 1-.386-4.9zm-9.475 22.6a12.861 12.861 0 0 0 6.154 5.733 12.868 12.868 0 0 1-6.156-5.734zm7.82 6.338a14.121 14.121 0 0 1-1.449-.519 14.121 14.121 0 0 0 1.45.518zm-1.012 15.405a25.154 25.154 0 0 0-12.991-11.465 25.165 25.165 0 0 1 12.992 11.464zm-14.21-11.922c.26.091.513.19.768.286-.255-.093-.508-.192-.768-.286zm-34.466 5.871a21.48 21.48 0 0 0-2.127-8.408 21.48 21.48 0 0 1 2.127 8.411zm-16.491 89.084a32.793 32.793 0 0 0-8.781-7.354 32.788 32.788 0 0 1 8.78 7.357zm.47.612c.11.145.225.285.333.434-.108-.146-.223-.286-.333-.431zm28.132 11.028a2.867 2.867 0 0 1 1.422-2.574 35.256 35.256 0 0 0 7.479 7.362q.853.6 1.753 1.146-.9-.542-1.753-1.146a35.256 35.256 0 0 1-7.479-7.362 2.866 2.866 0 0 0-1.423 2.579zm38.369 11.993c.049.288.093.575.137.856-.045-.278-.089-.565-.138-.853zm-3.668-4.434c-2.495-3.063-5.615-4.226-8.963-3.515 3.348-.711 6.469.451 8.964 3.515 2.337.318 3.109 1.868 3.5 3.574-.391-1.703-1.164-3.253-3.501-3.571zm23.8-77.6c-.2-.2-.394-.395-.586-.6.187.213.383.411.581.607zm1.461 1.365q-.326-.289-.645-.585.314.302.64.592zm2.548 19.713l.68-1.061zm3.006 1.488c.956.144 1.974.156 2.93.3-.961-.137-1.98-.149-2.935-.292zm28.61-19.492c.338.025.659.06.966.1-.312-.033-.634-.067-.971-.093zm1.678.221l.151.032zm117.774 45.159l-2.886-3.981-4.725-.828c-.468 1.278-.8 2.637-1.322 3.883.522-1.246.854-2.605 1.322-3.884-.093-3.065-.137-4.49-.533-5.448.4.958.44 2.383.533 5.449l4.725.826 2.886 3.982 3.481 9.441q-1.745-4.712-3.486-9.432zm-13.962 48.924q-.036-.086-.067-.172.026.094.062.18zm-21.69 39.745c.138.034.274.071.4.106-.131-.026-.267-.064-.405-.097zm-12.33-4.894q-.476-.619-.918-1.271.443.65.918 1.271a17.408 17.408 0 0 0 7.121 5.731 17.413 17.413 0 0 1-7.127-5.722zm54.169 9.486c6 .184 12.006.353 18.009.549-6-.2-12.006-.365-18.009-.549zm30.666-106.7a16.729 16.729 0 0 0 12.054 8.129 16.729 16.729 0 0 1-12.059-8.121zm18.709 7.674c-.045.473-.05.954-.141 1.418.091-.464.1-.944.14-1.417zm11.831 2.787a8.647 8.647 0 0 1-.379 3.655 8.647 8.647 0 0 0 .373-3.646zm-3.152-67.29c1.4 2.263 3.044 2.232 6.353.41a5.087 5.087 0 0 0 .933-4.866 5.089 5.089 0 0 1-.932 4.867c-3.317 1.83-4.96 1.861-6.361-.402zm6.84-5.522v.006zm.209.439q.1.223.178.449-.088-.217-.185-.44zm40.792-41.538l-7 11.66zm-5.268 29.388l.587.823zm-1.22-41.043a7.859 7.859 0 0 0-7.374 2.4 7.86 7.86 0 0 1 7.374-2.4c.578-1.87 1.709-2.013 2.986-1.574-1.284-.43-2.414-.29-2.993 1.584zm-15.053-96.328c-.37.287-.735.582-1.1.877.358-.286.724-.58 1.094-.868zm-3.033 2.438a16.813 16.813 0 0 1-5.422 1.289 16.813 16.813 0 0 0 5.422-1.289c.384-.3.764-.609 1.143-.918-.386.319-.766.626-1.15.927zm-44.073 59.564c-2.029 1.364-3.191 2.566-3.654 4.139.456-1.563 1.618-2.765 3.647-4.129zm-21.359 9.538c-1.574.455-3.128 1.014-4.718 1.39 1.584-.366 3.137-.924 4.711-1.38zm-36.958-260.854l.092-.18-.092.18zm2.735-2.125a2.074 2.074 0 0 0-1.2-.372 2.074 2.074 0 0 1 1.2.372c.123.074.245.155.365.242-.12-.087-.242-.169-.365-.239zm-18.8-24.664q-.223-.471-.416-.951.193.479.416.951t.476.93q-.251-.463-.475-.931zm-.77-1.914q-.161-.483-.288-.967t-.22-.964q.092.48.22.964t.289.967zm-.592-2.41c-.05-.317-.087-.633-.111-.943.026.31.063.626.112.943zm-46.891-78.494c-.047.282-.1.562-.158.839.06-.277.112-.554.159-.839zm.067-.424c.043-.284.082-.57.12-.856.114-.858.216-1.722.371-2.562-.155.84-.257 1.7-.371 2.562-.039.286-.076.571-.119.855zm-8.231 5.761a1.24 1.24 0 0 1 .324-.178 1.24 1.24 0 0 0-.323.177zm.215 3.589c-.76.141-1.52.335-2.28.5.761-.165 1.521-.36 2.277-.5zm-45.757-10.322c.732.008 1.465.009 2.189.05-.723-.041-1.456-.042-2.188-.05zM1091.2 659.111c-.1-.134-.2-.265-.3-.389.1.125.2.256.3.389zm.286.41c.283.417.561.844.867 1.214l6.534 3.41a7.834 7.834 0 0 1 .39-.972 7.828 7.828 0 0 0-.39.971c1.4 3.85 4.191 5.647 7.577 6.551-3.385-.9-6.181-2.7-7.577-6.551l-6.534-3.41c-.31-.369-.588-.796-.871-1.212zm8.12 3.083c-.045.065-.087.134-.129.2.038-.065.08-.134.123-.204zm-.168.266c-.024.042-.047.087-.07.131.019-.043.041-.088.065-.13zm21.9 233.668l-.012-.007 2.389 1.334zm-12.986 23.662c-6.862-2.59-11.214-8.132-15.64-14.314 4.426 6.184 8.778 11.725 15.64 14.314zm-50.65 2.419c.245-.535.658-1.1.9-1.633-.242.537-.655 1.1-.902 1.635zm-.166.473a2.059 2.059 0 0 1 .1-.313 2.059 2.059 0 0 0-.099.315zm-26.508 34.831l.009.009zm-13.758-3.723c2.075-.994 5.035-.823 7.859.147-2.829-.972-5.785-1.147-7.859-.147zm54.648 38.1c-.529-.511-1.22-.964-1.745-1.476.527.516 1.215.969 1.745 1.476zm10.073 55.27c.495 6.806 1.082 13.606 1.62 20.409-.539-6.799-1.126-13.599-1.621-20.405zm26.852 25.078c.825 1.294 1.509 2.618.467 4.308 1.041-1.685.358-3.009-.468-4.304zm19.247-112.98c.965-3.462 2.107-6.83 4.664-9.482-2.554 2.656-3.7 6.024-4.665 9.486zm3.733-.711c0 .1 0 .2.012.308-.009-.101-.014-.204-.012-.304zm51.2 21.375c-.177-1.327-.8-2.724-1.1-4.071a6.913 6.913 0 0 0-2.038-4.256 6.915 6.915 0 0 1 2.039 4.257c.3 1.346.919 2.744 1.1 4.071a5.3 5.3 0 0 1 .048.657 5.3 5.3 0 0 0-.047-.654zm-3.5-8.614l.088.067c-.022-.019-.051-.042-.081-.064zm58.777 53.156c-.836.127-1.674.344-2.509.435.842-.087 1.68-.309 2.516-.432zm35.616 42.135a4.5 4.5 0 0 0 1.043.434 4.5 4.5 0 0 1-1.035-.431zm-1.3-1.038a6.036 6.036 0 0 0 .541.513 6.036 6.036 0 0 1-.532-.509zm-76.516 119.766a35.329 35.329 0 0 0-12.97 2.018l-28.653-.508 28.654.508a35.329 35.329 0 0 1 12.969-2.018zm-93.3 39.663a3.124 3.124 0 0 0-.523-.444 3.124 3.124 0 0 1 .523.444zm.712.835c.156.191.313.378.477.548-.161-.173-.318-.36-.474-.551zm-.654-.771c.08.086.159.174.237.266-.074-.094-.153-.183-.233-.269zm-8.505 3.7c-.553-.292-1.1-.614-1.647-.949.549.332 1.094.654 1.651.946zm32.313-3.185a.448.448 0 0 0-.149.333.449.449 0 0 1 .153-.336zm1.83-11.77c-.877-.552-1.748-1.119-2.637-1.653.89.534 1.76 1.1 2.639 1.652 4.178-.388 8.351-.85 12.536-1.135-4.181.283-8.355.745-12.534 1.133zm18.046-17.5a43.349 43.349 0 0 0-6.519 1.4 43.634 43.634 0 0 1 6.519-1.4zm9.776-9.211l.953.129zm-67.438 38.4c1.106.586 2.191 1.293 3.281 1.975-1.09-.682-2.176-1.388-3.281-1.975zm101.292-36.094zm-102.956-14.347a11.854 11.854 0 0 0 4.821.582 11.854 11.854 0 0 1-4.821-.582zm1.863 4.4q-.806.3-1.6.634.799-.335 1.604-.636zm-56.485 40.588c1.081-.2 1.982-.689 1.71-2.535.974-.377 1.953-.74 2.919-1.134-.966.394-1.945.757-2.919 1.134.275 1.844-.625 2.329-1.704 2.533zm-18.3 5.421a3.863 3.863 0 0 1-.328-.384 2.9 2.9 0 0 1-.245-.388 2.9 2.9 0 0 0 .245.388 3.863 3.863 0 0 0 .327.382zm-.825-1.785a2.088 2.088 0 0 0 .089.617 2.088 2.088 0 0 1-.089-.619zm63.016 3.767l12.273-1.927-12.273 1.927a17.624 17.624 0 0 1-1.972 1.935 17.549 17.549 0 0 0 1.971-1.937zm78.037 49.084q2.212-.011 4.42.132-2.208-.146-4.421-.134zm235.329-288.381l4.205-1.323-4.205 1.323zm20.308-135.38c-1.7 5.27-4.664 8.385-9.248 9.381 4.585-1 7.552-4.111 9.248-9.381 2.076 3.459 4.311 6.836 6.253 10.364-1.942-3.535-4.177-6.907-6.253-10.366zm6.325 80.8l.065.136zm7.483-18.074a5.872 5.872 0 0 0 .839.64 5.892 5.892 0 0 1-.839-.637zm-5.487-141.875q.783-.128 1.555-.285-.772.163-1.555.288zm-14.117-16.811a27.31 27.31 0 0 1-3.291-.8 27.31 27.31 0 0 0 3.291.8zm-66.275 13.4l-1.658 4.1zm-20.9 92.2c3.742 2.548 7.486 3.076 11.407 1.489-3.92 1.592-7.664 1.064-11.406-1.484zm3.6-34.211c.12-.593.179-1.217.273-1.823-.091.611-.149 1.235-.27 1.828zM1292.6 612.579q1.119.151 2.241.2-1.122-.05-2.241-.2zm4.529-13.06a12.867 12.867 0 0 0 3.871-4.252l-1.245-.777 1.245.777a12.863 12.863 0 0 1-3.874 4.253zm-1.231-6.063c.348-.217.782-.51 1.091-.694-.312.184-.746.477-1.089.694zm-.264.159l.174-.1c-.065.034-.123.07-.177.1zm-6.893-7.741l2.749 2.3zm-41.179-76.065v.005zm-37.262-35.018q.724.508 1.5.953-.776-.444-1.5-.953zm-96.833 412.359a40.263 40.263 0 0 1-4.86.6 40.1 40.1 0 0 0 4.861-.6 45.807 45.807 0 0 0 12.7-8.8 45.819 45.819 0 0 1-12.701 8.8zm-6.586 19.667c-.574 2.632-1.107 5.276-1.7 7.9.593-2.623 1.126-5.267 1.7-7.9zm-99.364 59.959a13.447 13.447 0 0 1-.652-2.674 13.413 13.413 0 0 0 .652 2.675zm-20.938-7.187q-.664-.514-1.312-1.07.648.556 1.312 1.07a23.178 23.178 0 0 0 14.176 5.266 23.175 23.175 0 0 1-14.175-5.266zm-11.908-15.184a19.6 19.6 0 0 0-1.033 2.4c-.173.487-.326.981-.465 1.481.139-.5.292-.995.465-1.481a19.6 19.6 0 0 1 1.033-2.4 17.281 17.281 0 0 1 2.569-3.72 17.281 17.281 0 0 0-2.569 3.72zm-62.217 24.385a12.723 12.723 0 0 1 .951.9 27.912 27.912 0 0 1 1.021 4.13 3.57 3.57 0 0 1-.021.594 3.57 3.57 0 0 0 .021-.594 27.834 27.834 0 0 0-1.021-4.129 12.548 12.548 0 0 0-.951-.901zm44.43 149.733q-.628-.229-1.239-.49.611.261 1.239.49zm122.269-53.768c-.184-.129-.369-.256-.554-.383.185.128.37.253.554.383zm.469 18.222a9.656 9.656 0 0 1-5.326 1.848 9.656 9.656 0 0 0 5.326-1.848zm125.119-76.412c.172-.129.336-.328.511-.433-.175.105-.339.3-.511.433l-4.765-1.311zm58.534 20.773c.16 1.291.136 2.657.33 3.934.035.232.078.462.13.687a6.878 6.878 0 0 0 .188.663 6.878 6.878 0 0 1-.188-.663c-.052-.225-.094-.454-.13-.687-.194-1.277-.17-2.643-.33-3.934zm13.028 23.313c-.754-.443-1.5-.9-2.238-1.368.735.465 1.484.924 2.235 1.368zm-35.07 75.491zm-168.466 63.425a70.5 70.5 0 0 1 9.32-6.418q.751-.426 1.513-.826t1.536-.775q-.774.374-1.536.775t-1.513.826a70.493 70.493 0 0 0-9.32 6.418l-.115 3.315.115-3.315zm-38.567 142.411c.43-.109.878-.229 1.235-.293-.352.064-.8.184-1.235.293zm133.348-60.947c-.127-.083-.251-.174-.372-.271.121.1.244.189.372.271a3.493 3.493 0 0 0 .445.246 3.493 3.493 0 0 1-.44-.246zm43.684-75.556l-2.191-.447zm2.207-3.325c4.158.159 8.317.407 12.475.559-4.158-.153-8.317-.4-12.475-.559zm100.611-48.569a54.108 54.108 0 0 0-5.652.64c-8.164-.018-16.331-.153-24.495-.158q-4.9 0-9.794.072 4.9-.083 9.794-.072c8.163.005 16.331.141 24.495.158a54.108 54.108 0 0 1 5.652-.64c.234-.032.466-.069.7-.113-.229.044-.461.081-.695.113zm111.191-226.788a6.843 6.843 0 0 0 2.965.73c.63.111 1.281.336 1.911.449a3.726 3.726 0 0 0 .744.065 3.726 3.726 0 0 1-.744-.065c-.63-.113-1.281-.339-1.911-.449a6.844 6.844 0 0 1-2.96-.731zm28.99-1.665c-.808.939-1.569 1.928-2.377 2.867.813-.94 1.573-1.929 2.382-2.868zm1.162-2.262l-.055.023zm-.055.023c.412-1.983.876-3.959 1.283-5.942-.407 1.984-.871 3.959-1.283 5.942zM1457.26 902a2.844 2.844 0 0 0-2.841-2.212c-1.4-1.809-2.851-2.443-4.209-1.9 1.358-.541 2.808.094 4.209 1.9a2.844 2.844 0 0 1 2.84 2.213 3.456 3.456 0 0 1 .066.649 3.456 3.456 0 0 0-.065-.65zm-7.454-3.918l.02-.009zm-32.415-159.423a20.794 20.794 0 0 1-1.883-1.98 20.23 20.23 0 0 1-2.554-3.916 20.23 20.23 0 0 0 2.554 3.916 20.794 20.794 0 0 0 1.883 1.98q.669.617 1.389 1.18-.721-.561-1.389-1.177zm2.455-20.489c-.067.972-.127 1.944-.2 2.916.071-.972.131-1.944.2-2.916s.142-1.943.243-2.911c-.102.971-.176 1.941-.244 2.914zm-14.97 35.518l-8.67-3.432zm-105.6-141.138a24.649 24.649 0 0 1-3.317.241 24.649 24.649 0 0 0 3.317-.241 24.157 24.157 0 0 0 2.925-.6 24.157 24.157 0 0 1-2.925.603zm-45.487-60.44q-.362.173-.71.378.347-.2.71-.378a7.929 7.929 0 0 1 3.4-.805 7.929 7.929 0 0 0-3.401.808zm-1.709 1.06q.318-.25.657-.47-.337.224-.658.474zm-47.612-86.934a13.734 13.734 0 0 0 3.583 6.657q.413.423.857.809t.914.74q-.471-.354-.914-.74t-.857-.809a13.732 13.732 0 0 1-3.583-6.657l-.189-.006zM1060.133 447.7q-2.326-.241-4.657-.444 2.332.198 4.657.444zm37.742-8.141a14.34 14.34 0 0 0 1.24.743q.422.225.856.423-.433-.2-.856-.423a14.34 14.34 0 0 1-1.24-.743 13.489 13.489 0 0 1-2.643-2.327c-.14.316-.375.646-.516.962.141-.316.375-.646.516-.962.3-1.3.887-1.471 1.545-1.284-.658-.187-1.245-.012-1.545 1.284a13.489 13.489 0 0 0 2.643 2.323zm-.993-3.579a3.528 3.528 0 0 1 .36.144 3.574 3.574 0 0 0-.359-.148zm-1.563 6.981a.576.576 0 0 0 .149-.239.576.576 0 0 1-.149.239l-5.77.06zm-44.509 3.933q-2.336-.159-4.677-.274 2.341.109 4.677.27zm-150.233 896.971a4.716 4.716 0 0 0 2.564-.244 4.718 4.718 0 0 1-2.564.245l-1.469-.046zm2.693 13.224a14.568 14.568 0 0 0-1.537-1.9 14.713 14.713 0 0 1 1.54 1.905l4.646 3.656zm.15-13.606l.022-.011zm.8-.622l.007-.007zm-1.767 38.68q.445.03.888.081-.443-.051-.888-.081zm2 .249c-.349-.062-.7-.117-1.05-.158.358.042.708.096 1.057.158zm23.314-3.626a7.325 7.325 0 0 0-2.05 6.939c.289 1.087.474 2.228.751 3.321-.277-1.093-.462-2.234-.751-3.322a7.325 7.325 0 0 1 2.057-6.938zm17.423-166.854q-6.963 1.625-13.926 3.253l13.926-3.255 29.828-9.718q-14.91 4.87-29.828 9.72zm64.277 143.019a16.478 16.478 0 0 0 3.3 8.134 3.755 3.755 0 0 0 1.174 1.9 3.755 3.755 0 0 1-1.174-1.9 16.478 16.478 0 0 1-3.3-8.134zm4.8 10.273l-.024-.018zm1.99.847l-.24-.071zm121.283-42.388c4.914-.614 9.824-1.271 14.74-1.858a4.408 4.408 0 0 0-1.53-4.226 4.409 4.409 0 0 1 1.53 4.226c-4.92.587-9.83 1.244-14.744 1.858zm178.234-179.839c-.223.067-.448.125-.676.176.228-.05.453-.108.676-.176s.442-.143.658-.23c-.22.087-.439.163-.661.23zm99.736-160.181c-1.858-1.921-3.886-3.712-5.613-5.737 1.727 2.025 3.755 3.816 5.616 5.738zm7.574-4.335l-.856-6.585a42.244 42.244 0 0 1-5.382-14.352 30.773 30.773 0 0 1-.353-3.922 30.773 30.773 0 0 0 .353 3.922 42.244 42.244 0 0 0 5.382 14.352c.272 2.107.544 4.215.852 6.585zm23.263-177.759q.023-.343.066-.685-.046.338-.069.685zm-25.649-89.038c-.1.558-.226 1.115-.338 1.673.111-.558.233-1.114.338-1.673l-.755-3.376zm-2.5-34.4a14.41 14.41 0 0 1 1.824 6.333c.046.557.07 1.117.072 1.674 0-.556-.026-1.117-.072-1.674a14.41 14.41 0 0 0-1.824-6.333l-.544-.96zm-42.982 70.752c-.025-.107-.051-.214-.074-.322.021.108.046.215.071.322zm-.439-2.414c-.039-.3-.073-.6-.1-.9.023.299.058.6.097.9zm-71.988-134.063a19.806 19.806 0 0 0 7.8-4.291 19.806 19.806 0 0 1-7.803 4.291zm-18.058-48.638l-2.943-.5c-.083.005-.169.016-.255.026.086-.01.171-.021.255-.026zm-3.89-.369c.178-.029.355-.059.531-.084-.179.025-.356.055-.534.084zM1217.2 434.351c-.233-.068-.465-.139-.7-.209l.7.209zm-7.021-2.119q.932.256 1.86.536-.927-.279-1.859-.536zm-62.65-5.087a2.743 2.743 0 0 1-.094.288 2.743 2.743 0 0 0 .095-.288zm.743-5.108a15.157 15.157 0 0 1-1.983-2.576 15.141 15.141 0 0 0 1.983 2.576zm-2.3-3.125a12.445 12.445 0 0 1-.541-1.132 12.445 12.445 0 0 0 .545 1.132zm-.208 6.7c-.721.89-1.462 1.768-2.207 2.643.749-.874 1.489-1.755 2.211-2.642zm-20.22-21.459a2.677 2.677 0 0 0-.589 2.335 2.677 2.677 0 0 1 .589-2.335zm-33.722-15.331l-.224.176.224-.176zm24.161 27.056l.058.055-.058-.055-.388.412.57.6-.569-.6zm-81.616 30.288a1.249 1.249 0 0 0 .015.189q4.714-.028 9.4.156-4.689-.18-9.4-.156a1.249 1.249 0 0 1-.011-.188zm-163.149-88.104a8.712 8.712 0 0 0-.684-.543 8.712 8.712 0 0 1 .684.543zm-.573-14.071c.056-.08.115-.161.176-.24-.061.079-.121.16-.176.24zm-.293 13.4c-.121-.088-.242-.176-.361-.265s-.234-.179-.345-.27c.111.092.227.182.345.27s.24.174.361.261zm.447 63.493l1.015 1.062zm2.18 3l-.086-.139.086.135zm-2.564-3.4l-2.149-2.249zm4.813 15.54a5.982 5.982 0 0 0-3.174.316 5.982 5.982 0 0 1 3.174-.316l3.291.044zm-4.082.927a3.082 3.082 0 0 1 .38-.306 3.082 3.082 0 0 0-.38.301zm6.51-40.457h.047zm5.2-34.463l.849-1.873zm-9.486-18.411l-.03.031zm-.031.032zm0 0c-.706-.742-1.271-.817-1.733-.6.462-.219 1.027-.144 1.733.6zm-2.15-.308l.015-.014zm.218-.175q.057-.04.117-.073-.059.028-.116.068zm-28.8-1.275q-.253-.214-.542-.414.289.2.542.414c1.939 1.642 2.289 3.911 1.241 7.062l2.048-.114-2.049.114c1.047-3.156.697-5.425-1.242-7.067zm-54.652 80.718a14.585 14.585 0 0 0-2.613-5.225 14.585 14.585 0 0 1 2.613 5.225l.821-1.655zm-59.76-56.915l.011.01-.011-.01zm.022.02c.406-.24.794-.551 1.2-.792-.408.237-.797.547-1.202.787zM676.49 433.73zm0 0c-2.124-.381-4.24-.854-6.364-1.232-.85-.151-1.7-.288-2.555-.4.854.109 1.7.245 2.555.4 2.124.378 4.24.851 6.364 1.232zm.123-.781h.044l5.517.96-5.517-.959zm-23.834 21.671c-9.752 1.115-19.488 2.384-29.234 3.553a3.618 3.618 0 0 0-.3 3.343 3.619 3.619 0 0 1 .3-3.343c9.743-1.173 19.48-2.442 29.231-3.557zm-29.044 7.68a3.733 3.733 0 0 1-.434-.662 3.733 3.733 0 0 0 .434.662zm-30.143.518q-1.411.287-2.817.606 1.406-.318 2.817-.606zm-9.733 8.283c.871.874 1.711 1.783 2.623 2.613-.911-.831-1.751-1.739-2.623-2.614zm-.585-.831l-5.336-2.243 5.336 2.243zm-81.1 71.851l-.093-.043zm-2.681 1.351l.386-.109-.386.109c-1.362 1.085-2.674 2.262-4.005 3.4 1.328-1.138 2.639-2.315 4.002-3.4zM323.844 849.315q.64.283 1.311.512-.671-.229-1.311-.512a13.042 13.042 0 0 1-6.542-6.141 2.582 2.582 0 0 1-3.09-2.116 2.582 2.582 0 0 0 3.092 2.115 13.032 13.032 0 0 0 6.54 6.142zm4 165.458q.133-.091.268-.177-.137.085-.27.176zm27.906 52.658l.6 2.7-.6-2.7zm3.043 35.36c-2.426.272-4.857.51-7.282.8 2.423-.291 4.854-.529 7.28-.801zm129.391 116.173c.214 1.87-.439 3.977-.6 5.949.16-1.974.816-4.079.598-5.949zm70.26 125.732l.467.172-.467-.172h-.021zm.968.344l-.17-.051zm10.681-36.465a13.279 13.279 0 0 1 .758 1.334 13.279 13.279 0 0 0-.76-1.335zm-3.47-3.68a15.161 15.161 0 0 1 2.151 1.953 15.161 15.161 0 0 0-2.153-1.954zm2.231 2.044q.324.366.625.759-.303-.398-.627-.759zM631 1361.547a14.016 14.016 0 0 0-2.832-4.243 20.4 20.4 0 0 0-3.062-2.34q-.8-.5-1.638-.921.835.421 1.638.921a20.4 20.4 0 0 1 3.062 2.34 14.016 14.016 0 0 1 2.832 4.243zm-21.513-19.7q.175.43.307.854-.13-.422-.305-.852zm10.519 10.807a22.674 22.674 0 0 1 2.619.984 22.674 22.674 0 0 0-2.616-.981zm11.415 10.068a12.537 12.537 0 0 1 .517 3.838 10.941 10.941 0 0 1 6.594.582 10.791 10.791 0 0 1 1.517.8 10.791 10.791 0 0 0-1.517-.8 10.94 10.94 0 0 0-6.594-.582c-.071.668-.089 1.345-.222 2 .133-.655.151-1.333.222-2a12.537 12.537 0 0 0-.514-3.835zm110.647-29.553a1.3 1.3 0 0 0-.014-.189 1.3 1.3 0 0 1 .017.192zm146.987 50.766q-.179.133-.353.236.176-.1.355-.233zm9.625-1.033l-.3 2.975.3-2.975zm33.82 54.968l.025.023zm.42.357l.121.091zm36.225-220.343l-10.372 3.938 10.372-3.938c2.635-.372 5.262-.879 7.9-1.192-2.638.308-5.266.82-7.901 1.192zm23.685 9.843c-.068.013-.135.025-.2.032s-.109.01-.162.011c.053 0 .107-.005.162-.011s.132-.019.2-.032zm47.318 178.305l.01.014zm-.629-.5l-1.255-.532zm53.457-62.242c3.486.9 6.937 2.068 10.438 2.85q.875.2 1.755.355-.88-.158-1.755-.355c-3.501-.783-6.952-1.953-10.438-2.85zm64.218 19.195c-.886.671-1.819.472-2.884-.257 1.065.729 1.997.928 2.884.257zm35.389-54.246c-.653-.656-1.289-1.331-1.951-1.978.662.647 1.297 1.322 1.951 1.978zm.585.831l5.337 2.243-5.337-2.242zm8.865-45.281a50.707 50.707 0 0 0-7.86-2.034 50.679 50.679 0 0 1 7.86 2.034c1.509.149 3.017.321 4.525.488-1.508-.168-3.016-.34-4.525-.489zm11.812-39.049q.994.231 1.988.412-.994-.183-1.988-.412zm4.513.8c-.221-.027-.443-.058-.665-.089.222.033.444.064.665.091zm-1.245-.172h-.016zm6.548.488zm50.609 11.363l.1.045zm-.791-.361l.489.223zm153.314-267.274c-.993 4.017-1.033 7.731 1.389 10.693q.29.355.629.7t.728.666q-.39-.325-.728-.666t-.629-.7c-2.422-2.959-2.382-6.677-1.389-10.691zm32.066-32.315q.1-.2.2-.358-.1.162-.2.358zm.435-.682a2.922 2.922 0 0 0-.2.276 2.922 2.922 0 0 1 .201-.274zm.874-30.214a5.541 5.541 0 0 1 .79-.719 5.541 5.541 0 0 0-.789.721zm-12.125-96.947a6.288 6.288 0 0 1 .365-2.191 6.288 6.288 0 0 0-.364 2.193zm2.325-47.191a9.564 9.564 0 0 1-.713.923 9.564 9.564 0 0 0 .713-.923 10.1 10.1 0 0 0 .589-.985 10.1 10.1 0 0 1-.588.987zm-18.6-66.513l.7-.407zm-116.924-85.413l-2.97-4.159c.691-1.307 1.432-2.593 2.154-3.887-.721 1.294-1.463 2.58-2.154 3.886l2.97 4.159c2.946 3.5 5.936 6.957 8.882 10.453-2.946-3.493-5.936-6.954-8.882-10.45zm-18.255-124.459q0 .229.007.459c.012.46.041.923.082 1.388q.041.464.1.931-.056-.467-.1-.931c-.041-.465-.07-.928-.082-1.388q-.006-.228-.007-.457zm.822 18.291a16.788 16.788 0 0 0-.686-3.064 16.788 16.788 0 0 1 .686 3.066zm-9.739 44.113c-1.373-1.376-2.6-3.021-4.036-4.279 1.439 1.258 2.663 2.9 4.036 4.279zm-26.3-32.967a7.493 7.493 0 0 1-.562.929 7.493 7.493 0 0 0 .562-.929q.167-.325.307-.669-.138.347-.305.672zm-1.258 1.758a7.835 7.835 0 0 1-4.384 2.118 2.094 2.094 0 0 0-.08 1.082.725.725 0 0 0 .231.37.725.725 0 0 1-.231-.37 2.09 2.09 0 0 1 .08-1.082 7.836 7.836 0 0 0 4.384-2.118 6.626 6.626 0 0 0 .479-.541 6.558 6.558 0 0 1-.476.543zm-41.236-81.179l-.858-1.222zm-41.634 5.366l2.9.007-.49 1.53.489-1.53zm-7.808-54.189a8.841 8.841 0 0 1-.451-1.011 8.841 8.841 0 0 0 .453 1.013zm.9 1.368a8.389 8.389 0 0 0 .738.8 8.389 8.389 0 0 1-.74-.798zm-.573-10.921v-.007c.146-.312.289-.631.613-1.354zm-.246-.334a.369.369 0 0 1-.05-.127.369.369 0 0 0 .048.129zm.1.437l-.5.356c-.036-.035-.075-.067-.112-.1.037.033.076.066.112.1q.246-.174.489-.353zm-1.251 4.994q0 .31.025.613a10.588 10.588 0 0 0 .146 1.182 10.588 10.588 0 0 1-.146-1.182q-.022-.3-.026-.612zm-5.178 12.139a23.2 23.2 0 0 0 .772 2.275 23.2 23.2 0 0 1-.773-2.274zm-18.674 18.018a18.909 18.909 0 0 1 .267-2.284 18.855 18.855 0 0 0-.267 2.285c-2.477.806-4.9 1.159-7.172.246 2.272.909 4.695.561 7.171-.246zm-18.969-13.267v0l6.353-1.194zm-260.7-68.711a23.06 23.06 0 0 1-23.322-5.655 23.06 23.06 0 0 0 23.319 5.656zm-27.116 8.825c-1.874-.607-3.78-1.124-5.664-1.7l-1.525 1.616 1.526-1.617c1.88.578 3.787 1.095 5.661 1.702zm-64.185 2.9l-.017.017zm-22.036 21.119c.245-.074.489-.149.73-.231-.238.081-.485.157-.73.231zm-73.873 70.639l-1.141-.554 1.141.554c3.526 1.445 7.059 2.875 10.582 4.328-3.523-1.453-7.056-2.884-10.582-4.329zM621.746 416.7a1.936 1.936 0 0 0-2.456.069 1.936 1.936 0 0 1 2.456-.069 2.894 2.894 0 0 1 .491.462 2.894 2.894 0 0 0-.491-.462zm-35.652 47.851q1.637-.414 3.277-.8-1.642.383-3.277.8zm-3.833.994l.389-.1zm-16.891 5.109q3.2-1.128 6.4-2.268-3.198 1.144-6.401 2.267zM448.7 567.235l.312.006zm-94 120.32l-.022.02zm-44.927 185.352c.179-.365.365-.727.553-1.089-.187.361-.373.724-.553 1.089a18.4 18.4 0 0 0 2.354 1.863 18.545 18.545 0 0 1-2.356-1.863 3.366 3.366 0 0 1-2.206-3.766 5.653 5.653 0 0 1 .122-.7 5.6 5.6 0 0 0-.122.7 3.365 3.365 0 0 0 2.208 3.766zm46.731 197.9q-1.152-.057-2.277-.055 1.124-.003 2.273.055zm-13.922 14.024c.9-.447 1.781-1.018 2.672-1.521-.892.503-1.774 1.073-2.673 1.521zm17.343 31.341zm96.9 76.647c.732-2.632 1.314-5.323 2.116-7.927-.8 2.6-1.384 5.3-2.116 7.927l-2.767-1.676zm31.942 38.264c1.474 1.529 2.745 3.443 4.373 4.684-1.627-1.241-2.9-3.155-4.374-4.684zm29.785 29.732a9.868 9.868 0 0 1 2.155-.64 2.968 2.968 0 0 0 .12-.736 2.951 2.951 0 0 1-.12.736 9.868 9.868 0 0 0-2.155.64 7.841 7.841 0 0 0-.723.36 7.841 7.841 0 0 1 .727-.36zm39.058 82.73l.807 1.149zm19.212-29.411c-.255-.3-.5-.622-.761-.9.265.28.506.6.761.9a4.557 4.557 0 0 0 .4.417 4.557 4.557 0 0 1-.396-.417zm56.972 14.325a112.224 112.224 0 0 1-15.328-1.193 112.224 112.224 0 0 0 15.334 1.193zm-34.749 9.222a7.835 7.835 0 0 1 4.995-1.116 5.3 5.3 0 0 1 1.527.5 5.647 5.647 0 0 1 .571.331 5.647 5.647 0 0 0-.571-.331 5.3 5.3 0 0 0-1.527-.5 7.835 7.835 0 0 0-4.995 1.116 24.352 24.352 0 0 0 2.328 1.456 24.566 24.566 0 0 1-2.328-1.455l-2.753.415.489-1.529-.489 1.529zm10.053 35.691a45.923 45.923 0 0 1 .783-5.946 45.8 45.8 0 0 0-.782 5.948q-.553.967-1.1 1.938zm40.719 6.571zm10.91-.73l.011-1.727a1.843 1.843 0 0 0-.052-.3c-1.163-2.333-2.395-4.636-3.488-7 1.093 2.364 2.325 4.667 3.488 7a1.947 1.947 0 0 1 .052.3l-.012 1.725a37.065 37.065 0 0 1 15.253 4.448 37.067 37.067 0 0 0-15.253-4.448l-4.917.331zm29.806 10.755q.294.007.586.008-.289-.002-.583-.009zm372.827 46.515q-.725.175-1.446.379.725-.205 1.45-.38zm119.468-119.954q1.413-.285 2.819-.6-1.402.313-2.815.599zm7.506-1.73l-.823.207zm3.841-1l-.4.107zm82.772-77.933l-2.021.578 2.021-.578q5.617-.5 11.232-1.02l-11.227 1.022zm92.4-70.7q-1.074.624-2.134 1.274 1.063-.646 2.137-1.269zm92.194-259.859c1.4-.665 2.84-.064 4.416 1.831 1.482-.884 2.071-.3 2.383.536q.044.12.082.246c.025.083.048.168.07.253-.022-.085-.045-.17-.07-.253s-.052-.165-.082-.246c-.312-.838-.9-1.42-2.383-.536-1.573-1.89-3.013-2.491-4.413-1.826zm-2.179-118.54c.465-.054.928-.121 1.391-.195-.46.079-.923.146-1.388.2zm-42.337-123.184l-.562-2.122c-.276-1.191-.564-2.379-.844-3.569.281 1.19.568 2.378.844 3.569q.284 1.065.564 2.127zM1326.708 590c-.314-.141-.634-.275-.957-.406-1.131-.459-2.3-.878-3.37-1.4l-2.017-1.222 2.017 1.221c1.068.522 2.239.941 3.37 1.4.323.131.643.265.957.406s.62.288.918.445c-.298-.155-.605-.302-.918-.444zm-26.473-112.985a11.167 11.167 0 0 0-3.645 8.831 11.168 11.168 0 0 1 3.644-8.83zm-25.458 6.479l-.077-1.512.076 1.518zm-18.352-48.069q-.359-.408-.729-.761.369.355.728.763zm-6.074-3.219a7.909 7.909 0 0 1 3.428 1.018 7.909 7.909 0 0 0-3.429-1.016zm-65.936 8.027c.5-.119 1.006-.239 1.507-.364-.502.131-1.005.248-1.508.366zm-18.47-52.672q0 .407.01.816c.015.546.048 1.093.1 1.64-.051-.546-.084-1.094-.1-1.64q-.013-.407-.011-.814zm1.345 15.354c.64.378 1.272.774 1.9 1.172-.631-.4-1.263-.794-1.9-1.172a27.147 27.147 0 0 1-2.674-4.415 27.147 27.147 0 0 0 2.673 4.417zm-252.09 17.87c-.141.84-.407 1.674-.583 2.513.072.353.188.718.3 1.081-.112-.363-.228-.728-.3-1.081.176-.839.442-1.673.583-2.513zm-.048 4.458c-.049-.236-.118-.476-.191-.718.074.241.139.482.191.718zm-38.906-115.8c.313-.646.564-1.592.881-2.223-.317.631-.567 1.577-.881 2.222zm-45.713 5.665a8.047 8.047 0 0 0 3.4-.46 8.047 8.047 0 0 1-3.4.464zm-7.788-2.254a18.847 18.847 0 0 1-2.195-1.216 18.847 18.847 0 0 0 2.195 1.22zm-48.067 28.5l-.556.564-.609.6.011-.011.6-.59.559-.567zm-1.721 1.705l-.817.086.817-.086zm-6.046 3.469a23.565 23.565 0 0 0 .355-2.868 23.565 23.565 0 0 1-.356 2.871zM743.9 330.989c.595-.79 1.205-1.559 1.862-2.29-.662.731-1.269 1.501-1.862 2.29zm-55.7 49.888c.161.047.323.1.486.155-.16-.055-.322-.108-.486-.155zM561.287 472.1c-2.209.785-4.414 1.577-6.61 2.393 2.196-.82 4.401-1.612 6.61-2.393zm-201.362 644.09l-.484-.416zm52.168 98.14l2.692 2.672-2.692-2.672c-.106.078-.211.148-.316.212.105-.064.21-.134.316-.212zm32.845-4.193c.951-.289 1.9-.6 2.846-.9a5.054 5.054 0 0 1-.2.475 5.106 5.106 0 0 0 .2-.474c-.95.299-1.895.611-2.846.899zm30 89.9c.391.7.909 1.337 1.37 2-.461-.664-.979-1.297-1.37-2.002zm8.1-20.083l-2.281.729 2.281-.73a33.058 33.058 0 0 1 2.026-2.857 32.908 32.908 0 0 0-2.021 2.856zm18.626 15.944l.074 1.46q-.032-.732-.069-1.458zm31.363 49.577l7.923-8.891-7.922 8.891a22.351 22.351 0 0 0-2.437.685 22.365 22.365 0 0 1 2.441-.687zm59.818-6.635c-.967.2-1.932.414-2.887.657.96-.245 1.925-.455 2.892-.659zm13.807 63.137v.9zm.209-.22c.23-.053.459-.108.687-.164 2.964-4.067 3.511-11.943 1.651-17.585 1.859 5.642 1.312 13.518-1.651 17.586q-.343.083-.688.164zm-4.252-29.3c1.827.866 3.566 1.954 5.357 2.91-1.786-.961-3.525-2.049-5.352-2.915zm11.172 14.628q-.111-.6-.255-1.2.15.594.26 1.195zm16.8 26.868a10.22 10.22 0 0 1 1.682.618 10.22 10.22 0 0 0-1.672-.623zm238.49-73.684q.482-.379.974-.7-.491.322-.974.7c-4.336 3.414-7.987 10.134-7.823 15.1a43 43 0 0 0-1.176 4.543 43.278 43.278 0 0 1 1.175-4.545c-.153-4.967 3.498-11.688 7.834-15.103zm12.649 97.417a4.592 4.592 0 0 1 .4-.239l.556-1.193-.556 1.193a4.592 4.592 0 0 0-.4.239 3.3 3.3 0 0 0-.868.826 3.3 3.3 0 0 1 .878-.831zm15.019 28.741a35.557 35.557 0 0 1 4.286-7.891 35.557 35.557 0 0 0-4.286 7.891zm38.893-9.222l3.062 4.932-3.063-4.932zm52.153-98.7c.3.657.542 1.348.838 2.005-.3-.658-.542-1.348-.838-2.005-.545-.408-1.24-.73-1.73-1.17.499.44 1.194.765 1.739 1.17zm15.689 77.772l1.085.107-1.085-.107-.616.525zm23.6 17.551c-.075.045-.15.09-.225.133.086-.043.161-.088.236-.133zm5.39-5.3l5.358-.614-5.358.615zm21.216-8.326c-.4.233-.787.481-1.158.746.378-.27.769-.518 1.169-.748zm13.316-4.393q-1.1.144-2.191.36 1.091-.216 2.191-.36a31.889 31.889 0 0 1 4.427-.271 31.889 31.889 0 0 0-4.416.262zm29.38-40.869q.924 1.181 1.882 2.3-.958-1.115-1.882-2.3zm118.064-86.814q.8-.248 1.6-.5-.789.249-1.589.495zm-5.1 1.5l.068-.02zm2.013-.582l.922-.27zm188.306-158.615l-1.188.619zm-.515-51.686a170.183 170.183 0 0 0 26.9-9.2l11.925-4.649-11.926 4.651a170.211 170.211 0 0 1-26.885 9.197zm53.93-369.091c-.031-.646-.041-1.293-.067-1.939.04.645.05 1.293.081 1.938zm-11.061-41.427a5.657 5.657 0 0 1 .085.769 5.657 5.657 0 0 0-.085-.769c-.27-1.457-1.168-2.411-3.178-2.485 2.024.073 2.922 1.027 3.192 2.484zm-3.15-7.251a8.572 8.572 0 0 0-4.546-6.363 8.572 8.572 0 0 1 4.561 6.362zm.088.55c-.017-.131-.04-.259-.062-.388.036.128.059.257.076.387zm-5.577-7.315a9.248 9.248 0 0 0-1.018-.3 9.248 9.248 0 0 1 1.032.3zm-5.172-23.873a2.745 2.745 0 0 0-.426.295 2.745 2.745 0 0 1 .44-.296zm-7.108 13.118c.286-.018.572-.04.855-.071-.269.03-.554.053-.841.071zm-53.674-98.939a4.331 4.331 0 0 1 .569.264 4.331 4.331 0 0 0-.569-.264 2.978 2.978 0 0 0-2.379.077 2.978 2.978 0 0 1 2.393-.078zm-34.146 2.083a5.509 5.509 0 0 1 .554-.037 5.509 5.509 0 0 0-.54.039zm-4.425 3.026a5.028 5.028 0 0 0-.2.474c1.266-.394 2.524-.816 3.8-1.175-1.276.358-2.534.781-3.8 1.176l-1.1 1.224c-.115.2-.225.41-.332.62.107-.21.218-.418.332-.621l1.1-1.224a5.08 5.08 0 0 1 .214-.475zm-64.44-106.274c1.68-4.449 1.477-8.967.494-13.514-.11-.064-.24-.135-.378-.208l-.282-.15-.284-.15.284.15.282.15c.138.074.267.145.378.208.983 4.546 1.186 9.064-.493 13.514l2.706.189zm1.615-19.18a7.347 7.347 0 0 1 .038.775 7.254 7.254 0 0 0-.038-.775c-.331-3.222-2.759-6.294-5.612-6.38l-.762-.763.763.763c2.867.085 5.294 3.157 5.625 6.379zm-7.6-11.934l.086.119c-.01-.041-.038-.081-.067-.12zm-74.762-54.28c1.691-.136 2.66.717 2.844 1.851a2.5 2.5 0 0 1 .03.289 2.5 2.5 0 0 0-.03-.289c-.185-1.133-1.154-1.987-2.845-1.85l-1.687-2.962zm-7.449-4.244l-.943-2zm-51.744-23.5l-4.069.372c-2.826.951-5.6 2.171-8.457 2.965 2.856-.794 5.63-2.014 8.456-2.965zm-26.133-12.2q.935.2 1.886.362-.951-.159-1.886-.362t-1.855-.449q.939.237 1.873.443zm-3.677-.984q-.9-.289-1.792-.62.906.325 1.81.614zM1017.14 322.2a2.29 2.29 0 0 0 .367 1.168 2.292 2.292 0 0 1-.367-1.168zm-122.72 14.992c-.015.945.152 1.954.069 2.876.083-.921-.084-1.93-.07-2.876a4.9 4.9 0 0 0-3.722-3.75 4.9 4.9 0 0 1 3.723 3.75zm-47.649-37.947q.048.627.034 1.211.013-.584-.034-1.211zm-30.045 8.955a15.921 15.921 0 0 0 3.132 2.97 15.921 15.921 0 0 1-3.132-2.97l-6.108-3.5zm-42.709 19.714a1.9 1.9 0 0 1 2.611-.83c.086.042.17.088.253.138.125.074.247.157.365.243-.119-.087-.241-.169-.365-.243-.083-.05-.168-.1-.253-.138a1.9 1.9 0 0 0-2.611.83 15.958 15.958 0 0 0-9.229-3.914 15.958 15.958 0 0 1 9.229 3.913zm-23.332-.038c1.989-.786 3.947-1.672 5.948-2.417-2.003.741-3.961 1.63-5.949 2.416zm-3.9-.243c-.328.319-.643.649-.949.987.303-.338.617-.668.946-.988zm-37.865 1.9q-.636.147-1.288.268.648-.125 1.285-.272zm-46.047 40.033q-.274-.14-.552-.276.279.132.548.272zm-63.626 21q1.334.661 2.634 1.434-1.3-.775-2.634-1.434-.889-.441-1.793-.835.9.394 1.789.834zm-66.979 48.354l-27.168-2.867zM311.477 993.606a6 6 0 0 1-4.855-5.964 6 6 0 0 0 4.857 5.963c1.55-.159 3.1-.309 4.655-.479-1.55.174-3.104.321-4.657.48zm11.877 56.083c.031.645.042 1.292.067 1.938-.021-.645-.035-1.292-.067-1.938zm13.979 44.473c-2.7-.121-3.91-.83-4.14-2.635.23 1.805 1.437 2.514 4.14 2.635-.144 4.878.969 8.089 3.623 9.862a8.492 8.492 0 0 0 1.883.931 8.492 8.492 0 0 1-1.883-.931c-2.656-1.773-3.767-4.984-3.623-9.862zm71.107 120.4a4.326 4.326 0 0 0 .569.264 4.326 4.326 0 0 1-.569-.265zm.86.359a3.006 3.006 0 0 0 2.468-.372 3.006 3.006 0 0 1-2.468.371zM511.391 1338.2a9.481 9.481 0 0 0 .658 1.084 9.481 9.481 0 0 1-.658-1.084zm1.474 2.1a12.435 12.435 0 0 0 1.513 1.4l.2.171-.2-.171a12.435 12.435 0 0 1-1.513-1.4zm4.151 4.259a5.461 5.461 0 0 1 0-.585 5.461 5.461 0 0 0 0 .585 4.614 4.614 0 0 0 .186 1.047 4.614 4.614 0 0 1-.186-1.046zm.573 1.952a6.5 6.5 0 0 0 1.21 1.5 6.5 6.5 0 0 1-1.21-1.5zm89.444 60.622c-.283.165-.573.323-.874.466.301-.142.59-.299.873-.466zm10.1-4.464l-5.208-.643a14.448 14.448 0 0 1-3.964 4.5 14.441 14.441 0 0 0 3.963-4.5 27.2 27.2 0 0 0 1.963-14.346 27.2 27.2 0 0 1-1.962 14.345l5.208.643.846 2.4zm38.38 26.21a6.872 6.872 0 0 0 3.708 1.275 6.872 6.872 0 0 1-3.707-1.275zm277.563 42.5a12.47 12.47 0 0 0-1.124 1.05 12.47 12.47 0 0 1 1.125-1.047zm3.079-2.179c.793-.506 1.591-1.008 2.352-1.544-.759.544-1.557 1.044-2.351 1.544zm-1.342.88q.359-.244.725-.481-.365.241-.724.484zm29.348 4.954h.154c-.052.008-.103.007-.153.003zm18.954-101.5l7.755 3zm9.474 1.481c-.194.156-.382.318-.568.482.187-.155.379-.317.569-.473zm9.506 77.292a5.268 5.268 0 0 1-5.5-3.354 5.268 5.268 0 0 0 5.5 3.353 32.31 32.31 0 0 0 3.039 2.141 32.65 32.65 0 0 1-3.034-2.132zm23.685-.829c-1.035.409-2.113.734-3.1 1.242.988-.5 2.066-.82 3.101-1.234zm.957 2.545c-.227.127-.459.245-.7.356.242-.103.474-.221.701-.348zm-1.969.865c.291-.1.573-.2.844-.318-.27.122-.551.23-.843.33zm48.494-15.559a18.64 18.64 0 0 1 2.816.475 18.64 18.64 0 0 0-2.815-.467zm6.442 1.808c.272.135.541.281.809.432-.267-.143-.536-.289-.813-.424zm319.935-290.693l1.2-.626z" opacity="0.3" transform="translate(-292.99 -295.971)"/>
</svg>
