<svg xmlns="http://www.w3.org/2000/svg" width="46.834" height="46.834" viewBox="0 0 46.834 46.834">
    <path fill="#fff" d="M41.817 2.25H5.018A5.019 5.019 0 0 0 0 7.268v36.8a5.019 5.019 0 0 0 5.018 5.018h36.8a5.019 5.019 0 0 0 5.018-5.018v-36.8a5.019 5.019 0 0 0-5.019-5.018zM28.989 42.362c-.878.157-1.2-.387-1.2-.836 0-.565.021-3.45.021-5.781a4.073 4.073 0 0 0-1.181-3.209c3.868-.429 7.945-.962 7.945-7.642a5.367 5.367 0 0 0-1.788-4.077 6.538 6.538 0 0 0-.178-4.7c-1.453-.45-4.778 1.871-4.778 1.871a16.446 16.446 0 0 0-8.7 0s-3.324-2.321-4.778-1.871a6.488 6.488 0 0 0-.178 4.7 5.25 5.25 0 0 0-1.631 4.077c0 6.649 3.9 7.213 7.767 7.642a3.789 3.789 0 0 0-1.11 2.331 3.668 3.668 0 0 1-5.049-1.453 3.642 3.642 0 0 0-2.666-1.788c-1.694-.021-.115 1.066-.115 1.066 1.129.523 1.924 2.53 1.924 2.53 1.014 3.1 5.865 2.059 5.865 2.059 0 1.453.021 3.816.021 4.244 0 .45-.314.993-1.2.836A17.344 17.344 0 0 1 6.252 25.813 16.59 16.59 0 0 1 23.187 8.93c9.6 0 17.375 7.286 17.375 16.883a17.184 17.184 0 0 1-11.573 16.549zm-10.255-6.387c-.2.042-.387-.042-.408-.178-.021-.157.115-.293.314-.335.2-.021.387.063.408.2s-.105.271-.314.313zm-.993-.094c0 .136-.157.251-.366.251-.23.021-.387-.094-.387-.251 0-.136.157-.251.366-.251.198-.021.387.094.387.251zm-1.432-.115c-.042.136-.251.2-.429.136-.2-.042-.335-.2-.293-.335s.251-.2.429-.157c.209.063.345.22.292.356zm-1.286-.566c-.094.115-.293.094-.45-.063-.157-.136-.2-.335-.094-.429.094-.115.293-.094.45.063.135.137.188.347.094.429zm-.951-.951c-.094.063-.272 0-.387-.157s-.115-.335 0-.408c.115-.094.293-.021.387.136a.306.306 0 0 1-.001.43zm-.68-1.014c-.094.094-.251.042-.366-.063-.115-.136-.136-.293-.042-.366.094-.094.251-.042.366.063.115.137.136.294.042.367zm-.7-.774a.2.2 0 0 1-.293.042c-.136-.063-.2-.178-.157-.272a.246.246 0 0 1 .293-.042c.135.075.198.19.156.273z" transform="translate(0 -2.25)"/>
</svg>
