<svg xmlns="http://www.w3.org/2000/svg" width="39.031" height="39.103" viewBox="0 0 39.031 39.103">
    <path fill="none" stroke="#c2d9e6" stroke-linecap="round" stroke-linejoin="round" stroke-width="2px" d="M26.039 8.571a8.839 8.839 0 0 1 6.983 6.983M26.039 1.5a15.91 15.91 0 0 1 14.053 14.036m-1.768 14.106v5.3a3.535 3.535 0 0 1-3.854 3.535 34.983 34.983 0 0 1-15.255-5.427A34.471 34.471 0 0 1 8.609 22.448 34.983 34.983 0 0 1 3.182 7.121 3.535 3.535 0 0 1 6.7 3.268H12a3.535 3.535 0 0 1 3.535 3.04 22.7 22.7 0 0 0 1.237 4.967 3.535 3.535 0 0 1-.8 3.73l-2.237 2.245a28.284 28.284 0 0 0 10.607 10.607l2.245-2.245a3.535 3.535 0 0 1 3.73-.8 22.7 22.7 0 0 0 4.967 1.237 3.535 3.535 0 0 1 3.04 3.593z" transform="translate(-2.166 -0.396)"/>
</svg>
