<svg xmlns="http://www.w3.org/2000/svg" width="46.835" height="46.834" viewBox="0 0 46.835 46.834">
    <path fill="#fff" d="M41.817 2.25H5.018A5.019 5.019 0 0 0 0 7.268v36.8a5.019 5.019 0 0 0 5.018 5.018h36.8a5.019 5.019 0 0 0 5.018-5.018v-36.8a5.019 5.019 0 0 0-5.019-5.018zM36.7 18.851c.021.293.021.6.021.889 0 9.064-6.9 19.507-19.507 19.507a19.418 19.418 0 0 1-10.523-3.074 14.445 14.445 0 0 0 1.652.084 13.747 13.747 0 0 0 8.51-2.927 6.865 6.865 0 0 1-6.408-4.757 7.39 7.39 0 0 0 3.094-.125 6.857 6.857 0 0 1-5.489-6.733v-.084a6.852 6.852 0 0 0 3.094.868 6.842 6.842 0 0 1-3.053-5.708 6.771 6.771 0 0 1 .93-3.46A19.468 19.468 0 0 0 23.156 20.5a6.871 6.871 0 0 1 11.7-6.262 13.435 13.435 0 0 0 4.344-1.649 6.839 6.839 0 0 1-3.011 3.774 13.644 13.644 0 0 0 3.955-1.063 14.432 14.432 0 0 1-3.444 3.551z" transform="translate(0 -2.25)"/>
</svg>
