<svg xmlns="http://www.w3.org/2000/svg" width="50" height="50" viewBox="0 0 170.439 119.365">
    <g>
        <g>
            <path fill="red" d="M168.494 19.092A21.424 21.424 0 0 0 153.41 4.007C140.183.4 86.95.4 86.95.4S33.717.509 20.49 4.116A21.424 21.424 0 0 0 5.406 19.2c-4 23.5-5.553 59.311.109 81.872A21.424 21.424 0 0 0 20.6 116.158c13.226 3.607 66.46 3.607 66.46 3.607s53.233 0 66.46-3.607a21.424 21.424 0 0 0 15.08-15.085c4.223-23.534 5.524-59.322-.106-81.981z" transform="translate(-497 -2029) translate(497 2029) translate(-1.817 -0.4)"/>
            <path fill="#fff" d="M64.2 82.756l44.161-25.578L64.2 31.6z" transform="translate(-497 -2029) translate(497 2029) translate(3.99 2.504)"/>
        </g>
    </g>
</svg>
