<svg xmlns="http://www.w3.org/2000/svg" width="90" height="90.003" viewBox="0 0 90 90.003">
    <defs>
        <style>
            .cls-1{fill:#005766}.cls-2{fill:#008eb0}
        </style>
    </defs>
    <g id="Group_65" transform="translate(-198.787 -174.043)">
        <path id="Path_1226" d="M198.787 328.188c.265-1.134.471-2.287.813-3.4a19.77 19.77 0 0 1 1.169-2.926q6.535-13.215 13.109-26.411c.1-.2.191-.4.351-.743l-6.526 2.151c-.712-1.676-1.148-3.359-1.774-5.08.361-.138.646-.259.938-.358 3.271-1.1 6.536-2.206 9.819-3.265a2.008 2.008 0 0 0 1.384-1.185c.385-.894.455-.883 1.4-.754a9.816 9.816 0 0 0 1.308.1q12.466.009 24.931 0a8.746 8.746 0 0 0 1.22-.094c.97-.137 1-.136 1.425.726.644 1.313 1.274 2.633 1.916 3.947q3.065 6.267 6.135 12.532c.151.309.282.628.471 1.051l-11.589 6.709 4.012 7.018h-8.082v21h7.885l-4.052 6.305 6.407 3.736-.044.239c-.735.114-1.468.251-2.207.333a12.712 12.712 0 0 1-1.4.025c-9.832 0-19.664-.022-29.5.01a19.413 19.413 0 0 1-19.388-16.428 4.571 4.571 0 0 0-.136-.5z" class="cls-1" transform="translate(0 -85.81)"/>
        <path id="Path_1227" d="M291.6 174.043c.043 3.971.346 7.958-.67 11.866a13.443 13.443 0 0 1-3.751 6.727 9.6 9.6 0 0 1-6.739 2.72c-8.222-.018-16.445-.044-24.667.009a10.2 10.2 0 0 1-9.2-5.255 16.487 16.487 0 0 1-2.225-6.781 64.373 64.373 0 0 1-.17-9.287h7.025c.164.051.326.112.492.152a10.7 10.7 0 0 1 6.417 4.283 1.234 1.234 0 0 1 .2 1.3 11.289 11.289 0 0 0-.48 1.592 14.3 14.3 0 0 0-.4 3.106h5.08c.235-4.126 2.436-7.11 5.38-9.814 2.954 2.72 5.158 5.734 5.381 9.8h5.075a14 14 0 0 0-.836-4.517 1.489 1.489 0 0 1 .247-1.617 12.41 12.41 0 0 1 2.5-2.441 12.833 12.833 0 0 1 4.316-1.846z" class="cls-1" transform="translate(-34.681)"/>
        <path id="Path_1228" d="M416.759 419.481l-9.189-5.312 3.028-4.712c-.166-.257-.348-.515-.505-.788-.7-1.214-1.423-2.417-2.07-3.659a.891.891 0 0 0-.925-.6c-1.463.027-2.927.012-4.391.008-.314 0-.627-.027-1-.045v-10.541c.351-.019.663-.048.975-.049q2.239-.008 4.479 0c.332 0 .61-.017.8-.378.825-1.545 1.679-3.075 2.594-4.738l-2.981-5.215 9.178-5.306a6.8 6.8 0 0 1 .431.583c.8 1.365 1.6 2.726 2.366 4.107a.913.913 0 0 0 1.037.583 13.993 13.993 0 0 1 4.369 0 .918.918 0 0 0 1.038-.583c.739-1.33 1.516-2.639 2.281-3.954.13-.223.272-.438.473-.761l9.226 5.322-2.982 5.214 2.953 5.117h5.94a87.794 87.794 0 0 1 .1 10.592c-.285.019-.592.055-.9.056-1.551.006-3.1 0-4.654 0-.318 0-.63-.038-.829.331-.843 1.568-1.707 3.125-2.615 4.781.445.781.948 1.669 1.456 2.554.491.856.988 1.709 1.54 2.665l-9.255 4.759c-.621-.949-1.195-1.823-1.765-2.7a15.079 15.079 0 0 1-.889-1.41 1.129 1.129 0 0 0-1.3-.615c-.872.078-1.748.125-2.624.136a9.242 9.242 0 0 1-1.393-.141 1.154 1.154 0 0 0-1.3.622c-.7 1.18-1.48 2.318-2.233 3.47-.123.193-.272.362-.464.607zm6.044-28.227a7.779 7.779 0 0 0-7.842 7.815 7.81 7.81 0 1 0 15.619.064 7.772 7.772 0 0 0-7.78-7.879z" class="cls-2" transform="translate(-155.31 -156.197)"/>
        <path id="Path_1229" d="M482.729 456.1a2.684 2.684 0 1 1-2.682 2.642 2.638 2.638 0 0 1 2.682-2.642z" class="cls-2" transform="translate(-215.27 -215.883)"/>
    </g>
</svg>
