<svg xmlns="http://www.w3.org/2000/svg" width="83.509" height="90" viewBox="0 0 83.509 90">
    <defs>
        <style>
            .cls-1{fill:#005766}.cls-2{fill:#008eb0}
        </style>
    </defs>
    <g id="Group_71" transform="translate(470.672 -302.31)">
        <path id="Path_1257" d="M-346.791 302.31l-10.082 19.63-4.287 8.345c-.142.277-.312.539-.573.985-.247-.416-.432-.693-.583-.986q-4.361-8.486-8.716-16.976-2.824-5.5-5.655-11z" class="cls-1" transform="translate(-67.173 0)"/>
        <path id="Path_1259" d="M-460.569 376.345l20.72 20.725c-.324.819-.709 1.77-1.076 2.727a.679.679 0 0 1-.707.52c-.284-.009-.569 0-.853 0h-27.869a12.992 12.992 0 0 1 .007-1.432 42.123 42.123 0 0 1 8.507-21.079c.368-.479.762-.938 1.154-1.4.062-.067.179-.095.117-.061z" class="cls-2" transform="translate(-0.214 -52.904)"/>
        <path id="Path_1260" d="M-264.347 376.407a41.733 41.733 0 0 1 9.785 23.852 10.152 10.152 0 0 1-1.022.112q-13.707.008-27.413 0c-.889 0-.873-.023-1.2-.874-.318-.826-.674-1.639-.947-2.3z" class="cls-2" transform="translate(-132.601 -52.959)"/>
        <path id="Path_1261" d="M-470.672 482.492c.557-.031.9-.067 1.25-.067h27c.869 0 1.107-.249 1.481 1.067a17.176 17.176 0 0 0 .875 2.1l-20.791 20.778a41.78 41.78 0 0 1-9.815-23.878z" class="cls-2" transform="translate(0 -128.719)"/>
        <path id="Path_1262" d="M-285.446 486.012l1.374-3.288h29.187a12.269 12.269 0 0 1-.008 1.461 42.574 42.574 0 0 1-4.849 15.353 42.528 42.528 0 0 1-4.535 6.7 2.758 2.758 0 0 0-.28.512c-.923-.534-20.206-19.75-20.889-20.738z" class="cls-2" transform="translate(-132.385 -128.945)"/>
        <path id="Path_1263" d="M-313.27 540.755v-1.14-26.685c0-.214.013-.428 0-.64a.726.726 0 0 1 .549-.8c.8-.3 1.593-.607 2.365-.965a.722.722 0 0 1 .949.165c.146.155.3.3.454.452q9.473 9.472 18.945 18.946c.272.272.525.564.889.958a40.884 40.884 0 0 1-14.238 8.037c-4.057 1.331-8.688 2.117-9.913 1.672z" class="cls-2" transform="translate(-112.497 -148.742)"/>
        <path id="Path_1264" d="M-395.787 541.04a42.091 42.091 0 0 1-24.051-9.952 9.99 9.99 0 0 1 .632-.781q9.692-9.7 19.394-19.4c.638-.637.641-.612 1.456-.246a13.464 13.464 0 0 0 1.88.744.887.887 0 0 1 .753 1.079 4.086 4.086 0 0 0 0 .427V539.7c-.004.384-.037.765-.064 1.34z" class="cls-2" transform="translate(-36.332 -148.73)"/>
        <path id="Path_1265" d="M-419.29 343.195a40.972 40.972 0 0 1 10.4-6.482c.27.436.549.83.772 1.255q3.75 7.121 7.487 14.249 2.453 4.672 4.908 9.343c.159.3.29.624.48 1.036l-3.252 1.385z" class="cls-2" transform="translate(-36.724 -24.588)"/>
        <path id="Path_1266" d="M-309.723 364.086l-3.3-1.4c.141-.907 12.171-24.008 13.513-25.943a40.217 40.217 0 0 1 10.365 6.455 2 2 0 0 1 .045.249.173.173 0 0 1-.026.1 7.885 7.885 0 0 1-.539.652q-9.884 9.876-19.778 19.742a.988.988 0 0 1-.28.145z" class="cls-2" transform="translate(-112.671 -24.614)"/>
        <path id="Path_1267" d="M-347.018 455.037a6.355 6.355 0 0 1 6.485-6.509 6.519 6.519 0 0 1 6.51 6.525 6.708 6.708 0 0 1-6.526 6.522 6.558 6.558 0 0 1-6.469-6.538z" class="cls-1" transform="translate(-88.37 -104.505)"/>
    </g>
</svg>
