<svg xmlns="http://www.w3.org/2000/svg" width="90" height="90.648" viewBox="0 0 90 90.648">
    <defs>
        <style>
            .cls-1{fill:#008eb0}.cls-2{fill:#005766}
        </style>
    </defs>
    <g id="Group_64" transform="translate(-388.132 -408)">
        <path id="Path_1221" d="M446.54 408a9.7 9.7 0 0 1 1.375.769 3.774 3.774 0 0 1 1.5 3.147q-.022 10.437-.007 20.87V443.4c-2.042.051-3.971.025-6.013.015-.026-.354-.069-.664-.069-.974q-.006-3.534 0-7.075V414.1H400.19v19.747c0 1.218 0 1.222-1.233 1.222-1.532 0-3.063.007-4.6 0-.835 0-.915-.084-.915-.908-.007-7.224-.029-14.445.011-21.669a4.241 4.241 0 0 1 2.957-4.358 1.093 1.093 0 0 0 .223-.135z" class="cls-1" transform="translate(14.025 0)"/>
        <path id="Path_1222" d="M392.294 425.561c-.15-1.4-.317-2.713-.427-4.026-.215-2.571 2.545-5.036 4.912-5.011 6.808.077 13.621.047 20.433.011a6.96 6.96 0 0 1 5.579 2.742c1.689 2 3.37 4.008 5.073 6a1.282 1.282 0 0 0 .675.317 3.022 3.022 0 0 0 .7.015q14.994 0 29.987.011a5.885 5.885 0 0 1 1.9.292c1.842.627 2.571 2.093 2.812 3.913.252 1.893.554 3.778.828 5.667.263 1.8.514 3.607.773 5.408.255 1.743.518 3.486.773 5.229.274 1.86.543 3.72.821 5.579.266 1.772.54 3.545.8 5.317.266 1.8.525 3.6.788 5.4q.388 2.664.784 5.321c.2 1.306.474 2.6.587 3.92a4.023 4.023 0 0 1-3.913 4.416H400.2a5.971 5.971 0 0 1-2.181-.241 5.18 5.18 0 0 1-3.486-4.292c-.372-2.348-.715-4.7-1.083-7.057-.321-2.06-.675-4.113-.992-6.178-.39-2.524-.744-5.054-1.131-7.582-.314-2.06-.667-4.117-.988-6.178s-.62-4.125-.937-6.189c-.394-2.553-.824-5.1-1.189-7.662a4.011 4.011 0 0 1 1.966-4.54 4.239 4.239 0 0 1 1.065-.4c.335-.085.685-.133 1.05-.202z" class="cls-2" transform="translate(0 22.561)"/>
        <path id="Path_1223" d="M415.165 458.036c-1.951-13.482-4.263-26.909-5.343-40.61a5.981 5.981 0 0 1 .748-.095c1.889-.007 3.778-.036 5.663.007a4.593 4.593 0 0 1 3.052.948 4.243 4.243 0 0 1 1.364 4.161q-.5 3.485-1.025 6.973c-.266 1.772-.551 3.541-.813 5.317-.266 1.8-.51 3.607-.777 5.408-.259 1.772-.532 3.545-.8 5.317s-.521 3.545-.78 5.321c-.266 1.8-.521 3.6-.788 5.4-.091.609-.2 1.214-.3 1.82z" class="cls-2" transform="translate(57.409 24.653)"/>
        <path id="Path_1224" d="M412.395 411.445h12.107a3.269 3.269 0 0 1 3.4 2.746 3.3 3.3 0 0 1-3.176 4c-.233.018-.47.007-.707.007q-11.619 0-23.244-.007a6.386 6.386 0 0 1-1.393-.142 3.262 3.262 0 0 1-2.487-3.65 3.366 3.366 0 0 1 3.045-2.943c.263-.018.529-.007.8-.007z" class="cls-1" transform="translate(23.128 9.107)"/>
        <path id="Path_1225" d="M396.889 417.382c.572-1.864 1.564-2.633 3.355-2.633 8.074 0 16.148.007 24.222-.015a3.239 3.239 0 0 1 3.173 1.962 3.271 3.271 0 0 1-2.9 4.657c-7.071.015-14.142 0-21.213.015a1.4 1.4 0 0 1-1.174-.47 10.926 10.926 0 0 0-5.127-3.3 1.666 1.666 0 0 1-.336-.216z" class="cls-1" transform="translate(23.178 17.823)"/>
    </g>
</svg>
