<svg xmlns="http://www.w3.org/2000/svg" width="90" height="90.104" viewBox="0 0 90 90.104">
    <defs>
        <style>
            .cls-1{fill:#008eb0}.cls-2{fill:#005766}
        </style>
    </defs>
    <g id="Group_66" transform="translate(-145.361 -170.622)">
        <path id="Path_1230" d="M334.551 345.882a13.121 13.121 0 0 0 1.266-.456 4.457 4.457 0 0 0 2.556-4.15c.034-.842 0-1.686.009-2.529a1.715 1.715 0 0 0-1.01-1.653c-1.875-.993-3.731-2.024-5.621-2.987a1.452 1.452 0 0 1-.889-1.448c-.252-6.33 1.871-11.948 5.1-17.236a27.634 27.634 0 0 1 5.34-6.478 2.12 2.12 0 0 1 1.525-.534q6.135.024 12.271 0a2.015 2.015 0 0 1 1.44.51 28.614 28.614 0 0 1 5.648 6.947 33.663 33.663 0 0 1 4.492 11.63 18.02 18.02 0 0 1 .284 2.786c.04 2.341.1 4.687 0 7.024a12.128 12.128 0 0 1-6.444 10.7 7.441 7.441 0 0 1-3.665 1c-5.246 0-10.491.035-15.736-.018a8.988 8.988 0 0 1-6.079-2.542 6.593 6.593 0 0 1-.487-.566zm12.911-31.428a10.581 10.581 0 0 1-1.046.205 7.347 7.347 0 0 0-6.281 8.484 7.24 7.24 0 0 0 6.127 6.089c1.418.173 2.863.135 4.3.176a4.552 4.552 0 0 1-.13 9.1c-2.624.011-5.247 0-7.871 0h-1v2.914h5.93v2.911a17.043 17.043 0 0 0 2.945.007v-2.87a10 10 0 0 1 1.016-.2 7.349 7.349 0 0 0 6.281-8.484 7.253 7.253 0 0 0-6.133-6.086c-1.294-.162-2.614-.115-3.921-.177a6.75 6.75 0 0 1-1.389-.137 4.549 4.549 0 0 1 1.144-8.961c2.624-.013 5.247 0 7.871 0h1v-2.888h-5.93v-2.947a16.956 16.956 0 0 0-2.915-.009z" class="cls-1" transform="translate(-139.044 -103.292)"/>
        <path id="Path_1231" d="M253.037 423.284c-6.869 0-13.738-.012-20.607.016a3.222 3.222 0 0 1-2.2-.773q-6.142-4.988-12.354-9.889a1.609 1.609 0 0 1-.7-1.411q.033-8.8 0-17.609a1.243 1.243 0 0 1 .839-1.35q5.193-2.257 10.351-4.595a1.68 1.68 0 0 1 1.654.079c6.269 3.365 12.558 6.691 18.828 10.052 1.768.948 1.39.482 1.435 2.4a5.84 5.84 0 0 1-.01.655 1.485 1.485 0 0 1-1.458 1.423c-.28.021-.562.009-.843.009h-17.89a4.477 4.477 0 0 0-1.114.082 1.356 1.356 0 0 0-.642 2.387c.773.723 1.632 1.356 2.46 2.019 4 3.2 8 6.386 11.984 9.6a3.455 3.455 0 0 0 2.314.8c9.616-.02 19.233 0 28.85-.023a3.092 3.092 0 0 1 3.046 1.759 3.027 3.027 0 0 1-2.586 4.345c-1.716.049-3.434.013-5.151.013z" class="cls-2" transform="translate(-53.835 -162.574)"/>
        <path id="Path_1232" d="M244.258 187.169a16.558 16.558 0 1 1-16.66-16.548 16.612 16.612 0 0 1 16.66 16.548zm-17.987-7.531c-.29.1-.464.17-.642.223a2.921 2.921 0 0 0-2.344 2.882c-.043.965-.045 1.936 0 2.9a2.82 2.82 0 0 0 1.732 2.669 5.04 5.04 0 0 0 1.634.31c.829.05 1.664.013 2.6.013a23.331 23.331 0 0 1-.055 3.149h-5.852v2.885h2.934v2.908h2.875v-2.822c.288-.1.486-.185.691-.246a2.906 2.906 0 0 0 2.3-2.824 27.774 27.774 0 0 0 0-2.994 2.982 2.982 0 0 0-3.037-2.936c-.716-.03-1.435 0-2.153-.013a6.351 6.351 0 0 1-.715-.091v-3.02h5.861v-2.918h-2.984v-2.89h-2.848z" class="cls-2" transform="translate(-49.312)"/>
        <path id="Path_1233" d="M145.364 401.314V388.67c0-.25-.006-.5 0-.749a1.548 1.548 0 0 1 2.078-1.586c2.205.676 4.381 1.447 6.572 2.172a.574.574 0 0 1 .451.62c-.006.187 0 .375 0 .562v23.227c0 1.041 0 1.042-.977 1.368-1.833.614-3.665 1.23-5.5 1.834a3.964 3.964 0 0 1-1 .221 1.476 1.476 0 0 1-1.618-1.444c-.022-.279-.01-.562-.01-.842l.004-12.739z" class="cls-2" transform="translate(0 -161.641)"/>
        <path id="Path_1234" d="M369.258 236.978c.972.116 1.831.2 2.685.324 1.818.262 3.629.576 5.451.794a3.3 3.3 0 0 0 1.44-.273c2.518-.92 5.023-1.874 7.534-2.812.277-.1.565-.176.985-.306-.084.386-.116.622-.187.846q-1.239 3.923-2.49 7.841c-.283.886-.293.889-1.242.889h-11.326c-.968 0-.97-.005-1.234-.983q-.741-2.752-1.473-5.507c-.059-.224-.082-.459-.143-.813z" class="cls-1" transform="translate(-167.842 -48.04)"/>
        <path id="Path_1235" d="M196.25 422.529h-2.841c-.233-.655-.3-22.736-.065-23.973h2.906z" class="cls-2" transform="translate(-35.86 -170.869)"/>
        <path id="Path_1236" d="M376.1 284.491c2.436 0 4.872-.011 7.308.005a1.55 1.55 0 0 1 .232 3.09c-.248.023-.5.012-.749.012h-13.77c-.219 0-.438.009-.656-.006a1.5 1.5 0 0 1-1.5-1.573 1.47 1.47 0 0 1 1.549-1.519c2.529-.022 5.059-.007 7.589-.007z" class="cls-1" transform="translate(-166.123 -85.358)"/>
        <path id="Path_1237" d="M475.076 180.024h-3.1v-2.955h-2.966v-3.1h2.906v-2.914h3.1v2.922h2.966v3.066h-2.906z" class="cls-1" transform="translate(-242.621 -0.323)"/>
        <path id="Path_1238" d="M382.17 183.012h-2.913v-3.067h2.919v-2.967h3.066v2.9h2.95v3.1h-2.919v2.967h-3.1v-2.935z" class="cls-1" transform="translate(-175.338 -4.766)"/>
        <path id="Path_1239" d="M463.1 242.887v2.935H460v-2.916h-2.918v-3.065c.448-.021.9-.05 1.355-.06s.933 0 1.544 0v-2.934h3.128v2.916h2.918v3.065c-.448.021-.9.05-1.355.06s-.929-.001-1.572-.001z" class="cls-1" transform="translate(-233.682 -49.643)"/>
    </g>
</svg>
