<svg xmlns="http://www.w3.org/2000/svg" width="79.347" height="90" viewBox="0 0 79.347 90">
    <defs>
        <style>
            .cls-1{fill:#005766}
        </style>
    </defs>
    <g id="Group_70" transform="translate(-1017.85 -233.277)">
        <path id="Path_1254" d="M1039.789 233.277a3.024 3.024 0 0 1 1.958 3.191c-.03 1.228-.006 2.458-.006 3.687v.98h1.1c5.443 0 10.887-.046 16.329.022a18.149 18.149 0 0 1 10.954 3.661 15.836 15.836 0 0 1 6.357 10.533 13.93 13.93 0 0 1-.664 6.817 2.6 2.6 0 0 1-2.476 1.888 2.522 2.522 0 0 1-2.66-1.739 13.72 13.72 0 0 0-2.824-4.6 12.515 12.515 0 0 0-6.751-3.828 19.592 19.592 0 0 0-3.653-.352c-4.887-.038-9.774-.016-14.661-.016h-1c-.02.374-.047.658-.048.942 0 1.375.014 2.751-.008 4.126a2.72 2.72 0 0 1-1.937 2.726 2.851 2.851 0 0 1-2.361-.326c-2.532-1.519-5.058-3.049-7.589-4.57q-3.985-2.394-7.976-4.78c-.9-.541-1.8-1.1-2.7-1.633a2.711 2.711 0 0 1-.071-4.61c2.569-1.629 5.121-3.283 7.684-4.921q3.771-2.41 7.549-4.806c1.283-.811 2.583-1.6 3.876-2.394z" class="cls-1" transform="translate(0 0)"/>
        <path id="Path_1255" fill="#008eb0" d="M1034.114 311.778c.974.579 1.953 1.155 2.927 1.74q3.2 1.92 6.39 3.847a7.564 7.564 0 0 0 4.072 1.2 7.819 7.819 0 0 0 6.3-3.111 7.546 7.546 0 0 0 1.569-4.209c.01-.141.047-.281.083-.491.266-.025.518-.069.77-.07 3.659 0 7.319-.053 10.977.016a7.519 7.519 0 0 1 6.56 3.889 12.953 12.953 0 0 1 .79 1.663 7.388 7.388 0 0 0 6.354 4.827 7.475 7.475 0 0 0 7.678-3.819 12.253 12.253 0 0 0 1.358-4.146 19.992 19.992 0 0 0-1.094-11.183c-.074-.191-.147-.382-.208-.577-.014-.045.022-.106.035-.159 5.3 3.643 11.294 11.422 13.441 21.019 2.3 10.283-.27 20.3-4.129 26.348-.572-.323-1.157-.637-1.725-.978q-3.687-2.212-7.365-4.439a7.762 7.762 0 0 0-4.232-1.261 7.851 7.851 0 0 0-6.182 3.008 7.374 7.374 0 0 0-1.642 4.358 4.355 4.355 0 0 1-.077.443c-.266.024-.544.07-.821.07-3.63 0-7.26.052-10.889-.016a7.54 7.54 0 0 1-6.709-4.086c-.29-.5-.482-1.064-.724-1.6a7.856 7.856 0 0 0-14.014-.838 12.542 12.542 0 0 0-1.355 4.238 19.888 19.888 0 0 0 1.17 11.174c.1.263.188.534.3.866-5.148-3.4-11.533-11.215-13.784-21.16-2.294-10.158.195-20.375 4.176-26.563zM1063.5 341.9c0 .6-.014 1.12 0 1.642a2.523 2.523 0 0 0 5.041-.026c.009-.439.029-.879 0-1.316a.84.84 0 0 1 .6-.933 7.142 7.142 0 0 0 2.96-2.4 7.335 7.335 0 0 0 .36-8.384 7.416 7.416 0 0 0-3.632-2.775c-1.363-.518-2.706-1.1-4.016-1.742a1.214 1.214 0 0 1-.29-2.038 1.928 1.928 0 0 1 1.334-.575 3.364 3.364 0 0 1 2.5.837 2.565 2.565 0 0 0 3.55-.3 2.709 2.709 0 0 0-.41-3.692c-.475-.337-.946-.683-1.445-.98-.448-.267-1.118-.358-1.351-.736-.255-.414-.126-1.067-.157-1.616a2.526 2.526 0 0 0-5.041.015c-.018.38-.022.761 0 1.141a.831.831 0 0 1-.559.866 8.953 8.953 0 0 0-1.884 1.258 6.34 6.34 0 0 0-1.994 4.084 5.614 5.614 0 0 0 2.184 5.488 15.145 15.145 0 0 0 3.855 2.055c.789.308 1.581.611 2.361.939a1.657 1.657 0 0 1 1.036 1.511 2.639 2.639 0 0 1-2.208 2.667 5.049 5.049 0 0 1-3.544-.667 4.316 4.316 0 0 0-.694-.374 2.536 2.536 0 0 0-2.37 4.476 9.763 9.763 0 0 0 3.814 1.575z" transform="translate(-8.582 -51.983)"/>
        <path id="Path_1256" d="M1140.371 495.778v-.987c0-1.346-.019-2.692.005-4.038a2.752 2.752 0 0 1 4.323-2.429q8.805 5.269 17.6 10.558a3.436 3.436 0 0 1 1.857 1.992 2.715 2.715 0 0 1-.957 2.883c-.668.472-1.371.894-2.061 1.335q-5.91 3.785-11.822 7.567c-1.577 1.008-3.151 2.02-4.747 3a2.694 2.694 0 0 1-3.2-.192 2.783 2.783 0 0 1-1-2.248c-.023-1.316-.006-2.633-.007-3.95V508.2c-.393-.013-.731-.034-1.07-.034-5.5 0-11 .052-16.5-.029a18.094 18.094 0 0 1-10.713-3.584 15.827 15.827 0 0 1-6.453-10.567 13.792 13.792 0 0 1 .674-6.9 2.711 2.711 0 0 1 5.17.017 12.955 12.955 0 0 0 2.992 4.7 12.34 12.34 0 0 0 8.138 3.827c1.631.107 3.269.135 4.9.143 3.921.02 7.841.006 11.762.006z" class="cls-1" transform="translate(-67.053 -192.813)"/>
    </g>
</svg>
