<svg xmlns="http://www.w3.org/2000/svg" width="102.339" height="90" viewBox="0 0 102.339 90">
    <defs>
        <style>
            .cls-1{fill:#008eb0}.cls-2{fill:#005766}
        </style>
    </defs>
    <g id="Group_58" transform="translate(-337.838 -75.933)">
        <path id="Path_1203" d="M556.33 94.1c-2.457-.1-4.92-.129-7.369-.329a57.912 57.912 0 0 1-12.061-2.005 15.059 15.059 0 0 1-5.037-2.343 10.932 10.932 0 0 1-1.8-1.705 4.6 4.6 0 0 1 .264-5.792A11.313 11.313 0 0 1 534.675 79a39.646 39.646 0 0 1 8.185-2.078 91.954 91.954 0 0 1 17.99-.911 72.528 72.528 0 0 1 8.812.869 48.015 48.015 0 0 1 6.033 1.281 15.544 15.544 0 0 1 5.23 2.391 10.6 10.6 0 0 1 1.8 1.7 4.6 4.6 0 0 1-.264 5.792 11.568 11.568 0 0 1-4.537 2.989 37.6 37.6 0 0 1-8.1 2.017 90.583 90.583 0 0 1-13.494 1.05z" class="cls-1" transform="translate(-143.467)"/>
        <path id="Path_1204" d="M529.346 138.6a6.728 6.728 0 0 0 3.646 4.281 23.712 23.712 0 0 0 7.035 2.437 62.633 62.633 0 0 0 9.466 1.24c1.493.068 2.986.139 4.479.2 1.095.049 2.193.172 3.283.12 2.884-.138 5.764-.35 8.646-.539a49.587 49.587 0 0 0 8.732-1.428 17.619 17.619 0 0 0 6.623-2.9 6.358 6.358 0 0 0 2.376-3.406c.019.4.053.8.054 1.2 0 3.194-.08 6.39.03 9.58a5.57 5.57 0 0 1-2.621 4.953 18.342 18.342 0 0 1-7.15 2.916c-2.528.537-5.087.969-7.654 1.266a91.046 91.046 0 0 1-12.545.451 83.688 83.688 0 0 1-10.605-.937 43.85 43.85 0 0 1-6.033-1.276 15.667 15.667 0 0 1-5.221-2.411 11.1 11.1 0 0 1-1.787-1.724 3.73 3.73 0 0 1-.836-2.405V139.44c.002-.278.054-.562.082-.84z" class="cls-1" transform="translate(-143.545 -46.989)"/>
        <path id="Path_1205" d="M529.232 210.469a7.118 7.118 0 0 0 3.669 4.212 25.66 25.66 0 0 0 8.106 2.668 62.794 62.794 0 0 0 8.492 1.043c1.36.062 2.721.133 4.081.2 1 .049 1.994.177 2.985.131 3.051-.142 6.1-.349 9.148-.536a51.519 51.519 0 0 0 8.934-1.445 20.136 20.136 0 0 0 5.292-2.033 6.922 6.922 0 0 0 3.661-4.284c.018.425.053.85.054 1.275 0 3.161-.085 6.326.032 9.483a5.622 5.622 0 0 1-2.67 5.03 18.747 18.747 0 0 1-6.675 2.787 67.011 67.011 0 0 1-9.237 1.446 98.256 98.256 0 0 1-10.359.373 66.78 66.78 0 0 1-8.745-.579c-1.84-.246-3.669-.584-5.514-.79a1.576 1.576 0 0 1-1.476-1.217 29.891 29.891 0 0 0-3.271-6.485 32.619 32.619 0 0 0-5.954-6.815 1.476 1.476 0 0 1-.531-.887c-.054-1.189-.022-2.384-.022-3.577z" class="cls-1" transform="translate(-143.513 -100.852)"/>
        <path id="Path_1206" d="M592.556 354.171c.019.417.054.835.055 1.252 0 3.162-.084 6.326.031 9.483A5.665 5.665 0 0 1 589.9 370a18.925 18.925 0 0 1-6.59 2.741 66.856 66.856 0 0 1-9.137 1.441 93.409 93.409 0 0 1-12.155.347 59.941 59.941 0 0 1-9.905-.926c-2.214-.424-4.425-.888-6.6-1.46a12.7 12.7 0 0 1-4.346-1.994c.278-.369.5-.724.783-1.032a30.2 30.2 0 0 0 5.151-7.907c.081-.179.191-.345.335-.6.607.115 1.215.252 1.829.343 2.2.326 4.39.719 6.6.931q4.262.409 8.547.56c1.789.065 3.587-.075 5.38-.142a68.055 68.055 0 0 0 13.8-1.816 18.628 18.628 0 0 0 6.138-2.557 6.45 6.45 0 0 0 2.826-3.758z" class="cls-1" transform="translate(-152.471 -208.644)"/>
        <path id="Path_1207" d="M573.391 301.232a32.947 32.947 0 0 0 .562-11.94c1.118.152 2.087.294 3.058.414 1.48.184 2.958.407 4.444.517 2.317.172 4.639.323 6.96.371 1.857.038 3.719-.077 5.578-.148a68.564 68.564 0 0 0 13.694-1.8 21.112 21.112 0 0 0 5.121-1.916 7.364 7.364 0 0 0 3.97-4.41v1.28c0 3.16-.088 6.323.03 9.478a5.619 5.619 0 0 1-2.671 5.026 18.749 18.749 0 0 1-6.672 2.79 67.79 67.79 0 0 1-9.232 1.445 94.3 94.3 0 0 1-12.349.331c-2.252-.057-4.5-.314-6.744-.539-1.583-.159-3.156-.411-4.731-.636a10.078 10.078 0 0 1-1.018-.263z" class="cls-1" transform="translate(-176.635 -154.765)"/>
        <g id="Group_57" transform="translate(337.838 111.841)">
            <path id="Path_1208" d="M362.641 219.494h4.433a1.437 1.437 0 0 0 .252.066 23.825 23.825 0 0 1 4.2.72 27.254 27.254 0 0 1 20.352 24.53 25.559 25.559 0 0 1-.372 6.458 27.185 27.185 0 0 1-29.034 22.21 25.335 25.335 0 0 1-5.873-1.185 26.953 26.953 0 0 1-13.415-9.615 26.3 26.3 0 0 1-5.07-12.018c-.1-.641-.183-1.283-.274-1.925V244.3a2.193 2.193 0 0 0 .068-.305 24.055 24.055 0 0 1 .7-4.094 26.914 26.914 0 0 1 10.057-15.037 26.225 26.225 0 0 1 12.051-5.1c.642-.094 1.284-.179 1.925-.27zm2.194 47.57a20.536 20.536 0 1 0-20.5-20.6 20.524 20.524 0 0 0 20.5 20.6z" class="cls-2" transform="translate(-337.838 -219.494)"/>
            <path id="Path_1209" d="M410.951 275.152A17.458 17.458 0 1 1 393.5 257.7a17.5 17.5 0 0 1 17.451 17.452zm-22.2-6.544c-.189.046-.324.091-.462.111-1.789.26-3.579.516-5.368.776a17.116 17.116 0 0 0-1.869.3 1.49 1.49 0 0 0-.756 2.436 5.285 5.285 0 0 0 .4.415q2.379 2.321 4.76 4.641a.74.74 0 0 1 .32.72c-.339 1.866-.657 3.735-.972 5.605a16.24 16.24 0 0 0-.25 1.824 1.422 1.422 0 0 0 1.04 1.423 1.671 1.671 0 0 0 1.408-.225c2.008-1.054 4.018-2.1 6.019-3.171a.867.867 0 0 1 .928-.009c.845.469 1.707.908 2.563 1.357q1.774.932 3.55 1.861a1.557 1.557 0 0 0 2.339-1.8c-.347-2.007-.627-4.029-1.06-6.017a1.928 1.928 0 0 1 .691-2.089c1.543-1.412 3.014-2.9 4.507-4.37a1.471 1.471 0 0 0 .455-1.58 1.508 1.508 0 0 0-1.293-1.1c-1.735-.266-3.474-.507-5.212-.76-.745-.108-1.49-.221-2.257-.335-.3-.6-.59-1.182-.877-1.764q-1.191-2.411-2.378-4.824a1.6 1.6 0 0 0-2.944-.063c-.967 2.012-1.969 4.007-2.958 6.009-.093.215-.205.413-.32.629z" class="cls-2" transform="translate(-366.482 -248.141)"/>
            <path id="Path_1210" d="M411.492 297.253c.708-.109 1.416-.22 2.125-.327.937-.141 1.873-.293 2.814-.413a1.678 1.678 0 0 0 1.364-1.025q.95-1.942 1.909-3.88c.09-.182.191-.358.344-.641.148.264.246.421.327.587.624 1.26 1.259 2.515 1.859 3.787a1.891 1.891 0 0 0 1.589 1.2c1.359.164 2.711.385 4.065.585.241.036.48.086.831.15-.168.2-.274.342-.4.465q-1.583 1.55-3.176 3.091a1.687 1.687 0 0 0-.588 1.143 4.622 4.622 0 0 0 .116.937c.237 1.42.479 2.84.718 4.26.011.066.007.134.014.286a4.557 4.557 0 0 1-.455-.174q-1.8-.939-3.6-1.886c-.109-.057-.219-.113-.324-.177a1.809 1.809 0 0 0-1.941-.008c-1.264.692-2.547 1.35-3.824 2.018-.16.084-.331.148-.6.266.126-.775.23-1.428.339-2.08.165-.987.318-1.977.507-2.959a1.674 1.674 0 0 0-.539-1.618q-1.571-1.525-3.137-3.056c-.135-.131-.259-.272-.389-.408z" class="cls-2" transform="translate(-393.034 -273.09)"/>
        </g>
    </g>
</svg>
