<svg xmlns="http://www.w3.org/2000/svg" width="103.252" height="90" viewBox="0 0 103.252 90">
    <defs>
        <style>
            .cls-1{fill:#005766}
        </style>
    </defs>
    <g id="Group_61" transform="translate(-1023.967 -707.609)">
        <path id="Path_1211" d="M1127.219 1033.832a2.908 2.908 0 0 1-2.939 1.633q-48.7-.037-97.4-.012a2.657 2.657 0 0 1-2.56-1.054 2.433 2.433 0 0 1 .18-2.738q5.455-9.411 10.879-18.841c.386-.669.8-1.326 1.148-2.012a2.79 2.79 0 0 1 2.767-1.606q16.637.042 33.274.016c13.041 0 26.082.016 39.122-.022a3.155 3.155 0 0 1 3.071 1.791c3.892 6.825 7.841 13.616 11.771 20.419.233.4.46.81.691 1.215z" class="cls-1" transform="translate(0 -237.856)"/>
        <path id="Path_1212" fill="#008eb0" d="M1147.277 888.377c-9.845 0-19.69.013-29.535-.026a3.976 3.976 0 0 1-2.138-.629c-.942-.654-.951-1.812-.22-3.083q3.992-6.939 8-13.87c.855-1.483 1.719-2.961 2.561-4.451a2.519 2.519 0 0 1 2.374-1.394q18.951.016 37.9 0a2.529 2.529 0 0 1 2.377 1.386c3.532 6.138 7.086 12.264 10.611 18.407 1.122 1.955.093 3.655-2.194 3.657q-14.867.012-29.736.003z" transform="translate(-71.688 -124.071)"/>
        <path id="Path_1213" d="M1213.164 733.806h-11.893c-2.614-.005-3.586-1.666-2.291-3.913q5.959-10.336 11.93-20.666c1.244-2.153 3.259-2.156 4.5-.007q5.968 10.331 11.925 20.669c1.3 2.257.338 3.911-2.278 3.917q-5.947.01-11.893 0z" class="cls-1" transform="translate(-137.579 0)"/>
    </g>
</svg>
