<svg xmlns="http://www.w3.org/2000/svg" width="89.882" height="90" viewBox="0 0 89.882 90">
    <defs>
        <style>
            .cls-1{fill:#005766}.cls-2{fill:#008eb0}
        </style>
    </defs>
    <g id="Group_55" transform="translate(-208 -228)">
        <path id="Path_1184" d="M208 322.355c.1-.717.217-1.433.312-2.152a44.794 44.794 0 0 1 8.366-20.574c.465-.634.963-1.244 1.461-1.885l10.039 3.949a74.362 74.362 0 0 0-4.048 23.016 3.167 3.167 0 0 1-.623.138q-7.667.006-15.334-.005a1.159 1.159 0 0 1-.173-.026z" class="cls-1" transform="translate(0 -53.398)"/>
        <path id="Path_1185" d="M208 426.624c.262-.013.524-.037.786-.037h14.283c.313 0 .626.029 1.055.049a74.4 74.4 0 0 0 4.087 23.171c-1.714.625-3.386 1.2-5.03 1.845s-3.277 1.371-5.02 2.106c-.791-1.063-1.6-2.089-2.345-3.163a44.731 44.731 0 0 1-7.262-17.713c-.2-1.089-.277-2.2-.42-3.3a3.75 3.75 0 0 0-.133-.5z" class="cls-1" transform="translate(0 -152.042)"/>
        <path id="Path_1186" d="M407.124 228c1.191.379 2.4.7 3.568 1.148a18.234 18.234 0 0 1 5.842 3.8 32.235 32.235 0 0 1 6.654 8.749c.747 1.416 1.451 2.855 2.232 4.4a9.184 9.184 0 0 1-.984.357c-1.677.384-3.364.724-5.033 1.138a2.074 2.074 0 0 1-1.585-.229 24.37 24.37 0 0 0-6.214-2.325c-1.36-.306-2.755-.456-4.134-.678-.372-.06-.742-.13-1.163-.2a5.493 5.493 0 0 1-.093-.7q-.006-7.549 0-15.1c0-.116.021-.233.032-.349z" class="cls-1" transform="translate(-151.756)"/>
        <path id="Path_1187" d="M330.513 228c.013.321.036.642.036.964V244.107a11.483 11.483 0 0 1-1.26.244 26.158 26.158 0 0 0-9.87 2.788 3.524 3.524 0 0 1-2.665.341c-1.436-.382-2.9-.672-4.345-1.011-.3-.071-.6-.185-.993-.308.289-.687.517-1.311.807-1.9a40.778 40.778 0 0 1 5.582-8.776 24.538 24.538 0 0 1 6.217-5.335 17.485 17.485 0 0 1 5.209-2 3.029 3.029 0 0 0 .4-.146z" class="cls-1" transform="translate(-79.179)"/>
        <path id="Path_1188" d="M329.408 547.8c-1.191-.379-2.4-.706-3.568-1.149a18.231 18.231 0 0 1-5.841-3.8 32.521 32.521 0 0 1-6.654-8.749c-.751-1.414-1.451-2.855-2.224-4.382a6.544 6.544 0 0 1 .809-.319c1.846-.428 3.691-.864 5.548-1.24a1.79 1.79 0 0 1 1.071.216 28.725 28.725 0 0 0 8.175 2.772c.716.126 1.443.186 2.164.285.43.059.859.133 1.337.208a5.567 5.567 0 0 1 .093.707q.006 7.548 0 15.1c0 .116-.021.233-.032.349z" class="cls-1" transform="translate(-78.952 -229.801)"/>
        <path id="Path_1189" d="M406.239 547.886c-.013-.321-.036-.642-.036-.964v-15.144a11.547 11.547 0 0 1 1.26-.244 26.363 26.363 0 0 0 10.031-2.86 3.016 3.016 0 0 1 2.248-.326c1.667.425 3.348.791 5.022 1.189a4.093 4.093 0 0 1 .552.231c-.247.589-.457 1.157-.718 1.7a40.509 40.509 0 0 1-5.594 8.87 24.61 24.61 0 0 1-6.274 5.4 17.96 17.96 0 0 1-5.122 1.983c-.167.038-.327.105-.49.159z" class="cls-1" transform="translate(-151.747 -229.886)"/>
        <path id="Path_1190" d="M315.48 309.683a25.839 25.839 0 1 1-25.822 25.78 25.785 25.785 0 0 1 25.822-25.78zm4.7 29.208h-1.02c-3.448 0-6.9-.013-10.344.008a4.473 4.473 0 0 0-4.379 3.7 26.721 26.721 0 0 0-.131 4.546 4.438 4.438 0 0 0 .627 1.978 4.552 4.552 0 0 0 4.2 2.392c3.36-.016 6.72-.005 10.081 0 .344 0 .688.029 1.043.045l.3.784a3.535 3.535 0 0 0 5.544 1.6c1.678-1.314 3.293-2.707 4.927-4.076.873-.731 1.753-1.457 2.584-2.234a3.558 3.558 0 0 0-.03-4.909c-.408-.331-.776-.709-1.178-1.048q-1.808-1.526-3.628-3.037c-.966-.8-1.9-1.658-2.923-2.372a3.49 3.49 0 0 0-4.864.99 15.448 15.448 0 0 0-.81 1.633zm-9.548-19.328c-.125-.314-.206-.5-.275-.691a3.5 3.5 0 0 0-3.615-2.481 4.142 4.142 0 0 0-2.627 1.249q-1.922 1.594-3.834 3.2c-1 .847-2.017 1.686-2.989 2.57a3.561 3.561 0 0 0 .02 4.972c.363.293.683.64 1.039.941.914.773 1.838 1.534 2.757 2.3l3.563 2.977a3.607 3.607 0 0 0 5.668-1.66c.081-.241.194-.472.312-.754h1.086c3.418 0 6.837-.037 10.255.013a4.666 4.666 0 0 0 4.447-3.755 31.507 31.507 0 0 0 .126-4.46 4.478 4.478 0 0 0-.6-1.987 4.586 4.586 0 0 0-4.257-2.44c-3.331.021-6.661.006-9.992.005z" class="cls-2" transform="translate(-62.519 -62.539)"/>
        <path id="Path_1191" d="M525.372 324.821H509.2a74.281 74.281 0 0 0-4.071-23.1l10.043-3.942a44.618 44.618 0 0 1 10.2 27.039z" class="cls-1" transform="translate(-227.489 -53.427)"/>
        <path id="Path_1192" d="M525.389 426.872a43.016 43.016 0 0 1-2.347 12.977 44.214 44.214 0 0 1-7.845 14.057l-10.036-3.943a74.5 74.5 0 0 0 4.049-23.09z" class="cls-1" transform="translate(-227.513 -152.261)"/>
        <path id="Path_1193" d="M455.222 235.916a41.065 41.065 0 0 1 7.478 3.008c4.261 2.143 9.93 6.46 11.8 8.936-.685.688-7.22 3.247-8.8 3.418-.139-.272-.315-.568-.447-.882a38.091 38.091 0 0 0-5.683-9.534c-1.183-1.442-2.534-2.746-3.809-4.112-.213-.228-.428-.453-.642-.679z" class="cls-1" transform="translate(-189.203 -6.061)"/>
        <path id="Path_1194" d="M270.2 251.723a70.113 70.113 0 0 1-8.831-3.38c1.978-3.711 15.214-11.9 19.5-12.007a45.359 45.359 0 0 0-6.25 7.084 44.326 44.326 0 0 0-4.419 8.303z" class="cls-1" transform="translate(-40.858 -6.382)"/>
        <path id="Path_1195" d="M465.73 538.583a43.438 43.438 0 0 1 8.725 3.292c-1.583 3.4-14.84 11.629-19.363 11.983 1.438-1.549 2.929-2.985 4.214-4.588a45.447 45.447 0 0 0 3.539-5.111c1.055-1.773 1.91-3.671 2.885-5.576z" class="cls-1" transform="translate(-189.18 -237.79)"/>
        <path id="Path_1196" d="M269.744 538.038a40.142 40.142 0 0 0 10.668 15.342c-1.481.078-7.108-2.381-10.642-4.56a43.381 43.381 0 0 1-9.021-7.341 67 67 0 0 1 8.995-3.441z" class="cls-1" transform="translate(-40.386 -237.373)"/>
        <path id="Path_1197" d="M303.885 495.5l-4.1 1.013a28.432 28.432 0 0 1-2.259-7.794 37.355 37.355 0 0 0 6.359 6.781z" class="cls-1" transform="translate(-68.543 -199.614)"/>
        <path id="Path_1198" d="M304 319.158a33.868 33.868 0 0 0-6.108 6.532c-.131-1.013 1.379-6.446 2.114-7.7l3.922.964z" class="cls-1" transform="translate(-68.819 -68.898)"/>
        <path id="Path_1199" d="M474.52 495.624a33.877 33.877 0 0 0 6.342-6.73 32.214 32.214 0 0 1-2.145 7.765z" class="cls-1" transform="translate(-204.054 -199.747)"/>
        <path id="Path_1200" d="M474.946 318.916l4.152-1.031a40.468 40.468 0 0 1 2.083 7.628c-.966-1.128-1.892-2.293-2.909-3.372s-2.12-2.063-3.326-3.225z" class="cls-1" transform="translate(-204.381 -68.818)"/>
        <path id="Path_1201" d="M381.744 433.465c2.517 2.022 5.051 4.15 7.638 6.374a6.065 6.065 0 0 1-.65.8c-1.692 1.437-3.4 2.858-5.1 4.282-.448.375-.894.752-1.356 1.11a6.944 6.944 0 0 1-.663.415.775.775 0 0 1-.609-.851c-.009-.322.009-.646-.021-.965a1.324 1.324 0 0 0-1.3-1.293c-.29-.028-.584-.016-.876-.016-3.769 0-7.538.005-11.307-.008a5.126 5.126 0 0 1-1.378-.179 1.455 1.455 0 0 1-1.1-1.429c-.04-1.14-.038-2.284 0-3.424a1.671 1.671 0 0 1 1.63-1.642 6.689 6.689 0 0 1 .788-.016h11.833c1.241-.019 1.7-.464 1.726-1.682.005-.234 0-.469.012-.7a.758.758 0 0 1 .733-.776z" class="cls-2" transform="translate(-120.202 -157.309)"/>
        <path id="Path_1202" d="M337.9 364.155c-2.526-2.073-5.084-4.173-7.636-6.4a4.183 4.183 0 0 1 .52-.7q3.49-2.931 7-5.837a.647.647 0 0 1 .184-.066c.459.029.629.338.654.759.021.35 0 .7.027 1.053a1.323 1.323 0 0 0 1.3 1.3c.29.028.584.016.876.016 3.771 0 7.541-.005 11.312.008a5.094 5.094 0 0 1 1.379.18 1.456 1.456 0 0 1 1.1 1.433q.059 1.711 0 3.426a1.673 1.673 0 0 1-1.637 1.637 6.842 6.842 0 0 1-.788.016h-11.4a8.637 8.637 0 0 0-.876.017 1.315 1.315 0 0 0-1.254 1.24c-.037.348-.005.7-.03 1.053-.041.495-.056.501-.731.865z" class="cls-2" transform="translate(-93.609 -94.288)"/>
    </g>
</svg>
